<?xml version="1.0" standalone="no"?>
<!DOCTYPE svg PUBLIC "-//W3C//DTD SVG 1.1//EN" "http://www.w3.org/Graphics/SVG/1.1/DTD/svg11.dtd" >
<svg xmlns="http://www.w3.org/2000/svg">
<metadata></metadata>
<defs>
<font id="zapfhumnst_btitalic" horiz-adv-x="1236" >
<font-face units-per-em="2048" ascent="1556" descent="-492" />
<missing-glyph horiz-adv-x="617" />
<glyph horiz-adv-x="2048" />
<glyph horiz-adv-x="2048" />
<glyph unicode="&#xd;" horiz-adv-x="617" />
<glyph unicode=" "  horiz-adv-x="617" />
<glyph unicode="&#x09;" horiz-adv-x="617" />
<glyph unicode="&#xa0;" horiz-adv-x="617" />
<glyph unicode="!" horiz-adv-x="730" d="M160 95q0 47 34 80.5t81 33.5t80.5 -33.5t33.5 -80.5q0 -49 -33 -82t-81 -33q-49 0 -82 32.5t-33 82.5zM293 392q30 290 65 656q5 56 7 78l22 239q12 119 37.5 161t80.5 42q43 0 69 -29t26 -77q0 -19 -5 -46.5t-19 -80.5l-54 -209q-71 -268 -125.5 -480.5t-63.5 -253.5 h-40z" />
<glyph unicode="&#x22;" horiz-adv-x="625" d="M108 969v608h111v-608h-111zM408 969v608h112v-608h-112z" />
<glyph unicode="#" horiz-adv-x="1732" d="M129 527l43 120h357l111 303h-388l38 118h390l190 531h140l-185 -531h290l190 531h139l-187 -531h347l-41 -118h-349l-107 -303h374l-41 -120h-374l-187 -527h-142l189 527h-296l-189 -527h-140l187 527h-359zM673 647h294l105 303h-292z" />
<glyph unicode="$" d="M86 77q21 37 37 73.5t28 75.5q67 -93 145 -138.5t175 -49.5l101 663q-156 66 -234 156.5t-78 206.5q0 183 120 302t321 130q9 54 13.5 94.5t5.5 69.5h95q-5 -24 -21 -96q-9 -43 -14 -68q102 -2 178.5 -21.5t122.5 -55.5q-17 -36 -28.5 -72.5t-18.5 -73.5 q-48 73 -116.5 111.5t-149.5 38.5l-95 -591q193 -86 266 -169.5t73 -207.5q0 -195 -133 -331.5t-343 -155.5q-14 -70 -22.5 -129.5t-13.5 -113.5q-2 0 -6 1q-29 3 -45 3t-40 -3q-4 -1 -5 -1q14 54 27 114t25 125q-124 2 -217.5 30t-152.5 83zM415 1126q0 -88 47.5 -153 t139.5 -101l88 549q-122 -11 -198.5 -93.5t-76.5 -201.5zM550 41q132 10 213.5 106.5t81.5 244.5q0 92 -48 158.5t-150 116.5z" />
<glyph unicode="%" horiz-adv-x="1773" d="M103 1084q0 181 108.5 298.5t274.5 117.5q146 0 229 -80.5t83 -223.5q0 -174 -115 -295t-281 -121q-137 0 -218 82.5t-81 221.5zM219 -209l1214 1883h110l-1216 -1883h-108zM262 1070q0 -110 39.5 -168.5t113.5 -58.5q97 0 162 105.5t65 268.5q0 110 -41.5 168.5 t-118.5 58.5q-94 0 -157 -105.5t-63 -268.5zM976 268q0 181 109 299t276 118q146 0 228.5 -80t82.5 -222q0 -175 -115 -296t-282 -121q-137 0 -218 82.5t-81 219.5zM1131 256q0 -110 39 -168t112 -58q96 0 161.5 105t65.5 269q0 110 -40.5 168t-116.5 58q-95 0 -158 -105 t-63 -269z" />
<glyph unicode="&#x26;" horiz-adv-x="1480" d="M73 344q0 156 114.5 286t343.5 230q-49 90 -74 169t-25 149q0 154 104.5 259.5t258.5 105.5q122 0 199.5 -67.5t77.5 -173.5q0 -114 -88 -217t-281 -213q79 -136 162.5 -262t170.5 -243q64 62 133.5 154t151.5 221q6 -8 29.5 -41.5t36.5 -54.5l-5 -7q-195 -233 -305 -328 q48 -75 184 -270l27 -41q-30 6 -56 8.5t-52 2.5q-24 0 -51 -2.5t-57 -8.5q-42 66 -70 108.5t-52 74.5q-122 -106 -247 -159.5t-252 -53.5q-169 0 -273.5 104t-104.5 270zM232 394q0 -136 88 -224.5t226 -88.5q91 0 185 41.5t181 120.5q-98 146 -185.5 285t-163.5 270 q-164 -76 -247.5 -178t-83.5 -226zM576 1239q0 -74 23.5 -147t71.5 -155q143 73 211 162t68 203q0 85 -42.5 130t-123.5 45q-95 0 -151.5 -63.5t-56.5 -174.5z" />
<glyph unicode="'" horiz-adv-x="324" d="M108 969v608h111v-608h-111z" />
<glyph unicode="(" horiz-adv-x="612" d="M86 482q0 336 158.5 616t467.5 488l45 -43q-254 -194 -392.5 -499.5t-138.5 -669.5q0 -177 42.5 -324.5t133.5 -277.5l-60 -32q-129 172 -192.5 356t-63.5 386z" />
<glyph unicode=")" horiz-adv-x="612" d="M-187 -214q255 195 394 500.5t139 668.5q0 178 -42.5 325.5t-131.5 275.5l56 30q130 -172 194 -356t64 -383q0 -335 -159.5 -616.5t-468.5 -490.5z" />
<glyph unicode="*" horiz-adv-x="1113" d="M214 1099q90 16 173 35t161 40q-72 56 -143 104t-141 87q29 23 53 50t44 58q38 -44 92 -103.5t140 -150.5q12 87 18 173t6 171q35 -13 70.5 -21.5t69.5 -10.5q-25 -69 -51 -150t-53 -175q91 36 166 73t146 76q5 -37 15.5 -72t25.5 -66q-104 -18 -185.5 -35.5 t-149.5 -37.5q61 -44 133.5 -92.5t152.5 -98.5q-30 -21 -53.5 -48t-43.5 -60q-40 45 -88.5 97t-143.5 155q-11 -99 -16.5 -184t-5.5 -161q-33 15 -69.5 22.5t-76.5 9.5q32 85 58 167.5t47 161.5q-75 -31 -153 -69t-155 -82q-5 39 -15.5 73.5t-27.5 63.5z" />
<glyph unicode="+" horiz-adv-x="1876" d="M279 617v108h607v618h107v-618h604v-108h-604v-617h-107v617h-607z" />
<glyph unicode="," horiz-adv-x="617" d="M-99 -367l243 524q25 55 50 76t60 21q45 0 66.5 -14t21.5 -44q0 -19 -15 -48t-45 -71l-342 -462z" />
<glyph unicode="-" horiz-adv-x="734" d="M50 471l25 137h542l-22 -137h-545z" />
<glyph unicode="." horiz-adv-x="617" d="M103 95q0 47 34.5 80.5t81.5 33.5t80.5 -33t33.5 -81q0 -51 -31.5 -83t-82.5 -32q-50 0 -83 32.5t-33 82.5z" />
<glyph unicode="/" horiz-adv-x="632" d="M-60 -209l630 1899h101l-628 -1899h-103z" />
<glyph unicode="0" d="M65 548q0 196 52.5 380t150.5 329q80 119 192 181t250 62q221 0 334.5 -147t113.5 -431q0 -190 -46.5 -367.5t-133.5 -315.5q-85 -136 -202.5 -205.5t-261.5 -69.5q-219 0 -334 149.5t-115 434.5zM230 451q0 -208 71 -312.5t213 -104.5q102 0 188.5 61.5t137.5 172.5 q70 147 111.5 351.5t41.5 405.5t-71 303t-212 102q-102 0 -185.5 -59t-137.5 -168q-39 -80 -69.5 -184.5t-53.5 -240.5q-18 -90 -26 -173.5t-8 -153.5z" />
<glyph unicode="1" d="M256 1257q143 47 299 113t326 150l20 -13q-74 -359 -136.5 -736t-113.5 -771q-20 4 -42.5 6.5t-47.5 2.5q-26 0 -48 -2.5t-44 -6.5q63 308 121.5 644t112.5 708l-174 -79q-68 -32 -127.5 -64.5t-113.5 -67.5q-5 26 -26 100z" />
<glyph unicode="2" d="M50 38q568 528 710.5 728.5t142.5 370.5q0 142 -64.5 215.5t-187.5 73.5q-97 0 -170.5 -56.5t-117.5 -161.5l-12 -5q-12 37 -29.5 64.5t-42.5 48.5q73 91 173 137.5t221 46.5q203 0 314.5 -88.5t111.5 -246.5q0 -118 -73 -241.5t-258 -306.5q-58 -58 -231.5 -216.5 t-259.5 -260.5h286q59 0 165.5 5t264.5 15q-11 -28 -16.5 -56.5t-5.5 -58.5q0 -19 0.5 -28t0.5 -17q-115 3 -231 5t-232 2t-230 -2t-228 -5z" />
<glyph unicode="3" d="M13 86q25 38 40.5 79t23.5 85q56 -99 145 -154t193 -55q180 0 290 118t110 314q0 128 -68.5 202.5t-187.5 74.5q-31 0 -66 -6.5t-74 -20.5l15 83q213 16 320.5 110.5t107.5 263.5q0 115 -63.5 184t-168.5 69q-93 0 -165.5 -53t-108.5 -148l-10 -2q-7 32 -21.5 60.5 t-34.5 57.5q70 75 158.5 113.5t193.5 38.5q176 0 282 -83t106 -218q0 -129 -87.5 -227t-273.5 -177q152 -6 241.5 -95.5t89.5 -230.5q0 -86 -37 -168t-109 -157q-84 -87 -193 -132.5t-233 -45.5q-126 0 -227.5 29.5t-187.5 90.5z" />
<glyph unicode="4" d="M60 471q173 195 387 444t500 585q9 -2 22 -3t41 -1q18 0 28.5 1t20.5 3q-39 -200 -80 -428.5t-87 -514.5q50 0 102 1.5t110 4.5q-10 -39 -14 -72t-4 -61q-23 0 -77.5 1.5t-136.5 5.5q-16 -94 -31 -203.5t-30 -233.5q-19 3 -40.5 5t-42.5 2t-41 -2t-42 -5q19 92 38.5 200 t36.5 237h-61q-380 -5 -597 -9zM234 557q45 -1 97.5 -2t156.5 -1q105 0 157 1t95 2q17 99 40.5 245.5t79.5 491.5q-182 -207 -335 -387t-291 -350z" />
<glyph unicode="5" d="M52 36q18 38 31 76t18 74q57 -78 135.5 -119.5t171.5 -41.5q190 0 308 134t118 355q0 133 -74.5 209.5t-202.5 76.5q-73 0 -131.5 -20t-107.5 -62l-34 21q30 155 52.5 335.5t37.5 389.5q104 -8 187.5 -11.5t156.5 -3.5q76 0 161 3.5t191 11.5q-14 -37 -20.5 -72t-6.5 -68 v-15q-112 8 -232.5 11.5t-253.5 3.5h-97q-24 -157 -44.5 -277t-41.5 -222q60 27 122 41.5t128 14.5q188 0 294.5 -96.5t106.5 -266.5q0 -238 -182 -397t-462 -159q-102 0 -184.5 18.5t-144.5 55.5z" />
<glyph unicode="6" d="M110 488q0 192 55.5 376.5t156.5 329.5q107 154 250.5 230t326.5 76q39 0 78 -6t79 -18l12 -88q-40 20 -85 30t-97 10q-222 0 -374.5 -196t-207.5 -549q74 103 171 155t215 52q181 0 290.5 -103.5t109.5 -272.5q0 -234 -151 -391t-378 -157q-220 0 -335.5 134t-115.5 388 zM279 376q0 -158 76 -250t206 -92q151 0 251 131t100 329q0 144 -75.5 229t-204.5 85q-149 0 -251 -122.5t-102 -309.5z" />
<glyph unicode="7" d="M187 0q357 529 583 873.5t279 442.5h-121q-183 0 -342.5 -4.5t-303.5 -13.5q8 43 13 84t7 82q139 -5 256.5 -8t223.5 -3t218.5 3t238.5 8v-24q-409 -623 -608 -949t-273 -491q-21 3 -43 5t-44 2t-43 -2t-41 -5z" />
<glyph unicode="8" d="M69 351q0 197 118 328.5t320 160.5q-111 26 -173.5 103t-62.5 188q0 163 125.5 267.5t328.5 104.5q178 0 284 -81t106 -214q0 -145 -89.5 -242t-257.5 -132q148 -26 227.5 -120.5t79.5 -244.5q0 -223 -158.5 -363t-411.5 -140q-200 0 -318 104.5t-118 280.5zM254 359 q0 -158 71 -242.5t202 -84.5q162 0 262.5 133t100.5 347q0 139 -70.5 214.5t-202.5 75.5q-156 0 -259.5 -126t-103.5 -317zM434 1101q0 -109 61.5 -175t162.5 -66q124 0 205 93t81 238q0 118 -59.5 182.5t-168.5 64.5q-121 0 -201.5 -95.5t-80.5 -241.5z" />
<glyph unicode="9" d="M117 157q55 -59 121.5 -90t139.5 -31q194 0 342 207.5t202 560.5q-76 -99 -180.5 -151.5t-225.5 -52.5q-171 0 -272.5 106t-101.5 285q0 222 149.5 368t379.5 146q213 0 330 -134.5t117 -379.5q0 -192 -58 -382.5t-161 -337.5q-109 -155 -245 -230t-308 -75 q-66 0 -119.5 9t-95.5 25v28q0 31 -3.5 63t-10.5 66zM322 1000q0 -145 71.5 -227.5t197.5 -82.5q147 0 247.5 118t100.5 296q0 163 -72.5 247.5t-213.5 84.5t-236 -125t-95 -311z" />
<glyph unicode=":" horiz-adv-x="668" d="M117 95q0 48 33.5 81t81.5 33q47 0 80.5 -33.5t33.5 -80.5q0 -52 -34 -84.5t-86 -32.5q-47 0 -78 33t-31 84zM260 905q0 49 33 82.5t81 33.5q47 0 80.5 -34t33.5 -82q0 -50 -34 -83t-87 -33q-46 0 -76.5 33.5t-30.5 82.5z" />
<glyph unicode=";" horiz-adv-x="668" d="M-28 -304l224 461q28 60 51 78.5t54 18.5q43 0 63.5 -14t20.5 -44q0 -21 -15.5 -53.5t-42.5 -65.5l-318 -399zM271 905q0 48 33.5 82t80.5 34t81 -34t34 -82t-33.5 -82t-81.5 -34t-81 33.5t-33 82.5z" />
<glyph unicode="&#x3c;" horiz-adv-x="1876" d="M290 626v90l1296 532v-119l-1124 -458l1124 -454v-120z" />
<glyph unicode="=" horiz-adv-x="1876" d="M279 412v108h1318v-108h-1318zM279 823v108h1318v-108h-1318z" />
<glyph unicode="&#x3e;" horiz-adv-x="1876" d="M290 97v120l1125 454l-1125 458v119l1296 -532v-90z" />
<glyph unicode="?" horiz-adv-x="991" d="M268 640q0 155 257 346l25 18q111 84 159 156t48 151q0 82 -52 134.5t-131 52.5q-58 0 -109 -22t-104 -70q3 24 4.5 50t1.5 71q49 20 95.5 29t91.5 9q149 0 240.5 -85t91.5 -225q0 -113 -64 -205.5t-239 -215.5q-133 -95 -169 -144.5t-36 -108.5q0 -61 34.5 -91 t103.5 -30q24 0 38.5 0.5t26.5 0.5l-16 -69h-19q-125 0 -201.5 69t-76.5 179zM273 97q0 47 33.5 81t80.5 34t81.5 -34t34.5 -81q0 -49 -33.5 -82t-82.5 -33q-48 0 -81 33t-33 82z" />
<glyph unicode="@" horiz-adv-x="2252" d="M129 591q0 224 94.5 419.5t276.5 345.5q146 120 329 181.5t396 61.5q179 0 339.5 -48t273.5 -136q142 -109 214 -251t72 -308q0 -188 -68 -340.5t-199 -255.5q-77 -60 -164 -91t-177 -31q-107 0 -159 41t-52 125q0 4 1 15t1 17q-56 -96 -139.5 -147t-185.5 -51 q-168 0 -256 91.5t-88 268.5q0 253 148.5 427t361.5 174q104 0 174.5 -45t105.5 -134l66 137h103l-153 -618q-11 -49 -14.5 -69t-3.5 -32q0 -48 31 -75t86 -27q57 0 117 23.5t115 67.5q107 84 166.5 224.5t59.5 310.5q0 280 -218 459t-560 179q-192 0 -351.5 -54 t-288.5 -164q-162 -139 -244.5 -320t-82.5 -399q0 -191 66 -335t203 -256q112 -90 268 -140.5t331 -50.5q188 0 368 54.5t331 157.5l43 -60q-162 -122 -342.5 -183t-377.5 -61q-210 0 -381.5 51t-302.5 152q-170 130 -251.5 301t-81.5 398zM772 488q0 -122 60.5 -190 t167.5 -68q118 0 208.5 78.5t122.5 207.5l68 273q-20 102 -83 159.5t-153 57.5q-170 0 -280.5 -146.5t-110.5 -371.5z" />
<glyph unicode="A" horiz-adv-x="1331" d="M-128 0q228 385 466 775.5t487 785.5h40q77 -328 163.5 -691.5t210.5 -869.5q-26 6 -49.5 8.5t-45.5 2.5q-23 0 -46.5 -2.5t-49.5 -8.5q-23 155 -52.5 305t-64.5 297q-69 4 -143.5 6t-159.5 2q-84 0 -155 -2t-135 -6q-88 -141 -167.5 -291t-150.5 -311q-17 3 -34 5t-36 2 t-38.5 -2t-39.5 -5zM395 696q98 -3 150 -3.5t100 -0.5q83 0 256 4h7q-30 126 -67 272.5t-82 325.5q-90 -136 -179.5 -283t-184.5 -315z" />
<glyph unicode="B" horiz-adv-x="1261" d="M70 0q68 295 134.5 683.5t128.5 854.5q42 -2 70.5 -4t45.5 -2q55 0 150.5 3.5t133.5 3.5q214 0 319.5 -75t105.5 -228q0 -137 -99 -240.5t-279 -155.5v-20q167 -20 249 -101t82 -225q0 -220 -184.5 -357t-487.5 -137q-35 0 -107 3.5t-109 3.5q-33 0 -71.5 -2t-81.5 -5z M273 90q33 -4 69 -6.5t77 -2.5q239 0 374 115t135 318q0 138 -93 206.5t-283 68.5q-27 0 -68 -2t-101 -6l-9 -56q-76 -463 -101 -635zM396 862q6 0 16 -1q56 -3 74 -3q246 0 371 95.5t125 282.5q0 117 -78 173.5t-237 56.5q-50 0 -89.5 -2t-72.5 -6q-27 -125 -53.5 -273.5 t-55.5 -322.5z" />
<glyph unicode="C" horiz-adv-x="1430" d="M88 683q0 392 252 638.5t653 246.5q139 0 249 -21.5t194 -65.5l-58 -157q-83 83 -187 124t-230 41q-293 0 -488.5 -229t-195.5 -577q0 -288 152.5 -458.5t406.5 -170.5q106 0 217.5 39t242.5 121l-41 -147q-112 -49 -222.5 -74t-224.5 -25q-333 0 -526.5 192t-193.5 523z " />
<glyph unicode="D" horiz-adv-x="1659" d="M67 0q68 295 134.5 683.5t130.5 855.5q83 -3 128.5 -4t85.5 -1q39 0 133.5 2.5t152.5 2.5q379 0 564.5 -157.5t185.5 -480.5q0 -159 -50 -298.5t-149 -260.5q-148 -180 -348 -261t-501 -81q-36 0 -131.5 2t-154.5 2q-72 0 -109.5 -1t-71.5 -3zM277 97q81 -6 133.5 -8.5 t94.5 -2.5q415 0 648 214.5t233 595.5q0 137 -37.5 244.5t-109.5 181.5q-73 75 -189 107.5t-325 32.5q-47 0 -101 -1.5t-115 -5.5q-72 -371 -129.5 -707t-102.5 -651z" />
<glyph unicode="E" horiz-adv-x="1023" d="M63 0q68 295 134.5 683.5t129.5 854.5q77 -5 150 -7.5t145 -2.5q63 0 155 2t236 9l-17 -127q-88 17 -171.5 24.5t-164.5 7.5h-157q-34 -152 -61.5 -296.5t-49.5 -285.5h196q109 0 181.5 4t131.5 12l-12 -119q-106 10 -180.5 15.5t-117.5 5.5h-213q-32 -197 -57 -360.5 t-48 -322.5l218 2q70 2 156 8t191 17l-9 -124q-161 7 -284 10t-205 3q-73 0 -142 -3t-135 -10z" />
<glyph unicode="F" horiz-adv-x="997" d="M64 0q67 295 133.5 683.5t129.5 854.5q62 -5 127.5 -7.5t130.5 -2.5q61 0 156 2t280 9l-11 -127q-129 14 -257.5 21t-256.5 7q-27 -132 -54 -277t-55 -305h71q98 0 209 4t245 11l-11 -109q-124 5 -253.5 8.5t-275.5 3.5l-56 -355q-18 -107 -32 -212.5t-28 -208.5 q-25 6 -49 8.5t-47 2.5q-21 0 -44.5 -2.5t-51.5 -8.5z" />
<glyph unicode="G" horiz-adv-x="1603" d="M77 680q0 396 259 638.5t685 242.5q154 0 285 -22.5t240 -67.5l-73 -162q-87 90 -201 135t-258 45q-137 0 -258.5 -44.5t-219.5 -128.5q-130 -114 -199 -278.5t-69 -362.5q0 -290 159 -456.5t438 -166.5q89 0 178 13.5t178 40.5q29 111 47.5 231.5t29.5 252.5 q24 -4 46.5 -5.5t45.5 -1.5q24 0 49 2t48 5q-36 -139 -60.5 -271.5t-36.5 -260.5q-156 -44 -290 -66t-249 -22q-358 0 -566 191.5t-208 518.5z" />
<glyph unicode="H" horiz-adv-x="1657" d="M64 0q67 295 133.5 683.5t129.5 855.5q23 -5 46.5 -7t50.5 -2t51 2t45 7q-16 -61 -32.5 -140.5t-40.5 -218.5l-55 -303l14 -1q306 -4 452 -4q84 0 179 0.5t263 4.5l54 322q16 88 27.5 172.5t19.5 166.5q23 -4 47 -6t50 -2q28 0 52 2t45 7q-73 -306 -140.5 -698 t-123.5 -841q-25 6 -49 8.5t-46 2.5q-20 0 -43.5 -2.5t-51.5 -8.5q24 106 45.5 212t38.5 214l59 351q-77 2 -168 2.5t-278 0.5q-189 0 -284.5 -0.5t-179.5 -2.5l-56 -356q-26 -160 -39.5 -253t-22.5 -168q-25 6 -49 8.5t-47 2.5q-21 0 -44.5 -2.5t-51.5 -8.5z" />
<glyph unicode="I" horiz-adv-x="595" d="M70 0q65 285 130.5 671t130.5 868q23 -5 47 -7t50 -2q27 0 51.5 2t45.5 7q-81 -383 -147 -768t-117 -771q-26 6 -49.5 8.5t-44.5 2.5q-22 0 -45 -2.5t-52 -8.5z" />
<glyph unicode="J" horiz-adv-x="630" d="M-198 -243q126 16 194 73.5t107 180.5q54 173 127.5 597t128.5 931q22 -5 47 -7t54 -2q28 0 53 2t48 7q-73 -359 -162 -887t-131 -643q-47 -130 -164 -216t-282 -111z" />
<glyph unicode="K" horiz-adv-x="1272" d="M64 0q67 295 133.5 683.5t129.5 855.5q23 -5 46.5 -7t50.5 -2t51 2t45 7q-23 -86 -60 -284q-9 -49 -13 -75l-64 -335l27 -20q188 162 366.5 341t345.5 373l6 -1q56 -8 86 -8q18 0 38.5 1.5t53.5 6.5q-83 -80 -618 -583l-116 -108q140 -207 290.5 -418t313.5 -429 q-32 6 -60 8.5t-52 2.5q-27 0 -55.5 -2.5t-59.5 -8.5q-122 202 -256.5 395t-284.5 381l-34 -4l-56 -351q-3 -18 -10 -59q-36 -221 -52 -362q-25 6 -49 8.5t-47 2.5q-21 0 -44.5 -2.5t-51.5 -8.5z" />
<glyph unicode="L" horiz-adv-x="984" d="M66 0q67 295 133.5 683.5t129.5 855.5q23 -5 46.5 -7t50.5 -2q26 0 49.5 2t44.5 7q-87 -407 -147.5 -772t-89.5 -670q222 5 356 15.5t212 27.5q-7 -38 -11 -73t-5 -67q-187 7 -298 9t-191 2q-68 0 -137.5 -2.5t-142.5 -8.5z" />
<glyph unicode="M" horiz-adv-x="1887" d="M57 0q49 164 99.5 444t138.5 912l25 183q2 -1 6 -1q47 -8 72 -8q17 0 34 1.5t45 7.5q84 -317 182 -631t211 -624q202 295 402 607t400 648q1 -1 6 -1q47 -8 72 -8q17 0 34 1.5t45 6.5q-60 -218 -127.5 -614t-133.5 -924q-21 4 -44.5 6.5t-50.5 2.5t-50 -2.5t-45 -6.5 q46 229 89.5 465.5t105.5 591.5l33 198q-214 -319 -413 -637t-382 -636h-31q-92 330 -193.5 648t-212.5 625l-36 -223q-52 -337 -85.5 -602.5t-45.5 -429.5q-17 4 -35 6.5t-39 2.5q-23 0 -41.5 -2.5t-34.5 -6.5z" />
<glyph unicode="N" horiz-adv-x="1642" d="M59 0q52 221 121 622.5t147 940.5h40q233 -359 456 -673.5t434 -580.5l101 656q27 175 44 315t27 259q22 -3 40.5 -5t37.5 -2q21 0 38 2t33 5q-61 -277 -130.5 -679t-136.5 -885h-41q-250 367 -469 678t-412 572l-94 -563q-24 -150 -45.5 -313.5t-40.5 -348.5 q-17 3 -34.5 5t-36.5 2t-38.5 -2t-40.5 -5z" />
<glyph unicode="O" horiz-adv-x="1820" d="M84 653q0 174 62.5 333.5t184.5 297.5q125 140 298 213t381 73q336 0 533.5 -181t197.5 -486q0 -171 -57.5 -331.5t-167.5 -289.5q-131 -154 -308 -234t-393 -80q-341 0 -536 183t-195 502zM279 632q0 -279 140.5 -433t395.5 -154q176 0 320 75.5t239 215.5 q84 123 128 272.5t44 305.5q0 275 -143 427.5t-403 152.5q-168 0 -304 -69.5t-230 -201.5q-91 -126 -139 -277.5t-48 -313.5z" />
<glyph unicode="P" horiz-adv-x="1158" d="M64 0q67 295 133.5 683.5t129.5 854.5q41 -2 78 -4t68 -2q53 0 154 4.5t151 4.5q191 0 290 -81t99 -237q0 -249 -170.5 -377t-505.5 -128q-20 0 -83 4q-27 1 -43 1l-47 -302q-22 -143 -33.5 -243.5t-17.5 -177.5q-27 6 -52 8.5t-48 2.5q-25 0 -50.5 -2.5t-52.5 -8.5z M378 795q49 -3 71 -3.5t39 -0.5q238 0 370.5 112t132.5 314q0 127 -78 187t-244 60q-35 0 -132 -6q-22 -2 -34 -3q-35 -161 -66 -325.5t-59 -334.5z" />
<glyph unicode="Q" horiz-adv-x="1820" d="M84 653q0 173 61 332.5t177 289.5q131 146 302.5 219.5t381.5 73.5q346 0 540.5 -182.5t194.5 -504.5q0 -338 -212 -588t-555 -313q163 -35 426.5 -97t334.5 -79l-82 -148q-528 220 -1040 338q-56 13 -72 17q-221 59 -339 225.5t-118 416.5zM277 632q0 -279 141.5 -434 t396.5 -155q160 0 297.5 65t228.5 182q98 128 151.5 288t53.5 327q0 281 -144 436t-402 155q-162 0 -294.5 -64.5t-228.5 -188.5q-96 -128 -148 -285t-52 -326z" />
<glyph unicode="R" horiz-adv-x="1214" d="M64 0q67 295 133.5 683.5t129.5 854.5q54 -2 97.5 -4t78.5 -2q53 0 138 3.5t118 3.5q221 0 328 -76.5t107 -234.5q0 -184 -136 -304t-383 -154q110 -170 240 -364t276 -406q-29 6 -57 8.5t-55 2.5q-25 0 -52 -2.5t-61 -7.5q-173 278 -306.5 483.5t-165.5 245.5 q-16 18 -33.5 25.5t-45.5 7.5h-39l-58 -342q-22 -125 -34.5 -229t-18.5 -192q-27 6 -52 8.5t-48 2.5q-24 0 -49 -2.5t-52 -8.5zM387 834q32 -4 62.5 -5.5t59.5 -1.5q242 0 373.5 103t131.5 293q0 123 -77.5 177.5t-256.5 54.5q-43 0 -87.5 -3t-92.5 -10q-34 -150 -62 -301.5 t-51 -306.5z" />
<glyph unicode="S" horiz-adv-x="1040" d="M7 56q23 42 38 91t22 103q61 -95 138 -142.5t173 -47.5q158 0 265 102.5t107 252.5q0 91 -46.5 157t-189.5 153l-28 17q-317 191 -317 387q0 182 152.5 311.5t372.5 129.5q75 0 157 -16.5t170 -50.5q-23 -42 -39.5 -87t-26.5 -94q-51 85 -122 126t-166 41 q-140 0 -232.5 -83t-92.5 -207q0 -77 45.5 -139.5t146.5 -122.5l41 -25q198 -118 242 -166q54 -58 80.5 -123t26.5 -139q0 -217 -171.5 -365.5t-432.5 -148.5q-92 0 -171.5 22t-141.5 64z" />
<glyph unicode="T" horiz-adv-x="1087" d="M101 1417l19 122q168 -6 267 -7.5t187 -1.5q124 0 472 6q100 2 153 3l-8 -122q-115 13 -217.5 20t-200.5 9q-80 -413 -138.5 -781t-92.5 -665q-28 6 -54.5 8.5t-50.5 2.5q-25 0 -50 -2.5t-55 -8.5q57 202 122.5 565t138.5 881h-34q-83 0 -193.5 -7t-264.5 -22z" />
<glyph unicode="U" horiz-adv-x="1626" d="M140 406q0 85 67.5 464.5t103.5 668.5q22 -5 46.5 -7t50.5 -2t49.5 2t45.5 7q-88 -403 -140 -718.5t-52 -424.5q0 -150 109 -240.5t290 -90.5q190 0 328 84.5t194 235.5q63 171 115.5 472.5t85.5 681.5q5 -1 12 -2q45 -7 66 -7q16 0 30.5 1.5t41.5 7.5 q-46 -199 -113.5 -582.5t-117.5 -550.5q-64 -209 -238.5 -322.5t-433.5 -113.5q-252 0 -396 116t-144 320z" />
<glyph unicode="V" horiz-adv-x="1240" d="M106 1539q22 -5 44 -7t48 -2q25 0 47.5 2t42.5 7q54 -321 121.5 -650.5t151.5 -669.5q188 329 352.5 658.5t307.5 661.5q2 -1 5 -1q43 -8 68 -8q12 0 26.5 1.5t44.5 7.5q-96 -183 -367.5 -702.5t-438.5 -836.5q-15 4 -29.5 6.5t-31.5 2.5q-18 0 -33.5 -2.5t-30.5 -6.5 q-98 456 -281 1319z" />
<glyph unicode="W" horiz-adv-x="2050" d="M135 1538q18 -4 36 -5t57 -1q37 0 55.5 2t34.5 4q28 -306 74.5 -624.5t110.5 -649.5q128 260 275.5 569t330.5 706q4 -1 23 -4t31 -3q11 0 30 3t24 4q43 -330 95.5 -648t115.5 -627l270 579q108 232 174.5 398t105.5 297q22 -2 42 -4t41 -2q22 0 42.5 2t40.5 4 q-86 -156 -175 -339t-183 -391l-365 -808q-13 4 -28 6.5t-32 2.5t-32.5 -2.5t-30.5 -6.5q-46 302 -99 608t-113 624q-172 -311 -319.5 -619.5t-270.5 -612.5q-14 4 -30 6.5t-34 2.5t-33.5 -2.5t-31.5 -6.5q-60 429 -118 810.5t-114 727.5z" />
<glyph unicode="X" horiz-adv-x="1115" d="M-54 0q132 188 266 376t284 394q-101 227 -187 423t-148 345q16 -2 36.5 -4t62.5 -2q39 0 59.5 2t36.5 4q50 -137 111 -289.5t141 -340.5q126 167 232 324t194 307q22 -3 42.5 -5t41.5 -2q19 0 38.5 2t34.5 4q-147 -188 -283 -369.5t-259 -357.5q80 -189 170.5 -393 t190.5 -418q-23 4 -49 6.5t-56 2.5q-28 0 -53.5 -2.5t-49.5 -6.5q-60 162 -125 331t-139 344q-112 -149 -222 -318.5t-215 -356.5q-26 6 -42 7.5t-31 1.5q-25 0 -75 -8q-5 -1 -7 -1z" />
<glyph unicode="Y" horiz-adv-x="1079" d="M23 1538q18 -2 40 -4t66 -2q43 0 64 2t39 5q67 -193 147 -389t171 -395q145 198 271.5 393.5t234.5 389.5q20 -2 38.5 -4t36.5 -2q20 0 38 2t33 4q-244 -350 -367 -526t-229 -327l-45 -255q-21 -115 -31 -222t-10 -208q-23 4 -46.5 6.5t-52.5 2.5q-26 0 -49.5 -2.5 t-47.5 -6.5q29 122 62 338q8 56 12 83l32 203q-101 234 -203 462t-204 452z" />
<glyph unicode="Z" horiz-adv-x="1229" d="M-43 43q325 417 591.5 766.5t476.5 632.5h-174q-102 0 -266 -5t-389 -15l18 117q118 -5 248 -7t279 -2q148 0 277 2t248 7v-43q-301 -390 -564.5 -736t-496.5 -659h176q147 0 329.5 9.5t404.5 29.5l-18 -140q-158 6 -297.5 8.5t-268.5 2.5q-127 0 -268.5 -2.5 t-304.5 -8.5z" />
<glyph unicode="[" horiz-adv-x="612" d="M36 -227q74 418 144 854t142 929h7q97 -4 144 -4q49 0 147 4h6l-7 -64h-6q-106 4 -158 4q-74 -397 -140 -813t-124 -850q9 0 29 -1t30 -1q25 0 50.5 1.5t52.5 4.5l-11 -65q-25 2 -56.5 3.5t-94.5 1.5q-61 0 -94 -1.5t-61 -2.5z" />
<glyph unicode="\" horiz-adv-x="632" d="M112 1690h100l284 -1899h-98z" />
<glyph unicode="]" horiz-adv-x="612" d="M-47 -228l9 66l6 -1q106 -4 156 -4q70 368 135 784t128 879h-47q-24 0 -50.5 -1t-63.5 -3l10 64q61 -2 93 -3t58 -1q28 0 60.5 1t94.5 3q-72 -418 -142 -853.5t-144 -930.5q-25 2 -56.5 3.5t-93.5 1.5t-94 -1.5t-59 -3.5z" />
<glyph unicode="^" horiz-adv-x="2252" d="M464 991l585 613h154l583 -613h-157l-503 501l-504 -501h-158z" />
<glyph unicode="_" horiz-adv-x="1126" d="M0 -421h1126v-110h-1126v110z" />
<glyph unicode="`" horiz-adv-x="1126" d="M396 1525q0 30 22.5 53.5t52.5 23.5q23 0 48 -16.5t46 -46.5l235 -331h-75l-267 222q-36 30 -49 50t-13 45z" />
<glyph unicode="a" horiz-adv-x="1070" d="M9 248q0 83 44.5 151.5t131.5 118.5q77 45 284 83q58 11 87 16q115 22 135.5 51t20.5 134q0 96 -57 148t-159 52q-77 0 -148.5 -38t-140.5 -115h-22q11 45 16.5 71t8.5 47q82 63 162 91t176 28q154 0 236.5 -69.5t82.5 -199.5q0 -43 -27 -212q-5 -39 -8 -59l-34 -217 l-2 -7q-16 -109 -16 -122q0 -52 20.5 -77.5t61.5 -25.5q11 0 34.5 5t34.5 6l4 -48q-43 -31 -87 -47.5t-89 -16.5q-57 0 -93 41.5t-42 115.5q-68 -85 -154 -128t-188 -43q-129 0 -201 70t-72 196zM165 260q0 -81 51 -128.5t135 -47.5q82 0 157.5 45.5t123.5 124.5 q10 85 22.5 165.5t28.5 159.5q-317 -62 -417.5 -129.5t-100.5 -189.5z" />
<glyph unicode="b" horiz-adv-x="1221" d="M22 0q77 315 151.5 743.5t142.5 946.5q20 -4 40 -5.5t42 -1.5q23 0 46.5 1.5t46.5 5.5q-19 -78 -38.5 -172t-40.5 -218l-70 -414q76 96 170.5 147t201.5 51q175 0 277.5 -114.5t102.5 -309.5q0 -133 -45.5 -264t-126.5 -231q-74 -91 -176 -139t-221 -48q-107 0 -183 36.5 t-125 111.5l-159 -126h-36zM250 351q0 -143 69 -224.5t190 -81.5q169 0 288.5 174t119.5 423q0 165 -68 252.5t-198 87.5q-85 0 -155.5 -41.5t-119.5 -120.5q-57 -92 -91.5 -219.5t-34.5 -249.5z" />
<glyph unicode="c" horiz-adv-x="1031" d="M30 441q0 284 172 463.5t447 179.5q92 0 178.5 -15t168.5 -46q-19 -39 -33.5 -81t-25.5 -93l-11 -4q-36 81 -111.5 127.5t-174.5 46.5q-196 0 -314.5 -173t-118.5 -459q0 -154 76.5 -242.5t207.5 -88.5q100 0 194 38.5t195 121.5q-7 -40 -11 -73t-7 -62q-93 -52 -186 -79 t-185 -27q-209 0 -335 127.5t-126 338.5z" />
<glyph unicode="d" d="M41 447q0 273 151 456t376 183q130 0 217 -55.5t137 -170.5l71 438q23 136 35 230t15 162q21 -4 42 -5.5t44 -1.5t46 1.5t46 5.5q-97 -483 -164.5 -912t-101.5 -778q-22 3 -43 5t-42 2q-22 0 -41 -2t-40 -5q2 19 10.5 86t15.5 108q-69 -113 -156.5 -166t-200.5 -53 q-196 0 -306.5 124.5t-110.5 347.5zM221 430q0 -172 73 -271t200 -99q168 0 278.5 177t110.5 455q0 150 -73 234t-202 84q-160 0 -273.5 -167.5t-113.5 -412.5z" />
<glyph unicode="e" horiz-adv-x="1090" d="M32 466q0 281 150 449.5t399 168.5q191 0 298.5 -98t107.5 -272q0 -30 -3 -70t-8 -96q-105 4 -217 6.5t-237 2.5q-130 0 -194.5 -1.5t-117.5 -3.5q-4 -31 -6 -58.5t-2 -50.5q0 -182 89.5 -280t256.5 -98q76 0 154 29t165 90q-6 -19 -11.5 -43.5t-10.5 -59.5 q-82 -52 -167.5 -79t-174.5 -27q-218 0 -344.5 132.5t-126.5 358.5zM223 640l13 -1q198 -3 293 -3q55 0 117 0.5t171 3.5q4 24 6 49t2 48q0 133 -64 208.5t-176 75.5q-136 0 -234 -102.5t-128 -278.5z" />
<glyph unicode="f" horiz-adv-x="574" d="M48 0q33 152 60 297t47 284l59 395h-45q-31 0 -60 -2t-55 -5l9 85q35 -2 70.5 -3.5t89.5 -1.5q42 299 164.5 466.5t297.5 167.5q19 0 37 -4t35 -13q-15 -49 -21 -90.5t-6 -77.5q-47 23 -84.5 34t-71.5 11q-99 0 -141.5 -86t-62.5 -408q77 0 119 1.5t81 3.5l-9 -85 q-48 3 -96 5t-98 2l-66 -408q-21 -143 -39.5 -284t-33.5 -283q-21 2 -42.5 4t-45.5 2q-23 0 -46.5 -2t-45.5 -5z" />
<glyph unicode="g" horiz-adv-x="1027" d="M-99 -301q0 104 65 183.5t182 115.5l3 15q-59 28 -88 68.5t-29 96.5q0 74 50.5 124t147.5 72l-2 18q-82 36 -122.5 103t-40.5 167q0 184 128.5 304t326.5 120q39 0 116 -10t117 -10q27 0 77.5 1.5t198.5 9.5l-22 -101q-35 3 -81 7t-126 8q50 -47 75.5 -106t25.5 -130 q0 -169 -135.5 -285t-333.5 -116q-27 0 -66.5 2.5t-51.5 2.5q-66 0 -106.5 -35.5t-40.5 -91.5q0 -98 239 -110q40 -1 63 -2q214 -11 305 -74.5t91 -198.5q0 -196 -152 -326.5t-382 -130.5q-208 0 -320 80t-112 229zM32 -288q0 -121 75 -183.5t220 -62.5q161 0 267.5 91.5 t106.5 228.5q0 107 -76 155t-247 48q-176 0 -261 -68.5t-85 -208.5zM232 649q0 -111 54 -168t157 -57q122 0 207 104t85 256q0 117 -54.5 178t-158.5 61q-123 0 -206.5 -107.5t-83.5 -266.5z" />
<glyph unicode="h" horiz-adv-x="1210" d="M28 0q118 597 188.5 1032.5t84.5 657.5q22 -4 43 -5.5t43 -1.5q23 0 46 1.5t44 5.5q-22 -114 -40.5 -215t-32.5 -193l-66 -392q80 92 172 139.5t191 47.5q151 0 235.5 -78t84.5 -219q0 -69 -48 -329t-70 -451q-20 3 -41.5 5t-44.5 2q-22 0 -45 -2t-46 -5 q63 270 101 477.5t38 268.5q0 108 -59.5 169t-165.5 61q-109 0 -192 -64t-126 -179q-25 -64 -59 -267t-63 -466q-23 3 -45 5t-45 2q-22 0 -42.5 -2t-39.5 -5z" />
<glyph unicode="i" horiz-adv-x="526" d="M34 0q48 204 94.5 474t85.5 590q27 -5 49 -6t44 -1q23 0 44 1.5t41 4.5q-70 -338 -116.5 -612.5t-64.5 -450.5q-20 3 -40.5 5t-44.5 2q-22 0 -44.5 -2t-47.5 -5zM256 1460q0 43 31 73t74 30t74 -30t31 -73t-31 -74.5t-74 -31.5q-44 0 -74.5 31t-30.5 75z" />
<glyph unicode="j" horiz-adv-x="531" d="M-248 -565q102 6 167.5 77t100.5 213q39 155 96.5 514t115.5 825q21 -6 43 -8t47 -2q24 0 46 2.5t42 7.5q-72 -351 -144 -807t-104 -541q-53 -146 -153 -233t-235 -102zM277 1460q0 43 31.5 73t74.5 30t73 -30t30 -73t-30 -74.5t-73 -31.5q-44 0 -75 31t-31 75z" />
<glyph unicode="k" horiz-adv-x="1045" d="M28 0q83 403 152.5 825.5t123.5 864.5q25 -4 48.5 -5.5t45.5 -1.5q23 0 44.5 1.5t41.5 5.5q-31 -132 -80 -443q-12 -75 -19 -114l-81 -507l45 -13q148 110 278 222t242 228q24 -3 45.5 -4.5t42.5 -1.5q23 0 43.5 1.5t37.5 5.5l-94 -78q-292 -239 -439 -360 q108 -155 221 -312t231 -314q-23 3 -48 5t-51 2t-53.5 -2t-58.5 -5q-104 161 -204 300.5t-200 262.5l-52 -17l-42 -260q-12 -64 -20.5 -134.5t-16.5 -151.5q-20 3 -41.5 5t-45.5 2t-48 -2t-48 -5z" />
<glyph unicode="l" horiz-adv-x="531" d="M34 0q89 440 158 862t117 828q39 -6 58.5 -7.5t38.5 -1.5q16 0 35.5 1.5t58.5 7.5q-83 -413 -155.5 -835.5t-135.5 -854.5q-19 4 -41 6.5t-46 2.5q-25 0 -46.5 -2.5t-41.5 -6.5z" />
<glyph unicode="m" horiz-adv-x="1827" d="M23 0q61 299 107.5 563t78.5 501q2 -1 7 -1q52 -9 77 -9q16 1 34 2.5t49 7.5l-36 -168q87 101 171 144.5t185 43.5q111 0 180.5 -54t94.5 -160q84 107 182.5 158t222.5 51q122 0 198.5 -70.5t76.5 -183.5q0 -52 -50 -324t-74 -501q-20 3 -41 5t-44 2q-22 0 -44.5 -2 t-47.5 -4q64 287 100.5 495t36.5 280q0 94 -54.5 146t-153.5 52q-97 0 -180.5 -65.5t-114.5 -167.5q-28 -92 -62.5 -294t-63.5 -447q-18 3 -39 5t-43 2t-45.5 -2t-45.5 -5q63 294 101.5 509t38.5 271q0 94 -52.5 145t-148.5 51q-92 0 -166.5 -48.5t-117.5 -136.5 q-34 -71 -70 -275.5t-68 -515.5q-14 3 -32.5 5t-57.5 2q-36 0 -55 -2t-34 -5z" />
<glyph unicode="n" horiz-adv-x="1210" d="M25 0q76 384 119.5 633t67.5 431q23 -4 44 -5.5t41 -1.5q21 0 39.5 1.5t37.5 4.5q-7 -41 -13.5 -80.5t-12.5 -78.5q88 89 174 131t185 42q152 0 235 -74.5t83 -209.5q0 -64 -45 -335t-70 -458q-33 6 -50.5 7.5t-34.5 1.5q-26 0 -81 -8q-7 0 -11 -1q71 346 100 519.5 t29 246.5q0 100 -58.5 152.5t-171.5 52.5q-106 0 -188 -63t-117 -173q-31 -99 -62.5 -279t-64.5 -456q-20 4 -41 6.5t-47 2.5q-24 0 -46 -2.5t-41 -6.5z" />
<glyph unicode="o" horiz-adv-x="1214" d="M22 443q0 280 168 461.5t425 181.5q224 0 350.5 -124t126.5 -343q0 -269 -176.5 -455t-433.5 -186q-208 0 -334 127.5t-126 337.5zM202 412q0 -176 74 -269t210 -93q181 0 303.5 171t122.5 430q0 181 -76.5 276.5t-220.5 95.5q-179 0 -296 -171.5t-117 -439.5z" />
<glyph unicode="p" horiz-adv-x="1250" d="M-77 -615q112 565 188 1012t98 666q22 -4 41.5 -5t39.5 -1q21 0 43 1.5t45 5.5q-10 -45 -17 -91t-11 -96q81 103 177 156t203 53q181 0 283 -114t102 -316q0 -292 -158 -485t-396 -193q-119 0 -205 54t-130 155l-54 -311q-20 -111 -36 -231.5t-30 -259.5q-20 5 -42 7 t-49 2q-25 0 -47.5 -2t-44.5 -7zM264 374q0 -151 73 -235.5t204 -84.5q164 0 282.5 177t118.5 429q0 156 -71.5 246t-197.5 90q-174 0 -291.5 -176t-117.5 -446z" />
<glyph unicode="q" horiz-adv-x="1227" d="M38 447q0 275 152.5 457t381.5 182q124 0 211 -58t133 -171q2 13 6 42q14 110 20 164q19 -3 40 -4.5t43 -1.5t44 1.5t44 4.5q-107 -538 -177.5 -965t-102.5 -713q-23 3 -46.5 5t-45.5 2q-24 0 -47.5 -2t-46.5 -5q26 122 48.5 237.5t41.5 224.5l56 327 q-63 -100 -148 -149.5t-196 -49.5q-186 0 -298.5 129t-112.5 343zM214 449q0 -187 68 -290t191 -103q179 0 291.5 173.5t112.5 453.5q0 156 -72.5 242.5t-204.5 86.5q-161 0 -273.5 -161.5t-112.5 -401.5z" />
<glyph unicode="r" horiz-adv-x="732" d="M28 0q78 398 125 673t56 390q19 -3 38.5 -4.5t40.5 -1.5t43 1.5t43 4.5q-15 -64 -25 -123.5t-16 -114.5q87 129 175.5 192.5t183.5 63.5q6 0 15 -0.5t29 -3.5q-17 -46 -25 -90t-8 -88v-16q-37 6 -63 8.5t-45 2.5q-170 0 -253.5 -165t-143.5 -729q-18 4 -39 6.5t-47 2.5 q-24 0 -44.5 -2.5t-39.5 -6.5z" />
<glyph unicode="s" horiz-adv-x="829" d="M-45 38q21 31 37.5 72t27.5 88q34 -73 96.5 -113t143.5 -40q110 0 181 64.5t71 163.5q0 53 -31.5 92t-147.5 106q-146 83 -190 138t-44 130q0 147 106 247t266 100q47 0 99.5 -10.5t117.5 -32.5q-19 -35 -31.5 -73t-18.5 -77l-12 -5q-26 64 -73 96t-112 32 q-88 0 -148.5 -56t-60.5 -137q0 -108 188 -214l10 -5q143 -78 184.5 -130.5t41.5 -127.5q0 -159 -124 -265t-315 -106q-77 0 -143.5 16.5t-118.5 46.5z" />
<glyph unicode="t" horiz-adv-x="689" d="M75 961l15 88q35 -3 70.5 -4.5t69.5 -1.5q11 61 18 120t12 116l181 73q-16 -75 -30.5 -152t-26.5 -157q69 0 126.5 1.5t99.5 4.5l-6 -87q-36 4 -70.5 5.5t-67.5 1.5q-17 0 -49 -1t-47 -1q-59 -296 -87.5 -473t-28.5 -240q0 -92 42 -141.5t121 -49.5q35 0 73.5 11.5 t79.5 33.5v-63q-51 -33 -108.5 -50t-117.5 -17q-114 0 -181.5 65.5t-67.5 177.5q0 68 59 385q41 222 65 361q-56 0 -87 -1t-57 -5z" />
<glyph unicode="u" horiz-adv-x="1210" d="M81 273q0 63 44.5 333t70.5 457q32 -5 51 -7t35 -2q16 1 35 2.5t57 6.5q-65 -295 -98 -486.5t-33 -272.5q0 -103 59.5 -157.5t172.5 -54.5q107 0 189.5 64t117.5 175q26 79 55.5 251.5t67.5 480.5q37 -5 55.5 -7t32.5 -2q17 1 35 2.5t53 7.5q-69 -352 -114 -611t-71 -453 q-22 3 -43 5t-42 2t-40.5 -2t-37.5 -5q6 48 23 132q4 21 5 30q-89 -90 -176.5 -132.5t-186.5 -42.5q-150 0 -233.5 74.5t-83.5 211.5z" />
<glyph unicode="v" horiz-adv-x="999" d="M30 1063q35 -5 54 -7t36 -2q14 0 33 2t54 8q42 -197 98 -406t127 -435q115 201 223 410.5t210 430.5q2 -1 6 -1q44 -9 64 -9q12 0 28 2t41 7q-138 -226 -283.5 -494t-292.5 -569q-9 2 -20 3t-32 1q-22 0 -33 -1t-21 -3q-73 287 -146.5 551.5t-145.5 511.5z" />
<glyph unicode="w" horiz-adv-x="1653" d="M41 1064q15 -4 33 -4.5t57 -0.5q36 0 54.5 0.5t33.5 4.5q30 -210 70.5 -422.5t91.5 -427.5q75 146 173 340t254 510q3 -1 7 -1q33 -4 52 -4q12 0 23.5 0.5t37.5 3.5q36 -217 78 -432t91 -426q124 220 230 434.5t195 424.5q3 -1 7 -1q43 -4 66 -4q14 0 30 0.5t41 3.5 q-148 -253 -292.5 -519.5t-283.5 -543.5q-9 2 -21 3t-35 1q-24 0 -36 -1t-22 -3q-31 217 -74 427t-98 416q-98 -164 -208.5 -375.5t-231.5 -467.5q-8 2 -18 3t-32 1q-24 0 -35 -1t-19 -3q-47 253 -101.5 519t-117.5 545z" />
<glyph unicode="x" horiz-adv-x="917" d="M-78 0q99 123 203.5 255.5t214.5 275.5q-67 128 -139.5 261t-150.5 271q25 -3 48.5 -4.5t47.5 -1.5q26 0 50.5 1.5t46.5 5.5q44 -106 93 -207t103 -199q83 109 152 209t127 197q7 -1 33 -4t42 -3q14 0 39.5 3t32.5 4q-113 -137 -208.5 -254.5t-181.5 -226.5 q73 -143 152 -288t165 -295q-15 3 -35 5t-61 2q-42 0 -61.5 -2t-37.5 -5q-51 120 -106 234t-113 219q-91 -123 -167 -233.5t-145 -218.5q-18 2 -35.5 4t-37.5 2q-18 0 -35.5 -2t-35.5 -5z" />
<glyph unicode="y" horiz-adv-x="999" d="M-37 -615q102 160 236 394l20 34l110 187q-71 271 -146 536.5t-155 527.5q17 -4 36.5 -4.5t55.5 -0.5t53 0.5t32 4.5q47 -206 104.5 -421t127.5 -445q104 187 213.5 404.5t220.5 460.5q32 -3 46.5 -3.5t26.5 -0.5q23 0 66 4q4 0 6 1q-235 -408 -460.5 -827.5 t-443.5 -851.5q-14 2 -30 3.5t-48 1.5q-30 0 -44.5 -1.5t-26.5 -3.5z" />
<glyph unicode="z" horiz-adv-x="975" d="M-56 0l9 43q209 256 390.5 485.5t345.5 446.5q-9 2 -20 2.5t-33 0.5q-105 0 -229 -6.5t-294 -21.5q6 25 8.5 51.5t2.5 62.5q90 -5 188.5 -7.5t209.5 -2.5q113 0 209.5 2t185.5 8l-5 -34q-185 -232 -367.5 -467t-366.5 -477q178 3 341.5 10t316.5 18q-7 -24 -9 -42t-2 -36 q0 -15 0.5 -22.5t0.5 -13.5q-97 3 -201.5 5t-216.5 2q-111 0 -227 -2t-237 -5z" />
<glyph unicode="{" horiz-adv-x="1126" d="M191 525v120q10 0 26 -1.5t24 -1.5q152 0 214.5 69.5t62.5 238.5v267q0 245 77 326.5t293 81.5h51v-118h-40q-144 0 -195 -54.5t-51 -224.5v-267q0 -184 -47.5 -263.5t-168.5 -114.5q121 -34 168.5 -113.5t47.5 -264.5v-265q0 -171 49.5 -225.5t187.5 -54.5q8 0 24.5 1 t24.5 1v-117h-51q-217 0 -293.5 79.5t-76.5 325.5v269q0 169 -62.5 238.5t-214.5 69.5q-8 0 -24 -1t-26 -1z" />
<glyph unicode="|" horiz-adv-x="1126" d="M505 -531v2253h119v-2253h-119z" />
<glyph unicode="}" horiz-adv-x="1126" d="M189 -338h43q143 0 193 54t50 224v265q0 188 47.5 266t169.5 112q-122 35 -169.5 113t-47.5 265v267q0 172 -49.5 226.5t-186.5 54.5q-8 0 -24.5 -1t-25.5 -1v118h52q215 0 292 -81.5t77 -326.5v-267q0 -169 63 -238.5t215 -69.5q7 0 23.5 1.5t25.5 1.5v-120 q-9 0 -25.5 1t-23.5 1q-152 0 -215 -69.5t-63 -238.5v-269q0 -245 -76 -325t-293 -80h-52v117z" />
<glyph unicode="~" horiz-adv-x="1876" d="M196 518v124q116 81 222 120.5t204 39.5q114 0 299 -67q12 -5 19 -8q10 -3 35 -12q183 -66 282 -66q94 0 195 42t231 134v-124q-112 -79 -217.5 -118.5t-208.5 -39.5q-109 0 -286 63q-22 8 -32 11l-17 7q-194 70 -300 70q-92 0 -193 -42t-233 -134z" />
<glyph unicode="&#xa0;" />
<glyph unicode="&#xa1;" horiz-adv-x="730" d="M160 84q0 18 4.5 45.5t18.5 79.5l53 210l27 101q118 442 163 634h40q-30 -292 -64 -658q-6 -55 -8 -77l-22 -236q-12 -120 -37.5 -162.5t-80.5 -42.5q-43 0 -68.5 28.5t-25.5 77.5zM370 1451q0 48 33.5 82.5t80.5 34.5q48 0 82 -34t34 -83q0 -47 -34.5 -81.5t-81.5 -34.5 t-80.5 34.5t-33.5 81.5z" />
<glyph unicode="&#xa2;" d="M138 484q0 264 155.5 433.5t411.5 183.5q5 34 13 95q20 144 23 180q16 -5 29 -8t23 -3t22 3t24 8q-22 -96 -49 -250l-4 -19q88 -6 166 -22.5t142 -43.5q-22 -38 -34 -77.5t-15 -84.5q-65 77 -130 112.5t-142 38.5l-154 -944q9 -1 20.5 -1.5t33.5 -0.5q90 0 162.5 33 t125.5 100q-8 -33 -12.5 -63t-4.5 -57v-18q-58 -39 -130.5 -59t-157.5 -20q-20 0 -30 0.5t-20 1.5q-3 -28 -15 -126.5t-19 -163.5q-18 5 -32.5 8t-27.5 3t-24.5 -1.5t-21.5 -5.5q19 75 34.5 148t28.5 145q-185 22 -288 148t-103 327zM311 498q0 -156 60.5 -260t169.5 -137 l153 929q-167 -21 -275 -170t-108 -362z" />
<glyph unicode="&#xa3;" d="M-15 0q6 30 10.5 62t6.5 70l16 1q181 0 267.5 148t88.5 464l-58 1q-40 0 -81 -2t-83 -5q8 33 11 50l6 34q66 -5 119.5 -7.5t87.5 -2.5q20 339 155.5 514.5t376.5 175.5q115 0 201 -47t130 -134q-33 -31 -98 -112l-10 -11q-10 110 -66.5 172t-150.5 62q-158 0 -249.5 -157 t-107.5 -461h110q85 0 163 1.5t148 5.5q-8 -15 -12 -32.5t-5 -37.5v-13q-58 5 -125.5 7t-145.5 2q-58 0 -86.5 -0.5t-53.5 -1.5q-9 -205 -82 -350t-223 -254q39 0 115.5 -1t112.5 -1q163 0 323.5 4t316.5 13q-13 -28 -20 -58t-7 -61q0 -16 0.5 -23t1.5 -15q-126 4 -264 6.5 t-295 2.5q-156 0 -289 -2.5t-255 -6.5z" />
<glyph unicode="&#xa4;" d="M25 568l31 83q31 -2 64.5 -3t92.5 -1q4 36 10 77.5t16 92.5h-61q-16 0 -70 -2q-30 -1 -50 -2l32 83q5 0 14 -1q66 -3 94 -3h54q78 298 246 453t412 155q94 0 171.5 -21t137.5 -64l-37 -145q-60 80 -136.5 120t-164.5 40q-171 0 -278 -125.5t-177 -412.5q35 0 105 -1 t105 -1q88 0 172 1.5t164 4.5l-30 -82q-72 2 -152 4t-168 2q-34 0 -103.5 -1.5t-106.5 -1.5q-9 -48 -15.5 -90t-8.5 -80q34 0 99 -1t94 -1q82 0 156.5 1.5t140.5 4.5l-31 -83q-81 3 -166 4.5t-176 1.5h-122v-54q0 -216 98.5 -351t253.5 -135q77 0 158 37.5t173 115.5 l-32 -133q-75 -44 -153 -67t-153 -23q-220 0 -367 171.5t-147 434.5v4q-39 0 -86.5 -1.5t-102.5 -4.5z" />
<glyph unicode="&#xa5;" d="M63 475l14 84q112 -3 176.5 -4t122.5 -1h118l24 142l-11 27q-168 0 -250 -1.5t-151 -3.5l14 84q85 -3 175.5 -5t188.5 -2q-84 180 -165 345.5t-164 323.5q22 -4 45 -6.5t50 -2.5q28 0 53.5 2.5t50.5 6.5q50 -140 121 -305.5t157 -345.5q131 171 239 333.5t195 317.5 q1 0 5 -1q44 -8 66 -8q15 0 32.5 2.5t43.5 6.5q-123 -156 -247 -324t-248 -345q124 0 219 2t164 5l-15 -84q-55 4 -134 4.5t-277 0.5l-26 -169q174 0 257.5 1.5t152.5 3.5l-14 -84q-68 2 -151 3.5t-258 1.5q-24 -131 -38 -250.5t-17 -229.5q-22 4 -46.5 6.5t-50.5 2.5 q-24 0 -46 -2.5t-42 -6.5q25 110 47 230t41 250q-184 0 -268.5 -1.5t-152.5 -3.5z" />
<glyph unicode="&#xa6;" horiz-adv-x="1126" d="M505 -385v834h119v-834h-119zM505 741v834h119v-834h-119z" />
<glyph unicode="&#xa7;" horiz-adv-x="1113" d="M11 -117q22 59 35.5 101t22.5 81q60 -123 147.5 -186.5t200.5 -63.5q132 0 216.5 75t84.5 189q0 77 -49 138.5t-220 169.5q-187 116 -245 191t-58 172q0 94 50 168.5t153 135.5q-21 38 -31.5 77t-10.5 79q0 150 112.5 254t278.5 104q85 0 161.5 -30.5t138.5 -88.5 q-24 -41 -42 -76t-30 -71q-46 96 -111.5 144t-152.5 48q-97 0 -163.5 -64.5t-66.5 -156.5q0 -74 48.5 -132.5t220.5 -160.5q167 -99 225 -174.5t58 -175.5q0 -78 -43 -151t-137 -150q28 -37 41 -79t13 -88q0 -182 -132 -305t-330 -123q-112 0 -207 37t-178 112zM266 843 q0 -116 292 -319q136 -95 214 -154q48 50 69 92.5t21 85.5q0 60 -38 112t-142 124q-18 12 -59 39q-158 99 -240 187q-57 -36 -87 -78.5t-30 -88.5z" />
<glyph unicode="&#xa8;" horiz-adv-x="1126" d="M342 1372q0 43 33 76t76 33q44 0 76 -32.5t32 -76.5q0 -48 -31 -79t-77 -31q-45 0 -77 32.5t-32 77.5zM755 1372q0 43 33 76t74 33q44 0 76.5 -32.5t32.5 -76.5q0 -48 -30.5 -79t-78.5 -31q-44 0 -75.5 32.5t-31.5 77.5z" />
<glyph unicode="&#xa9;" horiz-adv-x="1876" d="M133 795q0 160 62 308t179 267q111 113 255 172.5t308 59.5t312 -61t262 -176q113 -112 173 -259t60 -311q0 -165 -59 -309t-174 -256q-117 -117 -265.5 -179t-308.5 -62q-159 0 -305.5 61t-261.5 178q-116 114 -176.5 260.5t-60.5 306.5zM221 795q0 -142 54.5 -271.5 t156.5 -233.5q104 -102 233.5 -156.5t271.5 -54.5q143 0 275.5 55t238.5 159q100 97 152.5 226t52.5 276q0 145 -53.5 276t-153.5 231q-104 104 -234.5 158t-277.5 54q-145 0 -273.5 -53t-229.5 -154q-103 -106 -158 -237.5t-55 -274.5zM516 800q0 223 118 358.5t312 135.5 q148 0 249 -79.5t114 -208.5h-129q-20 88 -82.5 136.5t-155.5 48.5q-135 0 -209.5 -104.5t-74.5 -293.5q0 -183 76 -286t208 -103q98 0 166 55.5t86 150.5h126q-12 -137 -119.5 -225t-265.5 -88q-195 0 -307 134t-112 369z" />
<glyph unicode="&#xaa;" horiz-adv-x="801" d="M7 969q0 57 34 105.5t99 83.5q57 32 211 59q43 6 66 11q85 14 101 34.5t16 93.5q0 67 -42.5 104.5t-119.5 37.5q-56 0 -110 -27t-107 -81h-15q3 15 9 42t8 39q60 44 120 63.5t133 19.5q116 0 178.5 -48t62.5 -139q0 -33 -24 -172l-3 -19l-24 -151q-8 -38 -11.5 -60 t-3.5 -30q0 -36 15.5 -54.5t46.5 -18.5q9 0 34 6q11 2 17 3l3 -33q-31 -22 -64 -33.5t-67 -11.5q-43 0 -70 28.5t-31 81.5q-53 -60 -117 -90.5t-140 -30.5q-98 0 -151.5 49t-53.5 138zM124 978q0 -56 38.5 -90t101.5 -34q60 0 117 31.5t94 88.5q8 63 16.5 118.5t20.5 107.5 q-238 -44 -313 -90.5t-75 -131.5z" />
<glyph unicode="&#xab;" horiz-adv-x="939" d="M38 581q113 137 206.5 256.5t172.5 226.5q7 -24 15.5 -44.5t17.5 -36.5q-62 -111 -129.5 -214t-146.5 -206q44 -112 80 -233.5t64 -252.5q-19 -22 -32 -41.5l-23 -34.5q-49 141 -105 285t-120 295zM455 581q132 161 221.5 274.5t159.5 208.5q7 -24 15.5 -44.5t17.5 -36.5 q-57 -103 -127 -208t-151 -212q44 -112 79.5 -233.5t64.5 -252.5q-19 -22 -32 -40.5t-22 -35.5q-53 146 -109.5 292.5t-116.5 287.5z" />
<glyph unicode="&#xac;" horiz-adv-x="1876" d="M279 834v110h1318v-552h-105v442h-1213z" />
<glyph unicode="&#xad;" horiz-adv-x="734" d="M50 471l25 137h542l-22 -137h-545z" />
<glyph unicode="&#xae;" horiz-adv-x="1876" d="M133 795q0 159 62 308t179 267q111 113 255 172.5t308 59.5q167 0 314 -60.5t260 -176.5q113 -112 173 -259t60 -311q0 -165 -59 -309t-174 -256q-117 -117 -265.5 -179t-308.5 -62q-161 0 -307 61t-260 178q-116 114 -176.5 260.5t-60.5 306.5zM221 795 q0 -142 54.5 -271.5t156.5 -233.5q104 -102 233.5 -156.5t271.5 -54.5q143 0 275.5 55t238.5 159q100 97 152.5 224.5t52.5 275.5q0 147 -53 278t-152 231q-103 103 -234.5 157.5t-279.5 54.5q-143 0 -271 -53t-229 -154q-105 -107 -160.5 -238.5t-55.5 -273.5zM622 344v929 h339q196 0 290 -63t94 -194q0 -98 -59.5 -164t-159.5 -80l207 -428h-159l-196 408h-217v-408h-139zM761 845h174q147 0 206.5 36.5t59.5 124.5q0 92 -62.5 132t-203.5 40h-174v-333z" />
<glyph unicode="&#xaf;" horiz-adv-x="1126" d="M359 1302l28 138h568l-29 -138h-567z" />
<glyph unicode="&#xb0;" horiz-adv-x="741" d="M65 1291q0 128 89.5 217t217.5 89q126 0 214.5 -89.5t88.5 -216.5q0 -126 -89.5 -216.5t-215.5 -90.5q-129 0 -217 89.5t-88 217.5zM142 1291q0 -95 67 -161t163 -66t162 66t66 161t-67 162t-161 67q-95 0 -162.5 -67t-67.5 -162z" />
<glyph unicode="&#xb1;" horiz-adv-x="1876" d="M279 56v109h1318v-109h-1318zM279 795v108h607v383h107v-383h604v-108h-604v-383h-107v383h-607z" />
<glyph unicode="&#xb2;" horiz-adv-x="815" d="M34 586v22l9 8q554 470 554 652q0 85 -42.5 129.5t-124.5 44.5q-64 0 -113.5 -34t-77.5 -97l-7 -4q-11 25 -22 41t-25 26q47 56 113 84.5t145 28.5q135 0 208.5 -54t73.5 -149q0 -70 -47 -142.5t-171 -186.5q-42 -38 -155 -132t-169 -154h189q38 0 109 3t175 10 q-8 -16 -12 -33.5t-4 -35.5q0 -11 0.5 -17t1.5 -10q-123 2 -188 3.5t-118 1.5q-54 0 -118 -1.5t-184 -3.5z" />
<glyph unicode="&#xb3;" horiz-adv-x="815" d="M9 638q17 24 27 48.5t14 49.5q38 -60 97 -93t126 -33q120 0 192.5 71t72.5 189q0 77 -45 121.5t-123 44.5q-18 0 -40 -4t-53 -11l9 49q141 8 212.5 64.5t71.5 159.5q0 68 -42.5 110t-110.5 42q-63 0 -111.5 -32t-71.5 -90h-4q-10 25 -19 41.5t-20 29.5q47 45 105 68.5 t128 23.5q116 0 186 -50.5t70 -131.5q0 -77 -58.5 -136t-179.5 -105q100 -6 159 -58.5t59 -138.5q0 -53 -24 -102t-73 -94q-55 -51 -127.5 -78.5t-153.5 -27.5q-82 0 -149.5 18.5t-123.5 54.5z" />
<glyph unicode="&#xb4;" horiz-adv-x="1126" d="M455 1208l329 344q20 22 43.5 34.5t44.5 12.5q30 0 53 -23t23 -54q0 -23 -17.5 -45t-58.5 -49l-338 -220h-79z" />
<glyph unicode="&#xb5;" horiz-adv-x="1221" d="M-122 -469l348 1641h152l-137 -652q-9 -43 -13.5 -80t-4.5 -73q0 -128 64 -198t184 -70q137 0 236 118.5t147 341.5l133 613h153l-181 -848q-13 -60 -18.5 -93t-5.5 -53q0 -36 18.5 -54t56.5 -18q8 0 18 0.5t21 1.5l-22 -121q-21 -6 -45 -9t-49 -3q-77 0 -114 39.5 t-37 120.5v16q-46 -85 -132 -132t-197 -47q-101 0 -177 44t-119 128l-125 -613h-154z" />
<glyph unicode="&#xb6;" horiz-adv-x="1126" d="M92 1243q0 173 118.5 278.5t314.5 105.5h509v-77h-140v-1550h-90v1550h-204v-1550h-93v860q-191 9 -303 113t-112 270z" />
<glyph unicode="&#xb7;" horiz-adv-x="617" d="M198 748q0 47 34 80.5t82 33.5q47 0 80.5 -33.5t33.5 -80.5q0 -48 -33 -82t-81 -34q-50 0 -83 33t-33 83z" />
<glyph unicode="&#xb8;" horiz-adv-x="1126" d="M172 -392l6 70q68 -39 132 -59.5t114 -20.5q69 0 102 25t33 78q0 45 -33 72t-89 27q-17 0 -42 -3.5t-59 -10.5l68 214h69l-39 -123q19 2 36 3.5t35 2.5q91 0 144.5 -48t53.5 -132q0 -81 -62 -130.5t-164 -49.5q-91 0 -166.5 20.5t-138.5 64.5z" />
<glyph unicode="&#xb9;" horiz-adv-x="815" d="M169 1340q94 27 196.5 66t215.5 92l14 -9q-47 -209 -88.5 -434.5t-76.5 -468.5q-11 2 -23 3.5t-35 1.5q-26 0 -38 -1.5t-23 -3.5q40 178 78 378.5t75 432.5l-115 -47q-59 -27 -94.5 -44.5t-63.5 -35.5q-2 10 -10 34z" />
<glyph unicode="&#xba;" horiz-adv-x="909" d="M18 1107q0 194 125 320.5t319 126.5q168 0 263 -85.5t95 -238.5q0 -189 -132 -319.5t-325 -130.5q-156 0 -250.5 89t-94.5 238zM153 1084q0 -123 55 -189t157 -66q135 0 227.5 120t92.5 302q0 126 -57.5 193t-165.5 67q-134 0 -221.5 -119.5t-87.5 -307.5z" />
<glyph unicode="&#xbb;" horiz-adv-x="939" d="M-18 78q55 102 124.5 207t155.5 215q-48 118 -84.5 239.5t-63.5 247.5q19 22 32.5 40.5t22.5 35.5q48 -137 103 -279t122 -300q-93 -116 -187.5 -236t-191.5 -248q-6 24 -15 44.5t-18 33.5zM399 78q57 106 127 211t152 211q-47 118 -83.5 239.5t-63.5 247.5q26 29 38 46 t18 30q53 -149 108.5 -293.5t115.5 -285.5q-101 -124 -196.5 -245t-182.5 -239q-6 24 -15 44.5t-18 33.5z" />
<glyph unicode="&#xbc;" horiz-adv-x="1932" d="M163 1348q97 29 196 66.5t195 81.5l14 -7q-46 -193 -85.5 -404.5t-72.5 -439.5q-10 2 -21.5 3t-34.5 1q-24 0 -35.5 -1t-22.5 -3q38 167 74 353.5t71 402.5l-108 -45q-49 -20 -85.5 -37.5t-67.5 -35.5l-9 33t-8 32zM284 -209l1279 1883h111l-1282 -1883h-108zM1194 264 q155 156 291 297t268 279q5 -1 13 -1.5t25 -0.5q13 0 19.5 0.5t11.5 1.5q-20 -98 -44 -215t-61 -314q37 0 117 4h17q-5 -22 -8 -41t-3 -33q-11 0 -58 1.5t-77 2.5q-12 -66 -21.5 -124.5t-17.5 -120.5q-20 2 -31 3t-22 1q-9 0 -19 -0.5t-32 -3.5q11 51 23 110t25 135 q-34 0 -177.5 -1.5t-237.5 -4.5zM1305 311h159h158q20 116 39 215t37 197q-134 -135 -225 -230t-168 -182z" />
<glyph unicode="&#xbd;" horiz-adv-x="1932" d="M163 1348q97 29 196 66.5t195 81.5l14 -7q-46 -193 -85.5 -404.5t-72.5 -439.5q-10 2 -21.5 3t-34.5 1q-24 0 -35.5 -1t-22.5 -3q38 167 74 353.5t71 402.5l-108 -45q-49 -20 -85.5 -37.5t-67.5 -35.5l-9 33t-8 32zM284 -209l1279 1883h111l-1282 -1883h-108zM1187 0v22 q354 290 446.5 404.5t92.5 211.5q0 78 -41 119t-120 41q-60 0 -106.5 -31t-75.5 -92l-7 -1q-8 21 -19 36.5t-26 26.5q46 51 109.5 77t139.5 26q126 0 196.5 -49.5t70.5 -137.5q0 -66 -45.5 -135t-161.5 -174q-40 -35 -148.5 -122.5t-162.5 -142.5h182q51 0 120.5 3t149.5 8 q-6 -14 -9 -29t-3 -36l-1 -25q-116 2 -178 3t-115 1q-95 0 -281 -4h-7z" />
<glyph unicode="&#xbe;" horiz-adv-x="1934" d="M9 692q15 22 25 45.5t13 46.5q38 -56 94 -86.5t121 -30.5q113 0 182.5 67t69.5 176q0 71 -44 112.5t-119 41.5q-18 0 -40 -3.5t-47 -11.5l11 45q134 12 201 64t67 147q0 65 -40 103t-107 38q-59 0 -103.5 -29.5t-66.5 -83.5h-7q-6 18 -14.5 33.5t-21.5 32.5 q44 43 100 64.5t123 21.5q111 0 177 -46t66 -123q0 -73 -56 -128t-172 -98q97 -5 153 -54.5t56 -130.5q0 -47 -23.5 -93t-68.5 -87q-51 -47 -119.5 -73t-147.5 -26q-80 0 -143.5 16t-118.5 50zM284 -209l1279 1883h111l-1282 -1883h-108zM1194 264q155 156 291 297t268 279 q5 -1 13 -1.5t25 -0.5q13 0 19.5 0.5t11.5 1.5q-20 -98 -44 -215t-61 -314q37 0 117 4h17q-5 -22 -8 -41t-3 -33q-11 0 -58 1.5t-77 2.5q-12 -66 -21.5 -124.5t-17.5 -120.5q-20 2 -31 3t-22 1q-9 0 -19 -0.5t-32 -3.5q11 51 23 110t25 135q-34 0 -177.5 -1.5t-237.5 -4.5z M1305 311h159h158q20 116 39 215t37 197q-134 -135 -225 -230t-168 -182z" />
<glyph unicode="&#xbf;" horiz-adv-x="991" d="M151 293q0 114 63.5 206.5t236.5 214.5l9 6q198 141 198 245q0 61 -35 92t-103 31q-16 0 -57 -3q-5 -1 -8 -1l16 72h20q124 0 200.5 -69t76.5 -179q0 -156 -256 -346l-26 -19q-110 -83 -158.5 -155t-48.5 -152q0 -82 51.5 -135.5t129.5 -53.5q58 0 109 22t104 70 q-3 -22 -4.5 -47t-1.5 -72q-53 -20 -98 -30t-87 -10q-149 0 -240 86.5t-91 226.5zM534 1451q0 48 33.5 81t81.5 33t81 -33t33 -81q0 -47 -33.5 -81.5t-80.5 -34.5t-81 34.5t-34 81.5z" />
<glyph unicode="&#xc0;" horiz-adv-x="1331" d="M-128 0q228 385 466 775.5t487 785.5h40q77 -328 163.5 -691.5t210.5 -869.5q-26 6 -49.5 8.5t-45.5 2.5q-23 0 -46.5 -2.5t-49.5 -8.5q-23 155 -52.5 305t-64.5 297q-69 4 -143.5 6t-159.5 2q-84 0 -155 -2t-135 -6q-88 -141 -167.5 -291t-150.5 -311q-17 3 -34 5t-36 2 t-38.5 -2t-39.5 -5zM395 696q98 -3 150 -3.5t100 -0.5q83 0 256 4h7q-30 126 -67 272.5t-82 325.5q-90 -136 -179.5 -283t-184.5 -315zM615 2016q0 30 22.5 53.5t52.5 23.5q23 0 48 -16.5t46 -46.5l235 -331h-75l-267 222q-36 30 -49 50t-13 45z" />
<glyph unicode="&#xc1;" horiz-adv-x="1331" d="M-128 0q228 385 466 775.5t487 785.5h40q77 -328 163.5 -691.5t210.5 -869.5q-26 6 -49.5 8.5t-45.5 2.5q-23 0 -46.5 -2.5t-49.5 -8.5q-23 155 -52.5 305t-64.5 297q-69 4 -143.5 6t-159.5 2q-84 0 -155 -2t-135 -6q-88 -141 -167.5 -291t-150.5 -311q-17 3 -34 5t-36 2 t-38.5 -2t-39.5 -5zM395 696q98 -3 150 -3.5t100 -0.5q83 0 256 4h7q-30 126 -67 272.5t-82 325.5q-90 -136 -179.5 -283t-184.5 -315zM674 1699l329 344q20 22 43.5 34.5t44.5 12.5q30 0 53 -23t23 -54q0 -23 -17.5 -45t-58.5 -49l-338 -220h-79z" />
<glyph unicode="&#xc2;" horiz-adv-x="1331" d="M-128 0q228 385 466 775.5t487 785.5h40q77 -328 163.5 -691.5t210.5 -869.5q-26 6 -49.5 8.5t-45.5 2.5q-23 0 -46.5 -2.5t-49.5 -8.5q-23 155 -52.5 305t-64.5 297q-69 4 -143.5 6t-159.5 2q-84 0 -155 -2t-135 -6q-88 -141 -167.5 -291t-150.5 -311q-17 3 -34 5t-36 2 t-38.5 -2t-39.5 -5zM395 696q98 -3 150 -3.5t100 -0.5q83 0 256 4h7q-30 126 -67 272.5t-82 325.5q-90 -136 -179.5 -283t-184.5 -315zM514 1699l341 383h114l178 -383h-61l-192 245l-305 -245h-75z" />
<glyph unicode="&#xc3;" horiz-adv-x="1331" d="M-128 0q228 385 466 775.5t487 785.5h40q77 -328 163.5 -691.5t210.5 -869.5q-26 6 -49.5 8.5t-45.5 2.5q-23 0 -46.5 -2.5t-49.5 -8.5q-23 155 -52.5 305t-64.5 297q-69 4 -143.5 6t-159.5 2q-84 0 -155 -2t-135 -6q-88 -141 -167.5 -291t-150.5 -311q-17 3 -34 5t-36 2 t-38.5 -2t-39.5 -5zM395 696q98 -3 150 -3.5t100 -0.5q83 0 256 4h7q-30 126 -67 272.5t-82 325.5q-90 -136 -179.5 -283t-184.5 -315zM559 1761q18 103 64.5 153t124.5 50q25 0 45 -3t39 -8l143 -41q14 -3 30.5 -4.5t30.5 -1.5q47 0 73 21.5t38 68.5h54 q-20 -108 -68 -158.5t-130 -50.5h-27q-17 0 -25 1t-16 3l-144 41q-4 0 -12 2q-45 11 -64 11q-42 0 -67.5 -21t-34.5 -63h-54z" />
<glyph unicode="&#xc4;" horiz-adv-x="1331" d="M-128 0q228 385 466 775.5t487 785.5h40q77 -328 163.5 -691.5t210.5 -869.5q-26 6 -49.5 8.5t-45.5 2.5q-23 0 -46.5 -2.5t-49.5 -8.5q-23 155 -52.5 305t-64.5 297q-69 4 -143.5 6t-159.5 2q-84 0 -155 -2t-135 -6q-88 -141 -167.5 -291t-150.5 -311q-17 3 -34 5t-36 2 t-38.5 -2t-39.5 -5zM395 696q98 -3 150 -3.5t100 -0.5q83 0 256 4h7q-30 126 -67 272.5t-82 325.5q-90 -136 -179.5 -283t-184.5 -315zM561 1863q0 43 33 76t76 33q44 0 76 -32.5t32 -76.5q0 -48 -31 -79t-77 -31q-45 0 -77 32.5t-32 77.5zM974 1863q0 43 33 76t74 33 q44 0 76.5 -32.5t32.5 -76.5q0 -48 -30.5 -79t-78.5 -31q-44 0 -75.5 32.5t-31.5 77.5z" />
<glyph unicode="&#xc5;" horiz-adv-x="1331" d="M-128 0q228 385 466 775.5t487 785.5h40q107 -459 198.5 -843t172.5 -718q-20 4 -43.5 6.5t-50.5 2.5t-50 -2.5t-45 -6.5q-22 155 -51.5 305t-64.5 297q-69 4 -143.5 6t-159.5 2q-84 0 -155 -2t-135 -6q-88 -141 -167.5 -291t-150.5 -311q-28 6 -42 7.5t-28 1.5 q-13 0 -29 -1.5t-49 -7.5zM395 696q98 -3 150 -3.5t100 -0.5q83 0 256 4h7q-30 126 -67 272.5t-82 325.5q-90 -136 -179.5 -283t-184.5 -315zM608 1857q0 123 82.5 209t203.5 86q108 0 172.5 -60t64.5 -162q0 -125 -85.5 -210.5t-209.5 -85.5q-103 0 -165.5 60t-62.5 163z M707 1851q0 -68 36.5 -110.5t94.5 -42.5q83 0 138.5 66t55.5 164q0 76 -35.5 115.5t-102.5 39.5q-80 0 -133.5 -65.5t-53.5 -166.5z" />
<glyph unicode="&#xc6;" horiz-adv-x="1709" d="M-142 0q286 394 569.5 779t563.5 760q83 -5 171.5 -7t189.5 -2q99 0 185.5 2t163.5 6q-6 -21 -8.5 -44.5t-2.5 -53.5v-28q-107 17 -217 25.5t-225 8.5h-40q-16 -67 -32 -153.5t-41 -243.5l-28 -195q122 2 241.5 7.5t242.5 14.5q-8 -34 -12.5 -63.5t-6.5 -51.5 q-116 9 -221.5 14t-202.5 5h-58l-49 -280q-20 -117 -32.5 -217t-18.5 -184q24 -1 52 -1.5t84 -0.5q108 0 213 6.5t207 19.5q-6 -23 -9 -45.5t-3 -43.5q0 -14 1 -21t1 -13q-49 1 -107.5 1.5t-177.5 0.5q-191 0 -287.5 -0.5t-179.5 -1.5q34 133 74 388l2 17l34 219 q-37 1 -84 1.5t-146 0.5t-151 -0.5t-96 -1.5q-107 -147 -206.5 -303.5t-192.5 -322.5q-33 5 -53 7t-38 2q-16 0 -33 -2t-36 -5zM486 710h7q133 -5 201 -5q69 0 207 5h7q40 206 72 382t58 344q-57 -61 -205 -255t-347 -471z" />
<glyph unicode="&#xc7;" horiz-adv-x="1430" d="M88 683q0 392 252 638.5t653 246.5q139 0 249 -21.5t194 -65.5l-58 -157q-83 83 -187 124t-230 41q-293 0 -488.5 -229t-195.5 -577q0 -288 152.5 -458.5t406.5 -170.5q106 0 217.5 39t242.5 121l-41 -147q-112 -49 -222.5 -74t-224.5 -25q-333 0 -526.5 192t-193.5 523z M467 -392l6 70q68 -39 132 -59.5t114 -20.5q69 0 102 25t33 78q0 45 -33 72t-89 27q-17 0 -42 -3.5t-59 -10.5l68 214h69l-39 -123q19 2 36 3.5t35 2.5q91 0 144.5 -48t53.5 -132q0 -81 -62 -130.5t-164 -49.5q-91 0 -166.5 20.5t-138.5 64.5z" />
<glyph unicode="&#xc8;" horiz-adv-x="1023" d="M63 0q68 295 134.5 683.5t129.5 854.5q77 -5 150 -7.5t145 -2.5q63 0 155 2t236 9l-17 -127q-88 17 -171.5 24.5t-164.5 7.5h-157q-34 -152 -61.5 -296.5t-49.5 -285.5h196q109 0 181.5 4t131.5 12l-12 -119q-106 10 -180.5 15.5t-117.5 5.5h-213q-32 -197 -57 -360.5 t-48 -322.5l218 2q70 2 156 8t191 17l-9 -124q-161 7 -284 10t-205 3q-73 0 -142 -3t-135 -10zM459 2016q0 30 22.5 53.5t52.5 23.5q23 0 48 -16.5t46 -46.5l235 -331h-75l-267 222q-36 30 -49 50t-13 45z" />
<glyph unicode="&#xc9;" horiz-adv-x="1023" d="M63 0q68 295 134.5 683.5t129.5 854.5q77 -5 150 -7.5t145 -2.5q63 0 155 2t236 9l-17 -127q-88 17 -171.5 24.5t-164.5 7.5h-157q-34 -152 -61.5 -296.5t-49.5 -285.5h196q109 0 181.5 4t131.5 12l-12 -119q-106 10 -180.5 15.5t-117.5 5.5h-213q-32 -197 -57 -360.5 t-48 -322.5l218 2q70 2 156 8t191 17l-9 -124q-161 7 -284 10t-205 3q-73 0 -142 -3t-135 -10zM518 1699l329 344q20 22 43.5 34.5t44.5 12.5q30 0 53 -23t23 -54q0 -23 -17.5 -45t-58.5 -49l-338 -220h-79z" />
<glyph unicode="&#xca;" horiz-adv-x="1023" d="M63 0q68 295 134.5 683.5t129.5 854.5q77 -5 150 -7.5t145 -2.5q63 0 155 2t236 9l-17 -127q-88 17 -171.5 24.5t-164.5 7.5h-157q-34 -152 -61.5 -296.5t-49.5 -285.5h196q109 0 181.5 4t131.5 12l-12 -119q-106 10 -180.5 15.5t-117.5 5.5h-213q-32 -197 -57 -360.5 t-48 -322.5l218 2q70 2 156 8t191 17l-9 -124q-161 7 -284 10t-205 3q-73 0 -142 -3t-135 -10zM358 1699l341 383h114l178 -383h-61l-192 245l-305 -245h-75z" />
<glyph unicode="&#xcb;" horiz-adv-x="1023" d="M63 0q68 295 134.5 683.5t129.5 854.5q77 -5 150 -7.5t145 -2.5q63 0 155 2t236 9l-17 -127q-88 17 -171.5 24.5t-164.5 7.5h-157q-34 -152 -61.5 -296.5t-49.5 -285.5h196q109 0 181.5 4t131.5 12l-12 -119q-106 10 -180.5 15.5t-117.5 5.5h-213q-32 -197 -57 -360.5 t-48 -322.5l218 2q70 2 156 8t191 17l-9 -124q-161 7 -284 10t-205 3q-73 0 -142 -3t-135 -10zM405 1863q0 43 33 76t76 33q44 0 76 -32.5t32 -76.5q0 -48 -31 -79t-77 -31q-45 0 -77 32.5t-32 77.5zM818 1863q0 43 33 76t74 33q44 0 76.5 -32.5t32.5 -76.5q0 -48 -30.5 -79 t-78.5 -31q-44 0 -75.5 32.5t-31.5 77.5z" />
<glyph unicode="&#xcc;" horiz-adv-x="595" d="M70 0q65 285 130.5 671t130.5 868q23 -5 47 -7t50 -2q27 0 51.5 2t45.5 7q-81 -383 -147 -768t-117 -771q-26 6 -49.5 8.5t-44.5 2.5q-22 0 -45 -2.5t-52 -8.5zM227 2016q0 30 22.5 53.5t52.5 23.5q23 0 48 -16.5t46 -46.5l235 -331h-75l-267 222q-36 30 -49 50t-13 45z " />
<glyph unicode="&#xcd;" horiz-adv-x="595" d="M70 0q65 285 130.5 671t130.5 868q23 -5 47 -7t50 -2q27 0 51.5 2t45.5 7q-81 -383 -147 -768t-117 -771q-26 6 -49.5 8.5t-44.5 2.5q-22 0 -45 -2.5t-52 -8.5zM286 1699l329 344q20 22 43.5 34.5t44.5 12.5q30 0 53 -23t23 -54q0 -23 -17.5 -45t-58.5 -49l-338 -220h-79 z" />
<glyph unicode="&#xce;" horiz-adv-x="595" d="M70 0q65 285 130.5 671t130.5 868q23 -5 47 -7t50 -2q27 0 51.5 2t45.5 7q-81 -383 -147 -768t-117 -771q-26 6 -49.5 8.5t-44.5 2.5q-22 0 -45 -2.5t-52 -8.5zM126 1699l341 383h114l178 -383h-61l-192 245l-305 -245h-75z" />
<glyph unicode="&#xcf;" horiz-adv-x="595" d="M70 0q65 285 130.5 671t130.5 868q23 -5 47 -7t50 -2q27 0 51.5 2t45.5 7q-81 -383 -147 -768t-117 -771q-26 6 -49.5 8.5t-44.5 2.5q-22 0 -45 -2.5t-52 -8.5zM173 1863q0 43 33 76t76 33q44 0 76 -32.5t32 -76.5q0 -48 -31 -79t-77 -31q-45 0 -77 32.5t-32 77.5z M586 1863q0 43 33 76t74 33q44 0 76.5 -32.5t32.5 -76.5q0 -48 -30.5 -79t-78.5 -31q-44 0 -75.5 32.5t-31.5 77.5z" />
<glyph unicode="&#xd0;" horiz-adv-x="1672" d="M21 776l15 89q54 -4 105 -5.5t98 -1.5q39 233 64 395.5t39 284.5l130.5 -3t81.5 -1q40 0 135.5 2.5t153.5 2.5q379 0 564.5 -157.5t185.5 -480.5q0 -159 -49.5 -298.5t-148.5 -260.5q-149 -180 -349 -261t-500 -81q-37 0 -132.5 2t-153.5 2q-72 0 -110 -1t-71 -3 q32 140 67.5 328.5t79.5 453.5q-52 0 -103 -1.5t-102 -4.5zM289 97q82 -7 134 -9t93 -2q416 0 648.5 214.5t232.5 595.5q0 136 -38 243.5t-111 182.5t-189 107.5t-324 32.5q-49 0 -102.5 -1.5t-114.5 -5.5q-36 -179 -102 -565l-6 -31q95 -1 195 0.5t206 5.5l-18 -89 q-98 3 -197.5 4.5t-199.5 1.5q-21 -122 -48 -294t-59 -391z" />
<glyph unicode="&#xd1;" horiz-adv-x="1642" d="M59 0q52 221 121 622.5t147 940.5h40q233 -359 456 -673.5t434 -580.5l101 656q27 175 44 315t27 259q22 -3 40.5 -5t37.5 -2q21 0 38 2t33 5q-61 -277 -130.5 -679t-136.5 -885h-41q-250 367 -469 678t-412 572l-94 -563q-24 -150 -45.5 -313.5t-40.5 -348.5 q-17 3 -34.5 5t-36.5 2t-38.5 -2t-40.5 -5zM694 1761q18 103 64.5 153t124.5 50q25 0 45 -3t39 -8l143 -41q14 -3 30.5 -4.5t30.5 -1.5q47 0 73 21.5t38 68.5h54q-20 -108 -68 -158.5t-130 -50.5h-27q-17 0 -25 1t-16 3l-144 41q-4 0 -12 2q-45 11 -64 11q-42 0 -67.5 -21 t-34.5 -63h-54z" />
<glyph unicode="&#xd2;" horiz-adv-x="1820" d="M84 653q0 174 62.5 333.5t184.5 297.5q125 140 298 213t381 73q336 0 533.5 -181t197.5 -486q0 -171 -57.5 -331.5t-167.5 -289.5q-131 -154 -308 -234t-393 -80q-341 0 -536 183t-195 502zM279 632q0 -279 140.5 -433t395.5 -154q176 0 320 75.5t239 215.5 q84 123 128 272.5t44 305.5q0 275 -143 427.5t-403 152.5q-168 0 -304 -69.5t-230 -201.5q-91 -126 -139 -277.5t-48 -313.5zM839 2016q0 30 22.5 53.5t52.5 23.5q23 0 48 -16.5t46 -46.5l235 -331h-75l-267 222q-36 30 -49 50t-13 45z" />
<glyph unicode="&#xd3;" horiz-adv-x="1820" d="M84 653q0 174 62.5 333.5t184.5 297.5q125 140 298 213t381 73q336 0 533.5 -181t197.5 -486q0 -171 -57.5 -331.5t-167.5 -289.5q-131 -154 -308 -234t-393 -80q-341 0 -536 183t-195 502zM279 632q0 -279 140.5 -433t395.5 -154q176 0 320 75.5t239 215.5 q84 123 128 272.5t44 305.5q0 275 -143 427.5t-403 152.5q-168 0 -304 -69.5t-230 -201.5q-91 -126 -139 -277.5t-48 -313.5zM898 1699l329 344q20 22 43.5 34.5t44.5 12.5q30 0 53 -23t23 -54q0 -23 -17.5 -45t-58.5 -49l-338 -220h-79z" />
<glyph unicode="&#xd4;" horiz-adv-x="1820" d="M84 653q0 174 62.5 333.5t184.5 297.5q125 140 298 213t381 73q336 0 533.5 -181t197.5 -486q0 -171 -57.5 -331.5t-167.5 -289.5q-131 -154 -308 -234t-393 -80q-341 0 -536 183t-195 502zM279 632q0 -279 140.5 -433t395.5 -154q176 0 320 75.5t239 215.5 q84 123 128 272.5t44 305.5q0 275 -143 427.5t-403 152.5q-168 0 -304 -69.5t-230 -201.5q-91 -126 -139 -277.5t-48 -313.5zM738 1699l341 383h114l178 -383h-61l-192 245l-305 -245h-75z" />
<glyph unicode="&#xd5;" horiz-adv-x="1820" d="M84 653q0 174 62.5 333.5t184.5 297.5q125 140 298 213t381 73q336 0 533.5 -181t197.5 -486q0 -171 -57.5 -331.5t-167.5 -289.5q-131 -154 -308 -234t-393 -80q-341 0 -536 183t-195 502zM279 632q0 -279 140.5 -433t395.5 -154q176 0 320 75.5t239 215.5 q84 123 128 272.5t44 305.5q0 275 -143 427.5t-403 152.5q-168 0 -304 -69.5t-230 -201.5q-91 -126 -139 -277.5t-48 -313.5zM783 1761q18 103 64.5 153t124.5 50q25 0 45 -3t39 -8l143 -41q14 -3 30.5 -4.5t30.5 -1.5q47 0 73 21.5t38 68.5h54q-20 -108 -68 -158.5 t-130 -50.5h-27q-17 0 -25 1t-16 3l-144 41q-4 0 -12 2q-45 11 -64 11q-42 0 -67.5 -21t-34.5 -63h-54z" />
<glyph unicode="&#xd6;" horiz-adv-x="1820" d="M84 653q0 174 62.5 333.5t184.5 297.5q125 140 298 213t381 73q336 0 533.5 -181t197.5 -486q0 -171 -57.5 -331.5t-167.5 -289.5q-131 -154 -308 -234t-393 -80q-341 0 -536 183t-195 502zM279 632q0 -279 140.5 -433t395.5 -154q176 0 320 75.5t239 215.5 q84 123 128 272.5t44 305.5q0 275 -143 427.5t-403 152.5q-168 0 -304 -69.5t-230 -201.5q-91 -126 -139 -277.5t-48 -313.5zM785 1863q0 43 33 76t76 33q44 0 76 -32.5t32 -76.5q0 -48 -31 -79t-77 -31q-45 0 -77 32.5t-32 77.5zM1198 1863q0 43 33 76t74 33 q44 0 76.5 -32.5t32.5 -76.5q0 -48 -30.5 -79t-78.5 -31q-44 0 -75.5 32.5t-31.5 77.5z" />
<glyph unicode="&#xd7;" horiz-adv-x="1876" d="M336 142l529 529l-529 530l76 76l530 -529l529 529l77 -76l-529 -530l529 -529l-77 -77l-529 530l-530 -530z" />
<glyph unicode="&#xd8;" horiz-adv-x="1820" d="M50 -99q76 79 132 139t100 111q-100 95 -149 220.5t-49 286.5q0 162 55.5 313t161.5 282q125 151 309.5 234t395.5 83q139 0 253.5 -29.5t202.5 -87.5q47 56 95 113.5t96 118.5q15 -19 33 -37t39 -34q-83 -87 -124 -130.5t-76 -79.5q109 -99 162.5 -227.5t53.5 -284.5 q0 -172 -61.5 -334t-176.5 -292q-131 -148 -307.5 -223t-395.5 -75q-141 0 -252 31.5t-197 95.5q-68 -75 -124.5 -140t-100.5 -122q-14 21 -33 38t-43 30zM279 636q0 -119 24.5 -213.5t72.5 -162.5q222 237 467.5 506t536.5 595q-57 63 -156.5 98t-227.5 35 q-150 0 -274.5 -57t-223.5 -169q-100 -114 -159.5 -284.5t-59.5 -347.5zM432 185q77 -72 171.5 -106t219.5 -34q170 0 312.5 74.5t238.5 213.5q84 120 128 269t44 308q0 116 -27 212.5t-81 173.5q-279 -300 -527.5 -575t-478.5 -536z" />
<glyph unicode="&#xd9;" horiz-adv-x="1626" d="M140 406q0 85 67.5 464.5t103.5 668.5q22 -5 46.5 -7t50.5 -2t49.5 2t45.5 7q-88 -403 -140 -718.5t-52 -424.5q0 -150 109 -240.5t290 -90.5q190 0 328 84.5t194 235.5q63 171 115.5 472.5t85.5 681.5q5 -1 12 -2q45 -7 66 -7q16 0 30.5 1.5t41.5 7.5 q-46 -199 -113.5 -582.5t-117.5 -550.5q-64 -209 -238.5 -322.5t-433.5 -113.5q-252 0 -396 116t-144 320zM766 2016q0 30 22.5 53.5t52.5 23.5q23 0 48 -16.5t46 -46.5l235 -331h-75l-267 222q-36 30 -49 50t-13 45z" />
<glyph unicode="&#xda;" horiz-adv-x="1626" d="M140 406q0 85 67.5 464.5t103.5 668.5q22 -5 46.5 -7t50.5 -2t49.5 2t45.5 7q-88 -403 -140 -718.5t-52 -424.5q0 -150 109 -240.5t290 -90.5q190 0 328 84.5t194 235.5q63 171 115.5 472.5t85.5 681.5q5 -1 12 -2q45 -7 66 -7q16 0 30.5 1.5t41.5 7.5 q-46 -199 -113.5 -582.5t-117.5 -550.5q-64 -209 -238.5 -322.5t-433.5 -113.5q-252 0 -396 116t-144 320zM825 1699l329 344q20 22 43.5 34.5t44.5 12.5q30 0 53 -23t23 -54q0 -23 -17.5 -45t-58.5 -49l-338 -220h-79z" />
<glyph unicode="&#xdb;" horiz-adv-x="1626" d="M140 406q0 85 67.5 464.5t103.5 668.5q22 -5 46.5 -7t50.5 -2t49.5 2t45.5 7q-88 -403 -140 -718.5t-52 -424.5q0 -150 109 -240.5t290 -90.5q190 0 328 84.5t194 235.5q63 171 115.5 472.5t85.5 681.5q5 -1 12 -2q45 -7 66 -7q16 0 30.5 1.5t41.5 7.5 q-46 -199 -113.5 -582.5t-117.5 -550.5q-64 -209 -238.5 -322.5t-433.5 -113.5q-252 0 -396 116t-144 320zM665 1699l341 383h114l178 -383h-61l-192 245l-305 -245h-75z" />
<glyph unicode="&#xdc;" horiz-adv-x="1626" d="M140 406q0 85 67.5 464.5t103.5 668.5q22 -5 46.5 -7t50.5 -2t49.5 2t45.5 7q-88 -403 -140 -718.5t-52 -424.5q0 -150 109 -240.5t290 -90.5q190 0 328 84.5t194 235.5q63 171 115.5 472.5t85.5 681.5q5 -1 12 -2q45 -7 66 -7q16 0 30.5 1.5t41.5 7.5 q-46 -199 -113.5 -582.5t-117.5 -550.5q-64 -209 -238.5 -322.5t-433.5 -113.5q-252 0 -396 116t-144 320zM712 1863q0 43 33 76t76 33q44 0 76 -32.5t32 -76.5q0 -48 -31 -79t-77 -31q-45 0 -77 32.5t-32 77.5zM1125 1863q0 43 33 76t74 33q44 0 76.5 -32.5t32.5 -76.5 q0 -48 -30.5 -79t-78.5 -31q-44 0 -75.5 32.5t-31.5 77.5z" />
<glyph unicode="&#xdd;" horiz-adv-x="1079" d="M23 1538q18 -2 40 -4t66 -2q43 0 64 2t39 5q67 -193 147 -389t171 -395q145 198 271.5 393.5t234.5 389.5q20 -2 38.5 -4t36.5 -2q20 0 38 2t33 4q-244 -350 -367 -526t-229 -327l-45 -255q-21 -115 -31 -222t-10 -208q-23 4 -46.5 6.5t-52.5 2.5q-26 0 -49.5 -2.5 t-47.5 -6.5q29 122 62 338q8 56 12 83l32 203q-101 234 -203 462t-204 452zM528 1699l329 344q20 22 43.5 34.5t44.5 12.5q30 0 53 -23t23 -54q0 -23 -17.5 -45t-58.5 -49l-338 -220h-79z" />
<glyph unicode="&#xde;" horiz-adv-x="1178" d="M64 0q70 319 137 709t126 830q23 -5 46.5 -7t50.5 -2t51 2t45 7q-11 -49 -33 -156q-11 -52 -16 -78q91 4 164 6t106 2q192 0 290 -80t98 -237q0 -250 -170.5 -377.5t-505.5 -127.5q-22 0 -49.5 1t-74.5 4l-11 -75q-20 -117 -32 -223t-19 -198q-27 6 -52 8.5t-48 2.5 q-25 0 -50.5 -2.5t-52.5 -8.5zM338 568q13 0 36 -2q57 -3 77 -3q239 0 370.5 112.5t131.5 313.5q0 127 -78.5 187t-244.5 60q-29 0 -116 -5q-37 -2 -56 -3q-36 -171 -65.5 -335t-54.5 -325z" />
<glyph unicode="&#xdf;" horiz-adv-x="1214" d="M22 0q66 304 143 788t134 607q65 141 180.5 218t261.5 77q135 0 215 -63.5t80 -168.5q0 -62 -28 -126.5t-84 -128.5q-30 -34 -82 -91q-137 -147 -137 -209q0 -73 133 -164q28 -19 43 -29q113 -82 155.5 -149.5t42.5 -156.5q0 -174 -143.5 -303t-347.5 -129 q-42 0 -88.5 12t-91.5 34q18 34 30 73t20 83h11q34 -57 87.5 -87.5t123.5 -30.5q112 0 185.5 78.5t73.5 198.5q0 71 -39 128.5t-167 153.5q-103 76 -132 117.5t-29 90.5q0 47 28 97.5t94 120.5l61 66q75 80 111.5 156t36.5 152q0 93 -53.5 147.5t-142.5 54.5 q-98 0 -172 -72.5t-114 -209.5q-44 -144 -103.5 -508.5t-112.5 -826.5q-18 2 -38.5 3t-58.5 1q-36 0 -53.5 -1t-32.5 -3z" />
<glyph unicode="&#xe0;" horiz-adv-x="1070" d="M9 248q0 83 44.5 151.5t131.5 118.5q77 45 284 83q58 11 87 16q115 22 135.5 51t20.5 134q0 96 -57 148t-159 52q-77 0 -148.5 -38t-140.5 -115h-22q11 45 16.5 71t8.5 47q82 63 162 91t176 28q154 0 236.5 -69.5t82.5 -199.5q0 -43 -27 -212q-5 -39 -8 -59l-34 -217 l-2 -7q-16 -109 -16 -122q0 -52 20.5 -77.5t61.5 -25.5q11 0 34.5 5t34.5 6l4 -48q-43 -31 -87 -47.5t-89 -16.5q-57 0 -93 41.5t-42 115.5q-68 -85 -154 -128t-188 -43q-129 0 -201 70t-72 196zM165 260q0 -81 51 -128.5t135 -47.5q82 0 157.5 45.5t123.5 124.5 q10 85 22.5 165.5t28.5 159.5q-317 -62 -417.5 -129.5t-100.5 -189.5zM368 1525q0 30 22.5 53.5t52.5 23.5q23 0 48 -16.5t46 -46.5l235 -331h-75l-267 222q-36 30 -49 50t-13 45z" />
<glyph unicode="&#xe1;" horiz-adv-x="1070" d="M9 248q0 83 44.5 151.5t131.5 118.5q77 45 284 83q58 11 87 16q115 22 135.5 51t20.5 134q0 96 -57 148t-159 52q-77 0 -148.5 -38t-140.5 -115h-22q11 45 16.5 71t8.5 47q82 63 162 91t176 28q154 0 236.5 -69.5t82.5 -199.5q0 -43 -27 -212q-5 -39 -8 -59l-34 -217 l-2 -7q-16 -109 -16 -122q0 -52 20.5 -77.5t61.5 -25.5q11 0 34.5 5t34.5 6l4 -48q-43 -31 -87 -47.5t-89 -16.5q-57 0 -93 41.5t-42 115.5q-68 -85 -154 -128t-188 -43q-129 0 -201 70t-72 196zM165 260q0 -81 51 -128.5t135 -47.5q82 0 157.5 45.5t123.5 124.5 q10 85 22.5 165.5t28.5 159.5q-317 -62 -417.5 -129.5t-100.5 -189.5zM427 1208l329 344q20 22 43.5 34.5t44.5 12.5q30 0 53 -23t23 -54q0 -23 -17.5 -45t-58.5 -49l-338 -220h-79z" />
<glyph unicode="&#xe2;" horiz-adv-x="1070" d="M9 248q0 83 44.5 151.5t131.5 118.5q77 45 284 83q58 11 87 16q115 22 135.5 51t20.5 134q0 96 -57 148t-159 52q-77 0 -148.5 -38t-140.5 -115h-22q11 45 16.5 71t8.5 47q82 63 162 91t176 28q154 0 236.5 -69.5t82.5 -199.5q0 -43 -27 -212q-5 -39 -8 -59l-34 -217 l-2 -7q-16 -109 -16 -122q0 -52 20.5 -77.5t61.5 -25.5q11 0 34.5 5t34.5 6l4 -48q-43 -31 -87 -47.5t-89 -16.5q-57 0 -93 41.5t-42 115.5q-68 -85 -154 -128t-188 -43q-129 0 -201 70t-72 196zM165 260q0 -81 51 -128.5t135 -47.5q82 0 157.5 45.5t123.5 124.5 q10 85 22.5 165.5t28.5 159.5q-317 -62 -417.5 -129.5t-100.5 -189.5zM267 1208l341 383h114l178 -383h-61l-192 245l-305 -245h-75z" />
<glyph unicode="&#xe3;" horiz-adv-x="1070" d="M9 248q0 83 44.5 151.5t131.5 118.5q77 45 284 83q58 11 87 16q115 22 135.5 51t20.5 134q0 96 -57 148t-159 52q-77 0 -148.5 -38t-140.5 -115h-22q11 45 16.5 71t8.5 47q82 63 162 91t176 28q154 0 236.5 -69.5t82.5 -199.5q0 -43 -27 -212q-5 -39 -8 -59l-34 -217 l-2 -7q-16 -109 -16 -122q0 -52 20.5 -77.5t61.5 -25.5q11 0 34.5 5t34.5 6l4 -48q-43 -31 -87 -47.5t-89 -16.5q-57 0 -93 41.5t-42 115.5q-68 -85 -154 -128t-188 -43q-129 0 -201 70t-72 196zM165 260q0 -81 51 -128.5t135 -47.5q82 0 157.5 45.5t123.5 124.5 q10 85 22.5 165.5t28.5 159.5q-317 -62 -417.5 -129.5t-100.5 -189.5zM312 1270q18 103 64.5 153t124.5 50q25 0 45 -3t39 -8l143 -41q14 -3 30.5 -4.5t30.5 -1.5q47 0 73 21.5t38 68.5h54q-20 -108 -68 -158.5t-130 -50.5h-27q-17 0 -25 1t-16 3l-144 41q-4 0 -12 2 q-45 11 -64 11q-42 0 -67.5 -21t-34.5 -63h-54z" />
<glyph unicode="&#xe4;" horiz-adv-x="1070" d="M9 248q0 83 44.5 151.5t131.5 118.5q77 45 284 83q58 11 87 16q115 22 135.5 51t20.5 134q0 96 -57 148t-159 52q-77 0 -148.5 -38t-140.5 -115h-22q11 45 16.5 71t8.5 47q82 63 162 91t176 28q154 0 236.5 -69.5t82.5 -199.5q0 -43 -27 -212q-5 -39 -8 -59l-34 -217 l-2 -7q-16 -109 -16 -122q0 -52 20.5 -77.5t61.5 -25.5q11 0 34.5 5t34.5 6l4 -48q-43 -31 -87 -47.5t-89 -16.5q-57 0 -93 41.5t-42 115.5q-68 -85 -154 -128t-188 -43q-129 0 -201 70t-72 196zM165 260q0 -81 51 -128.5t135 -47.5q82 0 157.5 45.5t123.5 124.5 q10 85 22.5 165.5t28.5 159.5q-317 -62 -417.5 -129.5t-100.5 -189.5zM314 1372q0 43 33 76t76 33q44 0 76 -32.5t32 -76.5q0 -48 -31 -79t-77 -31q-45 0 -77 32.5t-32 77.5zM727 1372q0 43 33 76t74 33q44 0 76.5 -32.5t32.5 -76.5q0 -48 -30.5 -79t-78.5 -31 q-44 0 -75.5 32.5t-31.5 77.5z" />
<glyph unicode="&#xe5;" horiz-adv-x="1070" d="M9 248q0 83 44.5 151.5t131.5 118.5q77 45 284 83q58 11 87 16q115 22 135.5 51t20.5 134q0 96 -57 148t-159 52q-77 0 -148.5 -38t-140.5 -115h-22q11 45 16.5 71t8.5 47q82 63 162 91t176 28q154 0 236.5 -69.5t82.5 -199.5q0 -43 -27 -212q-5 -39 -8 -59l-34 -217 l-2 -7q-16 -109 -16 -122q0 -52 20.5 -77.5t61.5 -25.5q11 0 34.5 5t34.5 6l4 -48q-43 -31 -87 -47.5t-89 -16.5q-57 0 -93 41.5t-42 115.5q-68 -85 -154 -128t-188 -43q-129 0 -201 70t-72 196zM165 260q0 -81 51 -128.5t135 -47.5q82 0 157.5 45.5t123.5 124.5 q10 85 22.5 165.5t28.5 159.5q-317 -62 -417.5 -129.5t-100.5 -189.5zM333 1378q0 130 82.5 215.5t208.5 85.5q109 0 170.5 -58t61.5 -159q0 -128 -85 -215t-210 -87q-103 0 -165.5 59.5t-62.5 158.5zM432 1378q0 -68 36.5 -109t94.5 -41q83 0 138.5 66t55.5 164 q0 75 -35.5 115t-102.5 40q-79 0 -133 -66.5t-54 -168.5z" />
<glyph unicode="&#xe6;" horiz-adv-x="1709" d="M4 232q0 107 57.5 183.5t168.5 118.5q41 16 201 45.5t261 76.5q9 30 13.5 57.5t4.5 52.5q0 113 -58 174.5t-164 61.5q-76 0 -146 -38t-123 -108h-32q8 25 12.5 52t6.5 52q67 61 155 93.5t185 32.5q94 0 166.5 -38.5t119.5 -114.5q71 75 163.5 114t198.5 39 q195 0 304.5 -107.5t109.5 -298.5q0 -26 -3 -58t-12 -81q-111 6 -231 8.5t-263 2.5h-140q-57 0 -84.5 -0.5t-51.5 -1.5q-7 -31 -9.5 -64t-2.5 -74q0 -167 86.5 -260.5t242.5 -93.5q90 0 177.5 33t166.5 95q-7 -33 -11.5 -61t-6.5 -52q-89 -50 -179.5 -74t-187.5 -24 q-156 0 -254.5 61t-156.5 194q-87 -128 -188.5 -191.5t-217.5 -63.5q-128 0 -203 69t-75 188zM160 260q0 -84 50 -132.5t134 -48.5q149 0 231 121.5t100 369.5q-303 -52 -409 -119.5t-106 -190.5zM832 638q126 -7 236 -9.5t209 -2.5q28 0 83 1t82 1q4 25 6.5 50.5t2.5 49.5 q0 139 -65.5 215t-184.5 76q-144 0 -243 -102t-126 -279z" />
<glyph unicode="&#xe7;" horiz-adv-x="1031" d="M30 441q0 284 172 463.5t447 179.5q92 0 178.5 -15t168.5 -46q-19 -39 -33.5 -81t-25.5 -93l-11 -4q-36 81 -111.5 127.5t-174.5 46.5q-196 0 -314.5 -173t-118.5 -459q0 -154 76.5 -242.5t207.5 -88.5q100 0 194 38.5t195 121.5q-7 -40 -11 -73t-7 -62q-93 -52 -186 -79 t-185 -27q-209 0 -335 127.5t-126 338.5zM197 -392l6 70q68 -39 132 -59.5t114 -20.5q69 0 102 25t33 78q0 45 -33 72t-89 27q-17 0 -42 -3.5t-59 -10.5l68 214h69l-39 -123q19 2 36 3.5t35 2.5q91 0 144.5 -48t53.5 -132q0 -81 -62 -130.5t-164 -49.5q-91 0 -166.5 20.5 t-138.5 64.5z" />
<glyph unicode="&#xe8;" horiz-adv-x="1090" d="M32 466q0 281 150 449.5t399 168.5q191 0 298.5 -98t107.5 -272q0 -30 -3 -70t-8 -96q-105 4 -217 6.5t-237 2.5q-130 0 -194.5 -1.5t-117.5 -3.5q-4 -31 -6 -58.5t-2 -50.5q0 -182 89.5 -280t256.5 -98q76 0 154 29t165 90q-6 -19 -11.5 -43.5t-10.5 -59.5 q-82 -52 -167.5 -79t-174.5 -27q-218 0 -344.5 132.5t-126.5 358.5zM223 640l13 -1q198 -3 293 -3q55 0 117 0.5t171 3.5q4 24 6 49t2 48q0 133 -64 208.5t-176 75.5q-136 0 -234 -102.5t-128 -278.5zM378 1525q0 30 22.5 53.5t52.5 23.5q23 0 48 -16.5t46 -46.5l235 -331 h-75l-267 222q-36 30 -49 50t-13 45z" />
<glyph unicode="&#xe9;" horiz-adv-x="1090" d="M32 466q0 281 150 449.5t399 168.5q191 0 298.5 -98t107.5 -272q0 -30 -3 -70t-8 -96q-105 4 -217 6.5t-237 2.5q-130 0 -194.5 -1.5t-117.5 -3.5q-4 -31 -6 -58.5t-2 -50.5q0 -182 89.5 -280t256.5 -98q76 0 154 29t165 90q-6 -19 -11.5 -43.5t-10.5 -59.5 q-82 -52 -167.5 -79t-174.5 -27q-218 0 -344.5 132.5t-126.5 358.5zM223 640l13 -1q198 -3 293 -3q55 0 117 0.5t171 3.5q4 24 6 49t2 48q0 133 -64 208.5t-176 75.5q-136 0 -234 -102.5t-128 -278.5zM437 1208l329 344q20 22 43.5 34.5t44.5 12.5q30 0 53 -23t23 -54 q0 -23 -17.5 -45t-58.5 -49l-338 -220h-79z" />
<glyph unicode="&#xea;" horiz-adv-x="1090" d="M32 466q0 281 150 449.5t399 168.5q191 0 298.5 -98t107.5 -272q0 -30 -3 -70t-8 -96q-105 4 -217 6.5t-237 2.5q-130 0 -194.5 -1.5t-117.5 -3.5q-4 -31 -6 -58.5t-2 -50.5q0 -182 89.5 -280t256.5 -98q76 0 154 29t165 90q-6 -19 -11.5 -43.5t-10.5 -59.5 q-82 -52 -167.5 -79t-174.5 -27q-218 0 -344.5 132.5t-126.5 358.5zM223 640l13 -1q198 -3 293 -3q55 0 117 0.5t171 3.5q4 24 6 49t2 48q0 133 -64 208.5t-176 75.5q-136 0 -234 -102.5t-128 -278.5zM277 1208l341 383h114l178 -383h-61l-192 245l-305 -245h-75z" />
<glyph unicode="&#xeb;" horiz-adv-x="1090" d="M32 466q0 281 150 449.5t399 168.5q191 0 298.5 -98t107.5 -272q0 -30 -3 -70t-8 -96q-105 4 -217 6.5t-237 2.5q-130 0 -194.5 -1.5t-117.5 -3.5q-4 -31 -6 -58.5t-2 -50.5q0 -182 89.5 -280t256.5 -98q76 0 154 29t165 90q-6 -19 -11.5 -43.5t-10.5 -59.5 q-82 -52 -167.5 -79t-174.5 -27q-218 0 -344.5 132.5t-126.5 358.5zM223 640l13 -1q198 -3 293 -3q55 0 117 0.5t171 3.5q4 24 6 49t2 48q0 133 -64 208.5t-176 75.5q-136 0 -234 -102.5t-128 -278.5zM324 1372q0 43 33 76t76 33q44 0 76 -32.5t32 -76.5q0 -48 -31 -79 t-77 -31q-45 0 -77 32.5t-32 77.5zM737 1372q0 43 33 76t74 33q44 0 76.5 -32.5t32.5 -76.5q0 -48 -30.5 -79t-78.5 -31q-44 0 -75.5 32.5t-31.5 77.5z" />
<glyph unicode="&#xec;" horiz-adv-x="526" d="M34 0q48 204 94.5 474t85.5 590q27 -5 49 -6t44 -1q23 0 44 1.5t41 4.5q-70 -338 -116.5 -612.5t-64.5 -450.5q-20 3 -40.5 5t-44.5 2q-22 0 -44.5 -2t-47.5 -5zM97 1525q0 30 22.5 53.5t52.5 23.5q23 0 48 -16.5t46 -46.5l235 -331h-75l-267 222q-36 30 -49 50t-13 45z " />
<glyph unicode="&#xed;" horiz-adv-x="526" d="M34 0q48 204 94.5 474t85.5 590q27 -5 49 -6t44 -1q23 0 44 1.5t41 4.5q-70 -338 -116.5 -612.5t-64.5 -450.5q-20 3 -40.5 5t-44.5 2q-22 0 -44.5 -2t-47.5 -5zM156 1208l329 344q20 22 43.5 34.5t44.5 12.5q30 0 53 -23t23 -54q0 -23 -17.5 -45t-58.5 -49l-338 -220 h-79z" />
<glyph unicode="&#xee;" horiz-adv-x="526" d="M-4 1208l341 383h114l178 -383h-61l-192 245l-305 -245h-75zM34 0q48 204 94.5 474t85.5 590q27 -5 49 -6t44 -1q23 0 44 1.5t41 4.5q-70 -338 -116.5 -612.5t-64.5 -450.5q-20 3 -40.5 5t-44.5 2q-22 0 -44.5 -2t-47.5 -5z" />
<glyph unicode="&#xef;" horiz-adv-x="526" d="M34 0q48 204 94.5 474t85.5 590q27 -5 49 -6t44 -1q23 0 44 1.5t41 4.5q-70 -338 -116.5 -612.5t-64.5 -450.5q-20 3 -40.5 5t-44.5 2q-22 0 -44.5 -2t-47.5 -5zM43 1372q0 43 33 76t76 33q44 0 76 -32.5t32 -76.5q0 -48 -31 -79t-77 -31q-45 0 -77 32.5t-32 77.5z M456 1372q0 43 33 76t74 33q44 0 76.5 -32.5t32.5 -76.5q0 -48 -30.5 -79t-78.5 -31q-44 0 -75.5 32.5t-31.5 77.5z" />
<glyph unicode="&#xf0;" horiz-adv-x="1214" d="M22 443q0 279 168 461t423 182q46 0 91.5 -5.5t90.5 -16.5q-29 43 -78 104.5t-129 153.5q-50 -32 -108.5 -72t-152.5 -108l-43 68q80 52 141 92.5t116 77.5q-59 76 -105.5 130.5t-89.5 97.5l114 82q33 -52 74 -107.5t104 -133.5q57 37 117.5 79t125.5 89l43 -69 q-57 -33 -115.5 -71.5t-125.5 -88.5q247 -304 328 -464.5t81 -304.5q0 -270 -176 -455.5t-434 -185.5q-208 0 -334 127.5t-126 337.5zM202 412q0 -176 74 -269t210 -93q181 0 302.5 171t121.5 430q0 181 -76 276.5t-219 95.5q-178 0 -295.5 -171.5t-117.5 -439.5z" />
<glyph unicode="&#xf1;" horiz-adv-x="1210" d="M25 0q76 384 119.5 633t67.5 431q23 -4 44 -5.5t41 -1.5q21 0 39.5 1.5t37.5 4.5q-7 -41 -13.5 -80.5t-12.5 -78.5q88 89 174 131t185 42q152 0 235 -74.5t83 -209.5q0 -64 -45 -335t-70 -458q-33 6 -50.5 7.5t-34.5 1.5q-26 0 -81 -8q-7 0 -11 -1q71 346 100 519.5 t29 246.5q0 100 -58.5 152.5t-171.5 52.5q-106 0 -188 -63t-117 -173q-31 -99 -62.5 -279t-64.5 -456q-20 4 -41 6.5t-47 2.5q-24 0 -46 -2.5t-41 -6.5zM383 1270q18 103 64.5 153t124.5 50q25 0 45 -3t39 -8l143 -41q14 -3 30.5 -4.5t30.5 -1.5q47 0 73 21.5t38 68.5h54 q-20 -108 -68 -158.5t-130 -50.5h-27q-17 0 -25 1t-16 3l-144 41q-4 0 -12 2q-45 11 -64 11q-42 0 -67.5 -21t-34.5 -63h-54z" />
<glyph unicode="&#xf2;" horiz-adv-x="1214" d="M22 443q0 280 168 461.5t425 181.5q224 0 350.5 -124t126.5 -343q0 -269 -176.5 -455t-433.5 -186q-208 0 -334 127.5t-126 337.5zM202 412q0 -176 74 -269t210 -93q181 0 303.5 171t122.5 430q0 181 -76.5 276.5t-220.5 95.5q-179 0 -296 -171.5t-117 -439.5zM441 1525 q0 30 22.5 53.5t52.5 23.5q23 0 48 -16.5t46 -46.5l235 -331h-75l-267 222q-36 30 -49 50t-13 45z" />
<glyph unicode="&#xf3;" horiz-adv-x="1214" d="M22 443q0 280 168 461.5t425 181.5q224 0 350.5 -124t126.5 -343q0 -269 -176.5 -455t-433.5 -186q-208 0 -334 127.5t-126 337.5zM202 412q0 -176 74 -269t210 -93q181 0 303.5 171t122.5 430q0 181 -76.5 276.5t-220.5 95.5q-179 0 -296 -171.5t-117 -439.5zM500 1208 l329 344q20 22 43.5 34.5t44.5 12.5q30 0 53 -23t23 -54q0 -23 -17.5 -45t-58.5 -49l-338 -220h-79z" />
<glyph unicode="&#xf4;" horiz-adv-x="1214" d="M22 443q0 280 168 461.5t425 181.5q224 0 350.5 -124t126.5 -343q0 -269 -176.5 -455t-433.5 -186q-208 0 -334 127.5t-126 337.5zM202 412q0 -176 74 -269t210 -93q181 0 303.5 171t122.5 430q0 181 -76.5 276.5t-220.5 95.5q-179 0 -296 -171.5t-117 -439.5zM340 1208 l341 383h114l178 -383h-61l-192 245l-305 -245h-75z" />
<glyph unicode="&#xf5;" horiz-adv-x="1214" d="M22 443q0 280 168 461.5t425 181.5q224 0 350.5 -124t126.5 -343q0 -269 -176.5 -455t-433.5 -186q-208 0 -334 127.5t-126 337.5zM202 412q0 -176 74 -269t210 -93q181 0 303.5 171t122.5 430q0 181 -76.5 276.5t-220.5 95.5q-179 0 -296 -171.5t-117 -439.5zM385 1270 q18 103 64.5 153t124.5 50q25 0 45 -3t39 -8l143 -41q14 -3 30.5 -4.5t30.5 -1.5q47 0 73 21.5t38 68.5h54q-20 -108 -68 -158.5t-130 -50.5h-27q-17 0 -25 1t-16 3l-144 41q-4 0 -12 2q-45 11 -64 11q-42 0 -67.5 -21t-34.5 -63h-54z" />
<glyph unicode="&#xf6;" horiz-adv-x="1214" d="M22 443q0 280 168 461.5t425 181.5q224 0 350.5 -124t126.5 -343q0 -269 -176.5 -455t-433.5 -186q-208 0 -334 127.5t-126 337.5zM202 412q0 -176 74 -269t210 -93q181 0 303.5 171t122.5 430q0 181 -76.5 276.5t-220.5 95.5q-179 0 -296 -171.5t-117 -439.5zM387 1372 q0 43 33 76t76 33q44 0 76 -32.5t32 -76.5q0 -48 -31 -79t-77 -31q-45 0 -77 32.5t-32 77.5zM800 1372q0 43 33 76t74 33q44 0 76.5 -32.5t32.5 -76.5q0 -48 -30.5 -79t-78.5 -31q-44 0 -75.5 32.5t-31.5 77.5z" />
<glyph unicode="&#xf7;" horiz-adv-x="1876" d="M279 617v108h1318v-108h-1318zM823 284q0 48 34 83t82 35q50 0 84 -34.5t34 -83.5t-34 -83t-84 -34q-49 0 -82.5 34t-33.5 83zM823 1059q0 49 34.5 84t81.5 35q49 0 83.5 -35t34.5 -84t-34 -83t-84 -34q-49 0 -82.5 33.5t-33.5 83.5z" />
<glyph unicode="&#xf8;" horiz-adv-x="1214" d="M-56 -92q43 45 145 167q29 33 44 51q-55 63 -83 144t-28 177q0 276 169 456.5t428 180.5q87 0 159 -19.5t127 -58.5q53 53 98.5 105.5t87.5 106.5q12 -20 30.5 -36t41.5 -26q-34 -32 -81.5 -83t-110.5 -123q59 -55 89 -140t30 -195q0 -272 -176 -456t-434 -184 q-85 0 -157 22.5t-132 65.5q-48 -56 -92.5 -110t-85.5 -106q-17 23 -34 38t-35 23zM202 402q0 -51 6 -91.5t20 -78.5l606 690q-42 48 -97 73.5t-120 25.5q-181 0 -298 -172.5t-117 -446.5zM271 153q31 -53 83.5 -79.5t122.5 -26.5q186 0 309.5 170t123.5 430q0 63 -8 114.5 t-23 92.5z" />
<glyph unicode="&#xf9;" horiz-adv-x="1210" d="M81 273q0 63 44.5 333t70.5 457q32 -5 51 -7t35 -2q16 1 35 2.5t57 6.5q-65 -295 -98 -486.5t-33 -272.5q0 -103 59.5 -157.5t172.5 -54.5q107 0 189.5 64t117.5 175q26 79 55.5 251.5t67.5 480.5q37 -5 55.5 -7t32.5 -2q17 1 35 2.5t53 7.5q-69 -352 -114 -611t-71 -453 q-22 3 -43 5t-42 2t-40.5 -2t-37.5 -5q6 48 23 132q4 21 5 30q-89 -90 -176.5 -132.5t-186.5 -42.5q-150 0 -233.5 74.5t-83.5 211.5zM439 1525q0 30 22.5 53.5t52.5 23.5q23 0 48 -16.5t46 -46.5l235 -331h-75l-267 222q-36 30 -49 50t-13 45z" />
<glyph unicode="&#xfa;" horiz-adv-x="1210" d="M81 273q0 63 44.5 333t70.5 457q32 -5 51 -7t35 -2q16 1 35 2.5t57 6.5q-65 -295 -98 -486.5t-33 -272.5q0 -103 59.5 -157.5t172.5 -54.5q107 0 189.5 64t117.5 175q26 79 55.5 251.5t67.5 480.5q37 -5 55.5 -7t32.5 -2q17 1 35 2.5t53 7.5q-69 -352 -114 -611t-71 -453 q-22 3 -43 5t-42 2t-40.5 -2t-37.5 -5q6 48 23 132q4 21 5 30q-89 -90 -176.5 -132.5t-186.5 -42.5q-150 0 -233.5 74.5t-83.5 211.5zM498 1208l329 344q20 22 43.5 34.5t44.5 12.5q30 0 53 -23t23 -54q0 -23 -17.5 -45t-58.5 -49l-338 -220h-79z" />
<glyph unicode="&#xfb;" horiz-adv-x="1210" d="M81 273q0 63 44.5 333t70.5 457q32 -5 51 -7t35 -2q16 1 35 2.5t57 6.5q-65 -295 -98 -486.5t-33 -272.5q0 -103 59.5 -157.5t172.5 -54.5q107 0 189.5 64t117.5 175q26 79 55.5 251.5t67.5 480.5q37 -5 55.5 -7t32.5 -2q17 1 35 2.5t53 7.5q-69 -352 -114 -611t-71 -453 q-22 3 -43 5t-42 2t-40.5 -2t-37.5 -5q6 48 23 132q4 21 5 30q-89 -90 -176.5 -132.5t-186.5 -42.5q-150 0 -233.5 74.5t-83.5 211.5zM338 1208l341 383h114l178 -383h-61l-192 245l-305 -245h-75z" />
<glyph unicode="&#xfc;" horiz-adv-x="1210" d="M81 273q0 63 44.5 333t70.5 457q32 -5 51 -7t35 -2q16 1 35 2.5t57 6.5q-65 -295 -98 -486.5t-33 -272.5q0 -103 59.5 -157.5t172.5 -54.5q107 0 189.5 64t117.5 175q26 79 55.5 251.5t67.5 480.5q37 -5 55.5 -7t32.5 -2q17 1 35 2.5t53 7.5q-69 -352 -114 -611t-71 -453 q-22 3 -43 5t-42 2t-40.5 -2t-37.5 -5q6 48 23 132q4 21 5 30q-89 -90 -176.5 -132.5t-186.5 -42.5q-150 0 -233.5 74.5t-83.5 211.5zM385 1372q0 43 33 76t76 33q44 0 76 -32.5t32 -76.5q0 -48 -31 -79t-77 -31q-45 0 -77 32.5t-32 77.5zM798 1372q0 43 33 76t74 33 q44 0 76.5 -32.5t32.5 -76.5q0 -48 -30.5 -79t-78.5 -31q-44 0 -75.5 32.5t-31.5 77.5z" />
<glyph unicode="&#xfd;" horiz-adv-x="999" d="M-37 -615q102 160 236 394l20 34l110 187q-71 271 -146 536.5t-155 527.5q17 -4 36.5 -4.5t55.5 -0.5t53 0.5t32 4.5q47 -206 104.5 -421t127.5 -445q104 187 213.5 404.5t220.5 460.5q32 -3 46.5 -3.5t26.5 -0.5q23 0 66 4q4 0 6 1q-235 -408 -460.5 -827.5 t-443.5 -851.5q-14 2 -30 3.5t-48 1.5q-30 0 -44.5 -1.5t-26.5 -3.5zM392 1208l329 344q20 22 43.5 34.5t44.5 12.5q30 0 53 -23t23 -54q0 -23 -17.5 -45t-58.5 -49l-338 -220h-79z" />
<glyph unicode="&#xfe;" horiz-adv-x="1250" d="M-77 -615q137 683 237 1269t156 1036q20 -4 40 -5.5t40 -1.5q24 0 48 1.5t47 5.5q-38 -174 -73.5 -377.5t-68.5 -435.5q81 103 176 156t203 53q181 0 284 -114t103 -316q0 -292 -158 -485t-396 -193q-119 0 -205 54t-130 155l-54 -311q-20 -115 -36.5 -236t-29.5 -255 q-20 5 -42 7t-49 2q-25 0 -47.5 -2t-44.5 -7zM264 372q0 -150 73 -234t204 -84q164 0 282.5 177t118.5 429q0 156 -71.5 246t-197.5 90q-174 0 -291.5 -177.5t-117.5 -446.5z" />
<glyph unicode="&#xff;" horiz-adv-x="999" d="M-37 -615q102 160 236 394l20 34l110 187q-71 271 -146 536.5t-155 527.5q17 -4 36.5 -4.5t55.5 -0.5t53 0.5t32 4.5q47 -206 104.5 -421t127.5 -445q104 187 213.5 404.5t220.5 460.5q32 -3 46.5 -3.5t26.5 -0.5q23 0 66 4q4 0 6 1q-235 -408 -460.5 -827.5 t-443.5 -851.5q-14 2 -30 3.5t-48 1.5q-30 0 -44.5 -1.5t-26.5 -3.5zM279 1372q0 43 33 76t76 33q44 0 76 -32.5t32 -76.5q0 -48 -31 -79t-77 -31q-45 0 -77 32.5t-32 77.5zM692 1372q0 43 33 76t74 33q44 0 76.5 -32.5t32.5 -76.5q0 -48 -30.5 -79t-78.5 -31 q-44 0 -75.5 32.5t-31.5 77.5z" />
<glyph unicode="&#x152;" horiz-adv-x="2121" d="M99 645q0 210 68 391t194 303q119 115 259 173t300 58q194 0 327 -75t202 -222l38 266q64 -1 139 -1.5t223 -0.5q110 0 165 0.5t101 1.5q-9 -21 -15 -48.5t-9 -63.5q-100 12 -210 19.5t-241 11.5q-30 -138 -55.5 -285t-45.5 -301q24 -1 54.5 -1.5t89.5 -0.5q69 0 146.5 2 t172.5 9q-9 -24 -13.5 -51.5t-4.5 -59.5q-82 8 -163 11t-159 3q-56 0 -84 -0.5t-52 -1.5q-37 -180 -63.5 -352t-45.5 -335h54q121 0 242 6.5t243 20.5q-7 -25 -10.5 -56t-3.5 -66q-91 1 -186.5 1.5t-252.5 0.5q-132 0 -182.5 -0.5t-80.5 -1.5l37 243q-103 -139 -248 -210 t-324 -71q-277 0 -441.5 184.5t-164.5 498.5zM286 613q0 -254 128.5 -412t335.5 -158q131 0 247.5 67.5t201.5 190.5q95 140 145.5 308.5t50.5 347.5q0 252 -122.5 395.5t-335.5 143.5q-135 0 -259 -69.5t-209 -194.5q-85 -122 -134 -287.5t-49 -331.5z" />
<glyph unicode="&#x153;" horiz-adv-x="1960" d="M22 451q0 275 171.5 455t436.5 180q142 0 243 -46.5t165 -140.5q90 97 189.5 142t221.5 45q197 0 298.5 -103.5t101.5 -302.5q0 -22 -1.5 -55.5t-5.5 -76.5q-123 5 -252 8t-277 3q-102 0 -150.5 -0.5t-87.5 -1.5q-1 -15 -2 -31t-1 -46q0 -210 83 -315t249 -105 q79 0 159 31.5t164 94.5l-2 -14q-13 -70 -16 -91q-90 -52 -183.5 -77.5t-196.5 -25.5q-135 0 -230 53.5t-149 159.5q-94 -104 -210 -158.5t-244 -54.5q-216 0 -345 128.5t-129 344.5zM202 404q0 -171 77 -262.5t219 -91.5q183 0 305.5 173.5t122.5 440.5q0 169 -82 263 t-229 94q-183 0 -298 -171t-115 -446zM1088 642q169 -5 311.5 -7.5t283.5 -2.5l1 8q8 74 8 108q0 124 -66 198.5t-175 74.5q-153 0 -252 -103t-111 -276z" />
<glyph unicode="&#x178;" horiz-adv-x="1079" d="M23 1538q18 -2 40 -4t66 -2q43 0 64 2t39 5q67 -193 147 -389t171 -395q145 198 271.5 393.5t234.5 389.5q20 -2 38.5 -4t36.5 -2q20 0 38 2t33 4q-244 -350 -367 -526t-229 -327l-45 -255q-21 -115 -31 -222t-10 -208q-23 4 -46.5 6.5t-52.5 2.5q-26 0 -49.5 -2.5 t-47.5 -6.5q29 122 62 338q8 56 12 83l32 203q-101 234 -203 462t-204 452zM415 1863q0 43 33 76t76 33q44 0 76 -32.5t32 -76.5q0 -48 -31 -79t-77 -31q-45 0 -77 32.5t-32 77.5zM828 1863q0 43 33 76t74 33q44 0 76.5 -32.5t32.5 -76.5q0 -48 -30.5 -79t-78.5 -31 q-44 0 -75.5 32.5t-31.5 77.5z" />
<glyph unicode="&#x2c6;" horiz-adv-x="1126" d="M295 1208l341 383h114l178 -383h-61l-192 245l-305 -245h-75z" />
<glyph unicode="&#x2dc;" horiz-adv-x="1126" d="M340 1270q18 103 64.5 153t124.5 50q25 0 45 -3t39 -8l143 -41q14 -3 30.5 -4.5t30.5 -1.5q47 0 73 21.5t38 68.5h54q-20 -108 -68 -158.5t-130 -50.5h-27q-17 0 -25 1t-16 3l-144 41q-4 0 -12 2q-45 11 -64 11q-42 0 -67.5 -21t-34.5 -63h-54z" />
<glyph unicode="&#x2000;" horiz-adv-x="1076" />
<glyph unicode="&#x2001;" horiz-adv-x="2152" />
<glyph unicode="&#x2002;" horiz-adv-x="1076" />
<glyph unicode="&#x2003;" horiz-adv-x="2152" />
<glyph unicode="&#x2004;" horiz-adv-x="717" />
<glyph unicode="&#x2005;" horiz-adv-x="538" />
<glyph unicode="&#x2006;" horiz-adv-x="358" />
<glyph unicode="&#x2007;" horiz-adv-x="358" />
<glyph unicode="&#x2008;" horiz-adv-x="269" />
<glyph unicode="&#x2009;" horiz-adv-x="430" />
<glyph unicode="&#x200a;" horiz-adv-x="119" />
<glyph unicode="&#x2010;" horiz-adv-x="734" d="M50 471l25 137h542l-22 -137h-545z" />
<glyph unicode="&#x2011;" horiz-adv-x="734" d="M50 471l25 137h542l-22 -137h-545z" />
<glyph unicode="&#x2012;" horiz-adv-x="734" d="M50 471l25 137h542l-22 -137h-545z" />
<glyph unicode="&#x2013;" horiz-adv-x="1126" d="M-43 488l18 109h1126l-17 -109h-1127z" />
<glyph unicode="&#x2014;" horiz-adv-x="2252" d="M-43 488l18 109h2253l-18 -109h-2253z" />
<glyph unicode="&#x2018;" horiz-adv-x="617" d="M221 1070q0 21 15.5 53.5t42.5 65.5l318 399l35 -18l-224 -461q-28 -60 -51 -78.5t-56 -18.5q-41 0 -60.5 14t-19.5 44z" />
<glyph unicode="&#x2019;" horiz-adv-x="617" d="M217 1006l224 465q29 59 51.5 78t55.5 19q42 0 62 -15t20 -46q0 -21 -15 -52.5t-43 -64.5l-318 -401z" />
<glyph unicode="&#x201a;" horiz-adv-x="617" d="M-65 -314l225 462q28 60 50.5 78.5t55.5 18.5q42 0 62.5 -14.5t20.5 -45.5q0 -21 -15.5 -52.5t-43.5 -65.5l-318 -398z" />
<glyph unicode="&#x201c;" horiz-adv-x="971" d="M207 1070q0 21 16 53.5t43 65.5l317 399l39 -18l-226 -461q-28 -60 -50.5 -78.5t-55.5 -18.5q-42 0 -62.5 14.5t-20.5 43.5zM574 1070q0 21 16 53.5t42 65.5l318 399l39 -18l-226 -461q-28 -60 -50 -78.5t-55 -18.5q-43 0 -63.5 14.5t-20.5 43.5z" />
<glyph unicode="&#x201d;" horiz-adv-x="971" d="M200 1010l226 461q29 61 51 80t54 19q42 0 63 -15t21 -46q0 -21 -15.5 -52t-42.5 -64l-318 -402zM568 1010l225 461q30 61 52 80t54 19q41 0 62 -15t21 -46q0 -21 -15 -52t-43 -64l-318 -402z" />
<glyph unicode="&#x201e;" horiz-adv-x="971" d="M-50 -316l226 464q29 60 51 78.5t55 18.5q41 0 61 -14.5t20 -45.5q0 -22 -15 -53.5t-41 -64.5l-320 -398zM316 -316l225 464q28 60 50.5 78.5t55.5 18.5q42 0 62.5 -14.5t20.5 -45.5q0 -21 -16 -52.5t-43 -65.5l-317 -398z" />
<glyph unicode="&#x2022;" horiz-adv-x="1328" d="M338 838q0 136 95.5 230.5t230.5 94.5t230 -95.5t95 -229.5t-96.5 -230t-230.5 -96q-135 0 -229.5 95.5t-94.5 230.5z" />
<glyph unicode="&#x2026;" horiz-adv-x="2252" d="M170 95q0 47 34.5 80.5t81.5 33.5t80.5 -33t33.5 -81q0 -51 -31.5 -83t-82.5 -32q-50 0 -83 32.5t-33 82.5zM920 95q0 47 34.5 80.5t81.5 33.5t80.5 -33t33.5 -81q0 -51 -31.5 -83t-82.5 -32q-50 0 -83 32.5t-33 82.5zM1673 95q0 47 34.5 80.5t81.5 33.5t80.5 -33 t33.5 -81q0 -51 -31.5 -83t-82.5 -32q-50 0 -83 32.5t-33 82.5z" />
<glyph unicode="&#x202f;" horiz-adv-x="430" />
<glyph unicode="&#x2039;" horiz-adv-x="520" d="M38 581q113 137 206.5 256.5t172.5 226.5q7 -24 15.5 -44.5t17.5 -36.5q-62 -111 -129.5 -214t-146.5 -206q44 -112 80 -233.5t64 -252.5q-19 -22 -32 -41.5l-23 -34.5q-49 141 -105 285t-120 295z" />
<glyph unicode="&#x203a;" horiz-adv-x="520" d="M-18 78q55 102 124.5 207t155.5 215q-48 118 -84.5 239.5t-63.5 247.5q19 22 32.5 40.5t22.5 35.5q48 -137 103 -279t122 -300q-93 -116 -187.5 -236t-191.5 -248q-6 24 -15 44.5t-18 33.5z" />
<glyph unicode="&#x205f;" horiz-adv-x="538" />
<glyph unicode="&#x20ac;" d="M25 568l31 83q31 -2 64.5 -3t92.5 -1q4 36 10 77.5t16 92.5h-61q-16 0 -70 -2q-30 -1 -50 -2l32 83q5 0 14 -1q66 -3 94 -3h54q78 298 246 453t412 155q94 0 171.5 -21t137.5 -64l-37 -145q-60 80 -136.5 120t-164.5 40q-171 0 -278 -125.5t-177 -412.5q35 0 105 -1 t105 -1q88 0 172 1.5t164 4.5l-30 -82q-72 2 -152 4t-168 2q-34 0 -103.5 -1.5t-106.5 -1.5q-9 -48 -15.5 -90t-8.5 -80q34 0 99 -1t94 -1q82 0 156.5 1.5t140.5 4.5l-31 -83q-81 3 -166 4.5t-176 1.5h-122v-54q0 -216 98.5 -351t253.5 -135q77 0 158 37.5t173 115.5 l-32 -133q-75 -44 -153 -67t-153 -23q-220 0 -367 171.5t-147 434.5v4q-39 0 -86.5 -1.5t-102.5 -4.5z" />
<glyph unicode="&#x2122;" horiz-adv-x="1876" d="M290 1537v62h473v-62h-189v-521h-90v521h-194zM903 1016v583h129l182 -464l172 464h128v-583h-78v514l-195 -514h-54l-205 514v-514h-79z" />
<glyph unicode="&#xe000;" horiz-adv-x="1061" d="M0 0v1062h1062v-1062h-1062z" />
</font>
</defs>
</svg>
