<?xml version="1.0" standalone="no"?>
<!DOCTYPE svg PUBLIC "-//W3C//DTD SVG 1.1//EN" "http://www.w3.org/Graphics/SVG/1.1/DTD/svg11.dtd" >
<svg xmlns="http://www.w3.org/2000/svg">
<metadata></metadata>
<defs>
<font id="zapfhumnst_btbold" horiz-adv-x="1213" >
<font-face units-per-em="2048" ascent="1556" descent="-492" />
<missing-glyph horiz-adv-x="605" />
<glyph horiz-adv-x="2048" />
<glyph horiz-adv-x="2048" />
<glyph unicode="&#xd;" horiz-adv-x="605" />
<glyph unicode=" "  horiz-adv-x="605" />
<glyph unicode="&#x09;" horiz-adv-x="605" />
<glyph unicode="&#xa0;" horiz-adv-x="605" />
<glyph unicode="!" horiz-adv-x="721" d="M184 148q0 73 51 125t126 52q73 0 124 -51.5t51 -125.5q0 -73 -51.5 -125t-123.5 -52q-75 0 -126 51t-51 126zM188 1351q0 95 45 141.5t134 46.5q90 0 133.5 -46.5t43.5 -141.5q0 -19 -2 -44v-7l-137 -806h-78l-137 806v7q-2 25 -2 44z" />
<glyph unicode="&#x22;" horiz-adv-x="694" d="M93 949v602h177v-602h-177zM427 949v602h177v-602h-177z" />
<glyph unicode="#" horiz-adv-x="1701" d="M76 462l65 186h321l97 272h-340l66 186h341l168 471h206l-166 -471h270l168 471h205l-166 -471h314l-63 -186h-317l-97 -272h334l-66 -186h-332l-168 -468h-206l168 468h-272l-171 -468h-205l169 468h-323zM667 646h277l98 274h-276z" />
<glyph unicode="$" d="M102 1032q0 177 119 286.5t328 124.5q-4 52 -7 95.5t-6 78.5q16 -3 32.5 -5t33.5 -2q18 0 34 2t29 5q-4 -47 -6 -79t-2 -61v-32q110 -5 203.5 -33.5t171.5 -79.5q-30 -55 -48 -106.5t-26 -101.5l-27 -3q-40 104 -108 158.5t-166 60.5v-458q257 -58 362.5 -153t105.5 -262 q0 -199 -124.5 -324t-343.5 -143q0 -70 1.5 -125.5t4.5 -98.5q-15 5 -30 7t-34 2q-16 0 -31.5 -2t-31.5 -7q6 81 9.5 136t3.5 82q-156 9 -264 44t-175 97q22 66 36 130t20 126l39 8q34 -128 117 -199t227 -96v506q-244 62 -345.5 158.5t-101.5 263.5zM345 1108 q0 -77 49 -122.5t155 -67.5v418q-91 -7 -147.5 -70t-56.5 -158zM657 106q96 13 156.5 80t60.5 156q0 98 -53.5 154.5t-163.5 75.5v-466z" />
<glyph unicode="%" horiz-adv-x="1791" d="M57 1119q0 165 100 259.5t274 94.5q171 0 272.5 -96.5t101.5 -257.5t-101.5 -257t-272.5 -96q-175 0 -274.5 94t-99.5 259zM283 1119q0 -147 36 -218.5t112 -71.5q77 0 113 71t36 221q0 149 -36 218.5t-113 69.5t-112.5 -69t-35.5 -221zM312 -205l1043 1849h131 l-1045 -1849h-129zM986 321q0 165 99.5 258.5t275.5 93.5q170 0 271.5 -95.5t101.5 -256.5t-101.5 -257.5t-271.5 -96.5q-176 0 -275.5 93.5t-99.5 260.5zM1212 314q0 -148 36.5 -218.5t112.5 -70.5q75 0 111.5 70t36.5 221q0 149 -36.5 219.5t-111.5 70.5 q-78 0 -113.5 -69.5t-35.5 -222.5z" />
<glyph unicode="&#x26;" horiz-adv-x="1576" d="M80 340q0 143 96.5 256.5t294.5 201.5q-79 97 -120 191t-41 176q0 160 113 253t307 93q162 0 255.5 -75t93.5 -204q0 -92 -64 -174.5t-221 -190.5q79 -109 164 -213t177 -205q98 106 163.5 209.5t99.5 205.5q23 -36 52 -64.5t63 -49.5q-65 -113 -139.5 -209t-159.5 -176 q77 -87 149.5 -167.5t145.5 -157.5l-1 -40q-56 5 -108 8t-100 3q-47 0 -98 -3t-111 -8l-107 144q-102 -86 -224 -131.5t-247 -45.5q-198 0 -315.5 102t-117.5 271zM376 443q0 -130 83 -219t200 -89q66 0 131.5 21.5t136.5 67.5q-114 129 -212 250.5t-181 235.5 q-86 -57 -122 -119t-36 -148zM589 1250q0 -58 35.5 -133.5t103.5 -162.5q78 51 121.5 123.5t43.5 148.5q0 86 -39 132t-113 46q-72 0 -112 -40.5t-40 -113.5z" />
<glyph unicode="'" horiz-adv-x="360" d="M93 949v602h177v-602h-177z" />
<glyph unicode="(" horiz-adv-x="730" d="M150 624q0 296 109 520.5t336 394.5l55 -59q-146 -171 -214.5 -378.5t-68.5 -477.5q0 -287 70 -496t220 -375l-62 -59q-231 183 -338 405.5t-107 524.5z" />
<glyph unicode=")" horiz-adv-x="730" d="M68 1482l63 57q230 -181 337 -404t107 -527q0 -295 -109 -519t-335 -395l-55 61q146 174 215.5 381t69.5 474q0 287 -71 497t-222 375z" />
<glyph unicode="*" horiz-adv-x="1105" d="M168 1007q86 31 160 63t139 65q-76 31 -239 107l-60 28q26 32 45.5 69.5t33.5 80.5q58 -49 123.5 -100.5t140.5 -104.5q-7 76 -17.5 157t-26.5 167h6q56 -4 82 -4q16 0 35.5 1t53.5 3q-13 -82 -22.5 -164.5t-15.5 -164.5q55 41 115.5 90t129.5 112q19 -44 41.5 -81 t49.5 -71q-86 -34 -157.5 -65.5t-134.5 -61.5q80 -40 151.5 -72.5t140.5 -60.5q-21 -26 -41.5 -61.5t-41.5 -84.5q-74 60 -136 108.5t-116 87.5l1 -19q21 -202 36 -310q-35 3 -53.5 4t-33.5 1q-14 0 -33.5 -1t-56.5 -4q21 114 31.5 191t12.5 138q-50 -40 -107.5 -85.5 t-148.5 -115.5q-18 43 -39.5 82t-47.5 76z" />
<glyph unicode="+" horiz-adv-x="1842" d="M274 570v180h555v569h184v-569h555v-180h-555v-570h-184v570h-555z" />
<glyph unicode="," horiz-adv-x="605" d="M53 -387l139 541q25 97 62 139.5t94 42.5q66 0 110 -38.5t44 -96.5q0 -23 -9.5 -50t-25.5 -49l-359 -509z" />
<glyph unicode="-" horiz-adv-x="738" d="M97 424v237h545v-237h-545z" />
<glyph unicode="." horiz-adv-x="605" d="M124 154q0 76 51.5 127t127.5 51t127.5 -51t51.5 -127q0 -74 -52.5 -127.5t-126.5 -53.5t-126.5 53.5t-52.5 127.5z" />
<glyph unicode="/" horiz-adv-x="621" d="M-53 -205l604 1864h112l-604 -1864h-112z" />
<glyph unicode="0" d="M68 719q0 385 132 569.5t406 184.5q285 0 411.5 -176.5t126.5 -577.5q0 -386 -132.5 -570.5t-407.5 -184.5q-282 0 -409 177t-127 578zM387 719q0 -389 48.5 -525.5t170.5 -136.5q123 0 171 136t48 526q0 389 -48 525t-171 136q-122 0 -170.5 -137.5t-48.5 -523.5z" />
<glyph unicode="1" d="M133 1226q162 53 319.5 123t313.5 158l42 -23q-9 -92 -12.5 -234t-3.5 -513q0 -307 3.5 -470t11.5 -267q-46 5 -87.5 8t-80.5 3t-80 -3t-87 -8q13 195 19.5 395t6.5 403q0 124 -4.5 228t-13.5 194q-63 -27 -124 -57.5t-119 -63.5z" />
<glyph unicode="2" d="M82 1199q75 142 193 209t295 67q250 0 386.5 -107t136.5 -300q0 -107 -43 -197.5t-138 -182.5q-48 -45 -209 -176t-258 -229q84 -2 130.5 -3t85.5 -1q104 0 215 4t234 13q-5 -55 -6.5 -85.5t-1.5 -58.5q0 -46 8 -146v-6q-148 5 -275 8t-242 3q-116 0 -240.5 -3t-263.5 -8 v118q355 283 506.5 502.5t151.5 441.5q0 156 -54.5 233t-166.5 77q-116 0 -188.5 -88t-83.5 -242q-35 50 -78 89.5t-94 67.5z" />
<glyph unicode="3" d="M68 110q50 76 90 138.5t74 120.5q13 -152 76.5 -227.5t176.5 -75.5t176 83t63 235q0 160 -63.5 239.5t-189.5 79.5q-37 0 -53 -0.5t-28 -1.5l-1 108q19 -2 28.5 -2.5t17.5 -1.5q128 0 188.5 72.5t60.5 226.5q0 134 -46.5 203t-137.5 69q-85 0 -138 -75.5t-56 -203.5l6 -6 q-67 55 -198 167q76 109 186.5 162t261.5 53q210 0 327.5 -93.5t117.5 -262.5q0 -120 -70 -196t-234 -134v-15q187 -27 275 -110.5t88 -232.5q0 -209 -153 -335.5t-406 -126.5q-134 0 -245 36t-194 107z" />
<glyph unicode="4" d="M76 341q3 34 4.5 64t1.5 59q0 30 -1.5 58t-4.5 56q161 232 311.5 455.5t291.5 439.5q33 -4 69 -6.5t77 -2.5q40 0 75.5 2.5t68.5 6.5q-7 -356 -10 -564t-3 -263v-57q48 1 94.5 4t91.5 9q-6 -54 -7.5 -81t-1.5 -50q0 -40 7 -122l2 -6q-37 5 -83.5 8t-104.5 5v-69 q0 -97 3.5 -163.5t11.5 -123.5q-45 5 -85.5 8t-78.5 3q-37 0 -76.5 -3t-84.5 -8q7 76 11 149t4 145v62q-24 0 -72.5 1.5t-71.5 1.5q-106 0 -215 -4.5t-224 -13.5zM224 582q90 0 199 1.5t236 5.5v643q-116 -156 -225 -318.5t-210 -331.5z" />
<glyph unicode="5" d="M73 80q32 57 63 120.5t63 131.5h27q21 -139 80.5 -203.5t166.5 -64.5q118 0 182 94t64 266q0 160 -59.5 243t-172.5 83q-55 0 -105 -22t-97 -67l-57 36q10 46 13.5 101t3.5 142q0 149 -5.5 274t-15.5 223q41 -2 88 -3t139 -1h151q173 0 251 1t137 3q-1 -20 -1.5 -45 t-0.5 -78q0 -57 0.5 -87t1.5 -60q-89 7 -167.5 9.5t-147.5 2.5q-70 0 -145 -2.5t-163 -7.5v1q-4 -121 -15 -362q62 30 122 44.5t128 14.5q207 0 332 -110t125 -293q0 -229 -158 -363t-430 -134q-126 0 -224.5 28t-173.5 85z" />
<glyph unicode="6" d="M91 597q0 397 199.5 636.5t525.5 239.5q49 0 93 -6t81 -18l17 -122q-44 25 -88.5 38t-91.5 13q-189 0 -302.5 -171.5t-119.5 -472.5q64 73 141.5 107.5t177.5 34.5q191 0 305.5 -118.5t114.5 -316.5q0 -207 -151 -340.5t-385 -133.5q-247 0 -382 164.5t-135 465.5z M405 405q0 -171 51 -256t152 -85q105 0 153.5 81.5t48.5 259.5q0 177 -48.5 258.5t-153.5 81.5q-108 0 -155.5 -79.5t-47.5 -260.5z" />
<glyph unicode="7" d="M197 1163q2 25 3 53t1 84t-1 85t-2 52q93 -1 200 -1.5t317 -0.5q205 0 305.5 0.5t184.5 1.5v-23q-208 -345 -391 -698t-341 -716q-37 5 -69 8t-62 3q-29 0 -58.5 -3t-66.5 -8q174 273 268.5 423t126.5 206l323 534q-71 2 -153 3t-238 1q-149 0 -219.5 -1t-127.5 -3z" />
<glyph unicode="8" d="M80 403q0 161 78.5 262t230.5 135v16q-118 25 -185 107t-67 202q0 161 125.5 254.5t343.5 93.5q228 0 348.5 -88.5t120.5 -256.5q0 -126 -65 -207t-187 -107v-14q153 -34 231.5 -134t78.5 -263q0 -199 -143 -317.5t-384 -118.5q-251 0 -388.5 113.5t-137.5 322.5z M407 405q0 -180 47.5 -263t151.5 -83q97 0 148 88t51 258q0 173 -50 259t-149 86q-101 0 -150 -85.5t-49 -259.5zM424 1112q0 -137 45 -203.5t137 -66.5q90 0 135.5 68t45.5 202q0 145 -42.5 207.5t-138.5 62.5q-91 0 -136.5 -67.5t-45.5 -202.5z" />
<glyph unicode="9" d="M73 998q0 206 150.5 339.5t384.5 133.5q250 0 385 -164t135 -469q0 -394 -200.5 -634t-524.5 -240q-49 0 -93 6.5t-82 18.5l-17 129q42 -31 85.5 -45t92.5 -14q191 0 305 172t120 472q-63 -71 -142 -106t-178 -35q-193 0 -307 118t-114 318zM409 1032q0 -179 47.5 -260.5 t151.5 -81.5q108 0 156 80t48 262q0 171 -51 256.5t-153 85.5q-104 0 -151.5 -81t-47.5 -261z" />
<glyph unicode=":" horiz-adv-x="730" d="M179 154q0 76 53 129t129 53q73 0 126 -53t53 -129q0 -75 -52.5 -128t-126.5 -53q-76 0 -129 53.5t-53 127.5zM179 869q0 76 53 129t129 53q73 0 126 -53t53 -129q0 -75 -52.5 -128t-126.5 -53q-76 0 -129 53t-53 128z" />
<glyph unicode=";" horiz-adv-x="730" d="M93 -396l128 548q22 92 61 137t96 45q69 0 113.5 -39.5t44.5 -100.5q0 -20 -9.5 -46t-24.5 -49l-356 -517zM186 869q0 76 52.5 129t128.5 53t127.5 -52.5t51.5 -129.5q0 -75 -52 -128t-127 -53q-73 0 -127 53.5t-54 127.5z" />
<glyph unicode="&#x3c;" horiz-adv-x="1842" d="M285 572v173l1272 525v-200l-1008 -411l1008 -412v-196z" />
<glyph unicode="=" horiz-adv-x="1842" d="M274 348v178h1294v-178h-1294zM274 792v181h1294v-181h-1294z" />
<glyph unicode="&#x3e;" horiz-adv-x="1842" d="M285 51v196l1009 412l-1009 411v200l1272 -525v-173z" />
<glyph unicode="?" horiz-adv-x="973" d="M150 1454q50 42 120.5 63.5t158.5 21.5q179 0 289.5 -85.5t110.5 -219.5q0 -81 -32 -150.5t-107 -146.5l-135 -137q-37 -38 -52.5 -69t-15.5 -64q0 -45 26.5 -71t75.5 -26q30 0 62 7.5t61 21.5l-37 -103q-46 -7 -83.5 -10.5t-65.5 -3.5q-132 0 -213 73.5t-81 191.5 q0 68 30 132t90 125l99 104q51 53 72 94t21 85q0 62 -49 102t-126 40q-60 0 -106.5 -28.5t-78.5 -86.5h-27zM306 152q0 75 51.5 125t127.5 50q73 0 123.5 -50t50.5 -125q0 -74 -52 -126.5t-125 -52.5q-74 0 -125 52.5t-51 126.5z" />
<glyph unicode="@" horiz-adv-x="2211" d="M106 564q0 178 56 338.5t165 294.5q159 193 382 293.5t496 100.5q180 0 340.5 -49t275.5 -138q142 -110 213.5 -254.5t71.5 -324.5q0 -175 -70 -326t-200 -256q-75 -59 -162 -90t-181 -31q-115 0 -170 44t-55 135v5q-59 -94 -138 -138t-190 -44q-165 0 -251.5 93.5 t-86.5 269.5q0 252 149 427t359 175q96 0 161 -37.5t107 -116.5l59 116h167l-160 -633q-1 -5 -2 -13q-7 -30 -7 -40q0 -41 29 -66t75 -25q55 0 116 33t114 92q78 82 119 191.5t41 232.5q0 273 -202 443.5t-528 170.5q-149 0 -276.5 -33t-232.5 -102q-195 -122 -301 -314 t-106 -426q0 -337 226 -539t603 -202q180 0 350 53t315 153l72 -107q-161 -122 -344 -183.5t-384 -61.5q-207 0 -379 52t-304 153q-167 128 -249.5 298t-82.5 386zM800 480q0 -106 49.5 -163.5t138.5 -57.5q97 0 176.5 72t107.5 186l60 247q-15 90 -66.5 140t-132.5 50 q-137 0 -235 -139t-98 -335z" />
<glyph unicode="A" horiz-adv-x="1344" d="M-31 0q161 355 314.5 738t302.5 801q24 -3 45.5 -4.5t43.5 -1.5q21 0 40.5 1.5t38.5 4.5q134 -367 287 -751.5t328 -787.5q-42 4 -89 6.5t-101 2.5t-100.5 -2.5t-90.5 -6.5q-26 83 -56.5 176.5t-89.5 268.5q-45 2 -98.5 3t-159.5 1q-107 0 -160.5 -1t-98.5 -3 q-64 -188 -97 -280t-60 -165q-31 4 -53 6.5t-42 2.5q-30 0 -92 -8q-8 -1 -12 -1zM387 591h6q126 -5 191 -5q35 0 74.5 1t122.5 4q-43 132 -91 258.5t-101 247.5q-55 -117 -105.5 -243.5t-96.5 -262.5z" />
<glyph unicode="B" horiz-adv-x="1327" d="M164 0q12 96 18 218t6 339v197q0 341 -5.5 491t-18.5 266q97 -3 167 -5t112 -2q46 0 132 3.5t124 3.5q243 0 365 -87t122 -261q0 -154 -117.5 -246.5t-331.5 -106.5v-12q246 0 366.5 -93t120.5 -285q0 -199 -138 -309.5t-385 -110.5q-61 0 -189.5 4.5t-195.5 4.5 q-40 0 -133 -8q-13 -1 -19 -1zM507 849q7 0 22 -1t22 -1q157 0 233.5 72t76.5 223q0 121 -68.5 184t-199.5 63q-12 0 -26 -0.5t-44 -3.5q-9 -57 -12.5 -125t-3.5 -150v-261zM509 441q0 -76 2 -155t6 -157q27 -7 44.5 -9t33.5 -2q136 0 209.5 80t73.5 229q0 148 -77.5 225.5 t-225.5 77.5q-25 0 -39 -0.5t-27 -2.5v-286z" />
<glyph unicode="C" horiz-adv-x="1460" d="M78 761q0 355 232.5 567.5t622.5 212.5q123 0 244.5 -27t247.5 -83q-20 -60 -34.5 -126.5t-23.5 -141.5l-31 -4q-36 118 -141.5 183t-263.5 65q-239 0 -371.5 -167.5t-132.5 -469.5q0 -326 135.5 -497t393.5 -171q111 0 224 43t205 121l27 -7l-51 -186 q-106 -51 -221 -76.5t-243 -25.5q-387 0 -603 208.5t-216 581.5z" />
<glyph unicode="D" horiz-adv-x="1703" d="M164 0q12 96 18 218t6 339v197v120q0 245 -6 385t-18 252q42 -4 83.5 -6.5t88.5 -2.5q70 0 220.5 4.5t230.5 4.5q222 0 350.5 -32.5t223.5 -106.5q119 -94 183 -245t64 -338q0 -394 -228 -591.5t-681 -197.5q-81 0 -206.5 3t-169.5 3q-43 0 -120 -4q-26 -1 -39 -2z M515 684q0 -221 1 -335.5t3 -213.5q42 -6 80 -9.5t72 -3.5q289 0 435 162.5t146 485.5q0 325 -135.5 468.5t-443.5 143.5q-21 0 -91 -2q-37 -1 -58 -2q-5 -147 -7 -317t-2 -377z" />
<glyph unicode="E" horiz-adv-x="1112" d="M164 0q14 117 20 267.5t6 486.5v111q0 251 -6 392.5t-20 253.5q104 -4 214 -6.5t230 -2.5q121 0 221 2.5t188 6.5q-5 -37 -6.5 -57.5t-1.5 -37.5t1.5 -36t6.5 -57q-165 11 -286 17t-210 7q-5 -40 -6.5 -85.5t-1.5 -133.5v-106l1 -150q70 2 239 8t256 9q-6 -34 -7.5 -54 t-1.5 -39q0 -29 8 -89l1 -6q-203 12 -309.5 16t-186.5 4v-265q0 -143 2 -200t7 -96q101 3 224.5 11t270.5 21q-3 -21 -4.5 -42t-1.5 -44t3 -60t3 -46q-221 6 -340 8.5t-192 2.5q-99 0 -176.5 -3t-144.5 -8z" />
<glyph unicode="F" horiz-adv-x="1097" d="M162 0q13 146 19.5 321.5t6.5 432.5q0 203 -5 391.5t-15 365.5q94 -4 198 -6.5t225 -2.5q120 0 224.5 2.5t201.5 6.5q-3 -23 -4.5 -44.5t-1.5 -46.5q0 -24 1.5 -47t4.5 -50q-113 12 -213.5 18t-191.5 6q-15 0 -45.5 -1t-43.5 -1q-7 -39 -9.5 -93t-2.5 -182v-203 q135 3 257 9.5t231 16.5q-2 -23 -3.5 -46t-1.5 -47q0 -23 1.5 -46.5t4.5 -45.5q-108 9 -228 14.5t-256 7.5l-1 -385q0 -123 4.5 -201.5t12.5 -143.5q-51 5 -96.5 8t-87.5 3q-43 0 -88.5 -3t-97.5 -8z" />
<glyph unicode="G" horiz-adv-x="1643" d="M78 754q0 366 231 575.5t638 209.5q170 0 311 -33.5t255 -101.5q-28 -75 -44.5 -139.5t-24.5 -122.5h-17q-72 135 -190 202.5t-281 67.5q-252 0 -388.5 -171t-136.5 -487t135 -484t388 -168q73 0 136 12t120 38q3 52 4.5 102.5t1.5 101.5q0 92 -4.5 173t-12.5 155 q42 -5 86 -7t95 -2q46 0 84.5 2t74.5 7q-4 -77 -6.5 -162t-2.5 -184q0 -106 1.5 -160t3.5 -100q-185 -53 -347.5 -79t-313.5 -26q-372 0 -584 209t-212 572z" />
<glyph unicode="H" horiz-adv-x="1701" d="M164 0q13 149 19.5 325.5t6.5 428.5q0 233 -6.5 418.5t-19.5 338.5q47 -7 93 -10.5t93 -3.5q46 0 92.5 3.5t93.5 10.5q-10 -98 -14.5 -185.5t-4.5 -168.5v-261q137 -6 206 -7.5t126 -1.5q58 0 126.5 1.5t206.5 7.5v261q0 81 -4.5 168.5t-14.5 185.5q47 -7 93 -10.5 t93 -3.5q46 0 92.5 3.5t93.5 10.5q-13 -153 -19.5 -338.5t-6.5 -418.5q0 -252 6.5 -428.5t19.5 -325.5q-52 5 -98 8t-88 3t-88 -3t-97 -8q8 86 13 169t5 160l-2 403q-83 3 -165 5t-166 2q-83 0 -165 -2t-166 -5l-1 -403q0 -77 4.5 -160t13.5 -169q-52 5 -97.5 8t-87.5 3 q-43 0 -88.5 -3t-97.5 -8z" />
<glyph unicode="I" horiz-adv-x="714" d="M166 0q12 146 18 314.5t6 439.5q0 262 -6 440t-18 317q48 -7 96 -10.5t97 -3.5q48 0 95.5 3.5t94.5 10.5q-13 -142 -19 -320t-6 -437q0 -282 6 -449t18 -305q-53 5 -100 8t-89 3q-45 0 -92 -3t-101 -8z" />
<glyph unicode="J" horiz-adv-x="738" d="M-80 -259h14q88 0 144.5 23t87.5 70q28 43 40.5 146t12.5 347q0 281 -7 577.5t-20 606.5q42 -4 88 -6.5t98 -2.5q53 0 99 2.5t87 6.5q-11 -172 -16.5 -366.5t-5.5 -414.5q0 -88 3.5 -237.5t3.5 -209.5q0 -207 -35.5 -318.5t-117.5 -188.5q-66 -61 -166.5 -96.5 t-214.5 -35.5q-11 0 -31 1.5t-46 4.5z" />
<glyph unicode="K" horiz-adv-x="1338" d="M164 0q13 149 19.5 325.5t6.5 428.5q0 233 -6.5 418.5t-19.5 338.5q39 -5 84 -8t102 -3t101.5 3t83.5 8q-9 -98 -13.5 -185.5t-3.5 -168.5v-336q140 149 280.5 321.5t282.5 367.5q41 -6 73.5 -8t63.5 -2q32 0 66 3t69 8q-141 -147 -287.5 -304t-297.5 -327l623 -880 q-59 5 -111.5 8t-100.5 3t-100.5 -3t-111.5 -8q-108 173 -220.5 342.5t-228.5 336.5v-350q0 -77 4 -160t13 -169q-52 5 -97.5 8t-87.5 3q-43 0 -88.5 -3t-97.5 -8z" />
<glyph unicode="L" horiz-adv-x="1053" d="M164 0q13 152 19.5 329.5t6.5 424.5q0 237 -6.5 422t-19.5 335q47 -7 93 -10.5t93 -3.5q46 0 92.5 3.5t93.5 10.5q-14 -153 -20.5 -338t-6.5 -419q0 -229 3.5 -364t11.5 -232q136 3 260 10.5t244 19.5q-3 -22 -4.5 -45t-1.5 -48q0 -23 1.5 -46t4.5 -49q-154 9 -262 12 t-196 3q-79 0 -174 -3t-232 -12z" />
<glyph unicode="M" horiz-adv-x="1986" d="M78 0q27 171 46.5 293t25.5 174l142 1044q21 -4 44.5 -6.5t50.5 -2.5t51 2.5t47 6.5q119 -265 247 -522.5t264 -511.5q130 246 256.5 504t247.5 530q24 -4 49 -6.5t53 -2.5t53 2.5t48 6.5l127 -1057q20 -175 36 -275t34 -178q-54 4 -100 7t-88 3t-88 -3t-95 -8l-2 23 q-10 232 -16 287l-71 705q-125 -237 -249 -489t-254 -526q-7 2 -16 3t-30 1q-18 0 -27 -1t-16 -3q-129 270 -252 514.5t-242 465.5l-53 -459l-2 -18q-40 -357 -41 -503q-25 5 -47.5 8t-42.5 3q-21 0 -42.5 -3t-47.5 -8z" />
<glyph unicode="N" horiz-adv-x="1637" d="M144 1510q27 -3 56 -5.5t64 -2.5q33 0 62 2.5t56 6.5q226 -253 456.5 -506.5t466.5 -508.5v260q0 72 -2.5 280.5t-6.5 473.5q21 -3 43.5 -5.5t47.5 -2.5q28 0 51 2.5t44 5.5q-10 -94 -14 -290t-4 -631v-122q0 -178 4 -281.5t14 -185.5q-26 5 -49.5 8t-45.5 3t-46 -3 t-51 -8q-207 235 -442.5 494t-522.5 565v-645q0 -40 2 -153.5t7 -260.5q-28 5 -51 8t-44 3t-44 -3t-50 -8q11 159 17 342.5t6 398.5q0 203 -6 396.5t-18 372.5z" />
<glyph unicode="O" horiz-adv-x="1827" d="M78 732q0 378 228 592.5t631 214.5q389 0 601 -204t212 -581q0 -357 -228 -570t-608 -213q-403 0 -619.5 197.5t-216.5 563.5zM433 754q0 -309 127.5 -483t353.5 -174q222 0 349.5 175t127.5 482q0 311 -127.5 486.5t-349.5 175.5q-225 0 -353 -176t-128 -486z" />
<glyph unicode="P" horiz-adv-x="1238" d="M164 0q13 149 19.5 325.5t6.5 428.5q0 233 -6.5 418.5t-19.5 338.5q40 -4 78.5 -6.5t76.5 -2.5q45 0 167 4.5t200 4.5q260 0 381 -95.5t121 -300.5q0 -235 -150 -349t-458 -114q-13 0 -37.5 1t-35.5 1v-325q0 -27 5 -100t18 -229q-52 5 -97 8t-88 3t-87 -3t-94 -8z M507 774q176 0 253.5 77.5t77.5 252.5q0 143 -61.5 214t-187.5 71q-21 0 -63 -3q-4 -1 -7 -1q-6 -62 -9 -123t-3 -123v-365z" />
<glyph unicode="Q" horiz-adv-x="1827" d="M78 732q0 378 228.5 592.5t633.5 214.5q388 0 599 -203.5t211 -581.5q0 -283 -147.5 -481t-410.5 -267q125 -84 267 -169.5t299 -172.5q-75 -25 -151.5 -55.5t-150.5 -68.5q-160 128 -301 236t-268 197h-11q-377 0 -587.5 201t-210.5 558zM433 754q0 -309 127.5 -483 t353.5 -174q222 0 349.5 175t127.5 482q0 311 -127.5 486.5t-349.5 175.5q-225 0 -353 -176t-128 -486z" />
<glyph unicode="R" horiz-adv-x="1340" d="M162 0q14 153 21 329t7 425q0 234 -7 417.5t-21 341.5q31 -4 61.5 -6.5t57.5 -2.5q12 0 143 4.5t251 4.5q269 0 400.5 -94t131.5 -286q0 -151 -90 -248.5t-268 -139.5l498 -745q-53 5 -102 8t-95 3q-44 0 -92.5 -3t-103.5 -8q-96 172 -207.5 351t-237.5 368v-299 q0 -96 4 -199.5t13 -220.5q-48 5 -92 8t-86 3q-41 0 -86.5 -3t-99.5 -8zM507 787h8q183 0 265.5 78t82.5 247q0 143 -72.5 209t-228.5 66q-8 0 -23.5 -1t-24.5 -1q-4 -68 -5.5 -135.5t-1.5 -132.5v-330z" />
<glyph unicode="S" horiz-adv-x="1116" d="M82 76q20 68 38 144t34 160h30q29 -128 113.5 -199t209.5 -71q112 0 179.5 61t67.5 163q0 73 -43.5 126t-210.5 144q-257 137 -334 237t-77 248q0 201 142.5 325.5t376.5 124.5q103 0 190 -25.5t164 -78.5q-22 -64 -40.5 -125.5t-32.5 -117.5h-24q-33 99 -112.5 155.5 t-184.5 56.5q-97 0 -156.5 -53.5t-59.5 -140.5q0 -74 44.5 -126t196.5 -130q33 -19 97 -49q177 -87 226 -137q59 -62 87.5 -135.5t28.5 -163.5q0 -225 -151 -361.5t-404 -136.5q-132 0 -229.5 26t-165.5 79z" />
<glyph unicode="T" horiz-adv-x="1274" d="M51 1317q1 11 3.5 46.5t2.5 56.5q0 22 -4 64q-1 17 -2 27q179 -9 320 -13t266 -3q127 0 269 3.5t319 12.5q-2 -21 -4.5 -44.5t-2.5 -46.5q0 -24 1.5 -49t5.5 -54q-87 12 -179.5 18.5t-194.5 6.5h-43q-6 -84 -8 -182t-2 -293q0 -343 6 -532t18 -335q-53 5 -100 8t-89 3 t-87 -3t-95 -8q13 166 19.5 351t6.5 403q0 74 -2 232.5t-6 355.5h-47q-101 0 -194 -6.5t-177 -18.5z" />
<glyph unicode="U" horiz-adv-x="1667" d="M164 1511q42 -4 89.5 -6.5t100.5 -2.5q52 0 96.5 2.5t85.5 6.5q-18 -174 -26 -370.5t-8 -433.5q0 -191 10.5 -271t33.5 -140q36 -92 122.5 -142t209.5 -50q119 0 209 42.5t143 123.5q43 67 61 174.5t18 351.5q0 204 -6.5 381.5t-19.5 333.5q25 -4 52.5 -6.5t57.5 -2.5 q33 0 60.5 2.5t49.5 6.5q-9 -151 -14 -271.5t-5 -209.5q0 -52 2 -161t2 -166q0 -217 -31 -337t-104 -202q-84 -97 -214 -145t-307 -48q-195 0 -336.5 54t-212.5 154q-53 74 -75 191.5t-22 372.5v194q0 209 -5.5 337t-16.5 237z" />
<glyph unicode="V" horiz-adv-x="1325" d="M-22 1511q44 -4 89.5 -6.5t98.5 -2.5q52 0 98 2.5t88 6.5q70 -202 167 -469t228 -624q106 244 208.5 517.5t203.5 575.5q25 -4 49.5 -6.5t54.5 -2.5t56.5 2.5t49.5 6.5q-169 -372 -323 -750t-292 -761q-25 5 -48 8t-45 3q-21 0 -44 -3t-49 -7q-87 248 -242.5 647 t-347.5 863z" />
<glyph unicode="W" horiz-adv-x="2134" d="M0 1511q42 -4 88 -6.5t100 -2.5q53 0 98.5 2.5t87.5 6.5q63 -278 137.5 -554.5t159.5 -549.5q104 301 197 573t179 531q25 -4 51.5 -6.5t58.5 -2.5t59.5 2.5t53.5 6.5q78 -263 167 -534.5t188 -554.5q93 266 173.5 537.5t149.5 551.5q23 -4 48 -6.5t54 -2.5t53.5 2.5 t46.5 6.5q-117 -336 -242 -712.5t-259 -798.5q-30 5 -58.5 8t-55.5 3q-25 0 -53 -3t-62 -8q-76 256 -165 522.5t-191 547.5q-100 -252 -194.5 -520t-184.5 -550q-31 5 -59 8t-54 3t-53.5 -3t-58.5 -8q-95 364 -210 741.5t-250 769.5z" />
<glyph unicode="X" horiz-adv-x="1289" d="M21 0l470 699l-466 812q46 -4 96 -6.5t107 -2.5t106.5 2.5t94.5 6.5l274 -529q83 121 163 252.5t158 276.5q27 -4 55.5 -6.5t62.5 -2.5q32 0 60.5 2.5t53.5 6.5l-475 -669l492 -841q-54 4 -104 7t-97 3q-46 0 -95 -3t-108 -8l-294 559q-78 -118 -159.5 -253t-178.5 -306 q-30 5 -57 8t-51 3q-26 0 -52.5 -3t-55.5 -8z" />
<glyph unicode="Y" horiz-adv-x="1223" d="M-29 1511q46 -4 97 -6.5t109 -2.5q56 0 107 2.5t96 6.5q79 -175 165 -344.5t181 -334.5q95 164 176 333.5t149 345.5q27 -4 56 -6.5t63 -2.5q32 0 61 2.5t56 6.5q-131 -202 -251.5 -413.5t-229.5 -433.5q-5 -59 -6.5 -118t-1.5 -119q0 -97 5 -203.5t12 -223.5 q-50 5 -95.5 8t-86.5 3q-42 0 -88 -3t-98 -8q11 112 16.5 223.5t5.5 221.5q0 35 -0.5 74t-4.5 111q-104 191 -223 403.5t-270 477.5z" />
<glyph unicode="Z" horiz-adv-x="1401" d="M46 1v48q227 341 428.5 666t378.5 634q-54 3 -111.5 4.5t-120.5 1.5q-121 0 -249 -5t-261 -16q2 24 4.5 47.5t2.5 45.5q0 21 -2.5 42.5t-4.5 41.5q183 -9 326.5 -12.5t269.5 -3.5q128 0 271.5 3.5t326.5 12.5v-40q-204 -316 -404 -641.5t-397 -661.5q33 -1 70.5 -1.5 t113.5 -0.5q167 0 336.5 6.5t343.5 19.5q-4 -38 -5.5 -57t-1.5 -38q0 -31 7 -91v-6q-144 8 -304 11.5t-338 3.5t-348 -3.5t-332 -10.5z" />
<glyph unicode="[" horiz-adv-x="736" d="M171 -268q9 224 14 445.5t5 443.5q0 224 -5 445t-14 445q58 -4 120 -6.5t133 -2.5q72 0 132.5 2.5t115.5 6.5q-5 -22 -7 -33t-2 -20q0 -10 2 -21t7 -32h-19q-126 4 -180 4l-62 -1q-9 -194 -14 -391t-6 -396q0 -194 5.5 -392t14.5 -394q18 -1 54 -2t54 -1q27 0 60 1t93 3 q-5 -17 -7 -29t-2 -22q0 -7 2 -18t7 -33q-97 6 -146.5 7.5t-92.5 1.5q-59 0 -123 -2.5t-139 -8.5z" />
<glyph unicode="\" horiz-adv-x="621" d="M-53 1659h112l604 -1864h-112z" />
<glyph unicode="]" horiz-adv-x="736" d="M64 -162h19q127 -4 181 -4l61 1q10 196 15 392.5t5 393.5t-5 394t-15 393q-17 1 -53.5 2.5t-54.5 1.5q-27 0 -60 -1.5t-92 -3.5q3 11 5.5 24t2.5 27q0 13 -2 26t-6 27q48 -5 103.5 -8t125.5 -3q62 0 128.5 3t143.5 8q-10 -224 -15 -445t-5 -445q0 -222 5 -443.5 t15 -445.5q-67 6 -130.5 8.5t-123.5 2.5q-80 0 -242 -8l-6 -1q5 12 7 25t2 28q0 14 -2.5 27t-6.5 24z" />
<glyph unicode="^" horiz-adv-x="2211" d="M451 971l537 606h236l534 -606h-223l-429 429l-431 -429h-224z" />
<glyph unicode="_" horiz-adv-x="1105" d="M0 -336h1106v-186h-1106v186z" />
<glyph unicode="`" horiz-adv-x="1105" d="M203 1522q0 45 30.5 75.5t76.5 30.5q35 0 69.5 -20t87.5 -75l316 -328h-102l-375 197q-58 30 -80.5 56.5t-22.5 63.5z" />
<glyph unicode="a" horiz-adv-x="1116" d="M76 281q0 105 56 173t176 108q39 13 112 35q173 52 237 95q1 7 1.5 15t0.5 23q0 101 -57.5 160t-152.5 59q-74 0 -135 -42t-113 -128q-16 52 -27 83t-22 58q99 85 195 127t199 42q199 0 305.5 -92t106.5 -263v-10l-7 -386v-42q0 -135 30 -173.5t116 -38.5h7v-55 q-56 -24 -116.5 -36t-115.5 -12q-80 0 -131 40.5t-68 117.5q-48 -80 -125 -123t-174 -43q-140 0 -219 82.5t-79 225.5zM374 310q0 -95 34.5 -142.5t102.5 -47.5q73 0 112.5 53t39.5 152v257q-153 -31 -221 -95t-68 -177z" />
<glyph unicode="b" horiz-adv-x="1280" d="M146 0q12 145 17 340t5 489q0 295 -5 490t-17 340q55 -9 93.5 -12t72.5 -3q35 0 74.5 3.5t88.5 11.5q-5 -102 -8 -186.5t-3 -163.5v-360q61 72 133.5 104.5t172.5 32.5q193 0 307.5 -141t114.5 -381q0 -271 -135.5 -432t-362.5 -161q-97 0 -172.5 36.5t-143.5 116.5 q-56 -27 -103.5 -57.5t-88.5 -66.5h-40zM451 500q0 -229 46.5 -323.5t154.5 -94.5q118 0 169 106.5t51 360.5q0 221 -47 313t-158 92q-115 0 -165.5 -103.5t-50.5 -350.5z" />
<glyph unicode="c" horiz-adv-x="1034" d="M55 524q0 253 156.5 407.5t412.5 154.5q116 0 211.5 -24.5t166.5 -73.5q-34 -78 -53.5 -128t-32.5 -92l-29 13q-28 104 -87.5 154.5t-151.5 50.5q-130 0 -204.5 -115.5t-74.5 -317.5q0 -218 83 -332.5t240 -114.5q72 0 140.5 26t129.5 76l15 -9q-7 -54 -11 -80t-6 -46 q-75 -49 -159 -73.5t-180 -24.5q-260 0 -413 148t-153 401z" />
<glyph unicode="d" horiz-adv-x="1280" d="M89 517q0 266 120.5 417.5t332.5 151.5q92 0 164 -35.5t128 -108.5v274q0 136 -3 242t-8 201q38 -4 78 -6.5t85 -2.5t86 2.5t78 6.5q-11 -146 -15 -332.5t-4 -505.5q0 -256 4.5 -462t14.5 -358q-38 5 -77 8.5t-77 3.5q-40 0 -78.5 -3.5t-78.5 -9.5q1 25 2 56t1 94 q-50 -92 -127 -135.5t-189 -43.5q-217 0 -327 137.5t-110 408.5zM411 504q0 -207 50.5 -300.5t159.5 -93.5q105 0 160 105.5t55 303.5q0 215 -50.5 321.5t-152.5 106.5q-117 0 -169.5 -105t-52.5 -338z" />
<glyph unicode="e" horiz-adv-x="1125" d="M64 546q0 242 145.5 391t385.5 149q228 0 349.5 -126t121.5 -363q0 -28 -0.5 -43t-1.5 -27l-677 -1q0 -191 91 -303.5t246 -112.5q76 0 146.5 26t136.5 79l21 -16l-48 -126q-70 -48 -163 -74t-202 -26q-259 0 -405 152.5t-146 420.5zM387 635h374q0 12 1.5 30t1.5 23 q0 150 -44 226.5t-129 76.5q-97 0 -150.5 -87.5t-53.5 -249.5v-19z" />
<glyph unicode="f" horiz-adv-x="690" d="M21 931q2 13 4 27t2 28q0 13 -2 28.5t-4 29.5q30 -3 58.5 -4.5t55.5 -1.5h36q0 107 31 210t94 200q71 112 145.5 161.5t170.5 49.5q34 0 70.5 -6t75.5 -19q-13 -64 -24 -133.5t-22 -146.5q-53 41 -101.5 61t-95.5 20q-58 0 -94.5 -31.5t-36.5 -80.5q0 -36 30.5 -131.5 t43.5 -153.5h51q41 0 82 1.5t81 4.5q-2 -26 -2.5 -37t-2.5 -23q2 -10 2.5 -20t2.5 -33q-21 1 -60 1.5t-150 0.5v-13q-4 -216 -4 -318q0 -167 5 -317t14 -285q-44 5 -83 8t-75 3q-38 0 -77.5 -3t-83.5 -8q9 137 14 286.5t5 312.5q0 103 -4 319v13q-15 1 -32.5 1.5t-49.5 0.5 q-31 0 -45.5 -0.5t-24.5 -1.5z" />
<glyph unicode="g" horiz-adv-x="1135" d="M64 -319q0 98 56 163.5t169 104.5l3 18q-67 20 -104.5 65.5t-37.5 108.5q0 75 57.5 138.5t164.5 109.5v27q-142 28 -214 107.5t-72 206.5q0 161 124 258.5t332 97.5q20 0 148 -9t237 -9q44 0 93.5 1.5t104.5 5.5v-108q-68 3 -184 7q-24 1 -34 1q57 -36 86 -92.5 t29 -132.5q0 -172 -131.5 -269t-366.5 -97h-38q-43 -4 -70 -33t-27 -72q0 -101 314 -113h12q10 -1 27 -2q202 -10 260 -42q67 -39 102 -106t35 -155q0 -204 -168.5 -334.5t-436.5 -130.5q-222 0 -346 76.5t-124 208.5zM272 -261q0 -114 76 -182t205 -68q150 0 235.5 61.5 t85.5 170.5q0 99 -56 147t-176 54l-255 14q-54 -28 -84.5 -79.5t-30.5 -117.5zM387 737q0 -137 39 -200.5t125 -63.5q88 0 127 67t39 221q0 120 -39.5 178.5t-120.5 58.5t-125.5 -68t-44.5 -193z" />
<glyph unicode="h" horiz-adv-x="1253" d="M133 0q10 117 13.5 289t3.5 498q0 346 -3.5 539.5t-13.5 332.5q45 -9 84.5 -13t76.5 -4q39 0 79 4t83 13q-11 -91 -17 -194.5t-6 -223.5v-344q61 92 146 138t195 46q80 0 146.5 -27.5t111.5 -80.5q39 -44 55.5 -110t16.5 -213q0 -21 -1 -113.5t-1 -162.5q0 -122 3 -210 t10 -164q-46 5 -87 8t-77 3q-37 0 -76.5 -3t-86.5 -8q8 94 12.5 224.5t4.5 290.5q0 241 -38 310.5t-138 69.5q-101 0 -144.5 -83t-43.5 -281q0 -103 3.5 -238t10.5 -293q-44 5 -83.5 8t-77.5 3q-37 0 -77 -3t-84 -8z" />
<glyph unicode="i" horiz-adv-x="614" d="M141 1456q0 70 49 118.5t120 48.5q69 0 117 -49t48 -118q0 -70 -48.5 -118t-118.5 -48t-118.5 48t-48.5 118zM145 0q7 170 10.5 294.5t3.5 233.5q0 125 -4 255.5t-10 273.5q38 -3 79 -4.5t84 -1.5t84.5 1.5t78.5 4.5q-8 -143 -11.5 -273.5t-3.5 -255.5q0 -109 3.5 -234.5 t11.5 -293.5q-42 5 -82.5 8t-80.5 3q-39 0 -79.5 -3t-83.5 -8z" />
<glyph unicode="j" horiz-adv-x="603" d="M-71 -528q141 7 192.5 105t51.5 465q0 401 -6.5 658.5t-17.5 356.5q37 -3 75 -4.5t77 -1.5q40 0 80 1.5t79 3.5q-4 -71 -6.5 -141t-2.5 -138q0 -416 8 -813q1 -63 1 -74q0 -247 -121 -363t-388 -124zM146 1456q0 69 48.5 118t117.5 49q70 0 117.5 -48.5t47.5 -118.5 t-48 -118t-117 -48q-70 0 -118 48t-48 118z" />
<glyph unicode="k" horiz-adv-x="1116" d="M135 1q11 169 16.5 394t5.5 517q0 245 -5 423t-17 324q39 -4 80 -6.5t88 -2.5q48 0 89.5 2.5t78.5 6.5q-10 -94 -15 -206t-5 -290v-188v-413q146 148 251.5 270t177.5 227q24 -4 49 -6t53 -2t51 2t44 6l12 -8l-377 -397l407 -654q-48 5 -91.5 8t-85.5 3q-40 0 -84.5 -3 t-95.5 -7q-62 123 -139.5 251t-171.5 265v-110q0 -156 3 -251.5t8 -155.5q-44 5 -84.5 8t-79.5 3q-37 0 -76 -3t-87 -7z" />
<glyph unicode="l" horiz-adv-x="603" d="M137 0q9 187 13 390t4 435q0 246 -4 450t-13 384q53 -9 91 -12t73 -3q36 0 76 3.5t90 11.5q-9 -187 -13.5 -390t-4.5 -435q0 -246 4.5 -450t13.5 -384q-37 8 -78 11.5t-86 3.5q-44 0 -85 -3.5t-81 -11.5z" />
<glyph unicode="m" horiz-adv-x="1918" d="M135 0q6 177 9.5 311t3.5 220q0 87 -3.5 218t-9.5 310q36 -4 73.5 -6t80.5 -2q46 0 83 2t71 6v-147q68 88 146 128.5t179 40.5q111 0 190 -52.5t117 -152.5q64 105 150.5 155t201.5 50q80 0 144 -26.5t109 -79.5q46 -52 64.5 -135t18.5 -300v-137q0 -93 2.5 -193 t7.5 -210q-48 5 -88.5 8t-78.5 3t-77.5 -3t-83.5 -8q10 145 14.5 268t4.5 230q0 247 -38.5 323t-138.5 76q-98 0 -139.5 -76t-41.5 -270v-350q0 -51 7 -179q2 -16 2 -22q-47 5 -87.5 8t-78.5 3q-37 0 -76.5 -3t-87.5 -7q9 124 13 239.5t4 219.5q0 290 -37.5 363.5 t-138.5 73.5q-97 0 -138 -75.5t-42 -270.5v-350q0 -52 9 -180q1 -15 0 -21q-41 5 -80.5 8t-78.5 3q-36 0 -74.5 -3t-86.5 -8z" />
<glyph unicode="n" horiz-adv-x="1258" d="M135 0q9 147 13 277.5t4 250.5q0 135 -4 268t-13 263q35 -4 72 -6t80 -2t79.5 2t68.5 6v-154q68 90 152.5 133t189.5 43q81 0 147.5 -27.5t113.5 -80.5q37 -43 52.5 -106t15.5 -217q0 -21 -1 -113.5t-1 -162.5q0 -104 3.5 -196t11.5 -178q-47 5 -87.5 8t-77.5 3 q-38 0 -77.5 -3t-85.5 -8q7 94 12 224.5t5 290.5q0 241 -38.5 310.5t-138.5 69.5q-101 0 -144.5 -83t-43.5 -281q0 -93 3 -225.5t9 -305.5q-41 5 -81 8t-78 3q-37 0 -77 -3t-84 -8z" />
<glyph unicode="o" horiz-adv-x="1230" d="M62 528q0 265 146.5 411.5t408.5 146.5q265 0 409 -145t144 -413q0 -262 -146.5 -408.5t-408.5 -146.5q-264 0 -408.5 146t-144.5 409zM387 528q0 -252 52 -354.5t176 -102.5t177 103.5t53 353.5q0 252 -53 356t-177 104t-176 -103t-52 -357z" />
<glyph unicode="p" horiz-adv-x="1280" d="M139 -604q9 110 12 240t3 326q0 374 -3.5 643t-11.5 453q36 -3 75 -5t82 -2t81 2t72 6v-137q64 85 143 124.5t182 39.5q192 0 307.5 -152t115.5 -406q0 -261 -117 -408t-324 -147q-112 0 -185 38t-117 118v-231q0 -125 3 -250t10 -252q-40 8 -82 11.5t-87 3.5 q-43 0 -82.5 -3.5t-76.5 -11.5zM449 524q0 -212 52 -312t162 -100t159.5 96.5t49.5 315.5q0 215 -52 314t-163 99q-104 0 -156 -103t-52 -310z" />
<glyph unicode="q" horiz-adv-x="1280" d="M89 531q0 261 113.5 408t314.5 147q95 0 169 -38.5t143 -125.5v137q35 -4 73 -6t82 -2t83 2t73 6q-9 -151 -14 -335.5t-5 -431.5q0 -365 5 -560.5t16 -335.5q-38 8 -78.5 11.5t-86.5 3.5q-44 0 -85.5 -3.5t-81.5 -11.5q9 133 13 242.5t4 202.5v288q-45 -78 -119 -118 t-177 -40q-209 0 -325.5 148t-116.5 412zM414 531q0 -212 51 -316.5t156 -104.5q108 0 161.5 109t53.5 327q0 194 -52.5 291.5t-154.5 97.5q-112 0 -163.5 -97t-51.5 -307z" />
<glyph unicode="r" horiz-adv-x="842" d="M135 1q8 109 11.5 240.5t3.5 289.5q0 198 -3.5 318t-11.5 210q35 -4 72.5 -6t81.5 -2t81.5 2t71.5 6q-6 -102 -9 -169t-2 -113h12q39 152 126 230.5t214 78.5h11q-7 -39 -10 -79t-3 -80q0 -41 3 -83t10 -83q-46 17 -81 25t-63 8q-109 0 -158 -74.5t-49 -239.5 q0 -128 5 -249t14 -231q-44 5 -84.5 8t-79.5 3q-37 0 -76 -3t-87 -7z" />
<glyph unicode="s" horiz-adv-x="966" d="M93 724q0 162 110.5 261t294.5 99q85 0 164 -23t154 -70q-22 -50 -38.5 -102t-25.5 -106h-22q-49 102 -114 152.5t-147 50.5q-69 0 -114 -38.5t-45 -98.5q0 -50 32.5 -83t155.5 -80q241 -94 301 -161t60 -177q0 -169 -116.5 -273t-304.5 -104q-103 0 -183 21t-146 65 q5 40 24 207l4 39h31q36 -109 111 -168t175 -59q78 0 121.5 38.5t43.5 109.5q0 89 -214 178q-29 12 -44 18q-153 64 -210.5 131.5t-57.5 172.5z" />
<glyph unicode="t" horiz-adv-x="711" d="M16 929q2 12 2.5 22.5t0.5 34.5t-1 36.5t-2 21.5q5 -1 13 -2q79 -7 112 -7l25 1q1 15 1.5 32t0.5 53q0 43 -2 91.5t-6 121.5q77 29 151.5 61.5t144.5 66.5l24 -18q-7 -126 -10 -211t-3 -129v-69q60 0 112.5 2t101.5 6q-3 -25 -3.5 -35.5t-0.5 -21.5q0 -18 3 -51 q1 -4 0 -6q-26 1 -68 1.5t-150 0.5q0 -16 -1 -51q-7 -228 -7 -325v-88q0 -253 24.5 -313.5t96.5 -60.5q35 0 127 24l1 1v-82q-72 -33 -134 -48t-120 -15q-141 0 -215.5 75t-74.5 218q0 5 3.5 188t3.5 360v117h-40q-44 0 -67 -0.5t-43 -1.5z" />
<glyph unicode="u" horiz-adv-x="1253" d="M131 1059q36 -4 77 -6t88 -2t87.5 2t76.5 6q-9 -139 -13 -264.5t-4 -235.5q0 -246 38 -320.5t138 -74.5q98 0 138.5 75.5t40.5 269.5v352q0 34 -1.5 84.5t-3.5 113.5q36 -4 75.5 -6t85.5 -2q44 0 83.5 2t74.5 6q-6 -132 -10 -264.5t-3 -263.5q0 -132 3.5 -265t9.5 -266 q-42 5 -79 8t-71 3t-72 -3t-80 -8v150q-71 -88 -152.5 -130t-186.5 -42q-171 0 -249 96.5t-78 307.5v122q0 126 -3.5 264t-9.5 291z" />
<glyph unicode="v" horiz-adv-x="1070" d="M9 1059q39 -4 81.5 -6t90.5 -2q50 0 93.5 2t81.5 6l259 -763q59 160 122.5 340t147.5 423q21 -4 42.5 -6t47.5 -2q25 0 47 2t42 6q-118 -267 -221.5 -532.5t-192.5 -526.5q-32 5 -63 8t-59 3q-27 0 -56 -3t-65 -8q-84 246 -184 512t-214 547z" />
<glyph unicode="w" horiz-adv-x="1610" d="M4 1059q36 -4 76 -6t86 -2t86 2t75 6q69 -245 121 -425t94 -322q65 201 119.5 387.5t99.5 359.5q28 -4 59.5 -6t68.5 -2q35 0 66.5 2t59.5 6q47 -172 101 -359t114 -388q71 232 125 414t99 333q18 -4 39.5 -6t45.5 -2t44.5 2t39.5 6q-97 -257 -186.5 -521.5 t-171.5 -537.5q-33 5 -63 8t-58 3q-27 0 -57 -3t-64 -8q-42 149 -95 324.5t-123 394.5q-55 -173 -110.5 -351.5t-110.5 -366.5q-33 4 -64 7t-60 3q-28 0 -57.5 -3t-66.5 -7q-67 233 -147 489.5t-185 568.5z" />
<glyph unicode="x" horiz-adv-x="1037" d="M8 1q14 17 143.5 182.5t230.5 293.5q-83 143 -176 288t-195 294q43 -4 89.5 -6t98.5 -2q53 0 98 2t85 6l196 -369q61 87 122.5 179t122.5 190q24 -4 49 -6t55 -2q29 0 54.5 2t46.5 6q-100 -115 -193.5 -229.5t-177.5 -225.5l375 -604q-49 5 -93.5 8t-84.5 3t-83.5 -3 t-95.5 -8l-217 394q-89 -132 -149.5 -224.5t-106.5 -168.5q-29 4 -52.5 7t-45.5 3t-46.5 -3t-49.5 -7z" />
<glyph unicode="y" horiz-adv-x="1059" d="M9 1059q39 -4 81.5 -6t90.5 -2q49 0 91.5 2t81.5 6q54 -162 120 -332.5t143 -350.5l257 683q20 -4 43 -6t47 -2q26 0 49 2t42 6q-191 -423 -367.5 -838.5t-338.5 -824.5q-21 4 -44 5.5t-48 1.5t-50.5 -1.5t-53.5 -5.5q33 51 68 115.5t75 150.5l164 338z" />
<glyph unicode="z" horiz-adv-x="1028" d="M13 36q124 186 387 588l206 316q-69 3 -107.5 3.5t-74.5 0.5q-89 0 -284 -8q-17 0 -24 -1q2 12 3 24t1 37t-1 38t-3 23q99 -4 207.5 -6t231.5 -2q124 0 230 2t201 6v-27q-78 -116 -216.5 -329.5t-373.5 -576.5q80 -3 119.5 -3.5t75.5 -0.5q100 0 195.5 3.5t188.5 10.5 q-2 -21 -3 -36t-1 -27t1 -27t3 -44q-97 5 -210 8t-261 3q-147 0 -265.5 -3t-224.5 -8z" />
<glyph unicode="{" horiz-adv-x="1105" d="M175 477v194q8 0 23.5 -2t22.5 -2q136 0 193 64t57 218v267q0 157 25 223.5t86 101.5q48 29 118 41.5t195 12.5h49v-193q-9 0 -26 1t-25 1q-118 0 -159.5 -45t-41.5 -187v-260q0 -168 -47.5 -238.5t-171.5 -101.5q123 -29 171 -99.5t48 -238.5v-259q0 -142 43 -188 t160 -46q8 0 24 1t25 1v-190h-68q-110 0 -178.5 13t-115.5 40q-61 37 -86 103.5t-25 219.5v268q0 155 -57 219t-193 64q-7 0 -22.5 -1.5t-23.5 -1.5z" />
<glyph unicode="|" horiz-adv-x="1105" d="M458 -522v2212h192v-2212h-192z" />
<glyph unicode="}" horiz-adv-x="1105" d="M164 -257q9 0 25 -1t24 -1q117 0 159 45.5t42 188.5v259q0 166 48.5 237t172.5 101q-124 31 -172.5 101.5t-48.5 238.5v260q0 142 -41 187t-158 45q-8 0 -25 -1t-26 -1v193h49q124 0 193.5 -12.5t117.5 -41.5q61 -35 86 -102t25 -223v-267q0 -155 56 -218.5t194 -63.5 q6 0 22 2t24 2v-194q-8 0 -23.5 1.5t-22.5 1.5q-137 0 -193.5 -64t-56.5 -219v-268q0 -155 -25 -220.5t-86 -102.5q-47 -28 -117 -40.5t-194 -12.5h-49v190z" />
<glyph unicode="~" horiz-adv-x="1842" d="M192 469v202q115 77 218.5 115.5t199.5 38.5q67 0 135.5 -13t182.5 -52q14 -4 45 -16q177 -63 270 -63q92 0 191.5 40t217.5 126v-199q-111 -77 -213 -114.5t-198 -37.5q-48 0 -100 9t-106 29q-27 8 -82 28q-229 80 -345 80q-89 0 -188 -41.5t-228 -131.5z" />
<glyph unicode="&#xa0;" />
<glyph unicode="&#xa1;" horiz-adv-x="721" d="M184 162q0 19 2 44v7l137 807h78l137 -807v-7q2 -25 2 -44q0 -95 -45 -142t-134 -47q-90 0 -133.5 47t-43.5 142zM192 1363q0 72 51.5 124t123.5 52q75 0 126 -51t51 -125q0 -75 -51.5 -126t-125.5 -51q-73 0 -124 51t-51 126z" />
<glyph unicode="&#xa2;" d="M137 546q0 245 143 394t390 164q-1 51 -4.5 100t-7.5 96h121q-4 -39 -5.5 -89t-1.5 -109q88 -3 165 -25.5t144 -65.5q-27 -63 -47.5 -117.5t-35.5 -104.5l-31 13q-25 92 -75 144t-120 61v-876q6 -1 14.5 -1.5t27.5 -0.5q74 0 127 27.5t87 82.5l14 -5q-5 -33 -10 -71.5 t-10 -84.5q-52 -34 -114 -52t-136 -22q1 -18 1.5 -59t0.5 -171h-108q4 54 5.5 110t1.5 114q-260 21 -398 162t-138 386zM449 575q0 -182 54 -286.5t170 -149.5v863q-104 -19 -164 -133.5t-60 -293.5z" />
<glyph unicode="&#xa3;" d="M82 0q2 25 3 52.5t1 80.5q0 52 -1 76.5t-3 44.5q147 4 202.5 62t55.5 208q0 57 -1 88t-3 59h-24q-39 0 -119 -9q-25 -2 -36 -3q5 15 7 31.5t2 37.5q0 18 -2 36.5t-6 35.5q28 -5 57.5 -8t65.5 -3h40v7q-5 72 -5 107q0 291 120 431.5t369 140.5q112 0 199 -29t151 -88 q-36 -47 -66 -99t-54 -109l-31 2q-2 108 -50.5 168t-132.5 60q-95 0 -138.5 -67t-43.5 -216q0 -69 4 -144t11 -158l131 -1q55 0 112.5 1.5t117.5 4.5q0 -11 -1 -34t-1 -34q0 -12 1 -35.5t1 -36.5q-26 5 -58.5 8t-100.5 3h-71h-139v-25q0 -109 -61 -201t-189 -177h84 q151 0 317 5t349 14q-4 -31 -6.5 -65.5t-2.5 -75.5t2.5 -77.5t5.5 -68.5q-120 8 -250 11.5t-274 3.5t-277.5 -3.5t-261.5 -11.5z" />
<glyph unicode="&#xa4;" d="M19 531l45 115q7 -1 18 -1q82 -8 119 -8q-1 19 -1.5 38t-0.5 51q0 25 0.5 41t1.5 33q-78 -3 -123 -4.5t-59 -1.5l45 114q57 -4 86.5 -5.5t57.5 -1.5q39 263 202 418.5t400 155.5q86 0 172.5 -25t178.5 -78q-17 -57 -27.5 -116t-14.5 -123l-22 -5q-28 124 -92.5 188 t-162.5 64q-131 0 -216 -125.5t-104 -353.5q34 -2 72.5 -3t110.5 -1q83 0 161 3.5t147 7.5l-44 -114q-72 3 -153.5 4.5t-173.5 1.5h-127q-1 -16 -1.5 -33t-0.5 -48q0 -7 1.5 -36t3.5 -46q20 -1 44 -1.5t71 -0.5q70 0 139 2.5t140 8.5l-45 -115q-71 4 -156.5 5.5t-186.5 1.5 q19 -233 104.5 -359t222.5 -126q69 0 140 42t142 124l19 -6l-37 -151q-78 -49 -157.5 -73.5t-163.5 -24.5q-240 0 -398.5 154.5t-190.5 419.5q-47 -2 -110 -4.5t-76 -2.5z" />
<glyph unicode="&#xa5;" horiz-adv-x="1238" d="M49 1440h6q122 -9 179 -9q34 0 72.5 1.5t106.5 7.5q71 -153 142.5 -295t147.5 -276q82 138 149 280.5t119 290.5q13 -1 47 -5t52 -4q20 0 55 4t49 5q-92 -145 -183 -304.5t-183 -337.5q107 0 193.5 2t159.5 8v-120h-6q-170 11 -296 11h-101v-159q174 0 255 2t148 7v-120 l-6 1q-170 11 -301 11h-96v-61q0 -89 5 -183.5t12 -196.5q-43 5 -83 8t-77 3q-36 0 -75.5 -3t-83.5 -7q12 107 18 206.5t6 193.5v40q-124 0 -218.5 -3t-177.5 -8v119q105 -6 168.5 -7.5t121.5 -1.5h106v159q-125 0 -219.5 -3t-176.5 -8v120q75 -6 156.5 -8t175.5 -2 q-76 142 -167 301.5t-200 340.5z" />
<glyph unicode="&#xa6;" horiz-adv-x="1105" d="M458 -378v819h192v-819h-192zM458 728v819h192v-819h-192z" />
<glyph unicode="&#xa7;" horiz-adv-x="1203" d="M150 646q0 94 39.5 170t122.5 142q-43 41 -64.5 95.5t-21.5 120.5q0 158 118 261.5t302 103.5q88 0 167 -24.5t151 -74.5q-24 -46 -41.5 -95t-27.5 -100l-34 7q-22 89 -84 138.5t-153 49.5q-82 0 -132.5 -45t-50.5 -116q0 -62 44 -106t218 -122q214 -95 284 -175t70 -201 q0 -92 -41.5 -170t-118.5 -131q50 -49 74.5 -107.5t24.5 -127.5q0 -177 -134.5 -290t-350.5 -113q-98 0 -180.5 22.5t-151.5 66.5q20 59 31.5 124t15.5 132l31 1q36 -115 114 -178t184 -63q95 0 154 48t59 126q0 71 -43.5 120.5t-171.5 109.5l-26 13q-377 176 -377 388z M332 808q0 -67 49.5 -120t164.5 -108q20 -10 62 -29q163 -75 243 -133q16 24 23.5 50t7.5 58q0 70 -37.5 117t-132.5 91q-18 9 -53 25q-199 90 -292 157q-17 -25 -26 -52.5t-9 -55.5z" />
<glyph unicode="&#xa8;" horiz-adv-x="1105" d="M211 1407q0 54 42.5 97t98.5 43q57 0 98 -41.5t41 -98.5q0 -63 -38.5 -102.5t-100.5 -39.5q-60 0 -100.5 41t-40.5 101zM615 1407q0 54 42.5 97t98.5 43q58 0 98.5 -41.5t40.5 -98.5q0 -63 -38 -102.5t-101 -39.5q-59 0 -100 41t-41 101z" />
<glyph unicode="&#xa9;" horiz-adv-x="1842" d="M122 789q0 157 61.5 303.5t177.5 262.5q113 116 254 174.5t305 58.5t309 -59.5t259 -175.5q114 -113 173 -257.5t59 -306.5q0 -165 -58.5 -308.5t-171.5 -252.5q-116 -116 -263.5 -177.5t-306.5 -61.5q-158 0 -302.5 61t-258.5 176q-116 114 -176.5 259.5t-60.5 303.5z M241 789q0 -136 52 -259t150 -220q97 -98 220.5 -150t258.5 -52t259.5 52.5t225.5 151.5q96 95 146.5 216.5t50.5 260.5q0 140 -51 263.5t-146 219.5q-98 97 -221 148t-264 51q-140 0 -262 -50t-217 -147q-97 -99 -149.5 -224.5t-52.5 -260.5zM494 783q0 225 118 358 t315 133q158 0 262 -83t113 -216h-179q-11 80 -65 123.5t-140 43.5q-107 0 -167.5 -93.5t-60.5 -259.5q0 -164 62 -253t177 -89q86 0 139 47t65 135h178q-7 -146 -114.5 -234.5t-274.5 -88.5q-197 0 -312.5 128.5t-115.5 348.5z" />
<glyph unicode="&#xaa;" horiz-adv-x="835" d="M46 964q0 77 44.5 128.5t135.5 79.5q29 10 83 25q128 36 173 63q0 5 1.5 13t1.5 12q0 64 -41 103t-108 39q-56 0 -101.5 -32t-86.5 -101q-17 47 -27.5 74.5t-17.5 48.5q74 63 150.5 93.5t155.5 30.5q154 0 236.5 -67t82.5 -191v-4l-4 -270v-40q0 -86 21.5 -109.5 t83.5 -23.5h9v-51q-45 -18 -92 -28t-92 -10q-59 0 -98 25.5t-54 74.5q-33 -48 -92.5 -76t-128.5 -28q-108 0 -171.5 60t-63.5 161zM104 462v133h677v-133h-677zM289 986q0 -62 23.5 -92.5t69.5 -30.5q52 0 78.5 34t26.5 101v169q-106 -21 -152 -63t-46 -118z" />
<glyph unicode="&#xab;" horiz-adv-x="991" d="M86 531l357 522l76 -73l-232 -452l228 -444l-72 -78zM471 531l356 522l80 -73l-234 -452l228 -444l-74 -78z" />
<glyph unicode="&#xac;" horiz-adv-x="1842" d="M274 752v179h1294v-542h-179v363h-1115z" />
<glyph unicode="&#xad;" horiz-adv-x="738" d="M97 424v237h545v-237h-545z" />
<glyph unicode="&#xae;" horiz-adv-x="1842" d="M122 789q0 159 62 307t179 265q112 112 253 169.5t304 57.5q165 0 311.5 -60.5t261.5 -178.5q111 -112 169 -255.5t58 -304.5q0 -165 -59.5 -309.5t-174.5 -255.5q-117 -114 -262.5 -174.5t-303.5 -60.5q-159 0 -305 62t-261 179q-113 115 -172.5 258.5t-59.5 300.5z M241 789q0 -135 50.5 -257.5t146.5 -219.5q98 -98 221 -151t253 -53q140 0 266 51t226 149q96 93 148 214.5t52 256.5q0 143 -49 267t-146 222q-100 99 -223.5 151t-263.5 52q-139 0 -259 -49t-216 -145q-99 -102 -152.5 -227.5t-53.5 -260.5zM595 356v896h345 q186 0 282.5 -61.5t96.5 -181.5q0 -99 -52 -163t-148 -85l200 -405h-215l-177 374h-140v-374h-192zM787 849h127q108 0 157.5 33t49.5 104q0 75 -52 110t-164 35h-118v-282z" />
<glyph unicode="&#xaf;" horiz-adv-x="1105" d="M243 1321v167h620v-167h-620z" />
<glyph unicode="&#xb0;" horiz-adv-x="727" d="M46 1256q0 135 93 228t226 93q131 0 225 -94t94 -227q0 -131 -94 -225t-227 -94t-225 92.5t-92 226.5zM164 1258q0 -82 59 -141.5t142 -59.5t141 59t58 142t-58 141.5t-141 58.5t-142 -58.5t-59 -141.5z" />
<glyph unicode="&#xb1;" horiz-adv-x="1842" d="M274 15v182h1294v-182h-1294zM274 764v178h555v360h184v-360h555v-178h-555v-361h-184v361h-555z" />
<glyph unicode="&#xb2;" horiz-adv-x="800" d="M53 1294q50 85 128 125.5t195 40.5q165 0 255 -63.5t90 -180.5q0 -64 -29 -119t-90 -109q-31 -26 -138 -104t-169 -139q24 -1 53 -1.5t87 -0.5q83 0 156.5 2t140.5 7q-2 -29 -3 -48.5t-1 -38.5q0 -15 0.5 -33.5t3.5 -55.5q-87 3 -172 4.5t-169 1.5q-83 0 -166.5 -1.5 t-167.5 -4.5v70q235 168 336 300t101 266q0 94 -36.5 140t-109.5 46q-78 0 -125.5 -52.5t-54.5 -144.5q-23 30 -52 53.5t-63 39.5z" />
<glyph unicode="&#xb3;" horiz-adv-x="800" d="M44 642q27 35 53.5 73.5t54.5 80.5q11 -92 52.5 -136.5t116.5 -44.5q74 0 115 50t41 140q0 97 -41 145t-124 48q-26 0 -36 -0.5t-19 -1.5v66q1 0 4 -1q18 -4 26 -4q85 0 124.5 44t39.5 136q0 81 -30.5 122t-91.5 41q-56 0 -91 -45t-36 -122l3 -3l-129 99q49 65 123 98 t173 33q138 0 214.5 -56.5t76.5 -158.5q0 -73 -46 -118.5t-153 -77.5v-11q122 -15 180.5 -65.5t58.5 -140.5q0 -126 -100.5 -201.5t-268.5 -75.5q-89 0 -162.5 21.5t-127.5 65.5z" />
<glyph unicode="&#xb4;" horiz-adv-x="1105" d="M323 1205l316 328q53 55 87.5 75t69.5 20q46 0 76.5 -30.5t30.5 -75.5q0 -37 -22.5 -63.5t-80.5 -56.5l-376 -197h-101z" />
<glyph unicode="&#xb5;" horiz-adv-x="1304" d="M-99 -464l320 1631h248l-135 -685q-7 -32 -10 -60t-3 -53q0 -103 50 -157.5t146 -54.5q132 0 209.5 95.5t120.5 315.5l117 599h243l-156 -798q-11 -53 -16 -88t-5 -55q0 -39 17 -55.5t57 -16.5q14 0 22 1t14 2l-34 -172q-35 -10 -74 -14t-88 -4q-80 0 -120.5 34 t-40.5 101v16q-44 -73 -116.5 -113.5t-157.5 -40.5q-88 0 -149 28.5t-105 89.5l-107 -546h-247z" />
<glyph unicode="&#xb6;" horiz-adv-x="1105" d="M59 1220q0 171 116 274t307 103h565v-107h-127v-1490h-139v1490h-182v-1490h-141v847q-182 6 -290.5 108.5t-108.5 264.5z" />
<glyph unicode="&#xb7;" horiz-adv-x="605" d="M118 719q0 78 53.5 132t131.5 54t132 -54.5t54 -131.5t-54.5 -131t-131.5 -54t-131 54t-54 131z" />
<glyph unicode="&#xb8;" horiz-adv-x="1105" d="M219 -435l38 101q93 -28 159.5 -41.5t109.5 -13.5q60 0 86.5 21t26.5 70q0 41 -25 62t-76 21q-15 0 -32.5 -1.5t-34.5 -3.5v220h84v-123q8 0 17.5 0.5t26.5 0.5q112 0 170 -46.5t58 -134.5q0 -94 -67 -147.5t-188 -53.5q-75 0 -163 17t-190 52z" />
<glyph unicode="&#xb9;" horiz-adv-x="800" d="M89 1309q108 35 211.5 77t206.5 94l25 -13q-5 -57 -7.5 -142t-2.5 -308q0 -170 2.5 -273.5t7.5 -167.5q-24 2 -53.5 4t-56.5 2q-28 0 -55.5 -1.5t-54.5 -4.5q9 126 13 245t4 234q0 66 -3 129.5t-10 122.5q-36 -14 -76 -32.5t-83 -40.5z" />
<glyph unicode="&#xba;" horiz-adv-x="922" d="M36 1142q0 186 112.5 291.5t313.5 105.5q203 0 314 -103.5t111 -293.5q0 -189 -113.5 -294t-317.5 -105q-197 0 -308.5 106t-111.5 293zM97 462v133h728v-133h-728zM298 1142q0 -172 38 -243.5t126 -71.5t125 70.5t37 244.5q0 173 -36.5 243.5t-125.5 70.5 q-88 0 -126 -71.5t-38 -242.5z" />
<glyph unicode="&#xbb;" horiz-adv-x="991" d="M84 980l78 73l355 -522l-355 -525l-73 78l227 444zM469 980l77 73l359 -522l-359 -525l-73 78l230 444z" />
<glyph unicode="&#xbc;" horiz-adv-x="1897" d="M84 1319q99 29 198 68t200 88l27 -11q-5 -50 -7 -130t-2 -290q0 -150 2 -248.5t7 -162.5q-25 3 -52 4.5t-54 1.5t-53 -1.5t-51 -4.5q8 104 11.5 214.5t3.5 231.5q0 74 -2.5 131t-9.5 105q-44 -16 -81 -32.5t-71 -35.5zM396 -205l984 1849h122l-983 -1849h-123zM1182 190 q2 13 3 28t1 43q0 26 -1 38.5t-3 23.5q106 136 200 260.5t180 241.5q16 -2 35 -3t58 -1q36 0 55 1t35 2q-4 -162 -6 -290t-2 -171v-34q35 3 64.5 4.5t51.5 2.5q-2 -29 -3 -45t-1 -27q0 -12 1 -27t3 -44q-7 0 -23 1q-56 5 -93 5v-37q0 -68 2 -101t5 -61q-24 3 -49.5 4.5 t-52.5 1.5q-26 0 -52 -1.5t-50 -4.5q5 52 8 92t3 72v35q-16 0 -46.5 1t-44.5 1q-66 0 -134.5 -3t-143.5 -8zM1277 325q61 0 221 3q35 1 53 1v361q-85 -104 -151.5 -192t-122.5 -173z" />
<glyph unicode="&#xbd;" horiz-adv-x="1897" d="M84 1319q99 29 198 68t200 88l27 -11q-5 -50 -7 -130t-2 -290q0 -150 2 -248.5t7 -162.5q-25 3 -52 4.5t-54 1.5t-53 -1.5t-51 -4.5q8 104 11.5 214.5t3.5 231.5q0 74 -2.5 131t-9.5 105q-44 -16 -81 -32.5t-71 -35.5zM396 -205l984 1849h122l-983 -1849h-123zM1186 673 q48 80 122.5 117t186.5 37q156 0 242 -60.5t86 -169.5q0 -58 -27 -109t-86 -104q-31 -24 -132.5 -97t-161.5 -127q24 -2 51.5 -2.5t83.5 -0.5q79 0 148.5 2t134.5 6q-3 -32 -3.5 -48.5t-0.5 -30.5q0 -16 0.5 -33t2.5 -53q-82 3 -163 4.5t-161 1.5q-82 0 -161.5 -1.5 t-157.5 -4.5v66q224 159 320 281.5t96 247.5q0 88 -34.5 130.5t-104.5 42.5q-74 0 -120.5 -49t-52.5 -135q-22 28 -48.5 50t-59.5 39z" />
<glyph unicode="&#xbe;" horiz-adv-x="1899" d="M44 694l14 21q60 82 88 125q8 -85 47.5 -127t112.5 -42q72 0 111 45.5t39 130.5q0 89 -40 134t-120 45h-51v59q4 0 10.5 -0.5t18.5 -0.5q81 0 119 40t38 126q0 74 -29.5 113t-87.5 39q-54 0 -87 -41.5t-35 -112.5l5 -5q-43 31 -124 95q47 61 116.5 90.5t164.5 29.5 q133 0 207 -53t74 -147q0 -67 -44.5 -109.5t-147.5 -76.5v-8q119 -15 174.5 -61t55.5 -129q0 -117 -97.5 -188t-256.5 -71q-86 0 -155 19.5t-120 59.5zM396 -205l984 1849h122l-983 -1849h-123zM1182 190q2 13 3 28t1 43q0 26 -1 38.5t-3 23.5q106 136 200 260.5t180 241.5 q16 -2 35 -3t58 -1q36 0 55 1t35 2q-4 -162 -6 -290t-2 -171v-34q35 3 64.5 4.5t51.5 2.5q-2 -29 -3 -45t-1 -27q0 -12 1 -27t3 -44q-7 0 -23 1q-56 5 -93 5v-37q0 -68 2 -101t5 -61q-24 3 -49.5 4.5t-52.5 1.5q-26 0 -52 -1.5t-50 -4.5q5 52 8 92t3 72v35q-16 0 -46.5 1 t-44.5 1q-66 0 -134.5 -3t-143.5 -8zM1277 325q61 0 221 3q35 1 53 1v361q-85 -104 -151.5 -192t-122.5 -173z" />
<glyph unicode="&#xbf;" horiz-adv-x="973" d="M150 279q0 80 33 149t109 147l135 137q37 40 53 69.5t16 60.5q0 47 -27 72.5t-75 25.5q-33 0 -65 -6.5t-59 -19.5l38 103q45 7 83 10t65 3q133 0 213.5 -72.5t80.5 -191.5q0 -68 -30 -133t-89 -126l-103 -102q-48 -51 -69 -92.5t-21 -86.5q0 -62 48.5 -102t123.5 -40 q61 0 107.5 28.5t78.5 86.5l29 -2l4 -138q-48 -42 -119.5 -64t-158.5 -22q-179 0 -290 85.5t-111 220.5zM321 1363q0 73 51.5 124.5t125.5 51.5t125.5 -51t51.5 -125q0 -76 -51.5 -126.5t-125.5 -50.5t-125.5 51t-51.5 126z" />
<glyph unicode="&#xc0;" horiz-adv-x="1344" d="M-31 0q161 355 314.5 738t302.5 801q24 -3 45.5 -4.5t43.5 -1.5q21 0 40.5 1.5t38.5 4.5q134 -367 287 -751.5t328 -787.5q-42 4 -89 6.5t-101 2.5t-100.5 -2.5t-90.5 -6.5q-26 83 -56.5 176.5t-89.5 268.5q-45 2 -98.5 3t-159.5 1q-107 0 -160.5 -1t-98.5 -3 q-64 -188 -97 -280t-60 -165q-31 4 -53 6.5t-42 2.5q-30 0 -92 -8q-8 -1 -12 -1zM323 1976q0 45 30.5 75.5t76.5 30.5q35 0 69.5 -20t87.5 -75l316 -328h-102l-375 197q-58 30 -80.5 56.5t-22.5 63.5zM387 591h6q126 -5 191 -5q35 0 74.5 1t122.5 4q-43 132 -91 258.5 t-101 247.5q-55 -117 -105.5 -243.5t-96.5 -262.5z" />
<glyph unicode="&#xc1;" horiz-adv-x="1344" d="M-31 0q161 355 314.5 738t302.5 801q24 -3 45.5 -4.5t43.5 -1.5q21 0 40.5 1.5t38.5 4.5q134 -367 287 -751.5t328 -787.5q-42 4 -89 6.5t-101 2.5t-100.5 -2.5t-90.5 -6.5q-26 83 -56.5 176.5t-89.5 268.5q-45 2 -98.5 3t-159.5 1q-107 0 -160.5 -1t-98.5 -3 q-64 -188 -97 -280t-60 -165q-31 4 -53 6.5t-42 2.5q-30 0 -92 -8q-8 -1 -12 -1zM387 591h6q126 -5 191 -5q35 0 74.5 1t122.5 4q-43 132 -91 258.5t-101 247.5q-55 -117 -105.5 -243.5t-96.5 -262.5zM443 1659l316 328q53 55 87.5 75t69.5 20q46 0 76.5 -30.5t30.5 -75.5 q0 -37 -22.5 -63.5t-80.5 -56.5l-376 -197h-101z" />
<glyph unicode="&#xc2;" horiz-adv-x="1344" d="M-31 0q161 355 314.5 738t302.5 801q24 -3 45.5 -4.5t43.5 -1.5q21 0 40.5 1.5t38.5 4.5q134 -367 287 -751.5t328 -787.5q-42 4 -89 6.5t-101 2.5t-100.5 -2.5t-90.5 -6.5q-26 83 -56.5 176.5t-89.5 268.5q-45 2 -98.5 3t-159.5 1q-107 0 -160.5 -1t-98.5 -3 q-64 -188 -97 -280t-60 -165q-31 4 -53 6.5t-42 2.5q-30 0 -92 -8q-8 -1 -12 -1zM331 1659l251 401h182l249 -401h-95l-245 202l-245 -202h-97zM387 591h6q126 -5 191 -5q35 0 74.5 1t122.5 4q-43 132 -91 258.5t-101 247.5q-55 -117 -105.5 -243.5t-96.5 -262.5z" />
<glyph unicode="&#xc3;" horiz-adv-x="1344" d="M-31 0q161 355 314.5 738t302.5 801q24 -3 45.5 -4.5t43.5 -1.5q21 0 40.5 1.5t38.5 4.5q134 -367 287 -751.5t328 -787.5q-42 4 -89 6.5t-101 2.5t-100.5 -2.5t-90.5 -6.5q-26 83 -56.5 176.5t-89.5 268.5q-45 2 -98.5 3t-159.5 1q-107 0 -160.5 -1t-98.5 -3 q-64 -188 -97 -280t-60 -165q-31 4 -53 6.5t-42 2.5q-30 0 -92 -8q-8 -1 -12 -1zM335 1695q25 142 83 210.5t156 68.5q17 0 36.5 -3t44.5 -8l126 -34q16 -3 26.5 -4.5t17.5 -1.5q40 0 65.5 24.5t39.5 76.5h81q-23 -135 -83.5 -206.5t-153.5 -71.5q-19 0 -36.5 2t-33.5 6 l-122 34q-19 4 -33.5 6t-25.5 2q-41 0 -67.5 -25t-39.5 -76h-81zM387 591h6q126 -5 191 -5q35 0 74.5 1t122.5 4q-43 132 -91 258.5t-101 247.5q-55 -117 -105.5 -243.5t-96.5 -262.5z" />
<glyph unicode="&#xc4;" horiz-adv-x="1344" d="M-31 0q161 355 314.5 738t302.5 801q24 -3 45.5 -4.5t43.5 -1.5q21 0 40.5 1.5t38.5 4.5q134 -367 287 -751.5t328 -787.5q-42 4 -89 6.5t-101 2.5t-100.5 -2.5t-90.5 -6.5q-26 83 -56.5 176.5t-89.5 268.5q-45 2 -98.5 3t-159.5 1q-107 0 -160.5 -1t-98.5 -3 q-64 -188 -97 -280t-60 -165q-31 4 -53 6.5t-42 2.5q-30 0 -92 -8q-8 -1 -12 -1zM331 1861q0 54 42.5 97t98.5 43q57 0 98 -41.5t41 -98.5q0 -63 -38.5 -102.5t-100.5 -39.5q-60 0 -100.5 41t-40.5 101zM387 591h6q126 -5 191 -5q35 0 74.5 1t122.5 4q-43 132 -91 258.5 t-101 247.5q-55 -117 -105.5 -243.5t-96.5 -262.5zM735 1861q0 54 42.5 97t98.5 43q58 0 98.5 -41.5t40.5 -98.5q0 -63 -38 -102.5t-101 -39.5q-59 0 -100 41t-41 101z" />
<glyph unicode="&#xc5;" horiz-adv-x="1344" d="M-31 0q161 355 314.5 738t302.5 801q24 -3 45.5 -4.5t43.5 -1.5q21 0 40.5 1.5t38.5 4.5q134 -367 287 -751.5t328 -787.5q-42 4 -89 6.5t-101 2.5t-100.5 -2.5t-90.5 -6.5q-26 83 -56.5 176.5t-89.5 268.5q-45 2 -98.5 3t-159.5 1q-107 0 -160.5 -1t-98.5 -3 q-64 -188 -97 -280t-60 -165q-31 4 -53 6.5t-42 2.5q-30 0 -92 -8q-8 -1 -12 -1zM387 591h6q126 -5 191 -5q35 0 74.5 1t122.5 4q-43 132 -91 258.5t-101 247.5q-55 -117 -105.5 -243.5t-96.5 -262.5zM387 1853q0 116 83 195.5t203 79.5q121 0 196 -70.5t75 -183.5 q0 -118 -82.5 -197.5t-204.5 -79.5q-118 0 -194 72t-76 184zM504 1849q0 -86 41 -133.5t116 -47.5q78 0 123 56t45 152q0 84 -43 134t-115 50q-78 0 -122.5 -56.5t-44.5 -154.5z" />
<glyph unicode="&#xc6;" horiz-adv-x="1829" d="M-106 0q246 402 470 779.5t424 731.5q187 -5 282 -7t177 -2q152 0 460 8l13 1q-2 -10 -3 -20.5t-1 -32.5v-36v-35q0 -23 1 -35t3 -20q-133 7 -236 12t-137 5h-123v-473h90q74 0 176 3.5t222 11.5q-3 -24 -5 -47t-2 -46q0 -24 2 -47.5t5 -46.5q-147 10 -246.5 15t-151.5 5 h-90v-558h70q31 0 124.5 5t301.5 19q-2 -34 -3 -52.5t-1 -33.5q0 -19 1 -42t3 -62q-116 5 -220.5 8t-199.5 3q-94 0 -195.5 -3t-218.5 -8q5 69 8 148.5t3 167.5q0 64 -3 203l-1 7q-64 3 -127.5 5.5t-123.5 2.5q-76 0 -140.5 -2.5t-119.5 -7.5l-48 -83q-15 -28 -149 -295 l-75 -146q-32 5 -58.5 8t-51.5 3t-51 -3t-55 -8zM469 675q47 -5 98 -8.5t104 -3.5h224v690h-17z" />
<glyph unicode="&#xc7;" horiz-adv-x="1460" d="M78 761q0 355 232.5 567.5t622.5 212.5q123 0 244.5 -27t247.5 -83q-20 -60 -34.5 -126.5t-23.5 -141.5l-31 -4q-36 118 -141.5 183t-263.5 65q-239 0 -371.5 -167.5t-132.5 -469.5q0 -326 135.5 -497t393.5 -171q111 0 224 43t205 121l27 -7l-51 -186 q-106 -51 -221 -76.5t-243 -25.5q-387 0 -603 208.5t-216 581.5zM506 -435l38 101q93 -28 159.5 -41.5t109.5 -13.5q60 0 86.5 21t26.5 70q0 41 -25 62t-76 21q-15 0 -32.5 -1.5t-34.5 -3.5v220h84v-123q8 0 17.5 0.5t26.5 0.5q112 0 170 -46.5t58 -134.5q0 -94 -67 -147.5 t-188 -53.5q-75 0 -163 17t-190 52z" />
<glyph unicode="&#xc8;" horiz-adv-x="1112" d="M164 0q14 117 20 267.5t6 486.5v111q0 251 -6 392.5t-20 253.5q104 -4 214 -6.5t230 -2.5q121 0 221 2.5t188 6.5q-5 -37 -6.5 -57.5t-1.5 -37.5t1.5 -36t6.5 -57q-165 11 -286 17t-210 7q-5 -40 -6.5 -85.5t-1.5 -133.5v-106l1 -150q70 2 239 8t256 9q-6 -34 -7.5 -54 t-1.5 -39q0 -29 8 -89l1 -6q-203 12 -309.5 16t-186.5 4v-265q0 -143 2 -200t7 -96q101 3 224.5 11t270.5 21q-3 -21 -4.5 -42t-1.5 -44t3 -60t3 -46q-221 6 -340 8.5t-192 2.5q-99 0 -176.5 -3t-144.5 -8zM241 1976q0 45 30.5 75.5t76.5 30.5q35 0 69.5 -20t87.5 -75 l316 -328h-102l-375 197q-58 30 -80.5 56.5t-22.5 63.5z" />
<glyph unicode="&#xc9;" horiz-adv-x="1112" d="M164 0q14 117 20 267.5t6 486.5v111q0 251 -6 392.5t-20 253.5q104 -4 214 -6.5t230 -2.5q121 0 221 2.5t188 6.5q-5 -37 -6.5 -57.5t-1.5 -37.5t1.5 -36t6.5 -57q-165 11 -286 17t-210 7q-5 -40 -6.5 -85.5t-1.5 -133.5v-106l1 -150q70 2 239 8t256 9q-6 -34 -7.5 -54 t-1.5 -39q0 -29 8 -89l1 -6q-203 12 -309.5 16t-186.5 4v-265q0 -143 2 -200t7 -96q101 3 224.5 11t270.5 21q-3 -21 -4.5 -42t-1.5 -44t3 -60t3 -46q-221 6 -340 8.5t-192 2.5q-99 0 -176.5 -3t-144.5 -8zM361 1659l316 328q53 55 87.5 75t69.5 20q46 0 76.5 -30.5 t30.5 -75.5q0 -37 -22.5 -63.5t-80.5 -56.5l-376 -197h-101z" />
<glyph unicode="&#xca;" horiz-adv-x="1112" d="M164 0q14 117 20 267.5t6 486.5v111q0 251 -6 392.5t-20 253.5q104 -4 214 -6.5t230 -2.5q121 0 221 2.5t188 6.5q-5 -37 -6.5 -57.5t-1.5 -37.5t1.5 -36t6.5 -57q-165 11 -286 17t-210 7q-5 -40 -6.5 -85.5t-1.5 -133.5v-106l1 -150q70 2 239 8t256 9q-6 -34 -7.5 -54 t-1.5 -39q0 -29 8 -89l1 -6q-203 12 -309.5 16t-186.5 4v-265q0 -143 2 -200t7 -96q101 3 224.5 11t270.5 21q-3 -21 -4.5 -42t-1.5 -44t3 -60t3 -46q-221 6 -340 8.5t-192 2.5q-99 0 -176.5 -3t-144.5 -8zM249 1659l251 401h182l249 -401h-95l-245 202l-245 -202h-97z" />
<glyph unicode="&#xcb;" horiz-adv-x="1112" d="M164 0q14 117 20 267.5t6 486.5v111q0 251 -6 392.5t-20 253.5q104 -4 214 -6.5t230 -2.5q121 0 221 2.5t188 6.5q-5 -37 -6.5 -57.5t-1.5 -37.5t1.5 -36t6.5 -57q-165 11 -286 17t-210 7q-5 -40 -6.5 -85.5t-1.5 -133.5v-106l1 -150q70 2 239 8t256 9q-6 -34 -7.5 -54 t-1.5 -39q0 -29 8 -89l1 -6q-203 12 -309.5 16t-186.5 4v-265q0 -143 2 -200t7 -96q101 3 224.5 11t270.5 21q-3 -21 -4.5 -42t-1.5 -44t3 -60t3 -46q-221 6 -340 8.5t-192 2.5q-99 0 -176.5 -3t-144.5 -8zM249 1861q0 54 42.5 97t98.5 43q57 0 98 -41.5t41 -98.5 q0 -63 -38.5 -102.5t-100.5 -39.5q-60 0 -100.5 41t-40.5 101zM653 1861q0 54 42.5 97t98.5 43q58 0 98.5 -41.5t40.5 -98.5q0 -63 -38 -102.5t-101 -39.5q-59 0 -100 41t-41 101z" />
<glyph unicode="&#xcc;" horiz-adv-x="714" d="M9 1976q0 45 30.5 75.5t76.5 30.5q35 0 69.5 -20t87.5 -75l316 -328h-102l-375 197q-58 30 -80.5 56.5t-22.5 63.5zM166 0q12 146 18 314.5t6 439.5q0 262 -6 440t-18 317q48 -7 96 -10.5t97 -3.5q48 0 95.5 3.5t94.5 10.5q-13 -142 -19 -320t-6 -437q0 -282 6 -449 t18 -305q-53 5 -100 8t-89 3q-45 0 -92 -3t-101 -8z" />
<glyph unicode="&#xcd;" horiz-adv-x="714" d="M129 1659l316 328q53 55 87.5 75t69.5 20q46 0 76.5 -30.5t30.5 -75.5q0 -37 -22.5 -63.5t-80.5 -56.5l-376 -197h-101zM166 0q12 146 18 314.5t6 439.5q0 262 -6 440t-18 317q48 -7 96 -10.5t97 -3.5q48 0 95.5 3.5t94.5 10.5q-13 -142 -19 -320t-6 -437q0 -282 6 -449 t18 -305q-53 5 -100 8t-89 3q-45 0 -92 -3t-101 -8z" />
<glyph unicode="&#xce;" horiz-adv-x="714" d="M17 1659l251 401h182l249 -401h-95l-245 202l-245 -202h-97zM166 0q12 146 18 314.5t6 439.5q0 262 -6 440t-18 317q48 -7 96 -10.5t97 -3.5q48 0 95.5 3.5t94.5 10.5q-13 -142 -19 -320t-6 -437q0 -282 6 -449t18 -305q-53 5 -100 8t-89 3q-45 0 -92 -3t-101 -8z" />
<glyph unicode="&#xcf;" horiz-adv-x="714" d="M17 1861q0 54 42.5 97t98.5 43q57 0 98 -41.5t41 -98.5q0 -63 -38.5 -102.5t-100.5 -39.5q-60 0 -100.5 41t-40.5 101zM166 0q12 146 18 314.5t6 439.5q0 262 -6 440t-18 317q48 -7 96 -10.5t97 -3.5q48 0 95.5 3.5t94.5 10.5q-13 -142 -19 -320t-6 -437q0 -282 6 -449 t18 -305q-53 5 -100 8t-89 3q-45 0 -92 -3t-101 -8zM421 1861q0 54 42.5 97t98.5 43q58 0 98.5 -41.5t40.5 -98.5q0 -63 -38 -102.5t-101 -39.5q-59 0 -100 41t-41 101z" />
<glyph unicode="&#xd0;" horiz-adv-x="1711" d="M0 751v131q32 -3 72.5 -4.5t124.5 -1.5q0 19 1 59t1 61q0 125 -6.5 252.5t-19.5 262.5q42 -4 84 -6.5t88 -2.5q71 0 221 4.5t230 4.5q221 0 349.5 -32.5t223.5 -106.5q119 -94 183.5 -245t64.5 -338q0 -394 -227 -591.5t-680 -197.5q-81 0 -206 3t-170 3q-43 0 -122 -4 q-26 -1 -39 -2q14 120 21 263.5t7 314.5q0 72 -0.5 110.5t-1.5 69.5q-36 0 -77 -1.5t-122 -5.5zM524 758q0 -176 1.5 -332t5.5 -291q41 -6 79 -9.5t71 -3.5q289 0 434 162t145 486q0 325 -135.5 468.5t-443.5 143.5q-19 0 -90 -2q-37 -1 -57 -2q-5 -86 -6.5 -167.5 t-1.5 -161.5q0 -72 0.5 -107t2.5 -66q127 2 215.5 3.5t137.5 2.5v-132q-99 5 -185.5 6.5t-172.5 1.5z" />
<glyph unicode="&#xd1;" horiz-adv-x="1637" d="M144 1510q27 -3 56 -5.5t64 -2.5q33 0 62 2.5t56 6.5q226 -253 456.5 -506.5t466.5 -508.5v260q0 72 -2.5 280.5t-6.5 473.5q21 -3 43.5 -5.5t47.5 -2.5q28 0 51 2.5t44 5.5q-10 -94 -14 -290t-4 -631v-122q0 -178 4 -281.5t14 -185.5q-26 5 -49.5 8t-45.5 3t-46 -3 t-51 -8q-207 235 -442.5 494t-522.5 565v-645q0 -40 2 -153.5t7 -260.5q-28 5 -51 8t-44 3t-44 -3t-50 -8q11 159 17 342.5t6 398.5q0 203 -6 396.5t-18 372.5zM481 1695q25 142 83 210.5t156 68.5q17 0 36.5 -3t44.5 -8l126 -34q16 -3 26.5 -4.5t17.5 -1.5q40 0 65.5 24.5 t39.5 76.5h81q-23 -135 -83.5 -206.5t-153.5 -71.5q-19 0 -36.5 2t-33.5 6l-122 34q-19 4 -33.5 6t-25.5 2q-41 0 -67.5 -25t-39.5 -76h-81z" />
<glyph unicode="&#xd2;" horiz-adv-x="1827" d="M78 732q0 378 228 592.5t631 214.5q389 0 601 -204t212 -581q0 -357 -228 -570t-608 -213q-403 0 -619.5 197.5t-216.5 563.5zM433 754q0 -309 127.5 -483t353.5 -174q222 0 349.5 175t127.5 482q0 311 -127.5 486.5t-349.5 175.5q-225 0 -353 -176t-128 -486zM564 1976 q0 45 30.5 75.5t76.5 30.5q35 0 69.5 -20t87.5 -75l316 -328h-102l-375 197q-58 30 -80.5 56.5t-22.5 63.5z" />
<glyph unicode="&#xd3;" horiz-adv-x="1827" d="M78 732q0 378 228 592.5t631 214.5q389 0 601 -204t212 -581q0 -357 -228 -570t-608 -213q-403 0 -619.5 197.5t-216.5 563.5zM433 754q0 -309 127.5 -483t353.5 -174q222 0 349.5 175t127.5 482q0 311 -127.5 486.5t-349.5 175.5q-225 0 -353 -176t-128 -486zM684 1659 l316 328q53 55 87.5 75t69.5 20q46 0 76.5 -30.5t30.5 -75.5q0 -37 -22.5 -63.5t-80.5 -56.5l-376 -197h-101z" />
<glyph unicode="&#xd4;" horiz-adv-x="1827" d="M78 732q0 378 228 592.5t631 214.5q389 0 601 -204t212 -581q0 -357 -228 -570t-608 -213q-403 0 -619.5 197.5t-216.5 563.5zM433 754q0 -309 127.5 -483t353.5 -174q222 0 349.5 175t127.5 482q0 311 -127.5 486.5t-349.5 175.5q-225 0 -353 -176t-128 -486zM572 1659 l251 401h182l249 -401h-95l-245 202l-245 -202h-97z" />
<glyph unicode="&#xd5;" horiz-adv-x="1827" d="M78 732q0 378 228 592.5t631 214.5q389 0 601 -204t212 -581q0 -357 -228 -570t-608 -213q-403 0 -619.5 197.5t-216.5 563.5zM433 754q0 -309 127.5 -483t353.5 -174q222 0 349.5 175t127.5 482q0 311 -127.5 486.5t-349.5 175.5q-225 0 -353 -176t-128 -486zM576 1695 q25 142 83 210.5t156 68.5q17 0 36.5 -3t44.5 -8l126 -34q16 -3 26.5 -4.5t17.5 -1.5q40 0 65.5 24.5t39.5 76.5h81q-23 -135 -83.5 -206.5t-153.5 -71.5q-19 0 -36.5 2t-33.5 6l-122 34q-19 4 -33.5 6t-25.5 2q-41 0 -67.5 -25t-39.5 -76h-81z" />
<glyph unicode="&#xd6;" horiz-adv-x="1827" d="M78 732q0 378 228 592.5t631 214.5q389 0 601 -204t212 -581q0 -357 -228 -570t-608 -213q-403 0 -619.5 197.5t-216.5 563.5zM433 754q0 -309 127.5 -483t353.5 -174q222 0 349.5 175t127.5 482q0 311 -127.5 486.5t-349.5 175.5q-225 0 -353 -176t-128 -486zM572 1861 q0 54 42.5 97t98.5 43q57 0 98 -41.5t41 -98.5q0 -63 -38.5 -102.5t-100.5 -39.5q-60 0 -100.5 41t-40.5 101zM976 1861q0 54 42.5 97t98.5 43q58 0 98.5 -41.5t40.5 -98.5q0 -63 -38 -102.5t-101 -39.5q-59 0 -100 41t-41 101z" />
<glyph unicode="&#xd7;" horiz-adv-x="1842" d="M310 164l495 495l-495 498l125 126l496 -496l498 496l126 -126l-496 -498l496 -495l-126 -128l-498 498l-496 -498z" />
<glyph unicode="&#xd8;" horiz-adv-x="1827" d="M78 -22q76 70 126 117.5t92 92.5q-110 118 -164 251.5t-54 292.5q0 370 223.5 587.5t603.5 217.5q159 0 289.5 -34t230.5 -101q71 72 125.5 134.5t77.5 100.5q33 -35 60.5 -60.5t54.5 -46.5q-53 -43 -105.5 -96t-104.5 -115q106 -106 161.5 -249.5t55.5 -317.5 q0 -355 -227 -567t-605 -212q-154 0 -282 33t-229 98q-68 -62 -123 -119.5t-96 -113.5q-20 30 -47.5 56.5t-62.5 50.5zM435 770q0 -99 14.5 -189.5t44.5 -175.5q167 174 361 381.5t415 447.5q-66 92 -149.5 136t-196.5 44q-230 0 -359.5 -170t-129.5 -474zM555 283 q61 -95 151.5 -142.5t211.5 -47.5q218 0 346.5 177.5t128.5 479.5q0 91 -15.5 182.5t-45.5 173.5q-199 -204 -393.5 -410t-383.5 -413z" />
<glyph unicode="&#xd9;" horiz-adv-x="1667" d="M164 1511q42 -4 89.5 -6.5t100.5 -2.5q52 0 96.5 2.5t85.5 6.5q-18 -174 -26 -370.5t-8 -433.5q0 -191 10.5 -271t33.5 -140q36 -92 122.5 -142t209.5 -50q119 0 209 42.5t143 123.5q43 67 61 174.5t18 351.5q0 204 -6.5 381.5t-19.5 333.5q25 -4 52.5 -6.5t57.5 -2.5 q33 0 60.5 2.5t49.5 6.5q-9 -151 -14 -271.5t-5 -209.5q0 -52 2 -161t2 -166q0 -217 -31 -337t-104 -202q-84 -97 -214 -145t-307 -48q-195 0 -336.5 54t-212.5 154q-53 74 -75 191.5t-22 372.5v194q0 209 -5.5 337t-16.5 237zM528 1976q0 45 30.5 75.5t76.5 30.5 q35 0 69.5 -20t87.5 -75l316 -328h-102l-375 197q-58 30 -80.5 56.5t-22.5 63.5z" />
<glyph unicode="&#xda;" horiz-adv-x="1667" d="M164 1511q42 -4 89.5 -6.5t100.5 -2.5q52 0 96.5 2.5t85.5 6.5q-18 -174 -26 -370.5t-8 -433.5q0 -191 10.5 -271t33.5 -140q36 -92 122.5 -142t209.5 -50q119 0 209 42.5t143 123.5q43 67 61 174.5t18 351.5q0 204 -6.5 381.5t-19.5 333.5q25 -4 52.5 -6.5t57.5 -2.5 q33 0 60.5 2.5t49.5 6.5q-9 -151 -14 -271.5t-5 -209.5q0 -52 2 -161t2 -166q0 -217 -31 -337t-104 -202q-84 -97 -214 -145t-307 -48q-195 0 -336.5 54t-212.5 154q-53 74 -75 191.5t-22 372.5v194q0 209 -5.5 337t-16.5 237zM648 1659l316 328q53 55 87.5 75t69.5 20 q46 0 76.5 -30.5t30.5 -75.5q0 -37 -22.5 -63.5t-80.5 -56.5l-376 -197h-101z" />
<glyph unicode="&#xdb;" horiz-adv-x="1667" d="M164 1511q42 -4 89.5 -6.5t100.5 -2.5q52 0 96.5 2.5t85.5 6.5q-18 -174 -26 -370.5t-8 -433.5q0 -191 10.5 -271t33.5 -140q36 -92 122.5 -142t209.5 -50q119 0 209 42.5t143 123.5q43 67 61 174.5t18 351.5q0 204 -6.5 381.5t-19.5 333.5q25 -4 52.5 -6.5t57.5 -2.5 q33 0 60.5 2.5t49.5 6.5q-9 -151 -14 -271.5t-5 -209.5q0 -52 2 -161t2 -166q0 -217 -31 -337t-104 -202q-84 -97 -214 -145t-307 -48q-195 0 -336.5 54t-212.5 154q-53 74 -75 191.5t-22 372.5v194q0 209 -5.5 337t-16.5 237zM536 1659l251 401h182l249 -401h-95l-245 202 l-245 -202h-97z" />
<glyph unicode="&#xdc;" horiz-adv-x="1667" d="M164 1511q42 -4 89.5 -6.5t100.5 -2.5q52 0 96.5 2.5t85.5 6.5q-18 -174 -26 -370.5t-8 -433.5q0 -191 10.5 -271t33.5 -140q36 -92 122.5 -142t209.5 -50q119 0 209 42.5t143 123.5q43 67 61 174.5t18 351.5q0 204 -6.5 381.5t-19.5 333.5q25 -4 52.5 -6.5t57.5 -2.5 q33 0 60.5 2.5t49.5 6.5q-9 -151 -14 -271.5t-5 -209.5q0 -52 2 -161t2 -166q0 -217 -31 -337t-104 -202q-84 -97 -214 -145t-307 -48q-195 0 -336.5 54t-212.5 154q-53 74 -75 191.5t-22 372.5v194q0 209 -5.5 337t-16.5 237zM536 1861q0 54 42.5 97t98.5 43q57 0 98 -41.5 t41 -98.5q0 -63 -38.5 -102.5t-100.5 -39.5q-60 0 -100.5 41t-40.5 101zM940 1861q0 54 42.5 97t98.5 43q58 0 98.5 -41.5t40.5 -98.5q0 -63 -38 -102.5t-101 -39.5q-59 0 -100 41t-41 101z" />
<glyph unicode="&#xdd;" horiz-adv-x="1223" d="M-29 1511q46 -4 97 -6.5t109 -2.5q56 0 107 2.5t96 6.5q79 -175 165 -344.5t181 -334.5q95 164 176 333.5t149 345.5q27 -4 56 -6.5t63 -2.5q32 0 61 2.5t56 6.5q-131 -202 -251.5 -413.5t-229.5 -433.5q-5 -59 -6.5 -118t-1.5 -119q0 -97 5 -203.5t12 -223.5 q-50 5 -95.5 8t-86.5 3q-42 0 -88 -3t-98 -8q11 112 16.5 223.5t5.5 221.5q0 35 -0.5 74t-4.5 111q-104 191 -223 403.5t-270 477.5zM382 1659l316 328q53 55 87.5 75t69.5 20q46 0 76.5 -30.5t30.5 -75.5q0 -37 -22.5 -63.5t-80.5 -56.5l-376 -197h-101z" />
<glyph unicode="&#xde;" horiz-adv-x="1238" d="M164 0q13 148 19.5 324t6.5 430q0 213 -6.5 402t-19.5 355l6 -1q117 -8 178 -8q31 0 69 2t113 7q-4 -75 -7.5 -143.5t-4.5 -130.5q39 4 82 6t88 2q258 0 379 -96.5t121 -303.5q0 -235 -150 -349t-458 -114q-13 0 -37.5 1t-35.5 1v-55q0 -32 5 -108t18 -221q-52 5 -97 8 t-88 3t-87 -3t-94 -8zM504 504h9q172 0 248.5 78t76.5 252q0 144 -61.5 214.5t-187.5 70.5q-21 0 -63 -3q-4 -1 -5 -1q-9 -72 -13 -131.5t-4 -114.5v-365z" />
<glyph unicode="&#xdf;" horiz-adv-x="1209" d="M116 0q3 99 4.5 191t1.5 181v198v578q0 156 29 235.5t98 144.5q70 63 161 95t200 32q178 0 269.5 -70.5t91.5 -206.5q0 -91 -105 -209l-7 -9q-67 -74 -88 -112t-21 -73q0 -66 144 -177l9 -6l91 -68q85 -65 120.5 -132.5t35.5 -162.5q0 -186 -135.5 -323t-317.5 -137 q-51 0 -95.5 11t-82.5 33q20 52 33 102t18 102l32 -2q36 -58 86.5 -89t107.5 -31q66 0 107 42t41 108q0 54 -40.5 111.5t-122.5 118.5l-106 82q-69 52 -100 106.5t-31 123.5q0 62 23 117.5t96 150.5q94 120 120.5 182.5t26.5 131.5q0 92 -53 146.5t-142 54.5 q-118 0 -165 -80.5t-47 -312.5v-65l6 -521v-22q5 -353 15 -569q-37 3 -76 4.5t-78 1.5q-40 0 -78.5 -1.5t-75.5 -4.5z" />
<glyph unicode="&#xe0;" horiz-adv-x="1116" d="M76 281q0 105 56 173t176 108q39 13 112 35q173 52 237 95q1 7 1.5 15t0.5 23q0 101 -57.5 160t-152.5 59q-74 0 -135 -42t-113 -128q-16 52 -27 83t-22 58q99 85 195 127t199 42q199 0 305.5 -92t106.5 -263v-10l-7 -386v-42q0 -135 30 -173.5t116 -38.5h7v-55 q-56 -24 -116.5 -36t-115.5 -12q-80 0 -131 40.5t-68 117.5q-48 -80 -125 -123t-174 -43q-140 0 -219 82.5t-79 225.5zM209 1522q0 45 30.5 75.5t76.5 30.5q35 0 69.5 -20t87.5 -75l316 -328h-102l-375 197q-58 30 -80.5 56.5t-22.5 63.5zM374 310q0 -95 34.5 -142.5 t102.5 -47.5q73 0 112.5 53t39.5 152v257q-153 -31 -221 -95t-68 -177z" />
<glyph unicode="&#xe1;" horiz-adv-x="1116" d="M76 281q0 105 56 173t176 108q39 13 112 35q173 52 237 95q1 7 1.5 15t0.5 23q0 101 -57.5 160t-152.5 59q-74 0 -135 -42t-113 -128q-16 52 -27 83t-22 58q99 85 195 127t199 42q199 0 305.5 -92t106.5 -263v-10l-7 -386v-42q0 -135 30 -173.5t116 -38.5h7v-55 q-56 -24 -116.5 -36t-115.5 -12q-80 0 -131 40.5t-68 117.5q-48 -80 -125 -123t-174 -43q-140 0 -219 82.5t-79 225.5zM329 1205l316 328q53 55 87.5 75t69.5 20q46 0 76.5 -30.5t30.5 -75.5q0 -37 -22.5 -63.5t-80.5 -56.5l-376 -197h-101zM374 310q0 -95 34.5 -142.5 t102.5 -47.5q73 0 112.5 53t39.5 152v257q-153 -31 -221 -95t-68 -177z" />
<glyph unicode="&#xe2;" horiz-adv-x="1116" d="M76 281q0 105 56 173t176 108q39 13 112 35q173 52 237 95q1 7 1.5 15t0.5 23q0 101 -57.5 160t-152.5 59q-74 0 -135 -42t-113 -128q-16 52 -27 83t-22 58q99 85 195 127t199 42q199 0 305.5 -92t106.5 -263v-10l-7 -386v-42q0 -135 30 -173.5t116 -38.5h7v-55 q-56 -24 -116.5 -36t-115.5 -12q-80 0 -131 40.5t-68 117.5q-48 -80 -125 -123t-174 -43q-140 0 -219 82.5t-79 225.5zM217 1205l251 401h182l249 -401h-95l-245 202l-245 -202h-97zM374 310q0 -95 34.5 -142.5t102.5 -47.5q73 0 112.5 53t39.5 152v257q-153 -31 -221 -95 t-68 -177z" />
<glyph unicode="&#xe3;" horiz-adv-x="1116" d="M76 281q0 105 56 173t176 108q39 13 112 35q173 52 237 95q1 7 1.5 15t0.5 23q0 101 -57.5 160t-152.5 59q-74 0 -135 -42t-113 -128q-16 52 -27 83t-22 58q99 85 195 127t199 42q199 0 305.5 -92t106.5 -263v-10l-7 -386v-42q0 -135 30 -173.5t116 -38.5h7v-55 q-56 -24 -116.5 -36t-115.5 -12q-80 0 -131 40.5t-68 117.5q-48 -80 -125 -123t-174 -43q-140 0 -219 82.5t-79 225.5zM221 1241q25 142 83 210.5t156 68.5q17 0 36.5 -3t44.5 -8l126 -34q16 -3 26.5 -4.5t17.5 -1.5q40 0 65.5 24.5t39.5 76.5h81q-23 -135 -83.5 -206.5 t-153.5 -71.5q-19 0 -36.5 2t-33.5 6l-122 34q-19 4 -33.5 6t-25.5 2q-41 0 -67.5 -25t-39.5 -76h-81zM374 310q0 -95 34.5 -142.5t102.5 -47.5q73 0 112.5 53t39.5 152v257q-153 -31 -221 -95t-68 -177z" />
<glyph unicode="&#xe4;" horiz-adv-x="1116" d="M76 281q0 105 56 173t176 108q39 13 112 35q173 52 237 95q1 7 1.5 15t0.5 23q0 101 -57.5 160t-152.5 59q-74 0 -135 -42t-113 -128q-16 52 -27 83t-22 58q99 85 195 127t199 42q199 0 305.5 -92t106.5 -263v-10l-7 -386v-42q0 -135 30 -173.5t116 -38.5h7v-55 q-56 -24 -116.5 -36t-115.5 -12q-80 0 -131 40.5t-68 117.5q-48 -80 -125 -123t-174 -43q-140 0 -219 82.5t-79 225.5zM217 1407q0 54 42.5 97t98.5 43q57 0 98 -41.5t41 -98.5q0 -63 -38.5 -102.5t-100.5 -39.5q-60 0 -100.5 41t-40.5 101zM374 310q0 -95 34.5 -142.5 t102.5 -47.5q73 0 112.5 53t39.5 152v257q-153 -31 -221 -95t-68 -177zM621 1407q0 54 42.5 97t98.5 43q58 0 98.5 -41.5t40.5 -98.5q0 -63 -38 -102.5t-101 -39.5q-59 0 -100 41t-41 101z" />
<glyph unicode="&#xe5;" horiz-adv-x="1116" d="M76 281q0 105 56 173t176 108q39 13 112 35q173 52 237 95q1 7 1.5 15t0.5 23q0 101 -57.5 160t-152.5 59q-74 0 -135 -42t-113 -128q-16 52 -27 83t-22 58q99 85 195 127t199 42q199 0 305.5 -92t106.5 -263v-10l-7 -386v-42q0 -135 30 -173.5t116 -38.5h7v-55 q-56 -24 -116.5 -36t-115.5 -12q-80 0 -131 40.5t-68 117.5q-48 -80 -125 -123t-174 -43q-140 0 -219 82.5t-79 225.5zM285 1414q0 114 83 194t202 80q122 0 197 -70.5t75 -184.5q0 -116 -82.5 -196t-204.5 -80q-119 0 -194.5 72t-75.5 185zM374 310q0 -95 34.5 -142.5 t102.5 -47.5q73 0 112.5 53t39.5 152v257q-153 -31 -221 -95t-68 -177zM405 1409q0 -87 40.5 -134t113.5 -47q78 0 123.5 55.5t45.5 151.5q0 86 -42 135t-116 49q-76 0 -120.5 -55.5t-44.5 -154.5z" />
<glyph unicode="&#xe6;" horiz-adv-x="1701" d="M73 255q0 107 50.5 181t148.5 110q35 13 178 55.5t240 84.5q0 5 1 17.5t1 17.5q0 117 -51 177t-152 60q-70 0 -133 -38t-115 -110q-13 28 -29.5 59t-34.5 62q85 82 172.5 122t184.5 40q98 0 176.5 -31.5t143.5 -94.5q64 61 137.5 90t169.5 29q219 0 336.5 -125.5 t117.5 -361.5q0 -29 -0.5 -44.5t-3.5 -28.5h-653q0 -192 88.5 -304t238.5 -112q76 0 144 26t131 79l19 -16l-46 -126q-67 -49 -159.5 -74.5t-203.5 -25.5q-154 0 -262.5 60t-162.5 175q-57 -117 -150.5 -179t-212.5 -62q-142 0 -225.5 77.5t-83.5 210.5zM378 298 q0 -88 34.5 -131t104.5 -43q94 0 132.5 60.5t38.5 235.5q0 25 -1 79.5t-1 82.5q-171 -30 -239.5 -94t-68.5 -190zM960 635h357v51q0 152 -42.5 228.5t-126.5 76.5q-89 0 -138.5 -86t-49.5 -242v-28z" />
<glyph unicode="&#xe7;" horiz-adv-x="1034" d="M55 524q0 253 156.5 407.5t412.5 154.5q116 0 211.5 -24.5t166.5 -73.5q-34 -78 -53.5 -128t-32.5 -92l-29 13q-28 104 -87.5 154.5t-151.5 50.5q-130 0 -204.5 -115.5t-74.5 -317.5q0 -218 83 -332.5t240 -114.5q72 0 140.5 26t129.5 76l15 -9q-7 -54 -11 -80t-6 -46 q-75 -49 -159 -73.5t-180 -24.5q-260 0 -413 148t-153 401zM223 -435l38 101q93 -28 159.5 -41.5t109.5 -13.5q60 0 86.5 21t26.5 70q0 41 -25 62t-76 21q-15 0 -32.5 -1.5t-34.5 -3.5v220h84v-123q8 0 17.5 0.5t26.5 0.5q112 0 170 -46.5t58 -134.5q0 -94 -67 -147.5 t-188 -53.5q-75 0 -163 17t-190 52z" />
<glyph unicode="&#xe8;" horiz-adv-x="1125" d="M64 546q0 242 145.5 391t385.5 149q228 0 349.5 -126t121.5 -363q0 -28 -0.5 -43t-1.5 -27l-677 -1q0 -191 91 -303.5t246 -112.5q76 0 146.5 26t136.5 79l21 -16l-48 -126q-70 -48 -163 -74t-202 -26q-259 0 -405 152.5t-146 420.5zM214 1522q0 45 30.5 75.5t76.5 30.5 q35 0 69.5 -20t87.5 -75l316 -328h-102l-375 197q-58 30 -80.5 56.5t-22.5 63.5zM387 635h374q0 12 1.5 30t1.5 23q0 150 -44 226.5t-129 76.5q-97 0 -150.5 -87.5t-53.5 -249.5v-19z" />
<glyph unicode="&#xe9;" horiz-adv-x="1125" d="M64 546q0 242 145.5 391t385.5 149q228 0 349.5 -126t121.5 -363q0 -28 -0.5 -43t-1.5 -27l-677 -1q0 -191 91 -303.5t246 -112.5q76 0 146.5 26t136.5 79l21 -16l-48 -126q-70 -48 -163 -74t-202 -26q-259 0 -405 152.5t-146 420.5zM334 1205l316 328q53 55 87.5 75 t69.5 20q46 0 76.5 -30.5t30.5 -75.5q0 -37 -22.5 -63.5t-80.5 -56.5l-376 -197h-101zM387 635h374q0 12 1.5 30t1.5 23q0 150 -44 226.5t-129 76.5q-97 0 -150.5 -87.5t-53.5 -249.5v-19z" />
<glyph unicode="&#xea;" horiz-adv-x="1125" d="M64 546q0 242 145.5 391t385.5 149q228 0 349.5 -126t121.5 -363q0 -28 -0.5 -43t-1.5 -27l-677 -1q0 -191 91 -303.5t246 -112.5q76 0 146.5 26t136.5 79l21 -16l-48 -126q-70 -48 -163 -74t-202 -26q-259 0 -405 152.5t-146 420.5zM222 1205l251 401h182l249 -401h-95 l-245 202l-245 -202h-97zM387 635h374q0 12 1.5 30t1.5 23q0 150 -44 226.5t-129 76.5q-97 0 -150.5 -87.5t-53.5 -249.5v-19z" />
<glyph unicode="&#xeb;" horiz-adv-x="1125" d="M64 546q0 242 145.5 391t385.5 149q228 0 349.5 -126t121.5 -363q0 -28 -0.5 -43t-1.5 -27l-677 -1q0 -191 91 -303.5t246 -112.5q76 0 146.5 26t136.5 79l21 -16l-48 -126q-70 -48 -163 -74t-202 -26q-259 0 -405 152.5t-146 420.5zM222 1407q0 54 42.5 97t98.5 43 q57 0 98 -41.5t41 -98.5q0 -63 -38.5 -102.5t-100.5 -39.5q-60 0 -100.5 41t-40.5 101zM387 635h374q0 12 1.5 30t1.5 23q0 150 -44 226.5t-129 76.5q-97 0 -150.5 -87.5t-53.5 -249.5v-19zM626 1407q0 54 42.5 97t98.5 43q58 0 98.5 -41.5t40.5 -98.5q0 -63 -38 -102.5 t-101 -39.5q-59 0 -100 41t-41 101z" />
<glyph unicode="&#xec;" horiz-adv-x="614" d="M-42 1522q0 45 30.5 75.5t76.5 30.5q35 0 69.5 -20t87.5 -75l316 -328h-102l-375 197q-58 30 -80.5 56.5t-22.5 63.5zM141 1059q38 -4 78.5 -6t88.5 -2t88.5 2t76.5 6q-9 -130 -13 -263t-4 -268q0 -120 4 -250.5t13 -277.5q-44 5 -85 8t-80 3q-38 0 -79 -3t-86 -8 q7 147 11.5 277.5t4.5 250.5q0 135 -4.5 268t-13.5 263z" />
<glyph unicode="&#xed;" horiz-adv-x="614" d="M78 1205l316 328q53 55 87.5 75t69.5 20q46 0 76.5 -30.5t30.5 -75.5q0 -37 -22.5 -63.5t-80.5 -56.5l-376 -197h-101zM141 1059q38 -4 78.5 -6t88.5 -2t88.5 2t76.5 6q-9 -130 -13 -263t-4 -268q0 -120 4 -250.5t13 -277.5q-44 5 -85 8t-80 3q-38 0 -79 -3t-86 -8 q7 147 11.5 277.5t4.5 250.5q0 135 -4.5 268t-13.5 263z" />
<glyph unicode="&#xee;" horiz-adv-x="614" d="M-34 1205l251 401h182l249 -401h-95l-245 202l-245 -202h-97zM141 1059q38 -4 78.5 -6t88.5 -2t88.5 2t76.5 6q-9 -130 -13 -263t-4 -268q0 -120 4 -250.5t13 -277.5q-44 5 -85 8t-80 3q-38 0 -79 -3t-86 -8q7 147 11.5 277.5t4.5 250.5q0 135 -4.5 268t-13.5 263z" />
<glyph unicode="&#xef;" horiz-adv-x="614" d="M-34 1407q0 54 42.5 97t98.5 43q57 0 98 -41.5t41 -98.5q0 -63 -38.5 -102.5t-100.5 -39.5q-60 0 -100.5 41t-40.5 101zM141 1059q38 -4 78.5 -6t88.5 -2t88.5 2t76.5 6q-9 -130 -13 -263t-4 -268q0 -120 4 -250.5t13 -277.5q-44 5 -85 8t-80 3q-38 0 -79 -3t-86 -8 q7 147 11.5 277.5t4.5 250.5q0 135 -4.5 268t-13.5 263zM370 1407q0 54 42.5 97t98.5 43q58 0 98.5 -41.5t40.5 -98.5q0 -63 -38 -102.5t-101 -39.5q-59 0 -100 41t-41 101z" />
<glyph unicode="&#xf0;" horiz-adv-x="1230" d="M73 513q0 240 137 388t356 148q29 0 65 -4.5t81 -14.5l-245 244q-59 -51 -110 -101.5t-89 -93.5l-89 84q41 31 97 78t118 104q-54 53 -130 125.5t-96 93.5l166 152q38 -46 89 -103.5t119 -126.5q71 59 126.5 114t83.5 95l99 -83q-32 -24 -95 -78.5t-135 -121.5l244 -245 q164 -164 227 -303.5t63 -323.5q0 -273 -141.5 -420t-403.5 -147q-250 0 -393.5 144t-143.5 396zM389 511q0 -242 51 -342.5t170 -100.5t169 99.5t50 343.5t-50 343.5t-169 99.5t-170 -100.5t-51 -342.5z" />
<glyph unicode="&#xf1;" horiz-adv-x="1258" d="M135 0q9 147 13 277.5t4 250.5q0 135 -4 268t-13 263q35 -4 72 -6t80 -2t79.5 2t68.5 6v-154q68 90 152.5 133t189.5 43q81 0 147.5 -27.5t113.5 -80.5q37 -43 52.5 -106t15.5 -217q0 -21 -1 -113.5t-1 -162.5q0 -104 3.5 -196t11.5 -178q-47 5 -87.5 8t-77.5 3 q-38 0 -77.5 -3t-85.5 -8q7 94 12 224.5t5 290.5q0 241 -38.5 310.5t-138.5 69.5q-101 0 -144.5 -83t-43.5 -281q0 -93 3 -225.5t9 -305.5q-41 5 -81 8t-78 3q-37 0 -77 -3t-84 -8zM293 1241q25 142 83 210.5t156 68.5q17 0 36.5 -3t44.5 -8l126 -34q16 -3 26.5 -4.5 t17.5 -1.5q40 0 65.5 24.5t39.5 76.5h81q-23 -135 -83.5 -206.5t-153.5 -71.5q-19 0 -36.5 2t-33.5 6l-122 34q-19 4 -33.5 6t-25.5 2q-41 0 -67.5 -25t-39.5 -76h-81z" />
<glyph unicode="&#xf2;" horiz-adv-x="1230" d="M62 528q0 265 146.5 411.5t408.5 146.5q265 0 409 -145t144 -413q0 -262 -146.5 -408.5t-408.5 -146.5q-264 0 -408.5 146t-144.5 409zM265 1522q0 45 30.5 75.5t76.5 30.5q35 0 69.5 -20t87.5 -75l316 -328h-102l-375 197q-58 30 -80.5 56.5t-22.5 63.5zM387 528 q0 -252 52 -354.5t176 -102.5t177 103.5t53 353.5q0 252 -53 356t-177 104t-176 -103t-52 -357z" />
<glyph unicode="&#xf3;" horiz-adv-x="1230" d="M62 528q0 265 146.5 411.5t408.5 146.5q265 0 409 -145t144 -413q0 -262 -146.5 -408.5t-408.5 -146.5q-264 0 -408.5 146t-144.5 409zM385 1205l316 328q53 55 87.5 75t69.5 20q46 0 76.5 -30.5t30.5 -75.5q0 -37 -22.5 -63.5t-80.5 -56.5l-376 -197h-101zM387 528 q0 -252 52 -354.5t176 -102.5t177 103.5t53 353.5q0 252 -53 356t-177 104t-176 -103t-52 -357z" />
<glyph unicode="&#xf4;" horiz-adv-x="1230" d="M62 528q0 265 146.5 411.5t408.5 146.5q265 0 409 -145t144 -413q0 -262 -146.5 -408.5t-408.5 -146.5q-264 0 -408.5 146t-144.5 409zM273 1205l251 401h182l249 -401h-95l-245 202l-245 -202h-97zM387 528q0 -252 52 -354.5t176 -102.5t177 103.5t53 353.5 q0 252 -53 356t-177 104t-176 -103t-52 -357z" />
<glyph unicode="&#xf5;" horiz-adv-x="1230" d="M62 528q0 265 146.5 411.5t408.5 146.5q265 0 409 -145t144 -413q0 -262 -146.5 -408.5t-408.5 -146.5q-264 0 -408.5 146t-144.5 409zM277 1241q25 142 83 210.5t156 68.5q17 0 36.5 -3t44.5 -8l126 -34q16 -3 26.5 -4.5t17.5 -1.5q40 0 65.5 24.5t39.5 76.5h81 q-23 -135 -83.5 -206.5t-153.5 -71.5q-19 0 -36.5 2t-33.5 6l-122 34q-19 4 -33.5 6t-25.5 2q-41 0 -67.5 -25t-39.5 -76h-81zM387 528q0 -252 52 -354.5t176 -102.5t177 103.5t53 353.5q0 252 -53 356t-177 104t-176 -103t-52 -357z" />
<glyph unicode="&#xf6;" horiz-adv-x="1230" d="M62 528q0 265 146.5 411.5t408.5 146.5q265 0 409 -145t144 -413q0 -262 -146.5 -408.5t-408.5 -146.5q-264 0 -408.5 146t-144.5 409zM273 1407q0 54 42.5 97t98.5 43q57 0 98 -41.5t41 -98.5q0 -63 -38.5 -102.5t-100.5 -39.5q-60 0 -100.5 41t-40.5 101zM387 528 q0 -252 52 -354.5t176 -102.5t177 103.5t53 353.5q0 252 -53 356t-177 104t-176 -103t-52 -357zM677 1407q0 54 42.5 97t98.5 43q58 0 98.5 -41.5t40.5 -98.5q0 -63 -38 -102.5t-101 -39.5q-59 0 -100 41t-41 101z" />
<glyph unicode="&#xf7;" horiz-adv-x="1842" d="M274 570v180h1294v-180h-1294zM774 247q0 62 44 105.5t104 43.5q62 0 105 -43.5t43 -105.5q0 -60 -42.5 -102.5t-105.5 -42.5q-62 0 -105 42t-43 103zM774 1068q0 62 44 106t104 44q62 0 105 -44t43 -106q0 -60 -42.5 -103t-105.5 -43q-62 0 -105 42.5t-43 103.5z" />
<glyph unicode="&#xf8;" horiz-adv-x="1230" d="M11 -93q68 79 116 135t72 87q-70 76 -103.5 173t-33.5 226q0 264 147 411t408 147q88 0 163 -17.5t138 -53.5q55 69 95 122t59 83q20 -22 45.5 -41.5t59.5 -36.5q-35 -38 -77 -87.5t-87 -105.5q80 -66 117 -171.5t37 -262.5q0 -250 -147.5 -396t-404.5 -146 q-100 0 -180 20.5t-148 61.5q-55 -69 -98 -127t-69 -99q-25 25 -52.5 44.5t-56.5 33.5zM384 528q0 -34 2.5 -74t7.5 -85l406 500q-22 58 -70.5 88.5t-114.5 30.5q-121 0 -176 -107t-55 -353zM420 215q20 -71 71 -109t128 -38q123 0 174.5 109t51.5 378q0 58 -3 98.5t-8 71.5 z" />
<glyph unicode="&#xf9;" horiz-adv-x="1253" d="M131 1059q36 -4 77 -6t88 -2t87.5 2t76.5 6q-9 -139 -13 -264.5t-4 -235.5q0 -246 38 -320.5t138 -74.5q98 0 138.5 75.5t40.5 269.5v352q0 34 -1.5 84.5t-3.5 113.5q36 -4 75.5 -6t85.5 -2q44 0 83.5 2t74.5 6q-6 -132 -9.5 -264.5t-3.5 -263.5q0 -132 3.5 -265 t9.5 -266q-42 5 -79 8t-71 3t-72 -3t-80 -8v150q-71 -88 -152.5 -130t-186.5 -42q-171 0 -249 96.5t-78 307.5v122q0 126 -3.5 264t-9.5 291zM279 1522q0 45 30.5 75.5t76.5 30.5q35 0 69.5 -20t87.5 -75l316 -328h-102l-375 197q-58 30 -80.5 56.5t-22.5 63.5z" />
<glyph unicode="&#xfa;" horiz-adv-x="1253" d="M131 1059q36 -4 77 -6t88 -2t87.5 2t76.5 6q-9 -139 -13 -264.5t-4 -235.5q0 -246 38 -320.5t138 -74.5q98 0 138.5 75.5t40.5 269.5v352q0 34 -1.5 84.5t-3.5 113.5q36 -4 75.5 -6t85.5 -2q44 0 83.5 2t74.5 6q-6 -132 -9.5 -264.5t-3.5 -263.5q0 -132 3.5 -265 t9.5 -266q-42 5 -79 8t-71 3t-72 -3t-80 -8v150q-71 -88 -152.5 -130t-186.5 -42q-171 0 -249 96.5t-78 307.5v122q0 126 -3.5 264t-9.5 291zM399 1205l316 328q53 55 87.5 75t69.5 20q46 0 76.5 -30.5t30.5 -75.5q0 -37 -22.5 -63.5t-80.5 -56.5l-376 -197h-101z" />
<glyph unicode="&#xfb;" horiz-adv-x="1253" d="M131 1059q36 -4 77 -6t88 -2t87.5 2t76.5 6q-9 -139 -13 -264.5t-4 -235.5q0 -246 38 -320.5t138 -74.5q98 0 138.5 75.5t40.5 269.5v352q0 34 -1.5 84.5t-3.5 113.5q36 -4 75.5 -6t85.5 -2q44 0 83.5 2t74.5 6q-6 -132 -9.5 -264.5t-3.5 -263.5q0 -132 3.5 -265 t9.5 -266q-42 5 -79 8t-71 3t-72 -3t-80 -8v150q-71 -88 -152.5 -130t-186.5 -42q-171 0 -249 96.5t-78 307.5v122q0 126 -3.5 264t-9.5 291zM287 1205l251 401h182l249 -401h-95l-245 202l-245 -202h-97z" />
<glyph unicode="&#xfc;" horiz-adv-x="1253" d="M131 1059q36 -4 77 -6t88 -2t87.5 2t76.5 6q-9 -139 -13 -264.5t-4 -235.5q0 -246 38 -320.5t138 -74.5q98 0 138.5 75.5t40.5 269.5v352q0 34 -1.5 84.5t-3.5 113.5q36 -4 75.5 -6t85.5 -2q44 0 83.5 2t74.5 6q-6 -132 -9.5 -264.5t-3.5 -263.5q0 -132 3.5 -265 t9.5 -266q-42 5 -79 8t-71 3t-72 -3t-80 -8v150q-71 -88 -152.5 -130t-186.5 -42q-171 0 -249 96.5t-78 307.5v122q0 126 -3.5 264t-9.5 291zM287 1407q0 54 42.5 97t98.5 43q57 0 98 -41.5t41 -98.5q0 -63 -38.5 -102.5t-100.5 -39.5q-60 0 -100.5 41t-40.5 101zM691 1407 q0 54 42.5 97t98.5 43q58 0 98.5 -41.5t40.5 -98.5q0 -63 -38 -102.5t-101 -39.5q-59 0 -100 41t-41 101z" />
<glyph unicode="&#xfd;" horiz-adv-x="1059" d="M9 1059q39 -4 81.5 -6t90.5 -2q49 0 91.5 2t81.5 6q54 -162 120 -332.5t143 -350.5l257 683q20 -4 43 -6t47 -2q26 0 49 2t42 6q-191 -423 -367.5 -838.5t-338.5 -824.5q-21 4 -44 5.5t-48 1.5t-50.5 -1.5t-53.5 -5.5q33 51 68 115.5t75 150.5l164 338zM301 1205l316 328 q53 55 87.5 75t69.5 20q46 0 76.5 -30.5t30.5 -75.5q0 -37 -22.5 -63.5t-80.5 -56.5l-376 -197h-101z" />
<glyph unicode="&#xfe;" horiz-adv-x="1280" d="M137 1659q39 -9 78.5 -13t78.5 -4q38 0 79 4t83 13q-11 -91 -17 -194.5t-6 -223.5v-340q66 94 147 139.5t181 45.5q201 0 318.5 -150t117.5 -408q0 -261 -117 -408t-324 -147q-113 0 -186.5 38t-115.5 118v-231q0 -126 3 -252t10 -250q-39 8 -80 11.5t-86 3.5t-85 -3.5 t-77 -11.5q10 136 14 305.5t4 543.5q0 502 -5 855.5t-15 558.5zM449 524q0 -212 52 -312t162 -100t159.5 96.5t49.5 315.5q0 215 -52 314t-163 99q-104 0 -156 -103t-52 -310z" />
<glyph unicode="&#xff;" horiz-adv-x="1059" d="M9 1059q39 -4 81.5 -6t90.5 -2q49 0 91.5 2t81.5 6q54 -162 120 -332.5t143 -350.5l257 683q20 -4 43 -6t47 -2q26 0 49 2t42 6q-191 -423 -367.5 -838.5t-338.5 -824.5q-21 4 -44 5.5t-48 1.5t-50.5 -1.5t-53.5 -5.5q33 51 68 115.5t75 150.5l164 338zM189 1407 q0 54 42.5 97t98.5 43q57 0 98 -41.5t41 -98.5q0 -63 -38.5 -102.5t-100.5 -39.5q-60 0 -100.5 41t-40.5 101zM593 1407q0 54 42.5 97t98.5 43q58 0 98.5 -41.5t40.5 -98.5q0 -63 -38 -102.5t-101 -39.5q-59 0 -100 41t-41 101z" />
<glyph unicode="&#x152;" horiz-adv-x="2207" d="M76 734q0 375 206 591t563 216q166 0 294.5 -61t196.5 -171v204q77 -4 161.5 -6.5t182.5 -2.5q145 0 445 8l13 1q-6 -18 -9.5 -38t-3.5 -42q0 -17 3 -38t10 -61q-90 11 -191 15t-250 4h-47v-475h38q61 0 163.5 4.5t278.5 12.5v-5q-5 -52 -5 -76q0 -19 1.5 -43.5 t3.5 -64.5q-141 11 -251.5 16.5t-204.5 5.5h-24v-564h42q69 0 187.5 6t267.5 18q-2 -22 -4 -46.5t-2 -48.5q0 -23 2 -46.5t4 -46.5q-98 3 -199.5 4.5t-206.5 1.5q-104 0 -209.5 -1.5t-210.5 -4.5l11 194q-103 -115 -231 -169t-301 -54q-346 0 -535 198.5t-189 564.5z M429 747q0 -298 122 -475t325 -177q221 0 339.5 170t118.5 491q0 311 -118 484.5t-327 173.5q-205 0 -332.5 -183.5t-127.5 -483.5z" />
<glyph unicode="&#x153;" horiz-adv-x="1897" d="M59 507q0 272 146.5 424.5t404.5 152.5q140 0 238 -43.5t172 -135.5q63 91 153 135t212 44q220 0 341 -126.5t121 -358.5q0 -30 -0.5 -45t-1.5 -27l-684 -1q0 -192 92 -304t247 -112q76 0 148 26.5t139 78.5l22 -16l-49 -126q-70 -48 -165 -74t-204 -26 q-128 0 -228.5 46.5t-160.5 132.5q-89 -94 -189.5 -136.5t-234.5 -42.5q-251 0 -385 137.5t-134 396.5zM378 534q0 -229 61 -345t180 -116q121 0 182.5 116.5t61.5 344.5q0 225 -62 342.5t-182 117.5q-119 0 -180 -116.5t-61 -343.5zM1155 635h392v53q0 150 -46 228t-134 78 q-101 0 -156.5 -89.5t-55.5 -252.5v-17z" />
<glyph unicode="&#x178;" horiz-adv-x="1223" d="M-29 1511q46 -4 97 -6.5t109 -2.5q56 0 107 2.5t96 6.5q79 -175 165 -344.5t181 -334.5q95 164 176 333.5t149 345.5q27 -4 56 -6.5t63 -2.5q32 0 61 2.5t56 6.5q-131 -202 -251.5 -413.5t-229.5 -433.5q-5 -59 -6.5 -118t-1.5 -119q0 -97 5 -203.5t12 -223.5 q-50 5 -95.5 8t-86.5 3q-42 0 -88 -3t-98 -8q11 112 16.5 223.5t5.5 221.5q0 35 -0.5 74t-4.5 111q-104 191 -223 403.5t-270 477.5zM270 1861q0 54 42.5 97t98.5 43q57 0 98 -41.5t41 -98.5q0 -63 -38.5 -102.5t-100.5 -39.5q-60 0 -100.5 41t-40.5 101zM674 1861 q0 54 42.5 97t98.5 43q58 0 98.5 -41.5t40.5 -98.5q0 -63 -38 -102.5t-101 -39.5q-59 0 -100 41t-41 101z" />
<glyph unicode="&#x2c6;" horiz-adv-x="1105" d="M211 1205l251 401h182l249 -401h-95l-245 202l-245 -202h-97z" />
<glyph unicode="&#x2dc;" horiz-adv-x="1105" d="M215 1241q25 142 83 210.5t156 68.5q17 0 36.5 -3t44.5 -8l126 -34q16 -3 26.5 -4.5t17.5 -1.5q40 0 65.5 24.5t39.5 76.5h81q-23 -135 -83.5 -206.5t-153.5 -71.5q-19 0 -36.5 2t-33.5 6l-122 34q-19 4 -33.5 6t-25.5 2q-41 0 -67.5 -25t-39.5 -76h-81z" />
<glyph unicode="&#x2000;" horiz-adv-x="1064" />
<glyph unicode="&#x2001;" horiz-adv-x="2128" />
<glyph unicode="&#x2002;" horiz-adv-x="1064" />
<glyph unicode="&#x2003;" horiz-adv-x="2128" />
<glyph unicode="&#x2004;" horiz-adv-x="709" />
<glyph unicode="&#x2005;" horiz-adv-x="532" />
<glyph unicode="&#x2006;" horiz-adv-x="354" />
<glyph unicode="&#x2007;" horiz-adv-x="354" />
<glyph unicode="&#x2008;" horiz-adv-x="266" />
<glyph unicode="&#x2009;" horiz-adv-x="425" />
<glyph unicode="&#x200a;" horiz-adv-x="118" />
<glyph unicode="&#x2010;" horiz-adv-x="738" d="M97 424v237h545v-237h-545z" />
<glyph unicode="&#x2011;" horiz-adv-x="738" d="M97 424v237h545v-237h-545z" />
<glyph unicode="&#x2012;" horiz-adv-x="738" d="M97 424v237h545v-237h-545z" />
<glyph unicode="&#x2013;" horiz-adv-x="1105" d="M0 449v188h1121v-188h-1121z" />
<glyph unicode="&#x2014;" horiz-adv-x="2211" d="M0 449v188h2212v-188h-2212z" />
<glyph unicode="&#x2018;" horiz-adv-x="597" d="M82 969q0 33 15.5 69t52.5 85l314 416l49 -26l-126 -500q-24 -97 -62 -139t-97 -42q-60 0 -103 40.5t-43 96.5z" />
<glyph unicode="&#x2019;" horiz-adv-x="597" d="M99 861l127 492q23 99 62 143.5t99 44.5t95 -36.5t35 -100.5q0 -32 -10.5 -64t-31.5 -59l-325 -447z" />
<glyph unicode="&#x201a;" horiz-adv-x="597" d="M55 -340l126 492q25 103 62.5 145.5t98.5 42.5q59 0 95 -37.5t36 -99.5q0 -30 -9.5 -60t-28.5 -54l-331 -456z" />
<glyph unicode="&#x201c;" horiz-adv-x="1095" d="M95 962q0 33 11 66t29 58l329 453l51 -26l-126 -496q-26 -103 -63.5 -144t-101.5 -41q-58 0 -93.5 36t-35.5 94zM566 962q0 33 11 66t29 58l329 453l51 -26l-125 -496q-26 -103 -64 -144t-103 -41q-56 0 -92 36t-36 94z" />
<glyph unicode="&#x201d;" horiz-adv-x="1095" d="M124 861l123 492q24 96 64 142t98 46q61 0 97 -37t36 -100q0 -31 -11.5 -63t-32.5 -60l-325 -447zM595 861l124 492q24 96 63.5 142t97.5 46q59 0 96 -35t37 -90q0 -38 -11 -71.5t-33 -63.5l-325 -447z" />
<glyph unicode="&#x201e;" horiz-adv-x="1095" d="M78 -340l125 492q24 95 64 140.5t98 45.5q61 0 96 -36t35 -99q0 -33 -11 -65t-31 -58l-325 -447zM549 -342l126 494q24 95 63.5 140.5t97.5 45.5q60 0 95.5 -36t35.5 -99q0 -33 -11 -66t-32 -59l-325 -445z" />
<glyph unicode="&#x2022;" horiz-adv-x="1304" d="M332 823q0 133 93.5 226t226.5 93q132 0 225.5 -93.5t93.5 -225.5t-94.5 -226.5t-226.5 -94.5q-133 0 -225.5 94t-92.5 227z" />
<glyph unicode="&#x2026;" horiz-adv-x="2211" d="M190 154q0 76 51.5 127t127.5 51t127.5 -51t51.5 -127q0 -74 -52.5 -127.5t-126.5 -53.5t-126.5 53.5t-52.5 127.5zM926 154q0 76 51.5 127t127.5 51t127.5 -51t51.5 -127q0 -74 -52.5 -127.5t-126.5 -53.5t-126.5 53.5t-52.5 127.5zM1665 154q0 76 51.5 127t127.5 51 t127.5 -51t51.5 -127q0 -74 -52.5 -127.5t-126.5 -53.5t-126.5 53.5t-52.5 127.5z" />
<glyph unicode="&#x202f;" horiz-adv-x="425" />
<glyph unicode="&#x2039;" horiz-adv-x="603" d="M86 531l357 522l72 -78l-228 -444l232 -451l-76 -74z" />
<glyph unicode="&#x203a;" horiz-adv-x="603" d="M86 980l78 73l355 -522l-355 -525l-73 78l228 444z" />
<glyph unicode="&#x205f;" horiz-adv-x="532" />
<glyph unicode="&#x20ac;" d="M19 531l45 115q7 -1 18 -1q82 -8 119 -8q-1 19 -1.5 38t-0.5 51q0 25 0.5 41t1.5 33q-78 -3 -123 -4.5t-59 -1.5l45 114q57 -4 86.5 -5.5t57.5 -1.5q39 263 202 418.5t400 155.5q86 0 172.5 -25t178.5 -78q-17 -57 -27.5 -116t-14.5 -123l-22 -5q-28 124 -92.5 188 t-162.5 64q-131 0 -216 -125.5t-104 -353.5q34 -2 72.5 -3t110.5 -1q83 0 161 3.5t147 7.5l-44 -114q-72 3 -153.5 4.5t-173.5 1.5h-127q-1 -16 -1.5 -33t-0.5 -48q0 -7 1.5 -36t3.5 -46q20 -1 44 -1.5t71 -0.5q70 0 139 2.5t140 8.5l-45 -115q-71 4 -156.5 5.5t-186.5 1.5 q19 -233 104.5 -359t222.5 -126q69 0 140 42t142 124l19 -6l-37 -151q-78 -49 -157.5 -73.5t-163.5 -24.5q-240 0 -398.5 154.5t-190.5 419.5q-47 -2 -110 -4.5t-76 -2.5z" />
<glyph unicode="&#x2122;" horiz-adv-x="1842" d="M243 1475v102h504v-102h-181v-484h-139v484h-184zM874 991v586h183l153 -389l143 389h184v-586h-123v463l-173 -463h-64l-179 463v-463h-124z" />
<glyph unicode="&#xe000;" horiz-adv-x="1058" d="M0 0v1058h1058v-1058h-1058z" />
</font>
</defs>
</svg>
