<?xml version="1.0" standalone="no"?>
<!DOCTYPE svg PUBLIC "-//W3C//DTD SVG 1.1//EN" "http://www.w3.org/Graphics/SVG/1.1/DTD/svg11.dtd" >
<svg xmlns="http://www.w3.org/2000/svg">
<metadata></metadata>
<defs>
<font id="zapfhumnst_dm_btdemi" horiz-adv-x="1213" >
<font-face units-per-em="2048" ascent="1556" descent="-492" />
<missing-glyph horiz-adv-x="605" />
<glyph horiz-adv-x="2048" />
<glyph horiz-adv-x="2048" />
<glyph unicode="&#xd;" horiz-adv-x="605" />
<glyph unicode=" "  horiz-adv-x="605" />
<glyph unicode="&#x09;" horiz-adv-x="605" />
<glyph unicode="&#xa0;" horiz-adv-x="605" />
<glyph unicode="!" horiz-adv-x="727" d="M224 112q0 60 39.5 100t99.5 40q59 0 100 -40t41 -100q0 -58 -41 -99.5t-100 -41.5q-58 0 -98.5 41t-40.5 100zM234 1382q0 77 32 115t97 38t98 -37.5t33 -112.5q0 -32 -3.5 -75t-8.5 -92l-81 -813q-8 4 -17.5 6.5t-20.5 2.5t-19.5 -2.5t-18.5 -6.5l-80 814 q-4 50 -7.5 94.5t-3.5 68.5z" />
<glyph unicode="&#x22;" horiz-adv-x="614" d="M106 951v598h109v-598h-109zM401 951v598h110v-598h-110z" />
<glyph unicode="#" horiz-adv-x="1701" d="M126 517l42 118h351l110 298h-382l38 116h382l187 521h137l-181 -521h285l186 521h137l-184 -521h341l-40 -116h-343l-106 -298h368l-40 -118h-367l-184 -517h-139l185 517h-290l-186 -517h-137l184 517h-354zM661 635h288l104 298h-287z" />
<glyph unicode="$" d="M146 1053q0 161 108 263t299 121q0 42 -5 80t-14 78q1 -1 4 -1q40 -9 59 -9q15 0 53 8q4 1 7 1q-5 -27 -8 -60t-5 -95q106 -2 189 -22.5t147 -63.5q-22 -40 -41.5 -84t-35.5 -90h-16q-17 88 -79 133.5t-164 45.5v-511q234 -55 333.5 -147t99.5 -251q0 -179 -116 -299 t-317 -146v-40q0 -46 3 -88.5t10 -78.5q-18 3 -32.5 4.5t-27.5 1.5q-15 0 -30.5 -1.5t-32.5 -4.5q6 52 11 103t8 100q-131 5 -230 29t-163 67q4 15 28 88.5t38 116.5h13q21 -99 98 -152.5t216 -66.5v593q-223 57 -315 143.5t-92 234.5zM319 1110q0 -89 56.5 -147t177.5 -91 v481q-106 -9 -170 -76t-64 -167zM644 86q125 20 188 94t63 200q0 103 -58.5 166t-192.5 104v-564z" />
<glyph unicode="%" horiz-adv-x="1674" d="M44 1084q0 154 98 253.5t247 99.5q153 0 248 -97.5t95 -255.5q0 -154 -96.5 -254t-246.5 -100t-247.5 99t-97.5 255zM228 1055q0 -129 40 -194t121 -65q82 0 122 79.5t40 243.5q0 127 -40.5 191t-121.5 64t-121 -79.5t-40 -239.5zM259 -205l1026 1849h110l-1026 -1849 h-110zM951 354q0 154 97 253.5t246 99.5q152 0 248.5 -97.5t96.5 -255.5q0 -154 -97.5 -254t-247.5 -100t-246.5 99t-96.5 255zM1133 323q0 -130 40 -193.5t121 -63.5q82 0 122 79t40 242q0 127 -41 191t-121 64q-81 0 -121 -79.5t-40 -239.5z" />
<glyph unicode="&#x26;" horiz-adv-x="1578" d="M124 361q0 143 93.5 258t291.5 213q-73 91 -107.5 174.5t-34.5 167.5q0 146 100.5 240.5t258.5 94.5q143 0 229.5 -72t86.5 -192q0 -103 -75 -197t-233 -185q87 -115 183 -227.5t202 -224.5q91 117 141 229.5t59 218.5h23l98 -105q-61 -131 -126.5 -235t-134.5 -181 l135 -154q22 -26 58 -64.5t114 -119.5q-41 3 -79.5 4.5t-74.5 1.5t-69 -1.5t-64 -4.5l-146 181q-98 -108 -212.5 -160t-251.5 -52q-213 0 -339 107t-126 285zM327 445q0 -146 98.5 -246t239.5 -100q87 0 165.5 38t153.5 115l-431 516q-117 -70 -171.5 -148t-54.5 -175z M528 1243q0 -68 39 -146.5t117 -167.5q100 62 151.5 144t51.5 177q0 83 -46 133t-122 50q-84 0 -137.5 -53t-53.5 -137z" />
<glyph unicode="'" horiz-adv-x="318" d="M106 951v598h109v-598h-109z" />
<glyph unicode="(" horiz-adv-x="727" d="M186 619q0 268 95.5 495.5t288.5 424.5q10 -18 21.5 -31t25.5 -22q-134 -172 -200.5 -388.5t-66.5 -478.5t66.5 -478.5t200.5 -387.5q-15 -10 -26.5 -22t-20.5 -29q-194 198 -289 424.5t-95 492.5z" />
<glyph unicode=")" horiz-adv-x="727" d="M108 -247q136 172 203 389t67 477q0 263 -67 478.5t-203 388.5q16 10 28 23t21 30q194 -197 288.5 -423.5t94.5 -494.5t-95 -495.5t-287 -423.5q-9 15 -21 27.5t-29 23.5z" />
<glyph unicode="*" horiz-adv-x="1092" d="M154 1020q80 22 157 52.5t156 69.5q-75 40 -152.5 69.5t-160.5 48.5q38 36 60.5 74t30.5 82q56 -57 120.5 -108t141.5 -97q-6 86 -17.5 168.5t-29.5 159.5q24 -6 47 -9.5t48 -3.5q24 0 43 3.5t35 9.5q-22 -80 -33.5 -162t-13.5 -166q70 40 135.5 91t127.5 113 q9 -42 31 -81t57 -74q-75 -19 -153.5 -48.5t-157.5 -69.5q77 -44 153.5 -74t157.5 -48q-33 -31 -56 -69.5t-36 -85.5q-57 58 -121.5 110t-137.5 97q0 -84 12 -165.5t37 -163.5q-22 7 -44.5 10t-44.5 3q-21 0 -42.5 -3t-43.5 -10q18 81 29.5 163t17.5 166q-77 -46 -141.5 -98 t-116.5 -109q-12 45 -36 83.5t-59 71.5z" />
<glyph unicode="+" horiz-adv-x="1842" d="M274 606v106h595v607h106v-607h593v-106h-593v-606h-106v606h-595z" />
<glyph unicode="," horiz-adv-x="605" d="M66 -378l147 500q26 89 57 125t80 36q38 0 65.5 -26.5t27.5 -64.5q0 -49 -65 -155l-2 -4l-258 -427z" />
<glyph unicode="-" horiz-adv-x="727" d="M97 443v190h534v-190h-534z" />
<glyph unicode="." horiz-adv-x="605" d="M162 112q0 60 41 101.5t100 41.5t100.5 -41.5t41.5 -101.5q0 -58 -41.5 -99.5t-100.5 -41.5t-100 41.5t-41 99.5z" />
<glyph unicode="/" horiz-adv-x="621" d="M-57 -205l608 1864h103l-610 -1864h-101z" />
<glyph unicode="0" d="M80 719q0 372 133.5 563t392.5 191t393 -191.5t134 -562.5q0 -372 -133.5 -562t-393.5 -190q-259 0 -392.5 191t-133.5 561zM306 721q0 -354 71 -509t231 -155q159 0 229 154.5t70 509.5q0 350 -70.5 505.5t-228.5 155.5q-160 0 -231 -154t-71 -507z" />
<glyph unicode="1" d="M112 1205q161 52 319.5 129.5t309.5 178.5l25 -6q-14 -247 -20.5 -523.5t-6.5 -582.5q0 -156 1 -240t3 -161q-27 8 -58 11.5t-64 3.5q-31 0 -60 -3.5t-57 -11.5q19 175 28.5 434.5t9.5 580.5q0 68 -2 134.5t-6 135.5l-112 -59q-71 -40 -119 -71.5t-88 -61.5 q-20 33 -45 61.5t-58 50.5z" />
<glyph unicode="2" d="M38 0v64q367 336 527.5 567t160.5 420q0 154 -69 241.5t-190 87.5q-117 0 -187 -75.5t-75 -207.5l-15 -4q-26 57 -54.5 109t-57.5 96q88 88 198 133.5t228 45.5q207 0 329.5 -107t122.5 -286q0 -131 -84 -265t-361 -401l-237 -228h443q68 0 141 7.5t151 23.5 q-5 -23 -7 -50.5t-2 -60.5q0 -31 2 -57.5t6 -52.5q-96 8 -242.5 11.5t-354.5 3.5q-139 0 -223 -3t-150 -12z" />
<glyph unicode="3" d="M122 51q13 63 22.5 127.5t17.5 129.5h22q42 -134 116 -195.5t194 -61.5q149 0 237 95.5t88 258.5q0 153 -81.5 236t-233.5 83q-23 0 -52.5 -4.5t-64.5 -14.5q3 10 3.5 22t0.5 39q0 26 -0.5 40t-2.5 26q28 -4 54.5 -5.5t53.5 -1.5q128 0 200 76t72 214q0 136 -64 205 t-189 69q-96 0 -163 -63t-86 -174l-17 -6q-12 36 -33.5 78t-56.5 101q86 75 186.5 111.5t218.5 36.5q188 0 299.5 -90t111.5 -239q0 -133 -89.5 -225.5t-264.5 -139.5q208 -12 315.5 -102.5t107.5 -254.5q0 -204 -150.5 -329.5t-397.5 -125.5q-112 0 -203.5 20.5 t-170.5 63.5z" />
<glyph unicode="4" d="M62 473q251 346 421.5 583.5t287.5 406.5q16 0 35 -0.5t55 -0.5q34 0 51.5 0.5t31.5 1.5q-9 -90 -13 -171t-4 -149v-587h48q50 0 83 3.5t61 9.5q-4 -21 -6.5 -43.5t-2.5 -44.5q0 -24 2.5 -43.5t6.5 -35.5q-55 5 -160 13q-20 1 -32 2v-192q0 -7 1 -21q5 -112 16 -205 q-58 8 -79.5 9.5t-37.5 1.5q-28 0 -55 -3t-59 -8q10 64 14.5 128t4.5 129l-1 154q-81 4 -163 5.5t-167 1.5t-169 -1.5t-169 -5.5zM237 557h495v684q-129 -166 -253 -337t-242 -347z" />
<glyph unicode="5" d="M122 55q12 72 23 140.5t19 131.5h24q18 -135 93.5 -202.5t209.5 -67.5q156 0 248.5 96t92.5 261t-88 256t-248 91q-65 0 -120.5 -21.5t-99.5 -62.5l-33 20q8 47 11 99t3 118v55q0 232 -4.5 321t-12.5 147q126 -7 225.5 -11t155.5 -4q111 0 209.5 4t186.5 11 q-4 -28 -6 -57t-2 -59q0 -39 2 -56.5t6 -32.5q-58 1 -124 1.5t-199 0.5t-200.5 -0.5t-128.5 -2.5q-8 -94 -11.5 -198t-3.5 -223q58 27 122 41t134 14q209 0 331 -111.5t122 -302.5q0 -220 -153.5 -351t-414.5 -131q-115 0 -207.5 21.5t-161.5 64.5z" />
<glyph unicode="6" d="M104 604q0 389 177 630t458 241q54 0 101.5 -7t94.5 -22l-4 -106q-46 27 -88 40t-77 13q-198 0 -306.5 -172.5t-118.5 -505.5q82 82 170 120.5t196 38.5q185 0 298.5 -120t113.5 -313q0 -208 -136 -340t-350 -132q-259 0 -394 162t-135 473zM338 427q0 -172 75.5 -268.5 t210.5 -96.5q129 0 203 92.5t74 256.5q0 172 -73.5 262.5t-212.5 90.5q-128 0 -202.5 -90.5t-74.5 -246.5z" />
<glyph unicode="7" d="M201 0q221 350 407.5 659.5t345.5 590.5h-365q-92 0 -186.5 -6.5t-191.5 -19.5q5 23 7.5 49.5t2.5 58.5q0 31 -2.5 57t-7.5 48q57 -2 143.5 -3t308.5 -1h213q127 0 190 1t116 3v-28q-250 -396 -444 -752t-327 -657q-24 6 -49.5 9.5t-51.5 3.5q-27 0 -53.5 -3.5 t-55.5 -9.5z" />
<glyph unicode="8" d="M99 407q0 166 92.5 270.5t264.5 132.5v15q-134 22 -204.5 97.5t-70.5 198.5q0 164 112.5 256t312.5 92q203 0 313.5 -89t110.5 -252q0 -128 -68 -204t-204 -99v-15q174 -30 266.5 -134t92.5 -269q0 -206 -135 -322t-376 -116q-242 0 -374.5 114.5t-132.5 323.5zM321 416 q0 -177 74.5 -272t212.5 -95q137 0 211 95.5t74 271.5q0 181 -71 273t-214 92q-141 0 -214 -92.5t-73 -272.5zM389 1121q0 -128 54.5 -193t162.5 -65q107 0 162 66t55 192q0 130 -55 197t-162 67q-105 0 -161 -68.5t-56 -195.5z" />
<glyph unicode="9" d="M95 1017q0 196 139 326t352 130q265 0 395.5 -156t130.5 -472q0 -398 -193.5 -638t-513.5 -240q-62 0 -111 7.5t-89 23.5l-19 148q49 -42 109 -64.5t129 -22.5q197 0 321.5 182.5t134.5 488.5q-81 -81 -167.5 -119.5t-188.5 -38.5q-201 0 -315 118.5t-114 326.5z M312 1020q0 -158 75 -247t208 -89q138 0 214 86t76 245q0 179 -70.5 274.5t-204.5 95.5q-141 0 -219.5 -96.5t-78.5 -268.5z" />
<glyph unicode=":" horiz-adv-x="721" d="M221 110q0 58 41 98.5t101 40.5q59 0 100 -39.5t41 -99.5q0 -58 -41 -99.5t-100 -41.5q-58 0 -100 41.5t-42 99.5zM221 889q0 59 40 99t100 40q59 0 101 -40.5t42 -98.5t-42 -100t-101 -42t-99.5 41t-40.5 101z" />
<glyph unicode=";" horiz-adv-x="721" d="M118 -378l148 500q26 90 56.5 125.5t78.5 35.5q37 0 65 -26.5t28 -64.5q0 -29 -12.5 -61.5t-52.5 -97.5l-258 -427zM224 889q0 58 41 98.5t100 40.5t100.5 -40t41.5 -99q0 -58 -41.5 -100t-100.5 -42q-58 0 -99.5 42t-41.5 100z" />
<glyph unicode="&#x3c;" horiz-adv-x="1842" d="M285 615v88l1272 523v-118l-1103 -449l1103 -446v-118z" />
<glyph unicode="=" horiz-adv-x="1842" d="M274 405v106h1294v-106h-1294zM274 808v106h1294v-106h-1294z" />
<glyph unicode="&#x3e;" horiz-adv-x="1842" d="M285 95v118l1104 446l-1104 449v118l1272 -523v-88z" />
<glyph unicode="?" horiz-adv-x="975" d="M205 1454q70 43 141 64t150 21q156 0 251 -89t95 -236q0 -89 -36 -158.5t-158 -177.5l-89 -78q-57 -49 -84.5 -98.5t-27.5 -99.5q0 -59 32.5 -90.5t92.5 -31.5q18 0 34.5 2t35.5 7q-6 -17 -11 -35.5t-9 -36.5q-23 -6 -45 -8t-43 -2q-123 0 -193.5 66t-70.5 179 q0 72 35 136.5t149 175.5l92 93q67 67 89 110t22 91q0 86 -56.5 139t-144.5 53q-80 0 -130.5 -40.5t-64.5 -117.5h-16q-10 46 -19.5 86.5t-20.5 75.5zM354 112q0 59 41 99.5t101 40.5q59 0 100 -40t41 -100q0 -58 -41.5 -99.5t-99.5 -41.5q-60 0 -101 41.5t-41 99.5z" />
<glyph unicode="@" horiz-adv-x="2211" d="M126 580q0 220 93 412t272 340q143 117 323 177.5t389 60.5q175 0 332.5 -47.5t269.5 -133.5q139 -107 209.5 -246.5t70.5 -302.5q0 -184 -66.5 -334t-195.5 -251q-76 -58 -161 -89t-174 -31q-105 0 -156 40.5t-51 122.5q0 4 1 15t1 16q-55 -94 -137 -144t-182 -50 q-165 0 -251.5 90t-86.5 264q0 249 146 419.5t356 170.5q101 0 170 -44.5t104 -131.5l65 135h101l-150 -607q-11 -48 -14.5 -68t-3.5 -31q0 -47 30.5 -73.5t84.5 -26.5q56 0 115 23t113 66q105 83 163.5 220.5t58.5 305.5q0 274 -214 450t-550 176q-189 0 -345.5 -53.5 t-283.5 -161.5q-158 -136 -239 -313.5t-81 -391.5q0 -188 64.5 -329.5t198.5 -250.5q110 -89 263.5 -138.5t325.5 -49.5q184 0 361 53.5t325 155.5l42 -60q-159 -120 -336 -180t-371 -60q-206 0 -374.5 50.5t-296.5 149.5q-168 128 -248 295.5t-80 390.5zM758 480 q0 -120 59.5 -187t164.5 -67q115 0 204 77t121 204l67 267q-20 101 -82 157.5t-150 56.5q-167 0 -275.5 -144t-108.5 -364z" />
<glyph unicode="A" horiz-adv-x="1335" d="M-28 0q158 353 319.5 732.5t337.5 806.5q15 -3 28.5 -4.5t23.5 -1.5q13 0 26 1.5t25 4.5q148 -389 304.5 -773.5t321.5 -764.5q-43 4 -78.5 7t-67.5 3q-33 0 -67 -3t-70 -7q-48 159 -96.5 301t-100.5 270q-60 5 -123 6.5t-126 1.5q-66 0 -136 -1.5t-144 -6.5l-85 -236 q-29 -78 -53.5 -162t-47.5 -174q-25 5 -48.5 8t-46.5 3q-22 0 -45 -3t-51 -8zM399 688q59 -3 115.5 -5t111.5 -2q53 0 104.5 2t98.5 5l-212 549z" />
<glyph unicode="B" horiz-adv-x="1298" d="M181 0q12 231 18 455.5t6 445.5q0 189 -6 338.5t-18 270.5q43 -2 84.5 -4t82.5 -2q65 0 187 4.5t177 4.5q206 0 322 -89t116 -245q0 -142 -100 -233.5t-296 -129.5q237 -15 349.5 -106.5t112.5 -271.5q0 -201 -156.5 -319.5t-426.5 -118.5q-31 0 -125 4.5t-158 4.5 q-44 0 -86.5 -2.5t-82.5 -6.5zM414 848q14 -2 29.5 -2.5t45.5 -0.5q213 0 323 78t110 229q0 129 -91.5 201t-258.5 72q-19 0 -57 -2t-91 -6q-4 -25 -6 -60.5t-2 -115.5v-89zM416 329q0 -92 2 -140t8 -90q33 -3 67.5 -4.5t65.5 -1.5q206 0 312 86t106 250q0 174 -113 255.5 t-357 81.5q-37 0 -55.5 -0.5t-35.5 -3.5v-433z" />
<glyph unicode="C" horiz-adv-x="1479" d="M84 756q0 362 217.5 570.5t595.5 208.5q132 0 263 -29.5t269 -89.5q-23 -45 -37.5 -100t-23.5 -122h-23q-74 124 -184.5 183.5t-263.5 59.5q-262 0 -410.5 -178t-148.5 -493t155 -500.5t414 -185.5q134 0 252.5 55.5t225.5 170.5l24 -12q-9 -43 -14.5 -88.5t-7.5 -94.5 q-129 -72 -258.5 -107t-267.5 -35q-363 0 -570 210.5t-207 576.5z" />
<glyph unicode="D" horiz-adv-x="1690" d="M177 0q14 162 21 349.5t7 404.5q0 243 -6.5 425.5t-21.5 330.5q48 -2 91.5 -4t83.5 -2q71 0 228.5 8t242.5 8q384 0 584.5 -187.5t200.5 -549.5q0 -369 -229 -576t-640 -207q-63 0 -192.5 5.5t-196.5 5.5q-40 0 -82 -3t-91 -8zM414 754q0 -84 2 -224t8 -410 q73 -10 131 -14t106 -4q349 0 525.5 169t176.5 506q0 318 -169.5 479.5t-501.5 161.5q-67 0 -132.5 -2.5t-135.5 -9.5q-2 -126 -5 -325q-5 -289 -5 -327z" />
<glyph unicode="E" horiz-adv-x="1110" d="M177 0q14 162 21 349.5t7 404.5q0 243 -6.5 425.5t-21.5 330.5q109 -2 214 -4t206 -2q104 0 201.5 2t189.5 5q-3 -20 -4.5 -38t-1.5 -38q0 -17 1.5 -37t4.5 -42q-79 19 -169 28t-195 9h-204v-309v-228h224q70 0 146 5t161 15q-3 -23 -3.5 -37.5t-0.5 -28.5q0 -22 3 -70 v-12q-108 10 -185.5 14.5t-127.5 4.5h-217v-234q0 -76 2 -177.5t7 -217.5h202q89 0 180.5 9t184.5 27q-3 -14 -4 -30t-1 -48q0 -33 1.5 -48.5t2.5 -27.5q-92 3 -190 4.5t-201 1.5t-209.5 -1.5t-217.5 -4.5z" />
<glyph unicode="F" horiz-adv-x="1086" d="M177 0q14 162 21 349.5t7 404.5q0 243 -6.5 425.5t-21.5 330.5q111 -2 217.5 -4t209.5 -2t201 2t190 5q-4 -20 -5.5 -38t-1.5 -38q0 -17 2.5 -37.5t4.5 -41.5q-92 19 -183.5 28t-180.5 9h-209q-1 -82 -1.5 -157t-0.5 -152v-228h224q70 0 146 5t161 15q-3 -23 -3.5 -37.5 t-0.5 -28.5q0 -22 3 -70v-12q-108 10 -185.5 14.5t-127.5 4.5h-217v-234q0 -161 3.5 -289t9.5 -224q-26 5 -57 8t-70 3t-70 -3t-59 -8z" />
<glyph unicode="G" horiz-adv-x="1623" d="M84 758q0 358 233 569.5t625 211.5q165 0 307.5 -33.5t259.5 -98.5q-27 -49 -41.5 -101.5t-17.5 -108.5h-34q-85 126 -206 187.5t-283 61.5q-268 0 -431.5 -185t-163.5 -491q0 -329 160.5 -514t447.5 -185q89 0 175.5 19.5t171.5 60.5q4 54 5.5 107.5t1.5 108.5 q0 84 -4 163t-11 155q30 -6 58.5 -9t57.5 -3q34 0 67 3t66 9q-5 -91 -8 -169.5t-3 -148.5q0 -71 3 -147t8 -162q-160 -45 -312 -67t-296 -22q-396 0 -616 207.5t-220 581.5z" />
<glyph unicode="H" horiz-adv-x="1678" d="M179 0q13 168 19.5 356t6.5 398q0 236 -6.5 420.5t-19.5 335.5q33 -4 64 -7t63 -3q29 0 61.5 3t65.5 8q-6 -108 -9.5 -215t-3.5 -212v-196q107 -5 212 -6.5t208 -1.5q105 0 209 1.5t209 5.5v197q0 109 -3 216.5t-10 209.5q39 -6 69.5 -8t59.5 -2q30 0 61.5 3t65.5 8 q-13 -140 -19 -315.5t-7 -441.5q0 -235 6.5 -418.5t19.5 -335.5q-26 5 -57 8t-70 3t-70 -3t-59 -7q7 94 10 201.5t3 310.5v241q-73 3 -159 3.5t-259 0.5q-171 0 -258 -0.5t-162 -3.5v-241q0 -161 3.5 -289t9.5 -224q-26 5 -57 8t-70 3t-70 -3t-57 -8z" />
<glyph unicode="I" horiz-adv-x="624" d="M181 0q13 168 20 356t7 398q0 236 -7 420.5t-20 335.5q35 -4 67.5 -7t63.5 -3q30 0 62.5 3t69.5 8q-13 -140 -19.5 -315.5t-6.5 -441.5q0 -235 6.5 -418.5t19.5 -335.5q-27 5 -59 8t-73 3t-73 -3t-58 -8z" />
<glyph unicode="J" horiz-adv-x="624" d="M-114 -294q84 18 140 43t96 63q52 53 73.5 151.5t21.5 365.5q0 433 -8.5 728.5t-24.5 453.5q36 -5 69 -8t63 -3q31 0 63 3t69 8q-14 -152 -21 -335t-7 -422q0 -213 3 -455q1 -65 1 -80q0 -311 -117.5 -439t-408.5 -141z" />
<glyph unicode="K" horiz-adv-x="1331" d="M177 0q14 162 21 349.5t7 404.5q0 243 -6.5 425.5t-21.5 330.5q37 -6 67.5 -8t61.5 -2q29 0 61.5 3t65.5 8q-11 -218 -14 -304.5t-3 -122.5v-274q168 124 345.5 302t353.5 399q11 -1 32 -2q53 -5 81 -5q25 0 69.5 3t60.5 4q-175 -150 -355 -315t-372 -351 q157 -198 346 -408t412 -437h-179q-44 0 -85.5 -4t-80.5 -11q-35 61 -90 134t-177 213l-361 409v-232q0 -87 4 -210t13 -299q-26 5 -57 8t-70 3t-70 -3t-59 -8z" />
<glyph unicode="L" horiz-adv-x="1019" d="M177 0q14 162 21 349.5t7 404.5q0 243 -6.5 425.5t-21.5 331.5q28 -4 60 -6.5t69 -2.5t69 2.5t60 6.5q-7 -131 -11 -272.5t-4 -326.5q0 -309 2 -498t7 -296h223q91 0 182.5 9t182.5 27q-3 -19 -4.5 -39t-1.5 -39q0 -21 1.5 -39.5t4.5 -36.5q-98 3 -200.5 4.5t-208.5 1.5 q-105 0 -213 -1.5t-218 -4.5z" />
<glyph unicode="M" horiz-adv-x="2001" d="M91 0q77 396 132.5 782.5t86.5 756.5h84q172 -347 326 -643.5t293 -550.5q148 268 299 566t309 628h84q34 -401 79.5 -785.5t102.5 -753.5q-34 9 -65 13t-62 4q-28 0 -58.5 -4t-67.5 -13q-11 275 -37 556t-67 569l-316 -621q-80 -156 -134 -277.5t-92 -226.5q-4 2 -9.5 3 t-16.5 1t-16.5 -1t-11.5 -3q-133 287 -274.5 564.5t-290.5 545.5l-63 -612q-13 -124 -20.5 -248t-11.5 -249q-26 4 -48.5 7t-44.5 3q-20 0 -41.5 -3t-48.5 -8z" />
<glyph unicode="N" horiz-adv-x="1639" d="M160 -2q18 159 27.5 463.5t9.5 741.5q0 76 -2 160t-5 176h80q253 -295 518 -585.5t541 -577.5v604q0 110 -7 244t-18 287q21 -3 44.5 -5t44.5 -2q24 0 45.5 2t41.5 4q-18 -119 -28 -432t-10 -770q0 -50 1.5 -132.5t4.5 -201.5l-72 -1q-75 99 -170.5 210t-249.5 275 l-642 684v-602q0 -154 7 -288.5t21 -253.5q-24 5 -47.5 8t-45.5 3q-20 0 -41.5 -3t-47.5 -8z" />
<glyph unicode="O" horiz-adv-x="1815" d="M84 754q0 365 220.5 575t602.5 210q390 0 606.5 -206.5t216.5 -578.5q0 -368 -216.5 -575.5t-604.5 -207.5q-383 0 -604 210t-221 573zM332 766q0 -339 147.5 -518.5t427.5 -179.5q277 0 426 177.5t149 508.5t-149 509.5t-426 178.5q-274 0 -424.5 -176.5t-150.5 -499.5z " />
<glyph unicode="P" horiz-adv-x="1192" d="M181 1q12 230 18 454.5t6 445.5q0 188 -6 338t-18 274q37 -4 76.5 -6.5t80.5 -2.5q67 0 180 4.5t161 4.5q240 0 365.5 -100t125.5 -290q0 -204 -158.5 -323t-433.5 -119q-61 0 -96.5 1t-67.5 1v-185q0 -119 2.5 -242.5t7.5 -255.5q-24 5 -54 8t-67 3q-38 0 -67.5 -3 t-54.5 -7zM414 772q12 -1 27 -1.5t44 -0.5q221 0 334.5 87.5t113.5 259.5q0 146 -93.5 227t-261.5 81q-24 0 -63.5 -2t-90.5 -6q-5 -86 -7.5 -163.5t-2.5 -136.5v-345z" />
<glyph unicode="Q" horiz-adv-x="1815" d="M84 754q0 365 220.5 575t602.5 210q390 0 606.5 -206.5t216.5 -578.5q0 -286 -129.5 -472t-388.5 -271l295 -199q77 -53 130.5 -84t103.5 -55q-55 -18 -105.5 -45t-96.5 -63q-62 47 -142 110t-91 70l-324 228q-11 0 -34.5 -1t-33.5 -1q-389 0 -609.5 208.5t-220.5 574.5z M332 766q0 -339 147.5 -518.5t427.5 -179.5q277 0 426 177.5t149 508.5t-149 509.5t-426 178.5q-274 0 -424.5 -176.5t-150.5 -499.5z" />
<glyph unicode="R" horiz-adv-x="1270" d="M181 1q12 229 18 454.5t6 451.5q0 179 -6 327t-18 279q37 -4 75.5 -6.5t79.5 -2.5q67 0 178.5 4.5t156.5 4.5q233 0 356 -89.5t123 -260.5q0 -152 -111.5 -253.5t-321.5 -139.5q146 -194 294 -386.5t298 -383.5q-43 5 -83.5 8t-77.5 3q-36 0 -73.5 -3t-83.5 -8 q-115 191 -248 375t-283 364h-53v-241q0 -97 3.5 -214.5t11.5 -283.5q-25 5 -54.5 8t-66.5 3t-66 -3t-54 -7zM407 819q13 -1 29.5 -2t45.5 -1q217 0 329.5 81t112.5 238q0 140 -96.5 216t-276.5 76q-35 0 -67.5 -2.5t-61.5 -7.5q-7 -55 -11 -115.5t-4 -164.5v-318z" />
<glyph unicode="S" horiz-adv-x="1132" d="M82 97q17 56 28 115t14 120l20 4q47 -126 143 -194.5t228 -68.5q149 0 237 81t88 218q0 110 -61.5 178t-271.5 151q-233 90 -314 180t-81 236q0 198 128 311t353 113q200 0 373 -94l1 -1q-26 -52 -43.5 -105.5t-28.5 -110.5h-21q-22 109 -99.5 167.5t-204.5 58.5 q-126 0 -202 -71.5t-76 -187.5q0 -100 64 -163t256 -133q252 -93 336 -186.5t84 -247.5q0 -215 -154 -356.5t-393 -141.5q-124 0 -226 32t-177 96z" />
<glyph unicode="T" horiz-adv-x="1171" d="M17 1355q6 21 8 40t2 40q0 22 -2.5 41t-7.5 35q150 -7 292 -10t277 -4q156 0 294 3.5t275 10.5q-6 -34 -7.5 -49.5t-1.5 -30.5q0 -16 2 -34.5t7 -40.5q-117 17 -200 25t-134 8h-124q-6 -85 -8.5 -145.5t-2.5 -108.5q0 -439 7 -719t21 -416q-26 5 -57.5 8t-70.5 3 q-38 0 -69 -3t-59 -8q14 148 20.5 379.5t6.5 587.5q0 156 -2 247t-8 175h-135q-46 0 -127 -8t-196 -26z" />
<glyph unicode="U" horiz-adv-x="1643" d="M164 1511q29 -4 62 -6.5t70 -2.5t69 2.5t62 6.5q-12 -138 -18 -231t-6 -152v-389q0 -158 9 -257t29 -148q49 -127 143 -184t252 -57q114 0 206.5 32t158.5 94q64 62 91 154t27 319v49v323q0 145 -6 250.5t-19 196.5q23 -4 46.5 -6.5t50.5 -2.5q28 0 52.5 2.5t44.5 6.5 q-14 -95 -21 -228.5t-7 -309.5v-378q0 -312 -165.5 -468t-496.5 -156q-195 0 -326.5 55t-201.5 166q-44 68 -63 155.5t-19 267.5v75v441q0 105 -6 199.5t-18 180.5z" />
<glyph unicode="V" horiz-adv-x="1382" d="M0 1511q33 -4 68 -6.5t73 -2.5q40 0 74 2.5t66 6.5q57 -194 191 -556l26 -68l236 -638l215 565q85 221 140.5 389.5t92.5 307.5l5 -1q64 -8 96 -8q18 0 38.5 2t60.5 7q-198 -423 -355.5 -807.5t-260.5 -702.5q-23 4 -43.5 7t-41.5 3q-20 0 -41 -3t-45 -8 q-52 192 -206.5 584.5t-388.5 926.5z" />
<glyph unicode="W" horiz-adv-x="2118" d="M-2 1511q29 -4 58.5 -6.5t65.5 -2.5q37 0 68.5 2.5t61.5 6.5q28 -125 69.5 -276t102.5 -348l193 -611q111 301 207.5 609t179.5 626q21 -4 42.5 -6.5t44.5 -2.5q24 0 45.5 2.5t40.5 6.5q89 -314 187 -621.5t206 -610.5l188 568q57 175 98.5 340.5t65.5 323.5 q23 -4 46.5 -6.5t51.5 -2.5t52 2.5t47 6.5q-150 -371 -279.5 -749.5t-236.5 -761.5q-24 5 -45 8t-43 3q-19 0 -40.5 -3t-47.5 -8q-47 176 -94 331t-96 295l-199 562l-242 -721q-48 -144 -84 -259.5t-62 -207.5q-26 5 -48.5 8t-44.5 3q-20 0 -41.5 -3t-47.5 -8 q-94 353 -212 732t-258 779z" />
<glyph unicode="X" horiz-adv-x="1196" d="M1 0q70 98 142.5 201.5t181.5 262.5l190 277q-116 193 -236 385t-246 385q35 -4 71 -6.5t77 -2.5t77 2.5t67 6.5q77 -170 153.5 -316t156.5 -275l154 254q52 84 96 167.5t82 169.5q23 -4 48.5 -6.5t54.5 -2.5q31 0 56.5 2.5t50.5 6.5q-105 -136 -267 -369 q-40 -58 -59 -85l-159 -228q124 -217 250.5 -424t253.5 -405q-41 5 -78.5 8t-70.5 3q-34 0 -68.5 -3t-71.5 -8q-79 161 -163 321.5t-174 322.5l-141 -237l-10 -17q-150 -253 -213 -389q-28 4 -53.5 7t-48.5 3t-49 -3t-54 -8z" />
<glyph unicode="Y" horiz-adv-x="1148" d="M-46 1511q33 -4 70.5 -6.5t77.5 -2.5q41 0 75 2.5t64 6.5q34 -89 85 -192t121 -224l188 -323q104 171 198.5 355t181.5 384q21 -4 44.5 -6.5t50.5 -2.5q28 0 52.5 2.5t44.5 6.5q-82 -129 -158.5 -253t-145.5 -243l-204 -342v-284q0 -97 3 -195t10 -194q-35 5 -67 8t-61 3 q-28 0 -58.5 -3t-63.5 -7q11 86 17 196t6 244v185q-124 229 -257 450.5t-274 434.5z" />
<glyph unicode="Z" horiz-adv-x="1340" d="M13 0v57q255 334 493.5 666t462.5 664h-266q-225 0 -361.5 -7.5t-244.5 -26.5q5 19 7 38t2 42t-2 42.5t-7 35.5q103 -9 236.5 -12t350.5 -4q230 0 369.5 3.5t246.5 12.5v-49q-271 -344 -513.5 -676t-459.5 -657h365q121 0 273.5 9.5t334.5 29.5q-4 -18 -6 -38t-2 -44 t2 -45.5t6 -40.5q-94 9 -236.5 12t-510.5 3q-247 0 -353 -3t-187 -12z" />
<glyph unicode="[" horiz-adv-x="727" d="M188 -258q10 88 13.5 232.5t3.5 436.5v215v214q0 293 -3.5 437.5t-13.5 232.5q50 -2 99 -4t100 -2q50 0 101.5 2t102.5 4q0 -6 -1 -21t-1 -22q0 -9 1 -26.5t1 -26.5q-48 5 -88.5 8t-75.5 3q-31 0 -45.5 -1t-27.5 -2q-1 -127 -2 -344q-2 -352 -2 -452q0 -99 2 -445 q1 -221 2 -352q13 -1 27.5 -1.5t45.5 -0.5q28 0 61.5 1.5t102.5 7.5q0 -8 -1 -24t-1 -25q0 -8 1 -23.5t1 -21.5q-51 2 -103 4t-101 2q-50 0 -99.5 -2t-99.5 -4z" />
<glyph unicode="\" horiz-adv-x="621" d="M-59 1659h103l610 -1864h-103z" />
<glyph unicode="]" horiz-adv-x="727" d="M135 -164q69 -6 102.5 -7.5t60.5 -1.5q32 0 47.5 0.5t28.5 2.5q1 128 2 344q2 352 2 452t-2 452q-1 216 -2 343q-13 2 -28.5 3t-47.5 1q-27 0 -60.5 -2t-102.5 -7q1 10 1.5 19.5t0.5 31.5q0 19 -0.5 27.5t-1.5 16.5q53 -3 103.5 -5t101.5 -2t100.5 2t96.5 5 q-8 -76 -11.5 -195t-3.5 -341v-349v-347q0 -224 3.5 -343t12.5 -194q-48 2 -98 4t-100 2q-49 0 -100.5 -2t-104.5 -4q1 7 1.5 16.5t0.5 28.5q0 21 -0.5 31t-1.5 18z" />
<glyph unicode="^" horiz-adv-x="2211" d="M456 973l574 602h152l572 -602h-155l-493 491l-496 -491h-154z" />
<glyph unicode="_" horiz-adv-x="1105" d="M0 -414h1106v-108h-1106v108z" />
<glyph unicode="`" horiz-adv-x="1105" d="M247 1511q0 34 24.5 60t57.5 26q26 0 56.5 -17t59.5 -50l298 -325h-80l-325 197q-53 34 -72 57.5t-19 51.5z" />
<glyph unicode="a" horiz-adv-x="1048" d="M71 261q0 141 72 211t288 119l202 44q47 10 66.5 35.5t19.5 76.5q0 117 -66.5 184t-183.5 67q-94 0 -163 -46t-103 -129l-46 17l11 120q71 65 159.5 98t196.5 33q201 0 289 -81.5t88 -270.5v-524q0 -81 19.5 -103.5t75.5 -22.5h8q30 2 55 2v-47q-61 -28 -110.5 -41.5 t-89.5 -13.5q-66 0 -101 35.5t-45 111.5q-69 -81 -154.5 -123t-182.5 -42q-136 0 -220.5 80.5t-84.5 209.5zM283 296q0 -89 48.5 -141.5t130.5 -52.5q114 0 182 69t68 185v203l-132 -25q-154 -30 -225.5 -86.5t-71.5 -151.5z" />
<glyph unicode="b" horiz-adv-x="1230" d="M126 0q12 111 17 259t5 495v244q0 249 -3.5 400.5t-9.5 260.5q26 -4 52.5 -6.5t57.5 -2.5t58 2.5t51 6.5q-7 -69 -10.5 -157t-3.5 -282v-323q56 98 142.5 143.5t214.5 45.5q211 0 328 -150.5t117 -424.5q0 -249 -127.5 -393.5t-343.5 -144.5q-109 0 -197 39t-162 119 q-32 -25 -61.5 -58t-56.5 -73h-68zM327 528q0 -212 78.5 -330t218.5 -118q137 0 214.5 117.5t77.5 330.5q0 212 -78.5 332t-213.5 120q-138 0 -217.5 -120.5t-79.5 -331.5z" />
<glyph unicode="c" horiz-adv-x="1044" d="M57 511q0 271 155.5 424.5t431.5 153.5q101 0 190 -22.5t164 -64.5q-15 -43 -27 -93.5t-20 -110.5h-27q-25 103 -92.5 154.5t-174.5 51.5q-176 0 -274 -122.5t-98 -343.5q0 -222 103 -346t287 -124q91 0 163 33t124 98l20 -5l-18 -126q-63 -45 -155 -70t-203 -25 q-246 0 -397.5 148.5t-151.5 389.5z" />
<glyph unicode="d" horiz-adv-x="1230" d="M91 542q0 250 120.5 397t324.5 147q125 0 212.5 -46t142.5 -143v323q0 194 -2.5 282t-10.5 157q26 -4 52.5 -6.5t57.5 -2.5q32 0 59 2.5t50 6.5q-7 -119 -10 -260.5t-3 -345.5q0 -383 3.5 -646.5t8.5 -406.5q-28 5 -54 8t-48 3q-25 0 -51 -3t-55 -8q5 51 9 100t6 97 q-64 -116 -151 -170t-210 -54q-215 0 -333 148.5t-118 420.5zM316 538q0 -210 77.5 -325.5t214.5 -115.5q139 0 218 115.5t79 321.5q0 210 -79 328t-218 118q-135 0 -213.5 -118t-78.5 -324z" />
<glyph unicode="e" horiz-adv-x="1101" d="M68 513q0 260 140 416.5t374 156.5q219 0 343 -128.5t124 -355.5q0 -27 -0.5 -40.5t-1.5 -25.5h-21q-311 8 -456 8q-52 0 -111.5 -1t-167.5 -3l-2 -21q0 -216 95.5 -334.5t267.5 -118.5q103 0 187 37t136 105l29 -7q-5 -22 -9 -50t-9 -78q-82 -50 -180.5 -76t-208.5 -26 q-248 0 -388.5 144t-140.5 398zM296 631h107q86 0 322 3q68 0 104 1q3 19 4 35.5t1 28.5q0 137 -70 219t-184 82q-126 0 -199 -95t-85 -274z" />
<glyph unicode="f" horiz-adv-x="643" d="M21 954l4 28t2 27t-2 26.5t-4 23.5q31 -4 65.5 -6t75.5 -2h43q10 251 133 429.5t270 178.5q25 0 48.5 -3.5t48.5 -9.5q-8 -40 -15 -88t-14 -106q-41 17 -79 25.5t-71 8.5q-78 0 -117.5 -43.5t-39.5 -131.5q0 -21 2.5 -47t6.5 -54l23 -159h53q50 0 96 2t92 6 q-5 -11 -7 -24t-2 -28q0 -16 2 -28.5t5 -24.5q-62 7 -113.5 11t-95.5 4h-30v-374q0 -167 3 -316t10 -278q-32 4 -59.5 7t-53.5 3t-54 -3t-58 -8q9 86 12.5 193t3.5 335v441h-24q-32 0 -71.5 -4t-88.5 -11z" />
<glyph unicode="g" horiz-adv-x="1112" d="M51 -298q0 113 67.5 193.5t195.5 119.5q-90 22 -135.5 68.5t-45.5 117.5t46 124t135 84v15q-100 25 -154 102.5t-54 194.5q0 164 115 266t301 102q66 0 163 -18t127 -18h108q7 0 62.5 3t103.5 6v-120q-38 6 -85.5 12t-128.5 13q56 -41 83 -98t27 -130q0 -159 -120 -261 t-307 -102q-38 0 -85 5.5t-56 5.5q-49 0 -78.5 -30t-29.5 -78q0 -54 43.5 -81t130.5 -27h214q198 0 295 -80.5t97 -244.5q0 -196 -163.5 -323t-420.5 -127q-210 0 -330.5 82t-120.5 224zM221 -264q0 -115 86 -182t237 -67q168 0 266.5 77t98.5 206q0 116 -85 175t-252 59 q-176 0 -263.5 -66.5t-87.5 -201.5zM314 726q0 -128 61 -201.5t165 -73.5q110 0 172 79t62 222q0 126 -62.5 193.5t-177.5 67.5q-100 0 -160 -78.5t-60 -208.5z" />
<glyph unicode="h" horiz-adv-x="1230" d="M152 1659q26 -4 53.5 -6.5t58.5 -2.5t57.5 2.5t50.5 6.5q-5 -49 -7 -110.5t-2 -144.5v-526q68 103 161.5 155.5t209.5 52.5q82 0 151 -29t115 -84q39 -46 55.5 -101.5t16.5 -174.5v-399q2 -19 2 -58q3 -151 9 -240q-33 5 -60 8t-52 3t-51.5 -3t-58.5 -8q8 188 11.5 299.5 t3.5 196.5v130q0 105 -11.5 155t-37.5 84q-33 41 -81 62.5t-109 21.5q-143 0 -209.5 -106t-66.5 -336q0 -117 2.5 -242t8.5 -265q-30 5 -57 8t-51 3q-26 0 -52.5 -3t-58.5 -8q9 75 13.5 305t4.5 803v106q0 159 -4.5 259.5t-14.5 185.5z" />
<glyph unicode="i" horiz-adv-x="552" d="M150 1433q0 54 35 89t89 35q61 0 95 -33.5t34 -92.5q0 -53 -32.5 -85t-87.5 -32q-61 0 -97 32.5t-36 86.5zM156 0q7 94 11 250t4 389q0 153 -4 248.5t-11 171.5q24 -4 51 -6t59 -2q31 0 59 2t53 6q-8 -70 -11.5 -151.5t-3.5 -240.5q0 -221 3.5 -385t11.5 -282 q-31 5 -58.5 8t-53.5 3t-52.5 -3t-57.5 -8z" />
<glyph unicode="j" horiz-adv-x="552" d="M-91 -542q160 6 218.5 100t58.5 400v677q0 43 -6 155t-16 269q27 -4 55 -6t60 -2q33 0 61 2t54 6q-7 -65 -10.5 -146t-3.5 -254v-684q0 -236 -34 -326.5t-116 -157.5q-55 -45 -131.5 -69t-166.5 -24h-23v60zM150 1433q0 54 35 89t89 35q61 0 95 -33.5t34 -92.5 q0 -53 -32.5 -85t-87.5 -32q-61 0 -97 32.5t-36 86.5z" />
<glyph unicode="k" horiz-adv-x="1105" d="M157 1659q26 -4 53.5 -6.5t59.5 -2.5q31 0 57.5 2.5t50.5 6.5q-9 -138 -13 -297t-3 -351v-396h37q98 85 203.5 194.5t222.5 249.5q22 -5 49 -7.5t63 -2.5q34 0 61.5 2.5t51.5 7.5l-484 -413l321 -380q53 -64 106.5 -122t105.5 -111l-1 -33q-37 5 -72 8t-66 3 q-30 0 -63 -3t-70 -8q-57 84 -117 164t-124 157l-151 179q-15 17 -28.5 24t-30.5 7h-14v-166q0 -58 3.5 -146.5t12.5 -218.5q-29 5 -56.5 8t-53.5 3t-52.5 -3t-57.5 -8q6 189 9.5 462t3.5 631q0 209 -3.5 339.5t-10.5 226.5z" />
<glyph unicode="l" horiz-adv-x="552" d="M166 0q4 65 6.5 117.5t2.5 72.5q0 109 2 416.5t2 503.5v195q0 118 -3 201.5t-10 152.5q25 -4 52 -6.5t58 -2.5t58.5 2.5t52.5 6.5q-8 -78 -11.5 -173t-3.5 -239v-110q0 -494 3.5 -769.5t11.5 -367.5q-31 5 -58.5 8t-52.5 3q-24 0 -50.5 -3t-59.5 -8z" />
<glyph unicode="m" horiz-adv-x="1888" d="M149 0q8 86 11.5 227t3.5 410q0 178 -3.5 264t-11.5 158q23 -4 49.5 -6t56.5 -2q28 0 54 2t48 6q-2 -76 -3 -115t-2 -75q66 106 162 161.5t216 55.5q117 0 190 -51.5t100 -152.5q75 104 167 154t208 50q84 0 152 -29t114 -84q39 -45 55 -98.5t16 -177.5v-325 q0 -138 2 -217t8 -155q-36 6 -61.5 8.5t-50.5 2.5q-24 0 -50.5 -3t-55.5 -7q9 177 12 297t3 217q0 162 -4.5 215t-14.5 80q-29 70 -81 104.5t-130 34.5q-140 0 -205.5 -105.5t-65.5 -336.5q0 -117 2.5 -242t7.5 -265q-30 5 -55.5 8t-50.5 3q-24 0 -50.5 -3t-54.5 -8 q8 187 11 297.5t3 196.5v110q0 117 -11.5 171t-39.5 90q-30 41 -77 62.5t-104 21.5q-139 0 -204 -106t-65 -336q0 -121 2.5 -246t7.5 -261q-28 5 -55 8t-53 3q-24 0 -48.5 -3t-54.5 -8z" />
<glyph unicode="n" horiz-adv-x="1220" d="M149 0q8 86 11.5 227t3.5 410q0 178 -3.5 264t-11.5 158q23 -4 49.5 -6t56.5 -2q28 0 54 2t48 6q-2 -76 -3 -115t-2 -75q66 106 162 161.5t216 55.5q82 0 151.5 -29t116.5 -82q37 -44 52.5 -99.5t15.5 -178.5v-325q0 -98 2.5 -189t8.5 -183q-30 5 -58 8t-52 3 q-25 0 -51.5 -3t-59.5 -8q9 188 12.5 299.5t3.5 196.5v112q0 115 -12 168t-39 89q-34 41 -81.5 62.5t-106.5 21.5q-144 0 -210.5 -106t-66.5 -336q0 -158 3 -279.5t8 -226.5q-29 4 -56 7t-52 3q-26 0 -52.5 -3t-57.5 -8z" />
<glyph unicode="o" horiz-adv-x="1220" d="M66 528q0 254 148.5 406t395.5 152q253 0 399 -149.5t146 -408.5q0 -253 -148 -404t-397 -151q-254 0 -399 148t-145 407zM294 528q0 -222 84.5 -347.5t233.5 -125.5q148 0 231.5 125.5t83.5 347.5q0 227 -83 351.5t-232 124.5q-150 0 -234 -125t-84 -351z" />
<glyph unicode="p" horiz-adv-x="1230" d="M135 -604q6 115 9.5 244.5t3.5 372.5q0 380 -3.5 641t-9.5 405q24 -4 50 -6t56 -2q29 0 55 2t49 6q-6 -45 -9.5 -92.5t-6.5 -101.5q63 115 151 168t212 53q208 0 329 -151t121 -411q0 -251 -122.5 -401t-322.5 -150q-128 0 -214.5 46t-142.5 143v-324q0 -194 3.5 -283 t9.5 -159q-28 6 -55.5 8.5t-52.5 2.5t-51.5 -2.5t-58.5 -8.5zM327 526q0 -211 78.5 -328.5t218.5 -117.5q135 0 213.5 117.5t78.5 324.5q0 209 -77.5 324.5t-214.5 115.5q-139 0 -218 -115.5t-79 -320.5z" />
<glyph unicode="q" horiz-adv-x="1230" d="M89 524q0 260 120.5 411t328.5 151q124 0 211.5 -53t150.5 -168q-1 53 -5 100.5t-10 93.5q23 -4 49.5 -6t56.5 -2q29 0 54.5 2t49.5 6q-6 -123 -10 -383.5t-4 -662.5q0 -243 3.5 -372.5t9.5 -244.5q-28 6 -55 8.5t-53 2.5q-25 0 -51.5 -2.5t-58.5 -8.5q7 70 10 159t3 283 v324q-55 -97 -141.5 -143t-213.5 -46q-202 0 -323.5 150t-121.5 401zM314 522q0 -207 78.5 -324.5t213.5 -117.5q139 0 218 117.5t79 328.5q0 205 -79 320.5t-218 115.5q-138 0 -215 -115.5t-77 -324.5z" />
<glyph unicode="r" horiz-adv-x="787" d="M148 1059q27 -4 55.5 -6t62.5 -2q32 0 60.5 2t53.5 6q-8 -57 -12.5 -105.5t-4.5 -90.5v-27q65 126 149.5 187t197.5 61q20 0 30.5 -0.5t19.5 -2.5q-4 -38 -6 -61t-2 -43q0 -32 8 -102l1 -6q-53 13 -88.5 18.5t-60.5 5.5q-49 0 -94 -19.5t-77 -54.5q-45 -49 -63.5 -106 t-18.5 -164v-45v-186q1 -71 6 -151t13 -167q-41 6 -68 8.5t-51 2.5q-26 0 -52.5 -3t-57.5 -8q9 69 13 218t4 483q0 139 -4 214.5t-14 143.5z" />
<glyph unicode="s" horiz-adv-x="960" d="M110 40q10 39 22 85t36 139h20q25 -104 88 -153t173 -49q114 0 177.5 50t63.5 140q0 117 -218 184q-35 11 -54 18q-158 49 -223.5 116t-65.5 175q0 154 108.5 247.5t286.5 93.5q70 0 142 -17.5t146 -53.5q-4 -13 -27.5 -80.5t-37.5 -111.5h-21q-14 85 -70 130t-149 45 t-151 -50.5t-58 -128.5q0 -109 226 -179q26 -7 40 -11q173 -53 235 -118.5t62 -181.5q0 -165 -117.5 -260.5t-321.5 -95.5q-84 0 -162.5 16.5t-149.5 50.5z" />
<glyph unicode="t" horiz-adv-x="687" d="M33 949q3 11 4 22.5t1 32.5q0 24 -1 35t-4 19q44 -6 88.5 -10t93.5 -4v84q0 27 -2.5 70t-7.5 96q60 17 116 42.5t108 58.5q-11 -80 -16.5 -142.5t-5.5 -106.5v-102q71 0 130.5 4t110.5 11q-2 -21 -3 -33t-1 -22q0 -16 3 -48q1 -6 1 -7q-50 7 -101 10t-102 3h-40l-11 -542 v-53q0 -173 39.5 -233.5t138.5 -60.5q17 0 39.5 2.5t60.5 8.5l1 -75q-52 -18 -101.5 -27t-98.5 -9q-141 0 -207.5 75.5t-66.5 236.5q0 45 4 161.5t5 184.5l7 331h-31q-37 0 -75 -3t-76 -10z" />
<glyph unicode="u" horiz-adv-x="1220" d="M145 1059q26 -4 53.5 -6t58.5 -2t58.5 2t52.5 6q-10 -201 -15 -374.5t-5 -283.5q0 -150 57.5 -220.5t180.5 -70.5q146 0 213.5 105.5t67.5 337.5q0 117 -2.5 242.5t-8.5 263.5q25 -4 51.5 -6t56.5 -2q31 0 58 2t50 6q-7 -86 -11 -227t-4 -410q0 -179 4 -265t11 -157 q-29 5 -55 8t-48 3q-25 0 -51 -3t-55 -8q1 27 4 91.5t5 98.5q-71 -112 -159 -164.5t-204 -52.5q-183 0 -269 97t-86 304v314q0 137 -2.5 217t-6.5 154z" />
<glyph unicode="v" horiz-adv-x="1059" d="M0 1059q32 -4 67 -6t72 -2q39 0 72 2t63 6q37 -123 70 -223.5t65 -183.5l173 -435l184 490q29 80 57 168t55 184q23 -4 46 -6t49 -2q27 0 51 2t44 6q-119 -218 -231.5 -474.5t-234.5 -584.5q-20 6 -41 9.5t-42 3.5q-19 0 -39 -3.5t-39 -9.5q-38 141 -150.5 412.5 t-290.5 646.5z" />
<glyph unicode="w" horiz-adv-x="1694" d="M6 1059q31 -4 63.5 -6t67.5 -2q38 0 70.5 2t60.5 6q14 -86 43.5 -190.5t75.5 -231.5l147 -407q79 217 147.5 423.5t126.5 405.5q20 -4 42.5 -6t46.5 -2q26 0 48.5 2t40.5 6q22 -105 96 -330l15 -45l153 -460l164 447q27 75 55.5 169t60.5 219q20 -4 41 -6t46 -2t47 2 t41 6q-68 -130 -180.5 -403.5t-256.5 -654.5q-23 4 -42 7t-36 3q-18 0 -35.5 -2.5t-41.5 -8.5q-35 124 -65 219.5t-57 169.5l-151 413q-73 -190 -142 -390.5t-134 -411.5q-22 5 -42.5 8t-39.5 3t-39 -3t-44 -8q-86 262 -184 527.5t-209 531.5z" />
<glyph unicode="x" horiz-adv-x="1023" d="M5 1q85 98 189.5 225t234.5 289l-170 230q-44 60 -99.5 131t-148.5 183q32 -4 68.5 -6t74.5 -2q40 0 72.5 2t62.5 6q66 -109 129.5 -205.5t125.5 -180.5l117 163q66 91 96.5 136.5t54.5 86.5q19 -4 41.5 -6t49.5 -2q26 0 50 2t47 6q-117 -131 -216.5 -248t-184.5 -218 q97 -150 203.5 -298t225.5 -295q-38 5 -72 8t-65 3t-64 -3t-72 -8q-57 97 -125.5 205t-147.5 224l-121 -170q-52 -73 -90 -135t-70 -124q-25 5 -49.5 8t-47.5 3q-21 0 -45 -3t-54 -7z" />
<glyph unicode="y" horiz-adv-x="1074" d="M9 1059q30 -4 62.5 -6t67.5 -2q38 0 70.5 2t60.5 6q24 -88 54.5 -177.5t66.5 -180.5l198 -493l181 463q23 56 54 151.5t73 236.5q22 -4 44.5 -6t46.5 -2q26 0 48 2t41 6q-257 -530 -439.5 -956t-272.5 -707q-25 6 -46 8.5t-43 2.5q-20 0 -42 -2.5t-48 -8.5l287 566 q-99 268 -215.5 543t-248.5 554z" />
<glyph unicode="z" horiz-adv-x="1050" d="M27 0v49q186 237 348 461t302 439h-239q-81 0 -164.5 -8.5t-170.5 -24.5q2 19 3.5 37.5t1.5 37.5t-1.5 35.5t-3.5 32.5q82 -6 181.5 -9t243.5 -3q173 0 276.5 3t177.5 9v-46q-171 -209 -336 -434t-327 -469h240q74 0 177.5 8t227.5 23q-5 -29 -6.5 -43.5t-1.5 -26.5 q0 -23 7 -66q1 -3 1 -5q-184 6 -333 9.5t-264 3.5q-91 0 -175.5 -3.5t-164.5 -9.5z" />
<glyph unicode="{" horiz-adv-x="1105" d="M188 515v118q10 0 25.5 -1t23.5 -1q149 0 210.5 68t61.5 234v261q0 241 75.5 321t287.5 80h50v-115h-40q-141 0 -190.5 -53.5t-49.5 -221.5v-261q0 -182 -47 -259.5t-166 -112.5q119 -33 166 -111t47 -260v-260q0 -168 48.5 -221.5t183.5 -53.5q7 0 23.5 1t24.5 1v-115 h-50q-213 0 -288 78t-75 320v264q0 166 -61.5 234t-210.5 68q-8 0 -23.5 -1t-25.5 -1z" />
<glyph unicode="|" horiz-adv-x="1105" d="M496 -522v2212h116v-2212h-116z" />
<glyph unicode="}" horiz-adv-x="1105" d="M186 -332h42q140 0 189.5 53t49.5 220v260q0 185 46 261.5t166 109.5q-120 35 -166 111.5t-46 260.5v261q0 170 -49 223.5t-184 53.5q-7 0 -23.5 -1t-24.5 -1v115h51q211 0 286.5 -80t75.5 -321v-261q0 -166 62 -234t211 -68q7 0 23.5 1t24.5 1v-118q-8 0 -24.5 1 t-23.5 1q-149 0 -211 -68t-62 -234v-264q0 -240 -75 -319t-287 -79h-51v115z" />
<glyph unicode="~" horiz-adv-x="1842" d="M192 509v122q115 79 218.5 117.5t199.5 38.5q113 0 294 -66q12 -4 19 -7q10 -3 34 -12q180 -65 277 -65q92 0 191.5 41t226.5 132v-122q-110 -78 -213.5 -116t-204.5 -38q-106 0 -280 61q-22 8 -32 11l-17 6q-190 69 -295 69q-89 0 -188.5 -41t-229.5 -131z" />
<glyph unicode="&#xa0;" />
<glyph unicode="&#xa1;" horiz-adv-x="727" d="M224 1395q0 60 40.5 101t98.5 41t99.5 -41t41.5 -101q0 -58 -41 -98.5t-100 -40.5q-58 0 -98.5 40.5t-40.5 98.5zM234 122q0 30 3 73.5t8 91.5l80 815q2 -1 5 -3q21 -6 33 -6q7 0 16.5 2t21.5 7l81 -814q5 -51 8.5 -95.5t3.5 -68.5q0 -76 -33 -114.5t-98 -38.5t-97 37 t-32 114z" />
<glyph unicode="&#xa2;" d="M124 536q0 245 127.5 394t360.5 176q0 60 -1.5 108.5t-4.5 85.5h104q-4 -30 -5.5 -67t-1.5 -121q106 0 194.5 -21t164.5 -65q-15 -42 -26.5 -93.5t-20.5 -109.5h-24q-27 104 -95 154.5t-179 50.5h-14v-932q9 -2 18.5 -2.5t28.5 -0.5q86 0 155.5 32.5t122.5 98.5l21 -5 l-21 -126q-59 -44 -139.5 -67t-184.5 -26l-1 -49q0 -37 1.5 -82t5.5 -95h-103q2 38 3.5 80t1.5 89v57q-230 28 -359 169.5t-129 366.5zM352 562q0 -179 66.5 -293.5t193.5 -156.5v903q-128 -41 -194 -156t-66 -297z" />
<glyph unicode="&#xa3;" d="M106 159l83 7q82 6 134.5 88.5t52.5 214.5q0 41 -2 81.5t-7 80.5l-8 88h-93q-35 0 -70 -3t-72 -11q2 12 3.5 24.5t1.5 36.5q0 20 -1.5 31t-3.5 18q30 -8 62.5 -12.5t79.5 -4.5h88q-9 78 -12.5 119.5t-3.5 70.5q0 217 146.5 350t382.5 133q77 0 152 -17.5t151 -51.5 q-22 -44 -45 -99.5t-46 -116.5h-15q-25 107 -82.5 157t-152.5 50q-135 0 -206.5 -93t-71.5 -268q0 -24 1.5 -68.5t4.5 -96.5l5 -69h86q51 0 103.5 5t101.5 12q-3 -13 -4.5 -26.5t-1.5 -27.5q0 -13 1.5 -26.5t4.5 -28.5q-42 7 -96 10t-136 3h-57q0 -9 1 -26.5t1 -27.5 q0 -134 -40.5 -240t-124.5 -193l-56 -57h157q185 0 354 10t323 32q-5 -25 -7 -51t-2 -58q0 -29 2 -55.5t7 -52.5q-132 6 -275 9.5t-296 3.5q-209 0 -312.5 -3.5t-188.5 -9.5q2 19 3.5 39t1.5 41q0 20 -1.5 40t-4.5 39z" />
<glyph unicode="&#xa4;" d="M17 536l32 106q29 -3 61.5 -4t92.5 -1q0 17 -2 48t-2 39q0 21 3 78q1 13 1 21q-31 0 -69.5 -1.5t-115.5 -7.5l32 106q59 -2 94 -3t69 -1q38 270 187.5 413.5t393.5 143.5q98 0 199 -29t214 -91q-23 -48 -37.5 -100t-21.5 -114h-25q-58 120 -140 181.5t-183 61.5 q-157 0 -250.5 -120t-114.5 -348h266q46 0 134 1.5t221 4.5l-30 -106q-139 4 -271.5 5.5t-254.5 1.5h-71q0 -19 -2.5 -55.5t-2.5 -46.5q0 -23 1 -42.5t3 -41.5h277q23 0 91 1.5t179 5.5l-31 -106q-111 3 -221.5 4.5t-220.5 1.5h-69q17 -239 108.5 -362t252.5 -123 q110 0 195.5 56.5t173.5 189.5l25 -11q-10 -41 -15.5 -87t-7.5 -97q-113 -79 -200 -110t-184 -31q-232 0 -382.5 152t-185.5 425q-51 0 -170 -7q-17 -1 -26 -1z" />
<glyph unicode="&#xa5;" d="M55 1440q28 -5 59.5 -7t66.5 -2q36 0 67.5 2t61.5 7q26 -65 62.5 -138.5t91.5 -166.5l178 -308q96 157 175.5 310.5t142.5 302.5q20 -5 41 -7t46 -2q23 0 44.5 2t41.5 7q-52 -77 -106 -163t-132 -215l-158 -270q85 0 177.5 2t210.5 6v-101q-77 3 -282 5q-90 1 -140 1 v-169q32 -1 69 -1.5t106 -0.5q76 0 136.5 2t110.5 6v-101q-135 4 -233.5 6t-188.5 2v-82q0 -88 2.5 -180.5t8.5 -186.5q-33 5 -62 8t-55 3q-27 0 -53.5 -3t-58.5 -8q10 78 14.5 169t4.5 207v73q-91 0 -189.5 -2t-232.5 -6v100q68 -2 143.5 -3.5t161.5 -1.5h117v169h-117 q-85 0 -160.5 -1.5t-144.5 -4.5v101q50 -2 176 -4t195 -4q-93 166 -192 327t-206 321z" />
<glyph unicode="&#xa6;" horiz-adv-x="1105" d="M496 -378v819h116v-819h-116zM496 728v819h116v-819h-116z" />
<glyph unicode="&#xa7;" horiz-adv-x="1092" d="M104 688q0 86 44 162.5t128 135.5q-39 50 -59 103.5t-20 109.5q0 156 110.5 252t294.5 96q88 0 171 -24.5t162 -74.5q-29 -47 -51.5 -95.5t-38.5 -98.5h-22q-25 96 -95 151t-169 55q-94 0 -155.5 -57t-61.5 -145q0 -137 347 -285q50 -22 77 -33q126 -55 182 -124t56 -166 q0 -87 -44 -166.5t-126 -135.5q49 -49 74 -109t25 -133q0 -176 -123.5 -285.5t-324.5 -109.5q-103 0 -194.5 24.5t-166.5 72.5q21 57 36 119.5t26 131.5h19q34 -122 115.5 -186.5t201.5 -64.5q111 0 180.5 64.5t69.5 169.5q0 149 -322 290l-34 16q-188 82 -250 155t-62 185z M224 774q0 -67 55.5 -124t167.5 -106l174 -75q64 -27 98 -46t56 -37q50 35 75.5 77t25.5 88q0 69 -45.5 117t-209.5 121l-170 78q-44 20 -76 41t-54 43q-52 -51 -74.5 -93t-22.5 -84z" />
<glyph unicode="&#xa8;" horiz-adv-x="1105" d="M234 1382q0 49 37.5 85.5t87.5 36.5q49 0 83.5 -36t34.5 -86q0 -54 -33.5 -89t-84.5 -35q-53 0 -89 35.5t-36 88.5zM629 1382q0 49 36 85.5t85 36.5t85.5 -36t36.5 -86q0 -54 -35 -89t-87 -35t-86.5 35.5t-34.5 88.5z" />
<glyph unicode="&#xa9;" horiz-adv-x="1842" d="M131 781q0 156 61 301.5t175 262.5q109 111 250.5 169t302.5 58t306.5 -59.5t257.5 -172.5q110 -110 169 -254t59 -305q0 -162 -58 -303.5t-170 -251.5q-116 -115 -261.5 -176t-302.5 -61q-156 0 -300 60t-257 175q-114 112 -173 255.5t-59 301.5zM217 781 q0 -139 53.5 -266.5t153.5 -229.5q102 -100 229.5 -153.5t266.5 -53.5q141 0 271 54t234 155q98 96 149 222.5t51 271.5q0 142 -52 270.5t-151 227.5q-101 101 -229.5 154t-272.5 53q-142 0 -268.5 -52t-224.5 -151q-102 -104 -156 -233t-54 -269zM507 785q0 219 116 352 t306 133q146 0 244.5 -77.5t111.5 -204.5h-126q-20 87 -81.5 134.5t-153.5 47.5q-131 0 -204.5 -103t-73.5 -288q0 -180 74.5 -281.5t203.5 -101.5q97 0 164 54.5t84 148.5h124q-12 -135 -117 -221t-261 -86q-191 0 -301 131.5t-110 361.5z" />
<glyph unicode="&#xaa;" horiz-adv-x="787" d="M53 954q0 97 53 145.5t217 84.5l152 30q36 7 50.5 25t14.5 55q0 81 -50 128t-138 47q-70 0 -122 -32.5t-78 -91.5l-34 13l8 84q52 45 119 68t149 23q150 0 215.5 -56.5t65.5 -189.5v-367q0 -57 15 -72.5t57 -15.5h7q20 2 40 2v-34q-46 -18 -82.5 -27t-67.5 -9 q-50 0 -76 24t-32 77q-52 -57 -116.5 -86t-136.5 -29q-103 0 -166.5 56.5t-63.5 147.5zM213 977q0 -62 36 -99.5t99 -37.5q84 0 136 49.5t52 130.5v141l-101 -17q-115 -21 -168.5 -61t-53.5 -106z" />
<glyph unicode="&#xab;" horiz-adv-x="981" d="M80 531l355 522l65 -62l-251 -460l251 -463l-65 -59zM469 531l356 522l64 -62l-250 -460l250 -463l-64 -59z" />
<glyph unicode="&#xac;" horiz-adv-x="1842" d="M274 819v108h1294v-543h-104v435h-1190z" />
<glyph unicode="&#xad;" horiz-adv-x="727" d="M97 443v190h534v-190h-534z" />
<glyph unicode="&#xae;" horiz-adv-x="1842" d="M131 781q0 155 61 301.5t175 262.5q109 111 250.5 169t302.5 58q164 0 308.5 -59t255.5 -173q110 -110 169 -254t59 -305q0 -162 -58 -303.5t-170 -251.5q-116 -115 -261.5 -176t-302.5 -61q-159 0 -302 60t-255 175q-114 112 -173 255.5t-59 301.5zM217 781 q0 -139 53.5 -266.5t153.5 -229.5q102 -100 229.5 -153.5t266.5 -53.5q141 0 271 54t234 155q98 96 149 221t51 271q0 144 -51.5 272.5t-148.5 227.5q-102 100 -231 153.5t-274 53.5q-140 0 -266 -52t-225 -151q-103 -105 -157.5 -234t-54.5 -268zM610 338v912h334 q192 0 284.5 -62t92.5 -190q0 -96 -58.5 -161t-156.5 -79l203 -420h-157l-192 401h-213v-401h-137zM747 829h171q145 0 203 36.5t58 122.5q0 90 -61.5 129.5t-199.5 39.5h-171v-328z" />
<glyph unicode="&#xaf;" horiz-adv-x="1105" d="M261 1307v151h584v-151h-584z" />
<glyph unicode="&#xb0;" horiz-adv-x="727" d="M64 1268q0 125 88 212.5t213 87.5q124 0 211 -88t87 -212t-88 -212.5t-212 -88.5q-126 0 -212.5 87.5t-86.5 213.5zM139 1268q0 -94 66 -159t160 -65t159 65t65 159q0 93 -65.5 159t-158.5 66t-159.5 -66t-66.5 -159z" />
<glyph unicode="&#xb1;" horiz-adv-x="1842" d="M274 55v107h1294v-107h-1294zM274 781v106h595v376h106v-376h593v-106h-593v-376h-106v376h-595z" />
<glyph unicode="&#xb2;" horiz-adv-x="800" d="M25 575v37q242 201 347 340t105 253q0 93 -44.5 145t-124.5 52q-77 0 -123.5 -45t-49.5 -123l-9 -4q-21 40 -39.5 70.5t-35.5 52.5q59 53 131.5 81t149.5 28q137 0 218 -64t81 -172q0 -79 -54.5 -159t-240.5 -242l-155 -135h292q44 0 91.5 4.5t100.5 12.5 q-3 -16 -4.5 -32.5t-1.5 -32.5q0 -17 1.5 -33.5t4.5 -32.5q-61 4 -155.5 6t-237.5 2q-112 0 -160.5 -2t-86.5 -7z" />
<glyph unicode="&#xb3;" horiz-adv-x="800" d="M80 606q10 38 16.5 76t9.5 76h16q26 -78 75 -115t128 -37q99 0 157 57t58 156q0 93 -53.5 141.5t-154.5 48.5q-13 0 -32 -3t-43 -8q1 6 1.5 13t0.5 24q0 16 -0.5 24.5t-1.5 15.5q13 -3 27 -4t43 -1q84 0 132 46t48 127q0 82 -42.5 124t-124.5 42q-64 0 -108 -38t-57 -103 l-10 -4q-7 18 -19 39.5t-40 65.5q58 46 123.5 68.5t142.5 22.5q123 0 197.5 -54.5t74.5 -145.5q0 -77 -59.5 -133t-175.5 -85q137 -6 209 -60.5t72 -152.5q0 -123 -99.5 -198.5t-263.5 -75.5q-72 0 -133 12.5t-114 38.5z" />
<glyph unicode="&#xb4;" horiz-adv-x="1105" d="M363 1205l298 325q29 33 59.5 50t56.5 17q33 0 57.5 -26t24.5 -60q0 -28 -19 -51.5t-72 -57.5l-325 -197h-80z" />
<glyph unicode="&#xb5;" horiz-adv-x="1198" d="M-120 -460l341 1610h151l-135 -639q-9 -42 -13.5 -79t-4.5 -71q0 -127 63 -195.5t180 -68.5q135 0 232.5 116t143.5 336l131 601h150l-177 -831q-13 -60 -18.5 -92.5t-5.5 -51.5q0 -36 18.5 -53.5t54.5 -17.5q8 0 18.5 0.5t20.5 1.5l-21 -119q-21 -5 -44.5 -8.5 t-48.5 -3.5q-76 0 -112 39t-36 119v15q-45 -83 -129.5 -129t-193.5 -46q-99 0 -173.5 43t-117.5 125l-123 -601h-151z" />
<glyph unicode="&#xb6;" horiz-adv-x="1105" d="M91 1220q0 170 116 273.5t308 103.5h500v-75h-137v-1522h-89v1522h-200v-1522h-91v845q-188 8 -297.5 110t-109.5 265z" />
<glyph unicode="&#xb7;" horiz-adv-x="605" d="M162 732q0 59 41 100.5t100 41.5t100.5 -41t41.5 -101q0 -58 -41.5 -99.5t-100.5 -41.5t-100 41t-41 100z" />
<glyph unicode="&#xb8;" horiz-adv-x="1105" d="M257 -422l30 80q59 -28 120 -42.5t121 -14.5q72 0 109.5 25t37.5 73q0 45 -32.5 70.5t-91.5 25.5q-14 0 -29 -1.5t-35 -5.5v212h68v-124q12 2 25.5 3t40.5 1q95 0 148.5 -47t53.5 -131q0 -92 -64.5 -142.5t-180.5 -50.5q-80 0 -160.5 17t-160.5 52z" />
<glyph unicode="&#xb9;" horiz-adv-x="800" d="M76 1298q102 30 206 76t207 108l15 -2q-8 -157 -12.5 -323.5t-4.5 -340.5q0 -92 1 -143.5t3 -97.5q-18 5 -38.5 7t-43.5 2q-21 0 -40 -2t-37 -7q13 108 20 263t7 346q0 34 -2 74.5t-6 88.5l-72 -38q-37 -17 -71 -37t-67 -42q-11 21 -28.5 38.5t-36.5 29.5z" />
<glyph unicode="&#xba;" horiz-adv-x="915" d="M51 1139q0 179 111 285t296 106q190 0 299.5 -104.5t109.5 -286.5q0 -177 -111 -282t-298 -105q-191 0 -299 102.5t-108 284.5zM221 1139q0 -155 63.5 -242t175.5 -87q110 0 172 86.5t62 242.5q0 160 -61.5 247t-172.5 87q-113 0 -176 -88t-63 -246z" />
<glyph unicode="&#xbb;" horiz-adv-x="981" d="M68 59l253 463l-253 462l65 60l358 -522l-358 -522zM458 59l252 463l-252 462l64 60l356 -522l-356 -522z" />
<glyph unicode="&#xbc;" horiz-adv-x="1897" d="M71 1307q101 29 201 72.5t195 100.5l15 -5q-8 -130 -11.5 -283t-3.5 -336q0 -86 0.5 -133t1.5 -90q-18 4 -37 6.5t-41 2.5q-21 0 -38.5 -2.5t-33.5 -6.5q10 97 15.5 242t5.5 326q0 57 -1 89.5t-3 60.5l-70 -32q-55 -28 -82 -43.5t-49 -30.5q-12 19 -28 34.5t-36 27.5z M396 -205l993 1849h113l-993 -1849h-113zM1174 266q168 205 272 334t176 221q9 -1 21 -1.5t33 -0.5q23 0 33.5 0.5t19.5 1.5q-5 -49 -8 -94.5t-3 -84.5v-330h32q24 0 46.5 1.5t42.5 5.5q-2 -13 -3.5 -25t-1.5 -24q0 -13 1.5 -24t3.5 -20q-36 4 -109 7q-7 1 -12 1v-108 q1 -7 2 -26q4 -58 9 -100q-26 3 -42.5 4.5t-29.5 1.5q-20 0 -37 -1.5t-36 -4.5q6 35 9.5 71t3.5 73v85q-82 3 -126.5 4t-83.5 1q-38 0 -83.5 -1t-128.5 -3zM1283 312h314v382q-79 -88 -156 -182t-158 -200z" />
<glyph unicode="&#xbd;" horiz-adv-x="1897" d="M71 1307q101 29 201 72.5t195 100.5l15 -5q-8 -130 -11.5 -283t-3.5 -336q0 -86 0.5 -133t1.5 -90q-18 4 -37 6.5t-41 2.5q-21 0 -38.5 -2.5t-33.5 -6.5q10 97 15.5 242t5.5 326q0 57 -1 89.5t-3 60.5l-70 -32q-55 -28 -82 -43.5t-49 -30.5q-12 19 -28 34.5t-36 27.5z M396 -205l993 1849h113l-993 -1849h-113zM1159 0v36q232 188 333 317.5t101 235.5q0 85 -43.5 134t-120.5 49q-75 0 -118.5 -42t-45.5 -115l-11 -3q-17 33 -35 62t-35 54q56 49 125.5 74t144.5 25q129 0 206 -60t77 -161q0 -72 -53 -148t-226 -224l-151 -128h278 q44 0 89.5 4t94.5 13q-2 -11 -3 -23.5t-1 -37.5t1 -37t3 -25q-59 4 -149 6.5t-227 2.5q-75 0 -132 -2.5t-102 -6.5z" />
<glyph unicode="&#xbe;" horiz-adv-x="1899" d="M78 661q9 45 22 135l2 9h12q27 -75 74 -109.5t122 -34.5q95 0 150 53t55 145q0 86 -50.5 132.5t-145.5 46.5q-20 0 -64 -8q-8 -1 -12 -2q2 6 3 12.5t1 21.5t-1 23t-2 14q12 -2 26 -3t42 -1q81 0 127 42.5t46 118.5q0 77 -40.5 116.5t-119.5 39.5q-61 0 -103.5 -36 t-53.5 -97l-11 -5q-7 18 -18.5 38t-39.5 62q54 42 118 63t139 21q117 0 188 -51t71 -133q0 -75 -56.5 -127t-167.5 -79q132 -6 199 -57t67 -142q0 -114 -94 -184t-251 -70q-70 0 -128 11.5t-106 34.5zM396 -205l993 1849h113l-993 -1849h-113zM1174 266q168 205 272 334 t176 221q9 -1 21 -1.5t33 -0.5q23 0 33.5 0.5t19.5 1.5q-5 -49 -8 -94.5t-3 -84.5v-330h32q24 0 46.5 1.5t42.5 5.5q-2 -13 -3.5 -25t-1.5 -24q0 -13 1.5 -24t3.5 -20q-36 4 -109 7q-7 1 -12 1v-108q1 -7 2 -26q4 -58 9 -100q-26 3 -42.5 4.5t-29.5 1.5q-20 0 -37 -1.5 t-36 -4.5q6 35 9.5 71t3.5 73v85q-82 3 -126.5 4t-83.5 1q-38 0 -83.5 -1t-128.5 -3zM1283 312h314v382q-79 -88 -156 -182t-158 -200z" />
<glyph unicode="&#xbf;" horiz-adv-x="975" d="M152 294q0 89 37 159t159 178l87 76q56 50 85 101t29 101q0 59 -31.5 89t-90.5 30q-19 0 -37 -2t-36 -5q5 15 10 34t11 38q28 5 49.5 8t37.5 3q122 0 193 -66t71 -179q0 -74 -36.5 -140t-147.5 -175l-93 -93q-69 -69 -90 -110t-21 -89q0 -86 56.5 -140.5t145.5 -54.5 q79 0 129 41.5t65 120.5h16q10 -52 20 -92.5t19 -71.5q-66 -42 -137.5 -63t-151.5 -21q-158 0 -253 88.5t-95 234.5zM359 1398q0 58 41 98.5t100 40.5t100.5 -40t41.5 -99t-41.5 -100.5t-100.5 -41.5q-58 0 -99.5 41.5t-41.5 100.5z" />
<glyph unicode="&#xc0;" horiz-adv-x="1335" d="M-28 0q158 353 319.5 732.5t337.5 806.5q15 -3 28.5 -4.5t23.5 -1.5q13 0 26 1.5t25 4.5q148 -389 304.5 -773.5t321.5 -764.5q-43 4 -78.5 7t-67.5 3q-33 0 -67 -3t-70 -7q-48 159 -96.5 301t-100.5 270q-60 5 -123 6.5t-126 1.5q-66 0 -136 -1.5t-144 -6.5l-85 -236 q-29 -78 -53.5 -162t-47.5 -174q-25 5 -48.5 8t-46.5 3q-22 0 -45 -3t-51 -8zM361 1965q0 34 24.5 60t57.5 26q26 0 56.5 -17t59.5 -50l298 -325h-80l-325 197q-53 34 -72 57.5t-19 51.5zM399 688q59 -3 115.5 -5t111.5 -2q53 0 104.5 2t98.5 5l-212 549z" />
<glyph unicode="&#xc1;" horiz-adv-x="1335" d="M-28 0q158 353 319.5 732.5t337.5 806.5q15 -3 28.5 -4.5t23.5 -1.5q13 0 26 1.5t25 4.5q148 -389 304.5 -773.5t321.5 -764.5q-43 4 -78.5 7t-67.5 3q-33 0 -67 -3t-70 -7q-48 159 -96.5 301t-100.5 270q-60 5 -123 6.5t-126 1.5q-66 0 -136 -1.5t-144 -6.5l-85 -236 q-29 -78 -53.5 -162t-47.5 -174q-25 5 -48.5 8t-46.5 3q-22 0 -45 -3t-51 -8zM399 688q59 -3 115.5 -5t111.5 -2q53 0 104.5 2t98.5 5l-212 549zM477 1659l298 325q29 33 59.5 50t56.5 17q33 0 57.5 -26t24.5 -60q0 -28 -19 -51.5t-72 -57.5l-325 -197h-80z" />
<glyph unicode="&#xc2;" horiz-adv-x="1335" d="M-28 0q158 353 319.5 732.5t337.5 806.5q15 -3 28.5 -4.5t23.5 -1.5q13 0 26 1.5t25 4.5q148 -389 304.5 -773.5t321.5 -764.5q-43 4 -78.5 7t-67.5 3q-33 0 -67 -3t-70 -7q-48 159 -96.5 301t-100.5 270q-60 5 -123 6.5t-126 1.5q-66 0 -136 -1.5t-144 -6.5l-85 -236 q-29 -78 -53.5 -162t-47.5 -174q-25 5 -48.5 8t-46.5 3q-22 0 -45 -3t-51 -8zM348 1659l246 376h144l248 -376h-80l-239 211l-239 -211h-80zM399 688q59 -3 115.5 -5t111.5 -2q53 0 104.5 2t98.5 5l-212 549z" />
<glyph unicode="&#xc3;" horiz-adv-x="1335" d="M-28 0q158 353 319.5 732.5t337.5 806.5q15 -3 28.5 -4.5t23.5 -1.5q13 0 26 1.5t25 4.5q148 -389 304.5 -773.5t321.5 -764.5q-43 4 -78.5 7t-67.5 3q-33 0 -67 -3t-70 -7q-48 159 -96.5 301t-100.5 270q-60 5 -123 6.5t-126 1.5q-66 0 -136 -1.5t-144 -6.5l-85 -236 q-29 -78 -53.5 -162t-47.5 -174q-25 5 -48.5 8t-46.5 3q-22 0 -45 -3t-51 -8zM361 1706q26 126 77.5 187t133.5 61q14 0 32.5 -3t38.5 -9l117 -28q13 -3 26.5 -4.5t28.5 -1.5q37 0 60.5 23t34.5 72h63q-24 -122 -77.5 -185.5t-133.5 -63.5q-12 0 -25.5 2t-29.5 5l-116 29 q-3 1 -8 2q-39 9 -49 9q-45 0 -70 -21t-40 -74h-63zM399 688q59 -3 115.5 -5t111.5 -2q53 0 104.5 2t98.5 5l-212 549z" />
<glyph unicode="&#xc4;" horiz-adv-x="1335" d="M-28 0q158 353 319.5 732.5t337.5 806.5q15 -3 28.5 -4.5t23.5 -1.5q13 0 26 1.5t25 4.5q148 -389 304.5 -773.5t321.5 -764.5q-43 4 -78.5 7t-67.5 3q-33 0 -67 -3t-70 -7q-48 159 -96.5 301t-100.5 270q-60 5 -123 6.5t-126 1.5q-66 0 -136 -1.5t-144 -6.5l-85 -236 q-29 -78 -53.5 -162t-47.5 -174q-25 5 -48.5 8t-46.5 3q-22 0 -45 -3t-51 -8zM348 1836q0 49 37.5 85.5t87.5 36.5q49 0 83.5 -36t34.5 -86q0 -54 -33.5 -89t-84.5 -35q-53 0 -89 35.5t-36 88.5zM399 688q59 -3 115.5 -5t111.5 -2q53 0 104.5 2t98.5 5l-212 549zM743 1836 q0 49 36 85.5t85 36.5t85.5 -36t36.5 -86q0 -54 -35 -89t-87 -35t-86.5 35.5t-34.5 88.5z" />
<glyph unicode="&#xc5;" horiz-adv-x="1335" d="M-28 0q158 353 319.5 732.5t337.5 806.5q15 -3 28.5 -4.5t23.5 -1.5q13 0 26 1.5t25 4.5q148 -389 304.5 -773.5t321.5 -764.5q-43 4 -78.5 7t-67.5 3q-33 0 -67 -3t-70 -7q-48 159 -96.5 301t-100.5 270q-60 5 -123 6.5t-126 1.5q-66 0 -136 -1.5t-144 -6.5l-85 -236 q-29 -78 -53.5 -162t-47.5 -174q-25 5 -48.5 8t-46.5 3q-22 0 -45 -3t-51 -8zM399 688q59 -3 115.5 -5t111.5 -2q53 0 104.5 2t98.5 5l-212 549zM414 1853q0 119 82 198t203 79q110 0 182.5 -72t72.5 -182q0 -118 -80.5 -197.5t-198.5 -79.5q-114 0 -187.5 71.5t-73.5 182.5 zM522 1845q0 -84 42 -130.5t115 -46.5q77 0 120 55.5t43 154.5q0 87 -41 136.5t-113 49.5q-77 0 -121.5 -59t-44.5 -160z" />
<glyph unicode="&#xc6;" horiz-adv-x="1899" d="M-40 2q352 524 571.5 866t400.5 643q98 -3 200 -5t208 -2q107 0 218 2t222 5q-2 -18 -4 -36.5t-3 -39.5q1 -18 3 -38t4 -41q-92 19 -183 28t-181 9h-205q-5 -82 -6.5 -157t-1.5 -152v-228h232q71 0 147.5 5t160.5 15q-2 -22 -3 -37t-1 -29q0 -24 3 -73q1 -5 1 -7 q-124 10 -197 13.5t-117 3.5h-226v-234q0 -62 1.5 -160t5.5 -235h212q90 0 181.5 9t183.5 27q-2 -14 -3 -30t-1 -48q0 -33 1 -48.5t2 -27.5q-91 3 -189 4.5t-202 1.5q-102 0 -208.5 -1.5t-216.5 -4.5q11 78 16 164.5t5 213.5l-1 192q-30 1 -66 1.5t-105 0.5 q-85 0 -170.5 -2.5t-181.5 -7.5l-129 -230q-29 -53 -67.5 -136.5t-84.5 -195.5q-33 5 -64 8t-60 3t-54 -2.5t-48 -6.5zM538 677q46 -5 102 -7.5t128 -2.5h223v728z" />
<glyph unicode="&#xc7;" horiz-adv-x="1479" d="M84 756q0 362 217.5 570.5t595.5 208.5q132 0 263 -29.5t269 -89.5q-23 -45 -37.5 -100t-23.5 -122h-23q-74 124 -184.5 183.5t-263.5 59.5q-262 0 -410.5 -178t-148.5 -493t155 -500.5t414 -185.5q134 0 252.5 55.5t225.5 170.5l24 -12q-9 -43 -14.5 -88.5t-7.5 -94.5 q-129 -72 -258.5 -107t-267.5 -35q-363 0 -570 210.5t-207 576.5zM551 -422l30 80q59 -28 120 -42.5t121 -14.5q72 0 109.5 25t37.5 73q0 45 -32.5 70.5t-91.5 25.5q-14 0 -29 -1.5t-35 -5.5v212h68v-124q12 2 25.5 3t40.5 1q95 0 148.5 -47t53.5 -131q0 -92 -64.5 -142.5 t-180.5 -50.5q-80 0 -160.5 17t-160.5 52z" />
<glyph unicode="&#xc8;" horiz-adv-x="1110" d="M177 0q14 162 21 349.5t7 404.5q0 243 -6.5 425.5t-21.5 330.5q109 -2 214 -4t206 -2q104 0 201.5 2t189.5 5q-3 -20 -4.5 -38t-1.5 -38q0 -17 1.5 -37t4.5 -42q-79 19 -169 28t-195 9h-204v-309v-228h224q70 0 146 5t161 15q-3 -23 -3.5 -37.5t-0.5 -28.5q0 -22 3 -70 v-12q-108 10 -185.5 14.5t-127.5 4.5h-217v-234q0 -76 2 -177.5t7 -217.5h202q89 0 180.5 9t184.5 27q-3 -14 -4 -30t-1 -48q0 -33 1.5 -48.5t2.5 -27.5q-92 3 -190 4.5t-201 1.5t-209.5 -1.5t-217.5 -4.5zM278 1965q0 34 24.5 60t57.5 26q26 0 56.5 -17t59.5 -50l298 -325 h-80l-325 197q-53 34 -72 57.5t-19 51.5z" />
<glyph unicode="&#xc9;" horiz-adv-x="1110" d="M177 0q14 162 21 349.5t7 404.5q0 243 -6.5 425.5t-21.5 330.5q109 -2 214 -4t206 -2q104 0 201.5 2t189.5 5q-3 -20 -4.5 -38t-1.5 -38q0 -17 1.5 -37t4.5 -42q-79 19 -169 28t-195 9h-204v-309v-228h224q70 0 146 5t161 15q-3 -23 -3.5 -37.5t-0.5 -28.5q0 -22 3 -70 v-12q-108 10 -185.5 14.5t-127.5 4.5h-217v-234q0 -76 2 -177.5t7 -217.5h202q89 0 180.5 9t184.5 27q-3 -14 -4 -30t-1 -48q0 -33 1.5 -48.5t2.5 -27.5q-92 3 -190 4.5t-201 1.5t-209.5 -1.5t-217.5 -4.5zM394 1659l298 325q29 33 59.5 50t56.5 17q33 0 57.5 -26t24.5 -60 q0 -28 -19 -51.5t-72 -57.5l-325 -197h-80z" />
<glyph unicode="&#xca;" horiz-adv-x="1110" d="M177 0q14 162 21 349.5t7 404.5q0 243 -6.5 425.5t-21.5 330.5q109 -2 214 -4t206 -2q104 0 201.5 2t189.5 5q-3 -20 -4.5 -38t-1.5 -38q0 -17 1.5 -37t4.5 -42q-79 19 -169 28t-195 9h-204v-309v-228h224q70 0 146 5t161 15q-3 -23 -3.5 -37.5t-0.5 -28.5q0 -22 3 -70 v-12q-108 10 -185.5 14.5t-127.5 4.5h-217v-234q0 -76 2 -177.5t7 -217.5h202q89 0 180.5 9t184.5 27q-3 -14 -4 -30t-1 -48q0 -33 1.5 -48.5t2.5 -27.5q-92 3 -190 4.5t-201 1.5t-209.5 -1.5t-217.5 -4.5zM265 1659l246 376h144l248 -376h-80l-239 211l-239 -211h-80z" />
<glyph unicode="&#xcb;" horiz-adv-x="1110" d="M177 0q14 162 21 349.5t7 404.5q0 243 -6.5 425.5t-21.5 330.5q109 -2 214 -4t206 -2q104 0 201.5 2t189.5 5q-3 -20 -4.5 -38t-1.5 -38q0 -17 1.5 -37t4.5 -42q-79 19 -169 28t-195 9h-204v-309v-228h224q70 0 146 5t161 15q-3 -23 -3.5 -37.5t-0.5 -28.5q0 -22 3 -70 v-12q-108 10 -185.5 14.5t-127.5 4.5h-217v-234q0 -76 2 -177.5t7 -217.5h202q89 0 180.5 9t184.5 27q-3 -14 -4 -30t-1 -48q0 -33 1.5 -48.5t2.5 -27.5q-92 3 -190 4.5t-201 1.5t-209.5 -1.5t-217.5 -4.5zM265 1836q0 49 37.5 85.5t87.5 36.5q49 0 83.5 -36t34.5 -86 q0 -54 -33.5 -89t-84.5 -35q-53 0 -89 35.5t-36 88.5zM660 1836q0 49 36 85.5t85 36.5t85.5 -36t36.5 -86q0 -54 -35 -89t-87 -35t-86.5 35.5t-34.5 88.5z" />
<glyph unicode="&#xcc;" horiz-adv-x="624" d="M6 1965q0 34 24.5 60t57.5 26q26 0 56.5 -17t59.5 -50l298 -325h-80l-325 197q-53 34 -72 57.5t-19 51.5zM181 0q13 168 20 356t7 398q0 236 -7 420.5t-20 335.5q35 -4 67.5 -7t63.5 -3q30 0 62.5 3t69.5 8q-13 -140 -19.5 -315.5t-6.5 -441.5q0 -235 6.5 -418.5 t19.5 -335.5q-27 5 -59 8t-73 3t-73 -3t-58 -8z" />
<glyph unicode="&#xcd;" horiz-adv-x="624" d="M122 1659l298 325q29 33 59.5 50t56.5 17q33 0 57.5 -26t24.5 -60q0 -28 -19 -51.5t-72 -57.5l-325 -197h-80zM181 0q13 168 20 356t7 398q0 236 -7 420.5t-20 335.5q35 -4 67.5 -7t63.5 -3q30 0 62.5 3t69.5 8q-13 -140 -19.5 -315.5t-6.5 -441.5q0 -235 6.5 -418.5 t19.5 -335.5q-27 5 -59 8t-73 3t-73 -3t-58 -8z" />
<glyph unicode="&#xce;" horiz-adv-x="624" d="M-7 1659l246 376h144l248 -376h-80l-239 211l-239 -211h-80zM181 0q13 168 20 356t7 398q0 236 -7 420.5t-20 335.5q35 -4 67.5 -7t63.5 -3q30 0 62.5 3t69.5 8q-13 -140 -19.5 -315.5t-6.5 -441.5q0 -235 6.5 -418.5t19.5 -335.5q-27 5 -59 8t-73 3t-73 -3t-58 -8z" />
<glyph unicode="&#xcf;" horiz-adv-x="624" d="M-7 1836q0 49 37.5 85.5t87.5 36.5q49 0 83.5 -36t34.5 -86q0 -54 -33.5 -89t-84.5 -35q-53 0 -89 35.5t-36 88.5zM181 0q13 168 20 356t7 398q0 236 -7 420.5t-20 335.5q35 -4 67.5 -7t63.5 -3q30 0 62.5 3t69.5 8q-13 -140 -19.5 -315.5t-6.5 -441.5q0 -235 6.5 -418.5 t19.5 -335.5q-27 5 -59 8t-73 3t-73 -3t-58 -8zM388 1836q0 49 36 85.5t85 36.5t85.5 -36t36.5 -86q0 -54 -35 -89t-87 -35t-86.5 35.5t-34.5 88.5z" />
<glyph unicode="&#xd0;" horiz-adv-x="1701" d="M0 764v106q49 -4 83.5 -5.5t66.5 -1.5q27 0 40 0.5t24 1.5l1 64q0 155 -7 301.5t-20 279.5q46 -2 91 -4t84 -2q71 0 228 8t243 8q384 0 583.5 -187.5t199.5 -549.5q0 -369 -229 -576t-641 -207q-61 0 -190.5 4.5t-197.5 4.5q-48 0 -90 -2.5t-81 -6.5q13 166 20 338.5 t7 351.5l-1 80q-13 1 -27.5 1.5t-45.5 0.5q-41 0 -75.5 -2t-65.5 -6zM424 769q2 -84 5 -238q4 -302 6 -411q73 -10 131 -14t107 -4q348 0 523.5 169t175.5 506q0 318 -168.5 479.5t-500.5 161.5q-66 0 -132.5 -2.5t-134.5 -8.5q-1 -18 -3 -180.5t-5 -361.5q23 -1 53 -1.5 t85 -0.5q71 0 145 1.5t174 7.5v-108q-74 3 -156.5 4.5t-175.5 1.5z" />
<glyph unicode="&#xd1;" horiz-adv-x="1639" d="M160 -2q18 159 27.5 463.5t9.5 741.5q0 76 -2 160t-5 176h80q253 -295 518 -585.5t541 -577.5v604q0 110 -7 244t-18 287q21 -3 44.5 -5t44.5 -2q24 0 45.5 2t41.5 4q-18 -119 -28 -432t-10 -770q0 -50 1.5 -132.5t4.5 -201.5l-72 -1q-75 99 -170.5 210t-249.5 275 l-642 684v-602q0 -154 7 -288.5t21 -253.5q-24 5 -47.5 8t-45.5 3q-20 0 -41.5 -3t-47.5 -8zM515 1706q26 126 77.5 187t133.5 61q14 0 32.5 -3t38.5 -9l117 -28q13 -3 26.5 -4.5t28.5 -1.5q37 0 60.5 23t34.5 72h63q-24 -122 -77.5 -185.5t-133.5 -63.5q-12 0 -25.5 2 t-29.5 5l-116 29q-3 1 -8 2q-39 9 -49 9q-45 0 -70 -21t-40 -74h-63z" />
<glyph unicode="&#xd2;" horiz-adv-x="1815" d="M84 754q0 365 220.5 575t602.5 210q390 0 606.5 -206.5t216.5 -578.5q0 -368 -216.5 -575.5t-604.5 -207.5q-383 0 -604 210t-221 573zM332 766q0 -339 147.5 -518.5t427.5 -179.5q277 0 426 177.5t149 508.5t-149 509.5t-426 178.5q-274 0 -424.5 -176.5t-150.5 -499.5z M603 1965q0 34 24.5 60t57.5 26q26 0 56.5 -17t59.5 -50l298 -325h-80l-325 197q-53 34 -72 57.5t-19 51.5z" />
<glyph unicode="&#xd3;" horiz-adv-x="1815" d="M84 754q0 365 220.5 575t602.5 210q390 0 606.5 -206.5t216.5 -578.5q0 -368 -216.5 -575.5t-604.5 -207.5q-383 0 -604 210t-221 573zM332 766q0 -339 147.5 -518.5t427.5 -179.5q277 0 426 177.5t149 508.5t-149 509.5t-426 178.5q-274 0 -424.5 -176.5t-150.5 -499.5z M719 1659l298 325q29 33 59.5 50t56.5 17q33 0 57.5 -26t24.5 -60q0 -28 -19 -51.5t-72 -57.5l-325 -197h-80z" />
<glyph unicode="&#xd4;" horiz-adv-x="1815" d="M84 754q0 365 220.5 575t602.5 210q390 0 606.5 -206.5t216.5 -578.5q0 -368 -216.5 -575.5t-604.5 -207.5q-383 0 -604 210t-221 573zM332 766q0 -339 147.5 -518.5t427.5 -179.5q277 0 426 177.5t149 508.5t-149 509.5t-426 178.5q-274 0 -424.5 -176.5t-150.5 -499.5z M590 1659l246 376h144l248 -376h-80l-239 211l-239 -211h-80z" />
<glyph unicode="&#xd5;" horiz-adv-x="1815" d="M84 754q0 365 220.5 575t602.5 210q390 0 606.5 -206.5t216.5 -578.5q0 -368 -216.5 -575.5t-604.5 -207.5q-383 0 -604 210t-221 573zM332 766q0 -339 147.5 -518.5t427.5 -179.5q277 0 426 177.5t149 508.5t-149 509.5t-426 178.5q-274 0 -424.5 -176.5t-150.5 -499.5z M603 1706q26 126 77.5 187t133.5 61q14 0 32.5 -3t38.5 -9l117 -28q13 -3 26.5 -4.5t28.5 -1.5q37 0 60.5 23t34.5 72h63q-24 -122 -77.5 -185.5t-133.5 -63.5q-12 0 -25.5 2t-29.5 5l-116 29q-3 1 -8 2q-39 9 -49 9q-45 0 -70 -21t-40 -74h-63z" />
<glyph unicode="&#xd6;" horiz-adv-x="1815" d="M84 754q0 365 220.5 575t602.5 210q390 0 606.5 -206.5t216.5 -578.5q0 -368 -216.5 -575.5t-604.5 -207.5q-383 0 -604 210t-221 573zM332 766q0 -339 147.5 -518.5t427.5 -179.5q277 0 426 177.5t149 508.5t-149 509.5t-426 178.5q-274 0 -424.5 -176.5t-150.5 -499.5z M590 1836q0 49 37.5 85.5t87.5 36.5q49 0 83.5 -36t34.5 -86q0 -54 -33.5 -89t-84.5 -35q-53 0 -89 35.5t-36 88.5zM985 1836q0 49 36 85.5t85 36.5t85.5 -36t36.5 -86q0 -54 -35 -89t-87 -35t-86.5 35.5t-34.5 88.5z" />
<glyph unicode="&#xd7;" horiz-adv-x="1842" d="M329 139l520 520l-520 520l76 75l519 -520l520 520l76 -75l-520 -520l520 -520l-76 -75l-520 520l-519 -520z" />
<glyph unicode="&#xd8;" horiz-adv-x="1815" d="M84 754q0 368 223.5 576.5t621.5 208.5q137 0 250.5 -28.5t215.5 -90.5l180 222l90 -74l-190 -205q121 -93 188 -252.5t67 -356.5q0 -363 -220 -573t-603 -210q-156 0 -284.5 35.5t-231.5 105.5l-210 -253l-90 82l219 234q-112 113 -169 259t-57 320zM334 754 q0 -128 23.5 -234.5t73.5 -203.5q216 239 430 488t426 507q-67 66 -162.5 98.5t-219.5 32.5q-275 0 -423 -178.5t-148 -509.5zM498 230q78 -83 177 -122.5t232 -39.5q277 0 426 178t149 508q0 139 -31 258t-93 218q-194 -217 -405 -462t-455 -538z" />
<glyph unicode="&#xd9;" horiz-adv-x="1643" d="M164 1511q29 -4 62 -6.5t70 -2.5t69 2.5t62 6.5q-12 -138 -18 -231t-6 -152v-389q0 -158 9 -257t29 -148q49 -127 143 -184t252 -57q114 0 206.5 32t158.5 94q64 62 91 154t27 319v49v323q0 145 -6 250.5t-19 196.5q23 -4 46.5 -6.5t50.5 -2.5q28 0 52.5 2.5t44.5 6.5 q-14 -95 -21 -228.5t-7 -309.5v-378q0 -312 -165.5 -468t-496.5 -156q-195 0 -326.5 55t-201.5 166q-44 68 -63 155.5t-19 267.5v75v441q0 105 -6 199.5t-18 180.5zM555 1965q0 34 24.5 60t57.5 26q26 0 56.5 -17t59.5 -50l298 -325h-80l-325 197q-53 34 -72 57.5t-19 51.5z " />
<glyph unicode="&#xda;" horiz-adv-x="1643" d="M164 1511q29 -4 62 -6.5t70 -2.5t69 2.5t62 6.5q-12 -138 -18 -231t-6 -152v-389q0 -158 9 -257t29 -148q49 -127 143 -184t252 -57q114 0 206.5 32t158.5 94q64 62 91 154t27 319v49v323q0 145 -6 250.5t-19 196.5q23 -4 46.5 -6.5t50.5 -2.5q28 0 52.5 2.5t44.5 6.5 q-14 -95 -21 -228.5t-7 -309.5v-378q0 -312 -165.5 -468t-496.5 -156q-195 0 -326.5 55t-201.5 166q-44 68 -63 155.5t-19 267.5v75v441q0 105 -6 199.5t-18 180.5zM671 1659l298 325q29 33 59.5 50t56.5 17q33 0 57.5 -26t24.5 -60q0 -28 -19 -51.5t-72 -57.5l-325 -197 h-80z" />
<glyph unicode="&#xdb;" horiz-adv-x="1643" d="M164 1511q29 -4 62 -6.5t70 -2.5t69 2.5t62 6.5q-12 -138 -18 -231t-6 -152v-389q0 -158 9 -257t29 -148q49 -127 143 -184t252 -57q114 0 206.5 32t158.5 94q64 62 91 154t27 319v49v323q0 145 -6 250.5t-19 196.5q23 -4 46.5 -6.5t50.5 -2.5q28 0 52.5 2.5t44.5 6.5 q-14 -95 -21 -228.5t-7 -309.5v-378q0 -312 -165.5 -468t-496.5 -156q-195 0 -326.5 55t-201.5 166q-44 68 -63 155.5t-19 267.5v75v441q0 105 -6 199.5t-18 180.5zM542 1659l246 376h144l248 -376h-80l-239 211l-239 -211h-80z" />
<glyph unicode="&#xdc;" horiz-adv-x="1643" d="M164 1511q29 -4 62 -6.5t70 -2.5t69 2.5t62 6.5q-12 -138 -18 -231t-6 -152v-389q0 -158 9 -257t29 -148q49 -127 143 -184t252 -57q114 0 206.5 32t158.5 94q64 62 91 154t27 319v49v323q0 145 -6 250.5t-19 196.5q23 -4 46.5 -6.5t50.5 -2.5q28 0 52.5 2.5t44.5 6.5 q-14 -95 -21 -228.5t-7 -309.5v-378q0 -312 -165.5 -468t-496.5 -156q-195 0 -326.5 55t-201.5 166q-44 68 -63 155.5t-19 267.5v75v441q0 105 -6 199.5t-18 180.5zM542 1836q0 49 37.5 85.5t87.5 36.5q49 0 83.5 -36t34.5 -86q0 -54 -33.5 -89t-84.5 -35q-53 0 -89 35.5 t-36 88.5zM937 1836q0 49 36 85.5t85 36.5t85.5 -36t36.5 -86q0 -54 -35 -89t-87 -35t-86.5 35.5t-34.5 88.5z" />
<glyph unicode="&#xdd;" horiz-adv-x="1148" d="M-46 1511q33 -4 70.5 -6.5t77.5 -2.5q41 0 75 2.5t64 6.5q34 -89 85 -192t121 -224l188 -323q104 171 198.5 355t181.5 384q21 -4 44.5 -6.5t50.5 -2.5q28 0 52.5 2.5t44.5 6.5q-82 -129 -158.5 -253t-145.5 -243l-204 -342v-284q0 -97 3 -195t10 -194q-35 5 -67 8t-61 3 q-28 0 -58.5 -3t-63.5 -7q11 86 17 196t6 244v185q-124 229 -257 450.5t-274 434.5zM385 1659l298 325q29 33 59.5 50t56.5 17q33 0 57.5 -26t24.5 -60q0 -28 -19 -51.5t-72 -57.5l-325 -197h-80z" />
<glyph unicode="&#xde;" horiz-adv-x="1192" d="M181 1q12 230 18 454.5t6 445.5q0 189 -6 338.5t-18 270.5q41 -6 72 -8t59 -2q29 0 60 3t65 8q-5 -53 -7.5 -107t-2.5 -114v-56q68 5 131 7t121 2q240 0 365.5 -100t125.5 -289q0 -205 -158.5 -324t-433.5 -119q-40 0 -133 4q-21 1 -31 1q0 -13 1 -39q4 -232 9 -377 q-24 5 -54 8t-67 3q-38 0 -67.5 -3t-54.5 -7zM414 502q12 -1 27.5 -1.5t45.5 -0.5q221 0 333.5 87t112.5 258q0 146 -93.5 228t-261.5 82q-24 0 -102 -6q-33 -2 -50 -3q-7 -88 -9.5 -165t-2.5 -136v-343z" />
<glyph unicode="&#xdf;" horiz-adv-x="1238" d="M156 0q8 121 12.5 277.5t4.5 419.5v415q0 153 26.5 240t85.5 157q64 73 154.5 111.5t199.5 38.5q156 0 251.5 -79t95.5 -206q0 -61 -23.5 -113t-75.5 -106l-106 -108q-25 -25 -37 -49t-12 -49q0 -47 107 -124l6 -4l168 -120q81 -58 122.5 -132t41.5 -164 q0 -190 -124 -311t-321 -121q-63 0 -120.5 12.5t-109.5 36.5q15 58 25.5 101.5t16.5 84.5h22q39 -64 92.5 -96t124.5 -32q100 0 162 63.5t62 168.5q0 70 -40.5 133t-121.5 119l-155 109q-77 54 -100.5 89.5t-23.5 82.5q0 73 94 166q40 41 57 65l57 79q31 41 48.5 96.5 t17.5 111.5q0 106 -55.5 162t-160.5 56q-128 0 -193.5 -92.5t-65.5 -274.5q0 -1 1 -67.5t1 -131.5v-460q0 -138 3.5 -277t9.5 -278q-34 5 -60.5 8t-51.5 3t-52.5 -3t-59.5 -8z" />
<glyph unicode="&#xe0;" horiz-adv-x="1048" d="M71 261q0 141 72 211t288 119l202 44q47 10 66.5 35.5t19.5 76.5q0 117 -66.5 184t-183.5 67q-94 0 -163 -46t-103 -129l-46 17l11 120q71 65 159.5 98t196.5 33q201 0 289 -81.5t88 -270.5v-524q0 -81 19.5 -103.5t75.5 -22.5h8q30 2 55 2v-47q-61 -28 -110.5 -41.5 t-89.5 -13.5q-66 0 -101 35.5t-45 111.5q-69 -81 -154.5 -123t-182.5 -42q-136 0 -220.5 80.5t-84.5 209.5zM218 1511q0 34 24.5 60t57.5 26q26 0 56.5 -17t59.5 -50l298 -325h-80l-325 197q-53 34 -72 57.5t-19 51.5zM283 296q0 -89 48.5 -141.5t130.5 -52.5q114 0 182 69 t68 185v203l-132 -25q-154 -30 -225.5 -86.5t-71.5 -151.5z" />
<glyph unicode="&#xe1;" horiz-adv-x="1048" d="M71 261q0 141 72 211t288 119l202 44q47 10 66.5 35.5t19.5 76.5q0 117 -66.5 184t-183.5 67q-94 0 -163 -46t-103 -129l-46 17l11 120q71 65 159.5 98t196.5 33q201 0 289 -81.5t88 -270.5v-524q0 -81 19.5 -103.5t75.5 -22.5h8q30 2 55 2v-47q-61 -28 -110.5 -41.5 t-89.5 -13.5q-66 0 -101 35.5t-45 111.5q-69 -81 -154.5 -123t-182.5 -42q-136 0 -220.5 80.5t-84.5 209.5zM283 296q0 -89 48.5 -141.5t130.5 -52.5q114 0 182 69t68 185v203l-132 -25q-154 -30 -225.5 -86.5t-71.5 -151.5zM334 1205l298 325q29 33 59.5 50t56.5 17 q33 0 57.5 -26t24.5 -60q0 -28 -19 -51.5t-72 -57.5l-325 -197h-80z" />
<glyph unicode="&#xe2;" horiz-adv-x="1048" d="M71 261q0 141 72 211t288 119l202 44q47 10 66.5 35.5t19.5 76.5q0 117 -66.5 184t-183.5 67q-94 0 -163 -46t-103 -129l-46 17l11 120q71 65 159.5 98t196.5 33q201 0 289 -81.5t88 -270.5v-524q0 -81 19.5 -103.5t75.5 -22.5h8q30 2 55 2v-47q-61 -28 -110.5 -41.5 t-89.5 -13.5q-66 0 -101 35.5t-45 111.5q-69 -81 -154.5 -123t-182.5 -42q-136 0 -220.5 80.5t-84.5 209.5zM205 1205l246 376h144l248 -376h-80l-239 211l-239 -211h-80zM283 296q0 -89 48.5 -141.5t130.5 -52.5q114 0 182 69t68 185v203l-132 -25q-154 -30 -225.5 -86.5 t-71.5 -151.5z" />
<glyph unicode="&#xe3;" horiz-adv-x="1048" d="M71 261q0 141 72 211t288 119l202 44q47 10 66.5 35.5t19.5 76.5q0 117 -66.5 184t-183.5 67q-94 0 -163 -46t-103 -129l-46 17l11 120q71 65 159.5 98t196.5 33q201 0 289 -81.5t88 -270.5v-524q0 -81 19.5 -103.5t75.5 -22.5h8q30 2 55 2v-47q-61 -28 -110.5 -41.5 t-89.5 -13.5q-66 0 -101 35.5t-45 111.5q-69 -81 -154.5 -123t-182.5 -42q-136 0 -220.5 80.5t-84.5 209.5zM218 1252q26 126 77.5 187t133.5 61q14 0 32.5 -3t38.5 -9l117 -28q13 -3 26.5 -4.5t28.5 -1.5q37 0 60.5 23t34.5 72h63q-24 -122 -77.5 -185.5t-133.5 -63.5 q-12 0 -25.5 2t-29.5 5l-116 29q-3 1 -8 2q-39 9 -49 9q-45 0 -70 -21t-40 -74h-63zM283 296q0 -89 48.5 -141.5t130.5 -52.5q114 0 182 69t68 185v203l-132 -25q-154 -30 -225.5 -86.5t-71.5 -151.5z" />
<glyph unicode="&#xe4;" horiz-adv-x="1048" d="M71 261q0 141 72 211t288 119l202 44q47 10 66.5 35.5t19.5 76.5q0 117 -66.5 184t-183.5 67q-94 0 -163 -46t-103 -129l-46 17l11 120q71 65 159.5 98t196.5 33q201 0 289 -81.5t88 -270.5v-524q0 -81 19.5 -103.5t75.5 -22.5h8q30 2 55 2v-47q-61 -28 -110.5 -41.5 t-89.5 -13.5q-66 0 -101 35.5t-45 111.5q-69 -81 -154.5 -123t-182.5 -42q-136 0 -220.5 80.5t-84.5 209.5zM205 1382q0 49 37.5 85.5t87.5 36.5q49 0 83.5 -36t34.5 -86q0 -54 -33.5 -89t-84.5 -35q-53 0 -89 35.5t-36 88.5zM283 296q0 -89 48.5 -141.5t130.5 -52.5 q114 0 182 69t68 185v203l-132 -25q-154 -30 -225.5 -86.5t-71.5 -151.5zM600 1382q0 49 36 85.5t85 36.5t85.5 -36t36.5 -86q0 -54 -35 -89t-87 -35t-86.5 35.5t-34.5 88.5z" />
<glyph unicode="&#xe5;" horiz-adv-x="1048" d="M71 261q0 141 72 211t288 119l202 44q47 10 66.5 35.5t19.5 76.5q0 117 -66.5 184t-183.5 67q-94 0 -163 -46t-103 -129l-46 17l11 120q71 65 159.5 98t196.5 33q201 0 289 -81.5t88 -270.5v-524q0 -81 19.5 -103.5t75.5 -22.5h8q30 2 55 2v-47q-61 -28 -110.5 -41.5 t-89.5 -13.5q-66 0 -101 35.5t-45 111.5q-69 -81 -154.5 -123t-182.5 -42q-136 0 -220.5 80.5t-84.5 209.5zM268 1416q0 118 82 197t203 79q110 0 182.5 -71.5t72.5 -183.5q0 -117 -80.5 -197.5t-199.5 -80.5q-113 0 -186.5 72.5t-73.5 184.5zM283 296q0 -89 48.5 -141.5 t130.5 -52.5q114 0 182 69t68 185v203l-132 -25q-154 -30 -225.5 -86.5t-71.5 -151.5zM376 1407q0 -83 42 -131t116 -48q76 0 120.5 55.5t44.5 153.5q0 87 -42 136.5t-115 49.5q-78 0 -122 -57.5t-44 -158.5z" />
<glyph unicode="&#xe6;" horiz-adv-x="1766" d="M91 268q0 78 31.5 140.5t94.5 104.5q48 33 203 67q44 10 67 15l163 40q47 8 68 35.5t21 76.5q0 118 -66 184.5t-182 66.5q-95 0 -162 -43t-103 -128l-49 13l13 120q70 65 162.5 98t206.5 33q101 0 177.5 -35.5t135.5 -108.5q69 69 159.5 104t200.5 35q218 0 337 -127 t119 -362q0 -25 -0.5 -36.5t-2.5 -22.5q-124 3 -237 4.5t-214 1.5q-62 0 -132 -1t-171 -4v-22q0 -215 94.5 -333t266.5 -118q102 0 186 37t137 105l29 -7q-6 -22 -10 -50.5t-9 -77.5q-81 -50 -179 -76t-205 -26q-159 0 -273 62t-179 184q-59 -122 -154.5 -184t-225.5 -62 q-142 0 -230 82t-88 215zM296 283q0 -85 50 -136.5t134 -51.5q122 0 189.5 73.5t67.5 207.5v179l-184 -33q-131 -23 -194 -82t-63 -157zM931 633q44 0 133 -1t135 -1q45 0 136.5 1t137.5 1q1 11 1.5 24t0.5 35q0 149 -67 233t-184 84q-133 0 -205 -92.5t-88 -283.5z" />
<glyph unicode="&#xe7;" horiz-adv-x="1044" d="M57 511q0 271 155.5 424.5t431.5 153.5q101 0 190 -22.5t164 -64.5q-15 -43 -27 -93.5t-20 -110.5h-27q-25 103 -92.5 154.5t-174.5 51.5q-176 0 -274 -122.5t-98 -343.5q0 -222 103 -346t287 -124q91 0 163 33t124 98l20 -5l-18 -126q-63 -45 -155 -70t-203 -25 q-246 0 -397.5 148.5t-151.5 389.5zM297 -422l30 80q59 -28 120 -42.5t121 -14.5q72 0 109.5 25t37.5 73q0 45 -32.5 70.5t-91.5 25.5q-14 0 -29 -1.5t-35 -5.5v212h68v-124q12 2 25.5 3t40.5 1q95 0 148.5 -47t53.5 -131q0 -92 -64.5 -142.5t-180.5 -50.5q-80 0 -160.5 17 t-160.5 52z" />
<glyph unicode="&#xe8;" horiz-adv-x="1101" d="M68 513q0 260 140 416.5t374 156.5q219 0 343 -128.5t124 -355.5q0 -27 -0.5 -40.5t-1.5 -25.5h-21q-311 8 -456 8q-52 0 -111.5 -1t-167.5 -3l-2 -21q0 -216 95.5 -334.5t267.5 -118.5q103 0 187 37t136 105l29 -7q-5 -22 -9 -50t-9 -78q-82 -50 -180.5 -76t-208.5 -26 q-248 0 -388.5 144t-140.5 398zM245 1511q0 34 24.5 60t57.5 26q26 0 56.5 -17t59.5 -50l298 -325h-80l-325 197q-53 34 -72 57.5t-19 51.5zM296 631h107q86 0 322 3q68 0 104 1q3 19 4 35.5t1 28.5q0 137 -70 219t-184 82q-126 0 -199 -95t-85 -274z" />
<glyph unicode="&#xe9;" horiz-adv-x="1101" d="M68 513q0 260 140 416.5t374 156.5q219 0 343 -128.5t124 -355.5q0 -27 -0.5 -40.5t-1.5 -25.5h-21q-311 8 -456 8q-52 0 -111.5 -1t-167.5 -3l-2 -21q0 -216 95.5 -334.5t267.5 -118.5q103 0 187 37t136 105l29 -7q-5 -22 -9 -50t-9 -78q-82 -50 -180.5 -76t-208.5 -26 q-248 0 -388.5 144t-140.5 398zM296 631h107q86 0 322 3q68 0 104 1q3 19 4 35.5t1 28.5q0 137 -70 219t-184 82q-126 0 -199 -95t-85 -274zM361 1205l298 325q29 33 59.5 50t56.5 17q33 0 57.5 -26t24.5 -60q0 -28 -19 -51.5t-72 -57.5l-325 -197h-80z" />
<glyph unicode="&#xea;" horiz-adv-x="1101" d="M68 513q0 260 140 416.5t374 156.5q219 0 343 -128.5t124 -355.5q0 -27 -0.5 -40.5t-1.5 -25.5h-21q-311 8 -456 8q-52 0 -111.5 -1t-167.5 -3l-2 -21q0 -216 95.5 -334.5t267.5 -118.5q103 0 187 37t136 105l29 -7q-5 -22 -9 -50t-9 -78q-82 -50 -180.5 -76t-208.5 -26 q-248 0 -388.5 144t-140.5 398zM232 1205l246 376h144l248 -376h-80l-239 211l-239 -211h-80zM296 631h107q86 0 322 3q68 0 104 1q3 19 4 35.5t1 28.5q0 137 -70 219t-184 82q-126 0 -199 -95t-85 -274z" />
<glyph unicode="&#xeb;" horiz-adv-x="1101" d="M68 513q0 260 140 416.5t374 156.5q219 0 343 -128.5t124 -355.5q0 -27 -0.5 -40.5t-1.5 -25.5h-21q-311 8 -456 8q-52 0 -111.5 -1t-167.5 -3l-2 -21q0 -216 95.5 -334.5t267.5 -118.5q103 0 187 37t136 105l29 -7q-5 -22 -9 -50t-9 -78q-82 -50 -180.5 -76t-208.5 -26 q-248 0 -388.5 144t-140.5 398zM232 1382q0 49 37.5 85.5t87.5 36.5q49 0 83.5 -36t34.5 -86q0 -54 -33.5 -89t-84.5 -35q-53 0 -89 35.5t-36 88.5zM296 631h107q86 0 322 3q68 0 104 1q3 19 4 35.5t1 28.5q0 137 -70 219t-184 82q-126 0 -199 -95t-85 -274zM627 1382 q0 49 36 85.5t85 36.5t85.5 -36t36.5 -86q0 -54 -35 -89t-87 -35t-86.5 35.5t-34.5 88.5z" />
<glyph unicode="&#xec;" horiz-adv-x="552" d="M-29 1511q0 34 24.5 60t57.5 26q26 0 56.5 -17t59.5 -50l298 -325h-80l-325 197q-53 34 -72 57.5t-19 51.5zM156 0q7 94 11 250t4 389q0 153 -4 248.5t-11 171.5q24 -4 51 -6t59 -2q31 0 59 2t53 6q-8 -70 -11.5 -151.5t-3.5 -240.5q0 -221 3.5 -385t11.5 -282 q-31 5 -58.5 8t-53.5 3t-52.5 -3t-57.5 -8z" />
<glyph unicode="&#xed;" horiz-adv-x="552" d="M87 1205l298 325q29 33 59.5 50t56.5 17q33 0 57.5 -26t24.5 -60q0 -28 -19 -51.5t-72 -57.5l-325 -197h-80zM156 0q7 94 11 250t4 389q0 153 -4 248.5t-11 171.5q24 -4 51 -6t59 -2q31 0 59 2t53 6q-8 -70 -11.5 -151.5t-3.5 -240.5q0 -221 3.5 -385t11.5 -282 q-31 5 -58.5 8t-53.5 3t-52.5 -3t-57.5 -8z" />
<glyph unicode="&#xee;" horiz-adv-x="552" d="M-42 1205l246 376h144l248 -376h-80l-239 211l-239 -211h-80zM156 0q7 94 11 250t4 389q0 153 -4 248.5t-11 171.5q24 -4 51 -6t59 -2q31 0 59 2t53 6q-8 -70 -11.5 -151.5t-3.5 -240.5q0 -221 3.5 -385t11.5 -282q-31 5 -58.5 8t-53.5 3t-52.5 -3t-57.5 -8z" />
<glyph unicode="&#xef;" horiz-adv-x="552" d="M-42 1382q0 49 37.5 85.5t87.5 36.5q49 0 83.5 -36t34.5 -86q0 -54 -33.5 -89t-84.5 -35q-53 0 -89 35.5t-36 88.5zM156 0q7 94 11 250t4 389q0 153 -4 248.5t-11 171.5q24 -4 51 -6t59 -2q31 0 59 2t53 6q-8 -70 -11.5 -151.5t-3.5 -240.5q0 -221 3.5 -385t11.5 -282 q-31 5 -58.5 8t-53.5 3t-52.5 -3t-57.5 -8zM353 1382q0 49 36 85.5t85 36.5t85.5 -36t36.5 -86q0 -54 -35 -89t-87 -35t-86.5 35.5t-34.5 88.5z" />
<glyph unicode="&#xf0;" horiz-adv-x="1207" d="M76 513q0 238 139 388t357 150q51 0 90 -5t75 -16l-260 255q-83 -74 -136.5 -126.5t-79.5 -83.5l-77 73q34 27 91.5 77t135.5 124q-74 69 -139 125.5t-108 91.5l130 120q19 -21 135 -132l99 -96q78 67 131.5 121t90.5 101l88 -68l-3 -3q-116 -96 -242 -218l192 -194 q205 -210 274 -356.5t69 -329.5q0 -244 -143.5 -391t-382.5 -147q-246 0 -386 144t-140 396zM303 513q0 -211 80 -331t221 -120q138 0 217.5 119.5t79.5 331.5q0 216 -78 333.5t-219 117.5q-142 0 -221.5 -118.5t-79.5 -332.5z" />
<glyph unicode="&#xf1;" horiz-adv-x="1220" d="M149 0q8 86 11.5 227t3.5 410q0 178 -3.5 264t-11.5 158q23 -4 49.5 -6t56.5 -2q28 0 54 2t48 6q-2 -76 -3 -115t-2 -75q66 106 162 161.5t216 55.5q82 0 151.5 -29t116.5 -82q37 -44 52.5 -99.5t15.5 -178.5v-325q0 -98 2.5 -189t8.5 -183q-30 5 -58 8t-52 3 q-25 0 -51.5 -3t-59.5 -8q9 188 12.5 299.5t3.5 196.5v112q0 115 -12 168t-39 89q-34 41 -81.5 62.5t-106.5 21.5q-144 0 -210.5 -106t-66.5 -336q0 -158 3 -279.5t8 -226.5q-29 4 -56 7t-52 3q-26 0 -52.5 -3t-57.5 -8zM304 1252q26 126 77.5 187t133.5 61q14 0 32.5 -3 t38.5 -9l117 -28q13 -3 26.5 -4.5t28.5 -1.5q37 0 60.5 23t34.5 72h63q-24 -122 -77.5 -185.5t-133.5 -63.5q-12 0 -25.5 2t-29.5 5l-116 29q-3 1 -8 2q-39 9 -49 9q-45 0 -70 -21t-40 -74h-63z" />
<glyph unicode="&#xf2;" horiz-adv-x="1220" d="M66 528q0 254 148.5 406t395.5 152q253 0 399 -149.5t146 -408.5q0 -253 -148 -404t-397 -151q-254 0 -399 148t-145 407zM294 528q0 -222 84.5 -347.5t233.5 -125.5q148 0 231.5 125.5t83.5 347.5q0 227 -83 351.5t-232 124.5q-150 0 -234 -125t-84 -351zM304 1511 q0 34 24.5 60t57.5 26q26 0 56.5 -17t59.5 -50l298 -325h-80l-325 197q-53 34 -72 57.5t-19 51.5z" />
<glyph unicode="&#xf3;" horiz-adv-x="1220" d="M66 528q0 254 148.5 406t395.5 152q253 0 399 -149.5t146 -408.5q0 -253 -148 -404t-397 -151q-254 0 -399 148t-145 407zM294 528q0 -222 84.5 -347.5t233.5 -125.5q148 0 231.5 125.5t83.5 347.5q0 227 -83 351.5t-232 124.5q-150 0 -234 -125t-84 -351zM420 1205 l298 325q29 33 59.5 50t56.5 17q33 0 57.5 -26t24.5 -60q0 -28 -19 -51.5t-72 -57.5l-325 -197h-80z" />
<glyph unicode="&#xf4;" horiz-adv-x="1220" d="M66 528q0 254 148.5 406t395.5 152q253 0 399 -149.5t146 -408.5q0 -253 -148 -404t-397 -151q-254 0 -399 148t-145 407zM291 1205l246 376h144l248 -376h-80l-239 211l-239 -211h-80zM294 528q0 -222 84.5 -347.5t233.5 -125.5q148 0 231.5 125.5t83.5 347.5 q0 227 -83 351.5t-232 124.5q-150 0 -234 -125t-84 -351z" />
<glyph unicode="&#xf5;" horiz-adv-x="1220" d="M66 528q0 254 148.5 406t395.5 152q253 0 399 -149.5t146 -408.5q0 -253 -148 -404t-397 -151q-254 0 -399 148t-145 407zM294 528q0 -222 84.5 -347.5t233.5 -125.5q148 0 231.5 125.5t83.5 347.5q0 227 -83 351.5t-232 124.5q-150 0 -234 -125t-84 -351zM304 1252 q26 126 77.5 187t133.5 61q14 0 32.5 -3t38.5 -9l117 -28q13 -3 26.5 -4.5t28.5 -1.5q37 0 60.5 23t34.5 72h63q-24 -122 -77.5 -185.5t-133.5 -63.5q-12 0 -25.5 2t-29.5 5l-116 29q-3 1 -8 2q-39 9 -49 9q-45 0 -70 -21t-40 -74h-63z" />
<glyph unicode="&#xf6;" horiz-adv-x="1220" d="M66 528q0 254 148.5 406t395.5 152q253 0 399 -149.5t146 -408.5q0 -253 -148 -404t-397 -151q-254 0 -399 148t-145 407zM291 1382q0 49 37.5 85.5t87.5 36.5q49 0 83.5 -36t34.5 -86q0 -54 -33.5 -89t-84.5 -35q-53 0 -89 35.5t-36 88.5zM294 528q0 -222 84.5 -347.5 t233.5 -125.5q148 0 231.5 125.5t83.5 347.5q0 227 -83 351.5t-232 124.5q-150 0 -234 -125t-84 -351zM686 1382q0 49 36 85.5t85 36.5t85.5 -36t36.5 -86q0 -54 -35 -89t-87 -35t-86.5 35.5t-34.5 88.5z" />
<glyph unicode="&#xf7;" horiz-adv-x="1842" d="M274 606v106h1294v-106h-1294zM808 279q0 47 33.5 81t80.5 34q49 0 82.5 -33.5t33.5 -81.5t-33.5 -81.5t-82.5 -33.5q-48 0 -81 33.5t-33 81.5zM808 1040q0 48 34 82.5t80 34.5q48 0 82 -34.5t34 -82.5q0 -49 -33.5 -82.5t-82.5 -33.5q-48 0 -81 33t-33 83z" />
<glyph unicode="&#xf8;" horiz-adv-x="1220" d="M46 -118l182 226q-83 89 -122.5 191t-39.5 229q0 253 149.5 405.5t394.5 152.5q98 0 178.5 -22.5t146.5 -67.5l164 216l73 -57l-172 -211q77 -74 116 -178t39 -238q0 -249 -150 -402t-395 -153q-97 0 -176.5 21.5t-139.5 62.5l-176 -230zM294 528q0 -80 11 -146.5 t35 -124.5q146 178 269 331t233 292q-43 62 -101 93t-131 31q-150 0 -233 -125t-83 -351zM382 175q41 -59 99 -89.5t129 -30.5q148 0 232.5 126t84.5 347q0 82 -10.5 146t-31.5 118q-125 -143 -250 -297.5t-253 -319.5z" />
<glyph unicode="&#xf9;" horiz-adv-x="1220" d="M145 1059q26 -4 53.5 -6t58.5 -2t58.5 2t51.5 6q-10 -201 -14.5 -374.5t-4.5 -283.5q0 -150 57.5 -220.5t180.5 -70.5q146 0 213.5 105.5t67.5 337.5q0 117 -2.5 242.5t-8.5 263.5q25 -4 51.5 -6t56.5 -2q31 0 58 2t50 6q-7 -86 -11 -227t-4 -410q0 -179 4 -265t11 -157 q-29 5 -55 8t-48 3q-25 0 -51 -3t-55 -8q1 27 4 91.5t5 98.5q-71 -112 -159 -164.5t-204 -52.5q-183 0 -269 97t-86 304v314q0 137 -2.5 217t-6.5 154zM304 1511q0 34 24.5 60t57.5 26q26 0 56.5 -17t59.5 -50l298 -325h-80l-325 197q-53 34 -72 57.5t-19 51.5z" />
<glyph unicode="&#xfa;" horiz-adv-x="1220" d="M145 1059q26 -4 53.5 -6t58.5 -2t58.5 2t51.5 6q-10 -201 -14.5 -374.5t-4.5 -283.5q0 -150 57.5 -220.5t180.5 -70.5q146 0 213.5 105.5t67.5 337.5q0 117 -2.5 242.5t-8.5 263.5q25 -4 51.5 -6t56.5 -2q31 0 58 2t50 6q-7 -86 -11 -227t-4 -410q0 -179 4 -265t11 -157 q-29 5 -55 8t-48 3q-25 0 -51 -3t-55 -8q1 27 4 91.5t5 98.5q-71 -112 -159 -164.5t-204 -52.5q-183 0 -269 97t-86 304v314q0 137 -2.5 217t-6.5 154zM420 1205l298 325q29 33 59.5 50t56.5 17q33 0 57.5 -26t24.5 -60q0 -28 -19 -51.5t-72 -57.5l-325 -197h-80z" />
<glyph unicode="&#xfb;" horiz-adv-x="1220" d="M145 1059q26 -4 53.5 -6t58.5 -2t58.5 2t51.5 6q-10 -201 -14.5 -374.5t-4.5 -283.5q0 -150 57.5 -220.5t180.5 -70.5q146 0 213.5 105.5t67.5 337.5q0 117 -2.5 242.5t-8.5 263.5q25 -4 51.5 -6t56.5 -2q31 0 58 2t50 6q-7 -86 -11 -227t-4 -410q0 -179 4 -265t11 -157 q-29 5 -55 8t-48 3q-25 0 -51 -3t-55 -8q1 27 4 91.5t5 98.5q-71 -112 -159 -164.5t-204 -52.5q-183 0 -269 97t-86 304v314q0 137 -2.5 217t-6.5 154zM291 1205l246 376h144l248 -376h-80l-239 211l-239 -211h-80z" />
<glyph unicode="&#xfc;" horiz-adv-x="1220" d="M145 1059q26 -4 53.5 -6t58.5 -2t58.5 2t51.5 6q-10 -201 -14.5 -374.5t-4.5 -283.5q0 -150 57.5 -220.5t180.5 -70.5q146 0 213.5 105.5t67.5 337.5q0 117 -2.5 242.5t-8.5 263.5q25 -4 51.5 -6t56.5 -2q31 0 58 2t50 6q-7 -86 -11 -227t-4 -410q0 -179 4 -265t11 -157 q-29 5 -55 8t-48 3q-25 0 -51 -3t-55 -8q1 27 4 91.5t5 98.5q-71 -112 -159 -164.5t-204 -52.5q-183 0 -269 97t-86 304v314q0 137 -2.5 217t-6.5 154zM291 1382q0 49 37.5 85.5t87.5 36.5q49 0 83.5 -36t34.5 -86q0 -54 -33.5 -89t-84.5 -35q-53 0 -89 35.5t-36 88.5z M686 1382q0 49 36 85.5t85 36.5t85.5 -36t36.5 -86q0 -54 -35 -89t-87 -35t-86.5 35.5t-34.5 88.5z" />
<glyph unicode="&#xfd;" horiz-adv-x="1074" d="M9 1059q30 -4 62.5 -6t67.5 -2q38 0 70.5 2t60.5 6q24 -88 54.5 -177.5t66.5 -180.5l198 -493l181 463q23 56 54 151.5t73 236.5q22 -4 44.5 -6t46.5 -2q26 0 48 2t41 6q-257 -530 -439.5 -956t-272.5 -707q-25 6 -46 8.5t-43 2.5q-20 0 -42 -2.5t-48 -8.5l287 566 q-99 268 -215.5 543t-248.5 554zM348 1205l298 325q29 33 59.5 50t56.5 17q33 0 57.5 -26t24.5 -60q0 -28 -19 -51.5t-72 -57.5l-325 -197h-80z" />
<glyph unicode="&#xfe;" horiz-adv-x="1230" d="M135 -604q8 150 11.5 318.5t3.5 399.5q0 597 -3.5 1001.5t-11.5 543.5q24 -4 50 -6.5t56 -2.5q28 0 54.5 2.5t52.5 6.5q-10 -156 -14.5 -325.5t-4.5 -351.5v-117q63 115 151 168t212 53q208 0 329 -151t121 -411q0 -251 -122.5 -401t-322.5 -150q-128 0 -214.5 46 t-142.5 143v-324q0 -194 3.5 -283t9.5 -159q-28 6 -55.5 8.5t-52.5 2.5t-51.5 -2.5t-58.5 -8.5zM327 526q0 -211 78.5 -328.5t218.5 -117.5q135 0 213.5 117.5t78.5 324.5q0 209 -77.5 324.5t-214.5 115.5q-139 0 -218 -115.5t-79 -320.5z" />
<glyph unicode="&#xff;" horiz-adv-x="1074" d="M9 1059q30 -4 62.5 -6t67.5 -2q38 0 70.5 2t60.5 6q24 -88 54.5 -177.5t66.5 -180.5l198 -493l181 463q23 56 54 151.5t73 236.5q22 -4 44.5 -6t46.5 -2q26 0 48 2t41 6q-257 -530 -439.5 -956t-272.5 -707q-25 6 -46 8.5t-43 2.5q-20 0 -42 -2.5t-48 -8.5l287 566 q-99 268 -215.5 543t-248.5 554zM219 1382q0 49 37.5 85.5t87.5 36.5q49 0 83.5 -36t34.5 -86q0 -54 -33.5 -89t-84.5 -35q-53 0 -89 35.5t-36 88.5zM614 1382q0 49 36 85.5t85 36.5t85.5 -36t36.5 -86q0 -54 -35 -89t-87 -35t-86.5 35.5t-34.5 88.5z" />
<glyph unicode="&#x152;" horiz-adv-x="2283" d="M84 743q0 363 210.5 579.5t561.5 216.5q167 0 299.5 -55.5t251.5 -176.5q0 43 -2 95t-4 109q60 -7 123.5 -9t167.5 -2q157 0 258.5 2t177.5 8q-4 -14 -5.5 -32t-1.5 -36q0 -16 1.5 -35.5t5.5 -39.5q-65 12 -140.5 18t-195.5 6h-186v-524h207q60 0 129 5t150 15 q-3 -19 -5 -37.5t-2 -37.5q0 -17 2 -34.5t5 -34.5q-70 10 -136.5 15.5t-123.5 5.5h-226v-640h232q80 0 158 6t155 18q-2 -13 -3.5 -32t-1.5 -38q0 -21 1 -38.5t4 -39.5q-139 6 -233.5 9.5t-146.5 3.5q-96 0 -191.5 -3.5t-188.5 -9.5q5 64 7 109t2 88v46 q-99 -135 -244 -202.5t-335 -67.5q-340 0 -538.5 207.5t-198.5 562.5zM327 761q0 -320 142 -504t387 -184q121 0 224.5 50.5t182.5 148.5q75 92 109.5 213.5t34.5 299.5q0 325 -140.5 495t-405.5 170q-244 0 -389 -185.5t-145 -503.5z" />
<glyph unicode="&#x153;" horiz-adv-x="1986" d="M62 528q0 254 148.5 406t395.5 152q140 0 247 -49t185 -148q74 101 175 149t241 48q223 0 351 -128.5t128 -353.5q0 -27 -0.5 -41.5t-1.5 -26.5q-16 0 -49 1q-320 7 -457 7q-57 0 -120 -1t-157 -4v-26q0 -212 98 -329.5t274 -117.5q104 0 190.5 37t140.5 105l29 -7 q-6 -30 -10 -61.5t-6 -67.5q-85 -49 -187.5 -75t-218.5 -26q-151 0 -252 47.5t-166 149.5q-89 -100 -201 -148.5t-255 -48.5q-248 0 -385 145.5t-137 411.5zM289 528q0 -221 85.5 -347t235.5 -126q149 0 234 125.5t85 347.5q0 226 -84 350t-235 124t-236 -124.5t-85 -349.5z M1146 631h112q94 0 347 3q70 0 109 1q1 9 1.5 19t0.5 30q0 149 -72 233.5t-198 84.5q-133 0 -211 -96.5t-89 -274.5z" />
<glyph unicode="&#x178;" horiz-adv-x="1148" d="M-46 1511q33 -4 70.5 -6.5t77.5 -2.5q41 0 75 2.5t64 6.5q34 -89 85 -192t121 -224l188 -323q104 171 198.5 355t181.5 384q21 -4 44.5 -6.5t50.5 -2.5q28 0 52.5 2.5t44.5 6.5q-82 -129 -158.5 -253t-145.5 -243l-204 -342v-284q0 -97 3 -195t10 -194q-35 5 -67 8t-61 3 q-28 0 -58.5 -3t-63.5 -7q11 86 17 196t6 244v185q-124 229 -257 450.5t-274 434.5zM256 1836q0 49 37.5 85.5t87.5 36.5q49 0 83.5 -36t34.5 -86q0 -54 -33.5 -89t-84.5 -35q-53 0 -89 35.5t-36 88.5zM651 1836q0 49 36 85.5t85 36.5t85.5 -36t36.5 -86q0 -54 -35 -89 t-87 -35t-86.5 35.5t-34.5 88.5z" />
<glyph unicode="&#x2c6;" horiz-adv-x="1105" d="M234 1205l246 376h144l248 -376h-80l-239 211l-239 -211h-80z" />
<glyph unicode="&#x2dc;" horiz-adv-x="1105" d="M247 1252q26 126 77.5 187t133.5 61q14 0 32.5 -3t38.5 -9l117 -28q13 -3 26.5 -4.5t28.5 -1.5q37 0 60.5 23t34.5 72h63q-24 -122 -77.5 -185.5t-133.5 -63.5q-12 0 -25.5 2t-29.5 5l-116 29q-3 1 -8 2q-39 9 -49 9q-45 0 -70 -21t-40 -74h-63z" />
<glyph unicode="&#x2000;" horiz-adv-x="1065" />
<glyph unicode="&#x2001;" horiz-adv-x="2130" />
<glyph unicode="&#x2002;" horiz-adv-x="1065" />
<glyph unicode="&#x2003;" horiz-adv-x="2130" />
<glyph unicode="&#x2004;" horiz-adv-x="710" />
<glyph unicode="&#x2005;" horiz-adv-x="532" />
<glyph unicode="&#x2006;" horiz-adv-x="355" />
<glyph unicode="&#x2007;" horiz-adv-x="355" />
<glyph unicode="&#x2008;" horiz-adv-x="266" />
<glyph unicode="&#x2009;" horiz-adv-x="426" />
<glyph unicode="&#x200a;" horiz-adv-x="118" />
<glyph unicode="&#x2010;" horiz-adv-x="727" d="M97 443v190h534v-190h-534z" />
<glyph unicode="&#x2011;" horiz-adv-x="727" d="M97 443v190h534v-190h-534z" />
<glyph unicode="&#x2012;" horiz-adv-x="727" d="M97 443v190h534v-190h-534z" />
<glyph unicode="&#x2013;" horiz-adv-x="1105" d="M0 469v137h1106v-137h-1106z" />
<glyph unicode="&#x2014;" horiz-adv-x="2211" d="M0 469v137h2212v-137h-2212z" />
<glyph unicode="&#x2018;" horiz-adv-x="605" d="M141 1002q0 25 12.5 56t47.5 88l240 393l53 -13l-131 -456q-25 -84 -54 -117t-77 -33q-38 0 -64.5 24t-26.5 58z" />
<glyph unicode="&#x2019;" horiz-adv-x="605" d="M146 935l128 456q24 82 54.5 115t78.5 33q38 0 63.5 -23t25.5 -58q0 -27 -13 -59.5t-45 -84.5l-241 -392z" />
<glyph unicode="&#x201a;" horiz-adv-x="605" d="M91 -323l128 456q24 83 54 116.5t79 33.5q38 0 63.5 -23t25.5 -59q0 -25 -12.5 -56t-48.5 -88l-239 -393z" />
<glyph unicode="&#x201c;" horiz-adv-x="1010" d="M137 1002q0 25 12.5 56t47.5 88l238 393l54 -13l-130 -456q-25 -84 -54.5 -117t-76.5 -33q-39 0 -65 24t-26 58zM544 1002q0 25 12.5 56t47.5 88l238 393l53 -13l-129 -456q-25 -84 -54 -117t-77 -33q-39 0 -65 24t-26 58z" />
<glyph unicode="&#x201d;" horiz-adv-x="1010" d="M171 935l127 456q24 82 54 115t79 33q39 0 63.5 -23t24.5 -58q0 -27 -12 -59.5t-45 -84.5l-241 -392zM575 935l130 456q25 84 54 116t77 32q39 0 65 -23t26 -58q0 -26 -12.5 -56.5t-47.5 -87.5l-238 -392z" />
<glyph unicode="&#x201e;" horiz-adv-x="1010" d="M91 -323l128 456q24 83 54 116.5t79 33.5q38 0 63.5 -23t25.5 -59q0 -25 -12.5 -56t-48.5 -88l-239 -393zM496 -323l130 456q24 84 54 117t76 33q39 0 65 -24t26 -58q0 -25 -12 -56t-48 -88l-238 -393z" />
<glyph unicode="&#x2022;" horiz-adv-x="1304" d="M332 823q0 133 93.5 226t226.5 93q132 0 225.5 -93.5t93.5 -225.5t-94.5 -226.5t-226.5 -94.5q-133 0 -225.5 94t-92.5 227z" />
<glyph unicode="&#x2026;" horiz-adv-x="2211" d="M228 112q0 60 41 101.5t100 41.5t100.5 -41.5t41.5 -101.5q0 -58 -41.5 -99.5t-100.5 -41.5t-100 41.5t-41 99.5zM964 112q0 60 41 101.5t100 41.5t100.5 -41.5t41.5 -101.5q0 -58 -41.5 -99.5t-100.5 -41.5t-100 41.5t-41 99.5zM1703 112q0 60 41 101.5t100 41.5 t100.5 -41.5t41.5 -101.5q0 -58 -41.5 -99.5t-100.5 -41.5t-100 41.5t-41 99.5z" />
<glyph unicode="&#x202f;" horiz-adv-x="426" />
<glyph unicode="&#x2039;" horiz-adv-x="595" d="M80 531l355 522l65 -62l-251 -460l251 -463l-65 -59z" />
<glyph unicode="&#x203a;" horiz-adv-x="595" d="M68 59l253 463l-253 462l65 60l358 -522l-358 -522z" />
<glyph unicode="&#x205f;" horiz-adv-x="532" />
<glyph unicode="&#x20ac;" d="M17 536l32 106q29 -3 61.5 -4t92.5 -1q0 17 -2 48t-2 39q0 21 3 78q1 13 1 21q-31 0 -69.5 -1.5t-115.5 -7.5l32 106q59 -2 94 -3t69 -1q38 270 187.5 413.5t393.5 143.5q98 0 199 -29t214 -91q-23 -48 -37.5 -100t-21.5 -114h-25q-58 120 -140 181.5t-183 61.5 q-157 0 -250.5 -120t-114.5 -348h266q46 0 134 1.5t221 4.5l-30 -106q-139 4 -271.5 5.5t-254.5 1.5h-71q0 -19 -2.5 -55.5t-2.5 -46.5q0 -23 1 -42.5t3 -41.5h277q23 0 91 1.5t179 5.5l-31 -106q-111 3 -221.5 4.5t-220.5 1.5h-69q17 -239 108.5 -362t252.5 -123 q110 0 195.5 56.5t173.5 189.5l25 -11q-10 -41 -15.5 -87t-7.5 -97q-113 -79 -200 -110t-184 -31q-232 0 -382.5 152t-185.5 425q-51 0 -170 -7q-17 -1 -26 -1z" />
<glyph unicode="&#x2122;" horiz-adv-x="1842" d="M285 1509v61h465v-61h-186v-511h-89v511h-190zM887 998v572h126l179 -455l169 455h125v-572h-77v504l-191 -504h-53l-201 504v-504h-77z" />
<glyph unicode="&#xe000;" horiz-adv-x="1058" d="M0 0v1058h1058v-1058h-1058z" />
</font>
</defs>
</svg>
